<?xml version="1.0" encoding="UTF-8" standalone="no"?>
<!-- Created with Inkscape (http://www.inkscape.org/) -->

<svg
   width="297mm"
   height="210mm"
   viewBox="0 0 297 210"
   version="1.1"
   id="svg17372"
   inkscape:version="1.2.2 (732a01da63, 2022-12-09)"
   sodipodi:docname="image26.svg"
   xmlns:inkscape="http://www.inkscape.org/namespaces/inkscape"
   xmlns:sodipodi="http://sodipodi.sourceforge.net/DTD/sodipodi-0.dtd"
   xmlns="http://www.w3.org/2000/svg"
   xmlns:svg="http://www.w3.org/2000/svg">
  <sodipodi:namedview
     id="namedview17374"
     pagecolor="#ffffff"
     bordercolor="#000000"
     borderopacity="0.25"
     inkscape:showpageshadow="2"
     inkscape:pageopacity="0.0"
     inkscape:pagecheckerboard="0"
     inkscape:deskcolor="#d1d1d1"
     inkscape:document-units="mm"
     showgrid="false"
     inkscape:zoom="1.829812"
     inkscape:cx="132.80053"
     inkscape:cy="315.33294"
     inkscape:window-width="2105"
     inkscape:window-height="1229"
     inkscape:window-x="550"
     inkscape:window-y="535"
     inkscape:window-maximized="0"
     inkscape:current-layer="layer1" />
  <defs
     id="defs17369" />
  <g
     inkscape:label="Layer 1"
     inkscape:groupmode="layer"
     id="layer1">
    <g
       id="g24863"
       inkscape:export-filename="img26b.png"
       inkscape:export-xdpi="96"
       inkscape:export-ydpi="96">
      <path
         fill="#ff5000"
         fill-opacity="1"
         stroke-linejoin="round"
         d="m 29.615203,105.36814 h 1.541598 v 0.30948 h -1.541598 z m 3.083195,0 h 1.553189 v 0.30948 h -1.553189 z m 3.094787,0 h 1.541597 v 0.30948 h -1.541597 z m 3.094786,0 h 1.541596 v 0.30948 h -1.541596 z m 3.083194,0 h 1.553189 v 0.30948 h -1.553189 z m 2.41092,0.98871 v 1.54508 H 44.08072 v -1.54508 z m 0,3.09015 v 1.54624 H 44.08072 V 109.447 Z m 0,3.09131 v 1.54508 H 44.08072 v -1.54508 z m 0,3.09131 v 1.54508 H 44.08072 v -1.54508 z m 0,3.09015 V 120.266 H 44.08072 v -1.54623 z m 0,3.09131 v 1.54507 H 44.08072 v -1.54507 z m 0,3.0913 v 1.54508 H 44.08072 v -1.54508 z m 0,3.09015 v 1.54624 H 44.08072 v -1.54624 z m 0,3.09131 v 1.54508 H 44.08072 v -1.54508 z m 0,3.09131 v 1.54508 H 44.08072 v -1.54508 z m 0,3.09015 v 1.54623 H 44.08072 v -1.54623 z m 0,3.09131 v 1.54507 H 44.08072 v -1.54507 z m 0,3.09131 v 1.54507 H 44.08072 v -1.54507 z m 0,3.09014 v 1.54624 H 44.08072 v -1.54624 z m 0,3.09131 v 1.54508 H 44.08072 v -1.54508 z m 0,3.09132 v 1.54507 H 44.08072 v -1.54507 z m 0,3.09014 v 1.54624 H 44.08072 v -1.54624 z m 0,3.09131 v 0.53783 0.0151 0.0151 0.0151 l -0.01162,0.014 v 0.0139 l -0.01162,0.0128 -0.01162,0.0128 -0.01162,0.0107 -0.01162,0.0107 -0.01162,0.009 -0.01162,0.008 -0.01162,0.006 -0.01162,0.006 -0.01162,0.004 -0.02319,0.002 h -0.01162 -1.008413 v -0.30831 h 1.008413 l -0.150683,0.15415 v -0.53782 z m -2.700693,0.69198 h -1.55319 v -0.30832 h 1.55319 z m -3.094786,0 h -1.541598 v -0.30832 h 1.541598 z m -3.094786,0 h -1.541598 v -0.30832 h 1.541598 z m -3.083196,0 h -1.553188 v -0.30832 h 1.553188 z m -3.094786,0 H 27.77224 v -0.30832 h 1.541598 z m -2.944104,-0.44973 v -1.54507 H 26.6711 v 1.54507 z m 0,-3.09014 v -1.54624 H 26.6711 v 1.54624 z m 0,-3.09132 v -1.54507 H 26.6711 v 1.54507 z m 0,-3.09131 v -1.54507 H 26.6711 v 1.54507 z m 0,-3.09014 v -1.54624 H 26.6711 v 1.54624 z m 0,-3.09131 V 142.1451 H 26.6711 v 1.54507 z m 0,-3.09131 v -1.54508 H 26.6711 v 1.54508 z m 0,-3.09015 v -1.54623 H 26.6711 v 1.54623 z m 0,-3.09131 v -1.54507 H 26.6711 v 1.54507 z m 0,-3.09131 v -1.54507 H 26.6711 v 1.54507 z m 0,-3.09015 v -1.54623 H 26.6711 v 1.54623 z m 0,-3.09131 v -1.54507 H 26.6711 v 1.54507 z m 0,-3.0913 v -1.54508 H 26.6711 v 1.54508 z m 0,-3.09015 v -1.54623 H 26.6711 v 1.54623 z m 0,-3.09131 V 114.3268 H 26.6711 v 1.54507 z m 0,-3.09131 v -1.54507 H 26.6711 v 1.54507 z m 0,-3.09015 v -1.54623 H 26.6711 v 1.54623 z m 0,-3.09131 v -1.07564 -0.0151 -0.0151 -0.0151 l 0.01162,-0.0139 v -0.0139 l 0.01162,-0.0127 0.01162,-0.0127 v -0.0116 l 0.01162,-0.009 0.01162,-0.009 0.02319,-0.008 0.01162,-0.006 0.01162,-0.006 0.01162,-0.003 0.02319,-0.002 0.01162,-0.001 h 1.541598 v 0.30948 h -1.541598 l 0.150683,-0.15416 v 1.07564 z"
         id="path10"
         style="stroke-width:0.11591"
         inkscape:export-filename="..\img26\img26b.png"
         inkscape:export-xdpi="96"
         inkscape:export-ydpi="96" />
      <path
         fill="#230fd2"
         fill-opacity="1"
         stroke-linejoin="round"
         d="m 26.045188,139.33544 h 1.541597 v 0.30948 h -1.541597 z m 3.083195,0 h 1.553188 v 0.30948 h -1.553188 z m 3.094786,0 h 1.541598 v 0.30948 h -1.541598 z m 3.094786,0 h 1.541598 v 0.30948 h -1.541598 z m 3.083196,0 h 1.553187 v 0.30948 h -1.553187 z m 3.094785,0 h 1.541597 v 0.30948 h -1.541597 z m 3.094786,0 h 1.541597 v 0.30948 h -1.541597 z m 3.083195,0 h 1.553189 v 0.30948 h -1.553189 z m 3.094786,0 h 1.541598 v 0.30948 h -1.541598 z m 3.094786,0 h 1.541598 v 0.30948 h -1.541598 z m 3.083196,0 h 1.553187 v 0.30948 h -1.553187 z m 3.094785,0 h 1.541597 v 0.30948 H 60.04147 Z m 3.094786,0 h 1.541598 v 0.30948 h -1.541598 z m 3.083195,0 h 1.553189 v 0.30948 h -1.553189 z m 3.094786,0 h 1.541598 v 0.30948 h -1.541598 z m 3.094786,0 h 1.541597 v 0.30948 h -1.541597 z m 3.083195,0 h 1.553188 v 0.30948 h -1.553188 z m 3.094786,0 h 1.541598 v 0.30948 h -1.541598 z m 3.094786,0 h 1.541598 v 0.30948 H 81.68179 Z m 3.083195,0 h 1.553189 v 0.30948 h -1.553189 z m 3.094786,0 h 1.541598 v 0.30948 h -1.541598 z m 3.094787,0 h 1.541596 v 0.30948 h -1.541596 z m 3.083194,0 h 1.553188 v 0.30948 h -1.553188 z m 2.480465,0.91917 v 1.54507 h -0.301365 v -1.54507 z m 0,3.09131 v 1.54508 h -0.301365 v -1.54508 z m 0,3.09015 v 1.54623 h -0.301365 v -1.54623 z m 0,3.09131 v 1.54507 h -0.301365 v -1.54507 z m 0,3.0913 v 1.54507 h -0.301365 v -1.54507 z m 0,3.09016 v 0.21095 0.0162 0.0139 0.0151 l -0.01162,0.014 v 0.0139 l -0.01162,0.014 -0.01162,0.0119 -0.01162,0.0118 -0.01162,0.0107 -0.01162,0.008 -0.01162,0.008 -0.01162,0.007 -0.01162,0.005 -0.01162,0.004 -0.02319,0.002 -0.01162,0.001 h -1.332959 v -0.30948 h 1.332959 l -0.150681,0.15416 v -0.21096 z m -3.02524,0.36627 h -1.553188 v -0.30948 h 1.553188 z m -3.094786,0 h -1.541597 v -0.30948 h 1.541597 z m -3.094786,0 h -1.541598 v -0.30948 h 1.541598 z m -3.083195,0 h -1.553189 v -0.30948 h 1.553189 z m -3.094787,0 h -1.541596 v -0.30948 h 1.541596 z m -3.094785,0 h -1.541597 v -0.30948 h 1.541597 z m -3.083195,0 h -1.553188 v -0.30948 h 1.553188 z m -3.094786,0 h -1.541598 v -0.30948 h 1.541598 z m -3.094786,0 h -1.541598 v -0.30948 h 1.541598 z m -3.083195,0 h -1.553189 v -0.30948 h 1.553189 z m -3.094785,0 h -1.541598 v -0.30948 h 1.541598 z m -3.094787,0 h -1.541597 v -0.30948 h 1.541597 z m -3.083195,0 h -1.553188 v -0.30948 h 1.553188 z m -3.094786,0 h -1.541598 v -0.30948 h 1.541598 z m -3.094786,0 h -1.541598 v -0.30948 h 1.541598 z m -3.083196,0 h -1.553188 v -0.30948 h 1.553188 z m -3.094785,0 h -1.541597 v -0.30948 h 1.541597 z m -3.094786,0 h -1.541597 v -0.30948 h 1.541597 z m -3.083195,0 h -1.553188 v -0.30948 h 1.553188 z m -3.094786,0 h -1.541598 v -0.30948 h 1.541598 z m -3.094786,0 h -1.541598 v -0.30948 h 1.541598 z m -3.083196,0 H 27.03042 v -0.30948 h 1.553187 z m -3.094785,0 h -1.541597 v -0.30948 h 1.541597 z m -2.689103,-0.70821 v -1.54507 h 0.301365 v 1.54507 z m 0,-3.0913 v -1.54509 h 0.301365 v 1.54509 z m 0,-3.09016 v -1.54624 h 0.301365 v 1.54624 z m 0,-3.09131 v -1.54507 h 0.301365 v 1.54507 z m 0,-3.0913 v -1.54508 h 0.301365 v 1.54508 z m 0,-3.09016 v -0.42307 -0.0151 -0.0151 -0.0139 l 0.01162,-0.0151 v -0.0139 l 0.01162,-0.0127 0.01162,-0.0116 0.01162,-0.0116 0.01162,-0.0104 0.01162,-0.009 0.01162,-0.007 0.01162,-0.007 0.01162,-0.005 0.01162,-0.005 0.02319,-0.001 0.01162,-0.001 h 1.541598 v 0.30947 h -1.541598 l 0.150682,-0.15531 v 0.42306 z"
         id="path12"
         style="stroke-width:0.11591" />
      <path
         fill="#006432"
         fill-opacity="1"
         stroke-linejoin="round"
         d="m 26.045188,108.33079 h 1.541597 v 0.30948 h -1.541597 z m 3.083195,0 h 1.553188 v 0.30948 h -1.553188 z m 3.094786,0 h 1.541598 v 0.30948 h -1.541598 z m 3.094786,0 h 1.541598 v 0.30948 h -1.541598 z m 3.083196,0 h 1.553187 v 0.30948 h -1.553187 z m 3.094785,0 h 1.541597 v 0.30948 h -1.541597 z m 3.094786,0 h 1.541597 v 0.30948 h -1.541597 z m 3.083195,0 h 1.553189 v 0.30948 h -1.553189 z m 3.094786,0 h 1.541598 v 0.30948 h -1.541598 z m 3.094786,0 h 1.541598 v 0.30948 h -1.541598 z m 3.083196,0 h 1.553187 v 0.30948 h -1.553187 z m 3.094785,0 h 1.541597 v 0.30948 H 60.04147 Z m 3.094786,0 h 1.541598 v 0.30948 h -1.541598 z m 3.083195,0 h 1.553189 v 0.30948 h -1.553189 z m 3.094786,0 h 1.541598 v 0.30948 h -1.541598 z m 3.094786,0 h 1.541597 v 0.30948 h -1.541597 z m 3.083195,0 h 1.553188 v 0.30948 h -1.553188 z m 3.094786,0 h 1.541598 v 0.30948 h -1.541598 z m 3.094786,0 h 1.541598 v 0.30948 H 81.68179 Z m 3.083195,0 h 1.553189 v 0.30948 h -1.553189 z m 3.094786,0 h 1.541598 v 0.30948 h -1.541598 z m 3.094787,0 h 1.541596 v 0.30948 h -1.541596 z m 3.083194,0 h 1.553188 v 0.30948 h -1.553188 z m 2.480465,0.91917 v 1.54507 h -0.301365 v -1.54507 z m 0,3.09131 v 1.54507 h -0.301365 v -1.54507 z m 0,3.09015 v 1.54623 h -0.301365 v -1.54623 z m 0,3.0913 v 1.54508 h -0.301365 v -1.54508 z m 0,3.09131 v 1.54508 h -0.301365 v -1.54508 z m 0,3.09015 v 0.21211 0.0151 0.0151 0.0139 l -0.01162,0.0151 v 0.0128 l -0.01162,0.0139 -0.01162,0.0116 -0.01162,0.0116 -0.01162,0.0104 -0.01162,0.008 -0.01162,0.008 -0.01162,0.007 -0.01162,0.005 -0.01162,0.003 -0.02319,0.002 -0.01162,10e-4 h -1.332959 v -0.30948 h 1.332959 l -0.150681,0.15532 v -0.21211 z m -3.02524,0.36627 h -1.553188 v -0.30948 h 1.553188 z m -3.094786,0 h -1.541597 v -0.30948 h 1.541597 z m -3.094786,0 h -1.541598 v -0.30948 h 1.541598 z m -3.083195,0 h -1.553189 v -0.30948 h 1.553189 z m -3.094787,0 h -1.541596 v -0.30948 h 1.541596 z m -3.094785,0 h -1.541597 v -0.30948 h 1.541597 z m -3.083195,0 h -1.553188 v -0.30948 h 1.553188 z m -3.094786,0 h -1.541598 v -0.30948 h 1.541598 z m -3.094786,0 h -1.541598 v -0.30948 h 1.541598 z m -3.083195,0 h -1.553189 v -0.30948 h 1.553189 z m -3.094785,0 h -1.541598 v -0.30948 h 1.541598 z m -3.094787,0 h -1.541597 v -0.30948 h 1.541597 z m -3.083195,0 h -1.553188 v -0.30948 h 1.553188 z m -3.094786,0 h -1.541598 v -0.30948 h 1.541598 z m -3.094786,0 h -1.541598 v -0.30948 h 1.541598 z m -3.083196,0 h -1.553188 v -0.30948 h 1.553188 z m -3.094785,0 h -1.541597 v -0.30948 h 1.541597 z m -3.094786,0 h -1.541597 v -0.30948 h 1.541597 z m -3.083195,0 h -1.553188 v -0.30948 h 1.553188 z m -3.094786,0 h -1.541598 v -0.30948 h 1.541598 z m -3.094786,0 h -1.541598 v -0.30948 h 1.541598 z m -3.083196,0 H 27.03042 v -0.30948 h 1.553187 z m -3.094785,0 h -1.541597 v -0.30948 h 1.541597 z m -2.689103,-0.7082 v -1.54508 h 0.301365 v 1.54508 z m 0,-3.09015 v -1.54623 h 0.301365 v 1.54623 z m 0,-3.09131 v -1.54507 h 0.301365 v 1.54507 z m 0,-3.09131 v -1.54507 h 0.301365 v 1.54507 z m 0,-3.09015 v -1.54623 h 0.301365 v 1.54623 z m 0,-3.09131 v -0.42307 -0.0151 -0.0151 -0.0139 l 0.01162,-0.0151 v -0.0139 l 0.01162,-0.0127 0.01162,-0.0116 0.01162,-0.0116 0.01162,-0.0104 0.01162,-0.009 0.01162,-0.007 0.01162,-0.007 0.01162,-0.005 0.01162,-0.003 0.02319,-0.002 0.01162,-0.001 h 1.541598 v 0.30948 h -1.541598 l 0.150682,-0.15532 v 0.42307 z"
         id="path3630"
         style="stroke-width:0.11591" />
      <rect
         x="29.070408"
         y="112.47456"
         fill="#ffffff"
         fill-opacity="1"
         stroke-width="0.309093"
         stroke-linejoin="round"
         stroke="#000000"
         stroke-opacity="1"
         width="12.236228"
         height="8.5311308"
         id="rect3632" />
      <text
         transform="scale(1.0371714,0.96416079)"
         xml:space="preserve"
         id="text3636"
         x="28.580439"
         y="122.7889"
         style="font-size:1.44262px;stroke-width:0.120218">		 <tspan
   style="font-size:5.89885px;font-family:'メイリオ'"
   letter-spacing="0em"
   fill="#000000"
   fill-opacity="1"
   stroke-width="0.0240436"
   stroke-linejoin="round"
   id="tspan3634">xy</tspan>	</text>
      <rect
         x="53.330257"
         y="112.47456"
         fill="#ffffff"
         fill-opacity="1"
         stroke-width="0.309093"
         stroke-linejoin="round"
         stroke="#000000"
         stroke-opacity="1"
         width="12.236112"
         height="8.5311308"
         id="rect3638" />
      <text
         transform="scale(1.0371714,0.96416079)"
         xml:space="preserve"
         id="text3642"
         x="52.160801"
         y="122.7889"
         style="font-size:1.44262px;stroke-width:0.120218">		 <tspan
   style="font-size:5.89885px;font-family:'メイリオ'"
   letter-spacing="0em"
   fill="#000000"
   fill-opacity="1"
   stroke-width="0.0240436"
   stroke-linejoin="round"
   id="tspan3640">yz</tspan>	</text>
      <rect
         x="78.007454"
         y="112.47456"
         fill="#ffffff"
         fill-opacity="1"
         stroke-width="0.309093"
         stroke-linejoin="round"
         stroke="#000000"
         stroke-opacity="1"
         width="12.236228"
         height="8.531188"
         id="rect3644" />
      <text
         transform="scale(1.0371714,0.96416079)"
         xml:space="preserve"
         id="text3648"
         x="73.282608"
         y="122.7889"
         style="font-size:1.44262px;stroke-width:0.120218">		 <tspan
   style="font-size:5.89885px;font-family:'メイリオ'"
   letter-spacing="0em"
   fill="#000000"
   fill-opacity="1"
   stroke-width="0.0240436"
   stroke-linejoin="round"
   id="tspan3646">yzw</tspan>	</text>
      <rect
         x="29.070408"
         y="143.75508"
         fill="#ffffff"
         fill-opacity="1"
         stroke-width="0.309093"
         stroke-linejoin="round"
         stroke="#000000"
         stroke-opacity="1"
         width="12.236112"
         height="8.5312357"
         id="rect3650" />
      <text
         transform="scale(1.0371714,0.96416079)"
         xml:space="preserve"
         id="text3654"
         x="28.580439"
         y="155.24783"
         style="font-size:1.44262px;stroke-width:0.120218">		 <tspan
   style="font-size:5.89885px;font-family:'メイリオ'"
   letter-spacing="0em"
   fill="#000000"
   fill-opacity="1"
   stroke-width="0.0240436"
   stroke-linejoin="round"
   id="tspan3652">xu</tspan>	</text>
      <rect
         x="53.330257"
         y="143.75508"
         fill="#ffffff"
         fill-opacity="1"
         stroke-width="0.309093"
         stroke-linejoin="round"
         stroke="#000000"
         stroke-opacity="1"
         width="12.236112"
         height="8.5312357"
         id="rect3656" />
      <text
         transform="scale(1.0371714,0.96416079)"
         xml:space="preserve"
         id="text3660"
         x="52.160801"
         y="155.24783"
         style="font-size:1.44262px;stroke-width:0.120218">		 <tspan
   style="font-size:5.89885px;font-family:'メイリオ'"
   letter-spacing="0em"
   fill="#000000"
   fill-opacity="1"
   stroke-width="0.0240436"
   stroke-linejoin="round"
   id="tspan3658">uv</tspan>	</text>
      <text
         transform="scale(1.0371714,0.96416079)"
         xml:space="preserve"
         id="text3664"
         x="52.966015"
         y="110.4362"
         style="font-size:1.44262px;stroke-width:0.120218">		 <tspan
   style="font-size:5.89885px;font-family:'メイリオ'"
   letter-spacing="0em"
   fill="#006432"
   fill-opacity="1"
   stroke-width="0.0240436"
   stroke-linejoin="round"
   id="tspan3662">ALS1(#xyzw)</tspan>	</text>
      <text
         transform="scale(1.0371714,0.96416079)"
         xml:space="preserve"
         id="text3668"
         x="52.826603"
         y="143.64616"
         style="font-size:1.44262px;stroke-width:0.120218">		 <tspan
   style="font-size:5.89885px;font-family:'メイリオ'"
   letter-spacing="0em"
   fill="#230fd2"
   fill-opacity="1"
   stroke-width="0.0240436"
   stroke-linejoin="round"
   id="tspan3666">ALS2(#xuv)</tspan>	</text>
      <rect
         x="17.888638"
         y="128.79115"
         fill="#ffffff"
         fill-opacity="1"
         stroke-width="0.023182"
         stroke-linejoin="round"
         width="29.910931"
         height="7.2673225"
         id="rect3670" />
      <text
         transform="scale(1.0371714,0.96416079)"
         xml:space="preserve"
         id="text3674"
         x="19.445709"
         y="139.49925"
         style="font-size:1.44262px;stroke-width:0.120218">		 <tspan
   style="font-size:5.89885px;font-family:'メイリオ'"
   letter-spacing="0em"
   fill="#ff5000"
   fill-opacity="1"
   stroke-width="0.0240436"
   stroke-linejoin="round"
   id="tspan3672">RCC(#x)</tspan>	</text>
    </g>
    <g
       id="g24898"
       inkscape:export-filename="img26c.png"
       inkscape:export-xdpi="96"
       inkscape:export-ydpi="96">
      <path
         fill="#ff5000"
         fill-opacity="1"
         stroke-linejoin="round"
         d="m 133.47019,105.36814 h 1.5416 v 0.30948 h -1.5416 z m 3.0832,0 h 1.55319 v 0.30948 h -1.55319 z m 3.09479,0 h 1.5416 v 0.30948 h -1.5416 z m 3.09478,0 h 1.5416 v 0.30948 h -1.5416 z m 3.0832,0 h 1.55319 v 0.30948 h -1.55319 z m 2.41092,0.98871 v 1.54508 h -0.30137 v -1.54508 z m 0,3.09015 v 1.54624 h -0.30137 V 109.447 Z m 0,3.09131 v 1.54508 h -0.30137 v -1.54508 z m 0,3.09131 v 1.54508 h -0.30137 v -1.54508 z m 0,3.09015 v 1.54623 h -0.30137 v -1.54623 z m 0,3.09131 v 1.54507 h -0.30137 v -1.54507 z m 0,3.0913 v 1.54508 h -0.30137 v -1.54508 z m 0,3.09015 v 1.54624 h -0.30137 v -1.54624 z m 0,3.09131 v 1.54508 h -0.30137 v -1.54508 z m 0,3.09131 v 1.54508 h -0.30137 v -1.54508 z m 0,3.09015 v 1.54623 h -0.30137 v -1.54623 z m 0,3.09131 v 1.54507 h -0.30137 v -1.54507 z m 0,3.09131 v 1.54507 h -0.30137 v -1.54507 z m 0,3.09014 v 1.54624 h -0.30137 v -1.54624 z m 0,3.09131 v 1.54508 h -0.30137 v -1.54508 z m 0,3.09132 v 1.54507 h -0.30137 v -1.54507 z m 0,3.09014 v 1.54624 h -0.30137 v -1.54624 z m 0,3.09131 v 0.53783 0.0151 0.0151 0.0151 l -0.0119,0.014 v 0.0139 l -0.0119,0.0128 -0.0118,0.0128 -0.0119,0.0107 -0.0119,0.0107 -0.0119,0.009 -0.0119,0.008 -0.0118,0.006 -0.0119,0.006 -0.0119,0.004 -0.0232,0.002 h -0.0119 -1.00842 v -0.30831 h 1.00842 l -0.15069,0.15415 v -0.53782 z m -2.7007,0.69198 h -1.55319 v -0.30832 h 1.55319 z m -3.09478,0 H 140.9 v -0.30832 h 1.5416 z m -3.09479,0 h -1.5416 v -0.30832 h 1.5416 z m -3.08319,0 h -1.55319 v -0.30832 h 1.55319 z m -3.09479,0 h -1.5416 v -0.30832 h 1.5416 z m -2.9441,-0.44973 v -1.54507 h 0.30136 v 1.54507 z m 0,-3.09014 v -1.54624 h 0.30136 v 1.54624 z m 0,-3.09132 v -1.54507 h 0.30136 v 1.54507 z m 0,-3.09131 v -1.54507 h 0.30136 v 1.54507 z m 0,-3.09014 v -1.54624 h 0.30136 v 1.54624 z m 0,-3.09131 v -1.54507 h 0.30136 v 1.54507 z m 0,-3.09131 v -1.54508 h 0.30136 v 1.54508 z m 0,-3.09015 v -1.54623 h 0.30136 v 1.54623 z m 0,-3.09131 v -1.54507 h 0.30136 v 1.54507 z m 0,-3.09131 v -1.54507 h 0.30136 v 1.54507 z m 0,-3.09015 v -1.54623 h 0.30136 v 1.54623 z m 0,-3.09131 v -1.54507 h 0.30136 v 1.54507 z m 0,-3.0913 v -1.54508 h 0.30136 v 1.54508 z m 0,-3.09015 v -1.54623 h 0.30136 v 1.54623 z m 0,-3.09131 v -1.54507 h 0.30136 v 1.54507 z m 0,-3.09131 v -1.54507 h 0.30136 v 1.54507 z m 0,-3.09015 v -1.54623 h 0.30136 v 1.54623 z m 0,-3.09131 v -1.07564 -0.0151 -0.0151 -0.0151 l 0.0119,-0.0139 v -0.0139 l 0.0119,-0.0127 0.0118,-0.0127 v -0.0116 l 0.0119,-0.009 0.0118,-0.009 0.0232,-0.008 0.0119,-0.006 0.0119,-0.006 0.0119,-0.003 0.0232,-0.002 0.0119,-0.001 h 1.5416 v 0.30948 h -1.54159 l 0.15068,-0.15416 v 1.07564 z"
         id="path3676"
         style="stroke-width:0.11591"
         inkscape:export-filename="..\img26\img26c.png"
         inkscape:export-xdpi="96"
         inkscape:export-ydpi="96" />
      <path
         fill="#230fd2"
         fill-opacity="1"
         stroke-linejoin="round"
         d="m 129.90019,139.33544 h 1.54158 v 0.30948 h -1.54158 z m 3.08318,0 h 1.5532 v 0.30948 h -1.5532 z m 3.09479,0 h 1.5416 v 0.30948 h -1.5416 z m 3.0948,0 h 1.54158 v 0.30948 h -1.54158 z m 3.08318,0 h 1.5532 v 0.30948 h -1.5532 z m 3.09479,0 h 1.54159 v 0.30948 h -1.54159 z m 3.09478,0 h 1.5416 v 0.30948 h -1.5416 z m 3.0832,0 h 1.5532 v 0.30948 h -1.5532 z m 3.09478,0 h 1.5416 v 0.30948 h -1.5416 z m 3.09479,0 h 1.5416 v 0.30948 h -1.5416 z m 3.0832,0 h 1.55318 v 0.30948 h -1.55318 z m 3.09478,0 h 1.5416 v 0.30948 h -1.5416 z m 3.09478,0 h 1.5416 v 0.30948 h -1.5416 z m 3.0832,0 h 1.55319 v 0.30948 h -1.55319 z m 3.09479,0 h 1.5416 v 0.30948 h -1.5416 z m 3.09478,0 h 1.5416 v 0.30948 h -1.5416 z m 3.0832,0 h 1.55319 v 0.30948 h -1.55319 z m 3.09478,0 h 1.5416 v 0.30948 h -1.5416 z m 3.09479,0 h 1.5416 v 0.30948 h -1.5416 z m 3.0832,0 h 1.55319 v 0.30948 h -1.55319 z m 3.09478,0 h 1.5416 v 0.30948 h -1.5416 z m 3.09479,0 h 1.5416 v 0.30948 h -1.5416 z m 3.08319,0 h 1.55319 v 0.30948 h -1.55319 z m 2.48047,0.91917 v 1.54507 h -0.30136 v -1.54507 z m 0,3.09131 v 1.54508 h -0.30136 v -1.54508 z m 0,3.09015 v 1.54623 h -0.30136 v -1.54623 z m 0,3.09131 v 1.54507 h -0.30136 v -1.54507 z m 0,3.0913 v 1.54507 h -0.30136 v -1.54507 z m 0,3.09016 v 0.21095 0.0162 0.0151 0.0139 l -0.0119,0.0151 v 0.0128 l -0.0119,0.0139 -0.0119,0.0119 -0.0118,0.0119 -0.0119,0.0107 -0.0119,0.008 -0.0119,0.008 -0.0119,0.007 -0.0118,0.005 -0.0119,0.004 -0.0232,0.002 -0.0119,0.001 h -1.33296 v -0.30948 h 1.33296 l -0.15068,0.15416 v -0.21096 z m -3.02525,0.36627 h -1.55318 v -0.30948 h 1.55318 z m -3.09478,0 h -1.5416 v -0.30948 h 1.5416 z m -3.09479,0 h -1.54158 v -0.30948 h 1.54158 z m -3.08318,0 h -1.5532 v -0.30948 h 1.5532 z m -3.0948,0 h -1.54158 v -0.30948 h 1.54158 z m -3.09478,0 h -1.54159 v -0.30948 h 1.54159 z m -3.08319,0 h -1.5532 v -0.30948 h 1.5532 z m -3.0948,0 h -1.54158 v -0.30948 h 1.54158 z m -3.09478,0 h -1.54159 v -0.30948 h 1.54159 z m -3.08319,0 h -1.55318 v -0.30948 h 1.55318 z m -3.09478,0 h -1.5416 v -0.30948 h 1.5416 z m -3.0948,0 h -1.54159 v -0.30948 h 1.54159 z m -3.08319,0 h -1.55318 v -0.30948 h 1.55318 z m -3.09478,0 h -1.5416 v -0.30948 h 1.5416 z m -3.09478,0 h -1.5416 v -0.30948 h 1.5416 z m -3.0832,0 h -1.55319 v -0.30948 h 1.55319 z m -3.09479,0 h -1.5416 v -0.30948 h 1.5416 z m -3.09478,0 h -1.5416 v -0.30948 h 1.5416 z m -3.0832,0 h -1.55319 v -0.30948 h 1.55319 z m -3.09478,0 h -1.5416 v -0.30948 h 1.5416 z m -3.09479,0 h -1.5416 v -0.30948 h 1.5416 z m -3.0832,0 h -1.55318 v -0.30948 h 1.55318 z m -3.09478,0 h -1.5416 v -0.30948 h 1.5416 z m -2.68911,-0.70821 v -1.54507 h 0.30136 v 1.54507 z m 0,-3.0913 v -1.54509 h 0.30136 v 1.54509 z m 0,-3.09016 v -1.54624 h 0.30136 v 1.54624 z m 0,-3.09131 v -1.54507 h 0.30136 v 1.54507 z m 0,-3.0913 v -1.54508 h 0.30136 v 1.54508 z m 0,-3.09016 v -0.42307 -0.0151 -0.0151 -0.0139 l 0.0119,-0.0151 v -0.0139 l 0.0119,-0.0127 0.0119,-0.0116 0.0119,-0.0116 0.0119,-0.0104 0.0119,-0.009 0.0119,-0.007 0.0119,-0.007 0.0119,-0.005 0.0119,-0.005 0.0231,-0.001 0.0119,-0.001 h 1.5416 v 0.30947 h -1.5416 l 0.15068,-0.15531 v 0.42306 z"
         id="path3678"
         style="stroke-width:0.11591" />
      <path
         fill="#006432"
         fill-opacity="1"
         stroke-linejoin="round"
         d="m 129.90019,108.33079 h 1.54158 v 0.30948 h -1.54158 z m 3.08318,0 h 1.5532 v 0.30948 h -1.5532 z m 3.09479,0 h 1.5416 v 0.30948 h -1.5416 z m 3.0948,0 h 1.54158 v 0.30948 h -1.54158 z m 3.08318,0 h 1.5532 v 0.30948 h -1.5532 z m 3.09479,0 h 1.54159 v 0.30948 h -1.54159 z m 3.09478,0 h 1.5416 v 0.30948 h -1.5416 z m 3.0832,0 h 1.5532 v 0.30948 h -1.5532 z m 3.09478,0 h 1.5416 v 0.30948 h -1.5416 z m 3.09479,0 h 1.5416 v 0.30948 h -1.5416 z m 3.0832,0 h 1.55318 v 0.30948 h -1.55318 z m 3.09478,0 h 1.5416 v 0.30948 h -1.5416 z m 3.09478,0 h 1.5416 v 0.30948 h -1.5416 z m 3.0832,0 h 1.55319 v 0.30948 h -1.55319 z m 3.09479,0 h 1.5416 v 0.30948 h -1.5416 z m 3.09478,0 h 1.5416 v 0.30948 h -1.5416 z m 3.0832,0 h 1.55319 v 0.30948 h -1.55319 z m 3.09478,0 h 1.5416 v 0.30948 h -1.5416 z m 3.09479,0 h 1.5416 v 0.30948 h -1.5416 z m 3.0832,0 h 1.55319 v 0.30948 h -1.55319 z m 3.09478,0 h 1.5416 v 0.30948 h -1.5416 z m 3.09479,0 h 1.5416 v 0.30948 h -1.5416 z m 3.08319,0 h 1.55319 v 0.30948 h -1.55319 z m 2.48047,0.91917 v 1.54507 h -0.30136 v -1.54507 z m 0,3.09131 v 1.54507 h -0.30136 v -1.54507 z m 0,3.09015 v 1.54623 h -0.30136 v -1.54623 z m 0,3.0913 v 1.54508 h -0.30136 v -1.54508 z m 0,3.09131 v 1.54508 h -0.30136 v -1.54508 z m 0,3.09015 v 0.21211 0.0151 0.0151 0.0139 l -0.0119,0.0151 v 0.0128 l -0.0119,0.0139 -0.0119,0.0116 -0.0118,0.0116 -0.0119,0.0104 -0.0119,0.008 -0.0119,0.008 -0.0119,0.007 -0.0118,0.005 -0.0119,0.003 -0.0232,0.002 -0.0119,10e-4 h -1.33296 v -0.30948 h 1.33296 l -0.15068,0.15532 v -0.21211 z m -3.02525,0.36627 h -1.55318 v -0.30948 h 1.55318 z m -3.09478,0 h -1.5416 v -0.30948 h 1.5416 z m -3.09479,0 h -1.54158 v -0.30948 h 1.54158 z m -3.08318,0 h -1.5532 v -0.30948 h 1.5532 z m -3.0948,0 h -1.54158 v -0.30948 h 1.54158 z m -3.09478,0 h -1.54159 v -0.30948 h 1.54159 z m -3.08319,0 h -1.5532 v -0.30948 h 1.5532 z m -3.0948,0 h -1.54158 v -0.30948 h 1.54158 z m -3.09478,0 h -1.54159 v -0.30948 h 1.54159 z m -3.08319,0 h -1.55318 v -0.30948 h 1.55318 z m -3.09478,0 h -1.5416 v -0.30948 h 1.5416 z m -3.0948,0 h -1.54159 v -0.30948 h 1.54159 z m -3.08319,0 h -1.55318 v -0.30948 h 1.55318 z m -3.09478,0 h -1.5416 v -0.30948 h 1.5416 z m -3.09478,0 h -1.5416 v -0.30948 h 1.5416 z m -3.0832,0 h -1.55319 v -0.30948 h 1.55319 z m -3.09479,0 h -1.5416 v -0.30948 h 1.5416 z m -3.09478,0 h -1.5416 v -0.30948 h 1.5416 z m -3.0832,0 h -1.55319 v -0.30948 h 1.55319 z m -3.09478,0 h -1.5416 v -0.30948 h 1.5416 z m -3.09479,0 h -1.5416 v -0.30948 h 1.5416 z m -3.0832,0 h -1.55318 v -0.30948 h 1.55318 z m -3.09478,0 h -1.5416 v -0.30948 h 1.5416 z m -2.68911,-0.7082 v -1.54508 h 0.30136 v 1.54508 z m 0,-3.09015 v -1.54623 h 0.30136 v 1.54623 z m 0,-3.09131 v -1.54507 h 0.30136 v 1.54507 z m 0,-3.09131 v -1.54507 h 0.30136 v 1.54507 z m 0,-3.09015 v -1.54623 h 0.30136 v 1.54623 z m 0,-3.09131 v -0.42307 -0.0151 -0.0151 -0.0139 l 0.0119,-0.0151 v -0.0127 l 0.0119,-0.0139 0.0119,-0.0116 0.0119,-0.0116 0.0119,-0.0104 0.0119,-0.008 0.0119,-0.008 0.0119,-0.007 0.0119,-0.005 0.0119,-0.003 0.0231,-0.002 0.0119,-0.001 h 1.5416 v 0.30948 h -1.5416 l 0.15068,-0.15532 v 0.42307 z"
         id="path3680"
         style="stroke-width:0.11591" />
      <rect
         x="132.9254"
         y="112.47456"
         fill="#ffffff"
         fill-opacity="1"
         stroke-width="0.309093"
         stroke-linejoin="round"
         stroke="#000000"
         stroke-opacity="1"
         width="12.236112"
         height="8.531188"
         id="rect3682" />
      <text
         transform="scale(1.0371714,0.96416079)"
         xml:space="preserve"
         id="text3686"
         x="126.47819"
         y="122.7889"
         style="font-size:1.44262px;stroke-width:0.120218">		 <tspan
   style="font-size:5.89885px;font-family:'メイリオ'"
   letter-spacing="0em"
   fill="#000000"
   fill-opacity="1"
   stroke-width="0.0240436"
   stroke-linejoin="round"
   id="tspan3684">xzw</tspan>	</text>
      <rect
         x="157.18526"
         y="112.47456"
         fill="#ffffff"
         fill-opacity="1"
         stroke-width="0.309093"
         stroke-linejoin="round"
         stroke="#000000"
         stroke-opacity="1"
         width="12.236112"
         height="8.531188"
         id="rect3688" />
      <text
         transform="scale(1.0371714,0.96416079)"
         xml:space="preserve"
         id="text3692"
         x="150.05862"
         y="122.7889"
         style="font-size:1.44262px;stroke-width:0.120218">		 <tspan
   style="font-size:5.89885px;font-family:'メイリオ'"
   letter-spacing="0em"
   fill="#000000"
   fill-opacity="1"
   stroke-width="0.0240436"
   stroke-linejoin="round"
   id="tspan3690">yzw</tspan>	</text>
      <rect
         x="181.86244"
         y="112.47456"
         fill="#ffffff"
         fill-opacity="1"
         stroke-width="0.309093"
         stroke-linejoin="round"
         stroke="#000000"
         stroke-opacity="1"
         width="12.236228"
         height="8.5312357"
         id="rect3694" />
      <text
         transform="scale(1.0371714,0.96416079)"
         xml:space="preserve"
         id="text3698"
         x="174.9801"
         y="122.7889"
         style="font-size:1.44262px;stroke-width:0.120218">		 <tspan
   style="font-size:5.89885px;font-family:'メイリオ'"
   letter-spacing="0em"
   fill="#000000"
   fill-opacity="1"
   stroke-width="0.0240436"
   stroke-linejoin="round"
   id="tspan3696">zw</tspan>	</text>
      <rect
         x="132.9254"
         y="143.75508"
         fill="#ffffff"
         fill-opacity="1"
         stroke-width="0.309093"
         stroke-linejoin="round"
         stroke="#000000"
         stroke-opacity="1"
         width="12.236112"
         height="8.531188"
         id="rect3700" />
      <text
         transform="scale(1.0371714,0.96416079)"
         xml:space="preserve"
         id="text3704"
         x="128.71326"
         y="155.24783"
         style="font-size:1.44262px;stroke-width:0.120218">		 <tspan
   style="font-size:5.89885px;font-family:'メイリオ'"
   letter-spacing="0em"
   fill="#000000"
   fill-opacity="1"
   stroke-width="0.0240436"
   stroke-linejoin="round"
   id="tspan3702">xu</tspan>	</text>
      <rect
         x="157.18526"
         y="143.75508"
         fill="#ffffff"
         fill-opacity="1"
         stroke-width="0.309093"
         stroke-linejoin="round"
         stroke="#000000"
         stroke-opacity="1"
         width="12.236228"
         height="8.531188"
         id="rect3706" />
      <text
         transform="scale(1.0371714,0.96416079)"
         xml:space="preserve"
         id="text3710"
         x="152.29375"
         y="155.24783"
         style="font-size:1.44262px;stroke-width:0.120218">		 <tspan
   style="font-size:5.89885px;font-family:'メイリオ'"
   letter-spacing="0em"
   fill="#000000"
   fill-opacity="1"
   stroke-width="0.0240436"
   stroke-linejoin="round"
   id="tspan3708">yu</tspan>	</text>
      <text
         transform="scale(1.0371714,0.96416079)"
         xml:space="preserve"
         id="text3714"
         x="166.35966"
         y="110.45634"
         style="font-size:1.44262px;stroke-width:0.120218">		 <tspan
   style="font-size:5.89885px;font-family:'メイリオ'"
   letter-spacing="0em"
   fill="#006432"
   fill-opacity="1"
   stroke-width="0.0240436"
   stroke-linejoin="round"
   id="tspan3712">ALS1(#xyzw)</tspan>	</text>
      <text
         transform="scale(1.0371714,0.96416079)"
         xml:space="preserve"
         id="text3718"
         x="169.90857"
         y="143.61502"
         style="font-size:1.44262px;stroke-width:0.120218">		 <tspan
   style="font-size:5.89885px;font-family:'メイリオ'"
   letter-spacing="0em"
   fill="#230fd2"
   fill-opacity="1"
   stroke-width="0.0240436"
   stroke-linejoin="round"
   id="tspan3716">ALS2(#xyu)</tspan>	</text>
      <path
         fill="#ff0000"
         fill-opacity="1"
         stroke-linejoin="round"
         d="m 157.09257,105.36814 h 1.5416 v 0.30948 h -1.5416 z m 3.0832,0 h 1.55319 v 0.30948 h -1.55319 z m 3.09478,0 h 1.54161 v 0.30948 h -1.54161 z m 3.09479,0 h 1.5416 v 0.30948 h -1.5416 z m 3.0832,0 h 1.55318 v 0.30948 h -1.55318 z m 2.41091,0.98871 v 1.54508 h -0.30137 v -1.54508 z m 0,3.09015 v 1.54624 h -0.30137 V 109.447 Z m 0,3.09131 v 1.54508 h -0.30137 v -1.54508 z m 0,3.09131 v 1.54508 h -0.30137 v -1.54508 z m 0,3.09015 v 1.54623 h -0.30137 v -1.54623 z m 0,3.09131 v 1.54507 h -0.30137 v -1.54507 z m 0,3.0913 v 1.54508 h -0.30137 v -1.54508 z m 0,3.09015 v 1.54624 h -0.30137 v -1.54624 z m 0,3.09131 v 1.54508 h -0.30137 v -1.54508 z m 0,3.09131 v 1.54508 h -0.30137 v -1.54508 z m 0,3.09015 v 1.54623 h -0.30137 v -1.54623 z m 0,3.09131 v 1.54507 h -0.30137 v -1.54507 z m 0,3.09131 v 1.54507 h -0.30137 v -1.54507 z m 0,3.09014 v 1.54624 h -0.30137 v -1.54624 z m 0,3.09131 v 1.54508 h -0.30137 v -1.54508 z m 0,3.09132 v 1.54507 h -0.30137 v -1.54507 z m 0,3.09014 v 1.54624 h -0.30137 v -1.54624 z m 0,3.09131 v 0.53783 0.0151 0.0151 0.0151 l -0.0119,0.014 v 0.0139 l -0.0118,0.0128 -0.0119,0.0128 -0.0119,0.0107 -0.0119,0.0107 -0.0119,0.009 -0.0119,0.008 -0.0119,0.006 -0.0119,0.006 -0.0119,0.004 -0.0232,0.002 h -0.0119 -1.00841 v -0.30831 h 1.00841 l -0.15068,0.15415 v -0.53782 z m -2.70069,0.69198 h -1.55319 v -0.30832 h 1.55319 z m -3.09478,0 h -1.5416 v -0.30832 h 1.5416 z m -3.09479,0 h -1.5416 v -0.30832 h 1.5416 z m -3.0832,0 h -1.55318 v -0.30832 h 1.55318 z m -3.09478,0 h -1.5416 v -0.30832 h 1.5416 z m -2.94411,-0.44973 v -1.54507 h 0.30137 v 1.54507 z m 0,-3.09014 v -1.54624 h 0.30137 v 1.54624 z m 0,-3.09132 v -1.54507 h 0.30137 v 1.54507 z m 0,-3.09131 v -1.54507 h 0.30137 v 1.54507 z m 0,-3.09014 v -1.54624 h 0.30137 v 1.54624 z m 0,-3.09131 v -1.54507 h 0.30137 v 1.54507 z m 0,-3.09131 v -1.54508 h 0.30137 v 1.54508 z m 0,-3.09015 v -1.54623 h 0.30137 v 1.54623 z m 0,-3.09131 v -1.54507 h 0.30137 v 1.54507 z m 0,-3.09131 v -1.54507 h 0.30137 v 1.54507 z m 0,-3.09015 v -1.54623 h 0.30137 v 1.54623 z m 0,-3.09131 v -1.54507 h 0.30137 v 1.54507 z m 0,-3.0913 v -1.54508 h 0.30137 v 1.54508 z m 0,-3.09015 v -1.54623 h 0.30137 v 1.54623 z m 0,-3.09131 v -1.54507 h 0.30137 v 1.54507 z m 0,-3.09131 v -1.54507 h 0.30137 v 1.54507 z m 0,-3.09015 v -1.54623 h 0.30137 v 1.54623 z m 0,-3.09131 v -1.07564 -0.0151 -0.0151 -0.0151 l 0.0118,-0.0139 v -0.0139 l 0.0119,-0.0127 0.0119,-0.0127 v -0.0116 l 0.0118,-0.009 0.0119,-0.009 0.0232,-0.008 0.0119,-0.006 0.0119,-0.006 0.0118,-0.003 0.0231,-0.002 0.0119,-0.001 h 1.5416 v 0.30948 h -1.5416 l 0.1507,-0.15416 v 1.07564 z"
         id="path3720"
         style="stroke-width:0.11591" />
      <rect
         x="121.16058"
         y="126.72912"
         fill="#ffffff"
         fill-opacity="1"
         stroke-width="0.0231819"
         stroke-linejoin="round"
         width="56.679901"
         height="7.2673221"
         id="rect3722" />
      <text
         transform="scale(1.0371715,0.96416074)"
         xml:space="preserve"
         id="text3726"
         x="117.79057"
         y="137.29324"
         style="font-size:1.44262px;stroke-width:0.120218">			 <tspan
   style="font-size:5.89887px;font-family:'メイリオ'"
   letter-spacing="0em"
   fill="#ff5000"
   fill-opacity="1"
   stroke-width="0.0240436"
   stroke-linejoin="round"
   id="tspan3724">RCC(#x)</tspan>		</text>
      <text
         transform="scale(1.0371715,0.96416074)"
         xml:space="preserve"
         id="text3730"
         x="145.95294"
         y="137.29324"
         style="font-size:1.44262px;stroke-width:0.120218">			 <tspan
   style="font-size:5.89887px;font-family:'メイリオ'"
   letter-spacing="0em"
   fill="#ff0000"
   fill-opacity="1"
   stroke-width="0.0240436"
   stroke-linejoin="round"
   id="tspan3728">RCC(#y)</tspan>		</text>
    </g>
    <path
       fill="#000000"
       fill-opacity="1"
       stroke-linejoin="round"
       d="m 222.98379,36.891878 h 1.55319 v 0.30833 h -1.55319 z m 3.09479,0 h 1.54159 v 0.30833 h -1.54159 z m 3.09478,0 h 1.5416 v 0.30833 h -1.5416 z m 3.0832,0 h 1.55318 v 0.30833 h -1.55318 z m 2.63114,0.77196 v 1.54623 h -0.31295 v -1.54623 z m 0,3.09131 v 1.54508 h -0.31295 v -1.54508 z m 0,3.0913 v 1.54509 h -0.31295 v -1.54509 z m 0,3.09016 v 1.54623 h -0.31295 v -1.54623 z m 0,3.09131 v 1.54507 h -0.31295 v -1.54507 z m -1.39091,2.00871 h -1.5416 v -0.30831 h 1.5416 z m -3.09479,0 h -1.5416 v -0.30831 h 1.5416 z m -3.08319,0 h -1.55319 v -0.30831 h 1.55319 z m -3.09479,0 h -1.5416 v -0.30831 h 1.5416 z m -3.09478,0 h -1.22865 -0.0232 l -0.0116,-0.002 -0.0116,-0.005 -0.0116,-0.005 -0.0232,-0.007 -0.0116,-0.007 -0.0116,-0.009 -0.0116,-0.0107 -0.0116,-0.0119 v -0.0119 l -0.0116,-0.0128 -0.0116,-0.0139 v -0.0139 -0.0151 l -0.0116,-0.0151 v -0.0151 -0.30948 h 0.31296 v 0.30948 l -0.15068,-0.15416 h 1.22867 z m -1.39092,-2.00871 v -1.54508 h 0.31296 v 1.54508 z m 0,-3.09131 v -1.54507 h 0.31296 v 1.54507 z m 0,-3.09016 v -1.54622 h 0.31296 v 1.54622 z m 0,-3.0913 v -1.54508 h 0.31296 v 1.54508 z m 0,-3.09131 v -0.6178 -0.0151 l 0.0116,-0.0151 v -0.015 -0.0139 l 0.0116,-0.014 0.0116,-0.0128 v -0.0127 l 0.0116,-0.0107 0.0116,-0.0107 0.0116,-0.009 0.0116,-0.008 0.0232,-0.006 0.0116,-0.006 0.0116,-0.004 0.0116,-0.002 h 0.0232 1.5416 v 0.30832 h -1.5416 l 0.15068,-0.15415 v 0.6178 z"
       id="path3734"
       style="stroke-width:0.11591"
       inkscape:export-filename="..\img26\img26d.png"
       inkscape:export-xdpi="96"
       inkscape:export-ydpi="96" />
    <path
       fill="#000000"
       fill-opacity="1"
       stroke-linejoin="round"
       d="m 195.47844,37.161948 h 1.5416 v 0.30948 h -1.5416 z m 3.09479,0 h 1.5416 v 0.30948 h -1.5416 z m 3.08319,0 h 1.55319 v 0.30948 h -1.55319 z m 3.09479,0 h 1.5416 v 0.30948 h -1.5416 z m 2.63115,0.77312 v 1.54508 h -0.31296 v -1.54508 z m 0,3.09015 v 1.54624 h -0.31296 v -1.54624 z m 0,3.09131 v 1.54507 h -0.31296 v -1.54507 z m 0,3.09131 v 1.54507 h -0.31296 v -1.54507 z m 0,3.09014 v 1.54625 h -0.31296 v -1.54625 z m -1.39092,2.00988 h -1.55318 v -0.30948 h 1.55318 z m -3.09478,0 h -1.5416 v -0.30948 h 1.5416 z m -3.09479,0 h -1.5416 v -0.30948 h 1.5416 z m -3.08319,0 h -1.55319 v -0.30948 h 1.55319 z m -3.09479,0 h -1.24023 l -0.0116,-0.001 -0.0116,-0.002 -0.0232,-0.004 -0.0116,-0.006 -0.0116,-0.006 -0.0116,-0.008 -0.0116,-0.009 -0.0116,-0.0107 -0.0116,-0.0107 -0.0116,-0.0128 v -0.0128 l -0.0116,-0.0139 v -0.014 l -0.0116,-0.0151 v -0.0151 -0.0151 -0.30832 h 0.31295 v 0.30832 l -0.16227,-0.15417 h 1.24023 z m -1.39092,-2.00988 v -1.54507 h 0.31296 v 1.54507 z m 0,-3.09014 v -1.54624 h 0.31296 v 1.54624 z m 0,-3.09131 v -1.54507 h 0.31296 v 1.54507 z m 0,-3.09131 v -1.54507 h 0.31296 v 1.54507 z m 0,-3.09015 v -0.61895 -0.0151 -0.0151 l 0.0116,-0.0139 v -0.0151 l 0.0116,-0.014 v -0.0128 l 0.0116,-0.0118 0.0116,-0.0119 0.0116,-0.0107 0.0116,-0.009 0.0116,-0.007 0.0116,-0.007 0.0116,-0.005 0.0232,-0.005 0.0116,-0.002 h 0.0116 1.55319 v 0.30948 h -1.55319 l 0.16228,-0.15532 v 0.61896 z"
       id="path3736"
       style="stroke-width:0.11591" />
    <path
       fill="#000000"
       fill-opacity="1"
       stroke-width="0.309093"
       stroke-linejoin="round"
       stroke="#000000"
       stroke-opacity="1"
       d="m 201.65642,39.210068 c 1.0316,0 1.85456,0.82992 1.85456,1.85456 0,1.02348 -0.82296,1.85455 -1.85456,1.85455 -1.02,0 -1.85455,-0.83107 -1.85455,-1.85455 0,-1.02464 0.83455,-1.85456 1.85455,-1.85456 z"
       id="path3738" />
    <path
       fill="#000000"
       fill-opacity="1"
       stroke-width="0.309093"
       stroke-linejoin="round"
       stroke="#000000"
       stroke-opacity="1"
       d="m 223.91107,39.210068 c 1.03159,0 1.85455,0.82992 1.85455,1.85456 0,1.02348 -0.82296,1.85455 -1.85455,1.85455 -1.02001,0 -1.85456,-0.83107 -1.85456,-1.85455 0,-1.02464 0.83455,-1.85456 1.85456,-1.85456 z"
       id="path3740" />
    <path
       fill="#000000"
       fill-opacity="1"
       stroke-width="0.309093"
       stroke-linejoin="round"
       stroke="#000000"
       stroke-opacity="1"
       d="m 197.94732,46.628288 c 1.03159,0 1.85455,0.82991 1.85455,1.85455 0,1.02349 -0.82296,1.85456 -1.85455,1.85456 -1.02001,0 -1.85456,-0.83107 -1.85456,-1.85456 0,-1.02464 0.83455,-1.85455 1.85456,-1.85455 z"
       id="path3742" />
    <path
       fill="#000000"
       fill-opacity="1"
       stroke-width="0.309093"
       stroke-linejoin="round"
       stroke="#000000"
       stroke-opacity="1"
       d="m 231.32928,46.628288 c 1.03159,0 1.85455,0.82991 1.85455,1.85455 0,1.02349 -0.82296,1.85456 -1.85455,1.85456 -1.02,0 -1.85455,-0.83107 -1.85455,-1.85456 0,-1.02464 0.83455,-1.85455 1.85455,-1.85455 z"
       id="path3744" />
    <path
       fill="#000000"
       fill-opacity="1"
       stroke-width="0.309093"
       stroke-linejoin="round"
       stroke="#000000"
       stroke-opacity="1"
       d="m 246.16571,65.173818 c 1.03159,0 1.85455,0.82992 1.85455,1.85456 0,1.02348 -0.82296,1.85456 -1.85455,1.85456 -1.02001,0 -1.85456,-0.83108 -1.85456,-1.85456 0,-1.02464 0.83455,-1.85456 1.85456,-1.85456 z"
       id="path3746" />
    <path
       fill="#000000"
       fill-opacity="1"
       stroke-width="0.309093"
       stroke-linejoin="round"
       stroke="#000000"
       stroke-opacity="1"
       d="m 249.87481,72.592038 c 1.0316,0 1.85456,0.82992 1.85456,1.85455 0,1.02349 -0.82296,1.85455 -1.85456,1.85455 -1.02,0 -1.85455,-0.83106 -1.85455,-1.85455 0,-1.02463 0.83455,-1.85455 1.85455,-1.85455 z"
       id="path3748" />
    <path
       fill="#000000"
       fill-opacity="1"
       stroke-width="0.309093"
       stroke-linejoin="round"
       stroke="#000000"
       stroke-opacity="1"
       d="m 242.4566,72.592038 c 1.03159,0 1.85455,0.82992 1.85455,1.85455 0,1.02349 -0.82296,1.85455 -1.85455,1.85455 -1.02,0 -1.85455,-0.83106 -1.85455,-1.85455 0,-1.02463 0.83455,-1.85455 1.85455,-1.85455 z"
       id="path3750" />
    <path
       fill="#000000"
       fill-opacity="1"
       stroke-width="0.309093"
       stroke-linejoin="round"
       stroke="#000000"
       stroke-opacity="1"
       d="m 205.36553,72.592038 c 1.0316,0 1.85456,0.82992 1.85456,1.85455 0,1.02349 -0.82296,1.85455 -1.85456,1.85455 -1.02,0 -1.85455,-0.83106 -1.85455,-1.85455 0,-1.02463 0.83455,-1.85455 1.85455,-1.85455 z"
       id="path3752" />
    <path
       fill="#000000"
       fill-opacity="1"
       stroke-linejoin="round"
       d="m 241.80751,63.143088 h 1.54159 v 0.30832 h -1.54159 z m 3.09478,0 h 1.5416 v 0.30832 h -1.5416 z m 3.0832,0 h 1.55319 v 0.30832 h -1.55319 z m 3.09478,0 h 1.5416 v 0.30832 h -1.5416 z m 2.63115,0.77195 v 1.54625 h -0.31296 v -1.54625 z m 0,3.09132 v 1.54507 h -0.31296 v -1.54507 z m 0,3.09131 v 1.54507 h -0.31296 v -1.54507 z m 0,3.09014 v 1.54623 h -0.31296 v -1.54623 z m 0,3.09131 v 1.54508 h -0.31296 v -1.54508 z m -1.39091,2.00871 h -1.55319 v -0.30831 h 1.55319 z m -3.09479,0 h -1.5416 v -0.30831 h 1.5416 z m -3.09479,0 h -1.54159 v -0.30831 h 1.54159 z m -3.08319,0 h -1.55319 v -0.30831 h 1.55319 z m -3.09479,0 h -1.24023 -0.0116 l -0.0116,-0.002 -0.0232,-0.004 -0.0116,-0.006 -0.0116,-0.006 -0.0116,-0.008 -0.0116,-0.009 -0.0116,-0.0107 -0.0116,-0.0107 -0.0116,-0.0128 v -0.0128 l -0.0116,-0.0139 v -0.0139 l -0.0116,-0.0151 v -0.0151 -0.0151 -0.30947 h 0.31296 v 0.30947 l -0.16199,-0.15416 h 1.24023 z m -1.39091,-2.00871 v -1.54508 h 0.31295 v 1.54508 z m 0,-3.09131 v -1.54507 h 0.31295 v 1.54507 z m 0,-3.09014 v -1.54624 h 0.31295 v 1.54624 z m 0,-3.09131 v -1.54507 h 0.31295 v 1.54507 z m 0,-3.09132 v -0.6178 -0.0151 -0.0151 l 0.0116,-0.0151 v -0.0139 l 0.0116,-0.0139 v -0.0128 l 0.0116,-0.0128 0.0116,-0.0107 0.0116,-0.0107 0.0116,-0.009 0.0116,-0.008 0.0116,-0.006 0.0116,-0.006 0.0232,-0.004 0.0116,-0.002 h 0.0116 1.55319 v 0.30832 h -1.55323 l 0.16228,-0.15415 v 0.6178 z"
       id="path3754"
       style="stroke-width:0.11591" />
    <path
       fill="#000000"
       fill-opacity="1"
       stroke-linejoin="round"
       d="m 195.59435,69.788188 h 1.55319 v 0.30948 h -1.55319 z m 3.09479,0 h 1.5416 v 0.30948 h -1.5416 z m 3.09479,0 h 1.54159 v 0.30948 h -1.54159 z m 3.08319,0 h 1.55319 v 0.30948 h -1.55319 z m 3.09479,0 h 1.54159 v 0.30948 h -1.54159 z m 3.09478,0 h 1.5416 v 0.30948 h -1.5416 z m 3.0832,0 h 1.55319 v 0.30948 h -1.55319 z m 3.09478,0 h 1.5416 v 0.30948 h -1.5416 z m 1.70387,1.70038 v 1.54509 h -0.31295 v -1.54509 z m 0,3.09016 v 1.54623 h -0.31295 v -1.54623 z m 0,3.09131 v 0.92727 0.0151 l -0.0116,0.0151 v 0.0151 0.0139 l -0.0116,0.0139 -0.0116,0.0128 v 0.0128 l -0.0116,0.0107 -0.0116,0.0107 -0.0116,0.009 -0.0116,0.008 -0.0232,0.006 -0.0116,0.005 -0.0116,0.005 -0.0116,0.002 h -0.0232 -0.61432 v -0.30834 h 0.61432 l -0.15068,0.15417 v -0.92728 z m -2.31819,1.08144 h -1.55319 v -0.30833 h 1.55319 z m -3.09478,0 h -1.5416 v -0.30833 h 1.5416 z m -3.09479,0 h -1.5416 v -0.30833 h 1.5416 z m -3.0832,0 h -1.55318 v -0.30833 h 1.55318 z m -3.09478,0 h -1.5416 v -0.30833 h 1.5416 z m -3.09479,0 h -1.54159 v -0.30833 h 1.54159 z m -3.08319,0 h -1.55319 v -0.30833 h 1.55319 z m -3.09479,0 h -1.5416 v -0.30833 h 1.5416 z m -2.63115,-0.77196 v -1.54624 h 0.31296 v 1.54624 z m 0,-3.09131 v -1.54507 h 0.31296 v 1.54507 z m 0,-3.09132 v -1.54506 h 0.31296 v 1.54506 z m 0.16228,-2.0087 h 1.5416 v 0.30948 h -1.5416 z"
       id="path3756"
       style="stroke-width:0.11591" />
    <line
       fill="none"
       stroke-width="0.309093"
       stroke-linejoin="round"
       stroke="#000000"
       stroke-opacity="1"
       x1="201.78391"
       y1="41.004395"
       x2="224.03856"
       y2="41.004395"
       id="line3758" />
    <path
       fill="none"
       stroke-width="0.309093"
       stroke-linejoin="round"
       stroke="#000000"
       stroke-opacity="1"
       d="m 197.76186,48.614978 h 33.38196 l 15.45075,18.23721"
       id="path3760" />
    <line
       fill="none"
       stroke-width="0.309093"
       stroke-linejoin="round"
       stroke="#000000"
       stroke-opacity="1"
       x1="205.18004"
       y1="74.115005"
       x2="249.68932"
       y2="74.115005"
       id="line3762" />
    <text
       transform="scale(1.0371714,0.96416079)"
       xml:space="preserve"
       id="text3766"
       x="190.48416"
       y="37.195625"
       style="font-size:1.44262px;stroke-width:0.120218">		 <tspan
   style="font-size:5.89885px;font-family:'メイリオ'"
   letter-spacing="0em"
   fill="#000000"
   fill-opacity="1"
   stroke-width="0.0240436"
   stroke-linejoin="round"
   id="tspan3764">doubly linked</tspan>	</text>
    <rect
       x="21.939934"
       y="50.288601"
       fill="#ffffff"
       fill-opacity="1"
       stroke-width="0.253663"
       stroke-linejoin="round"
       stroke="#000000"
       stroke-opacity="1"
       width="25.404308"
       height="10.770611"
       id="rect14"
       style="fill:none;fill-opacity:1;stroke:#00aa00;stroke-width:0.254;stroke-dasharray:none;stroke-dashoffset:0;stroke-opacity:1"
       inkscape:export-filename="img26a.png"
       inkscape:export-xdpi="96"
       inkscape:export-ydpi="96" />
    <rect
       x="21.837685"
       y="64.307083"
       fill="#ffffff"
       fill-opacity="1"
       stroke-width="0.253663"
       stroke-linejoin="round"
       stroke="#000000"
       stroke-opacity="1"
       width="25.404308"
       height="10.77061"
       id="rect16"
       style="stroke:#00aa00;stroke-dasharray:none;stroke-dashoffset:0;stroke-opacity:1" />
    <rect
       x="24.306931"
       y="54.424969"
       fill="#ffffff"
       fill-opacity="1"
       stroke-width="0.309093"
       stroke-linejoin="round"
       stroke="#000000"
       stroke-opacity="1"
       width="7.4182134"
       height="5.5636597"
       id="rect20"
       style="stroke:#0000aa;stroke-opacity:1" />
    <rect
       x="36.002251"
       y="54.424969"
       fill="#ffffff"
       fill-opacity="1"
       stroke-width="0.309093"
       stroke-linejoin="round"
       stroke="#000000"
       stroke-opacity="1"
       width="7.4182134"
       height="5.5636597"
       id="rect22"
       style="stroke:#0000aa;stroke-opacity:1" />
    <rect
       x="24.617905"
       y="68.443436"
       fill="#ffffff"
       fill-opacity="1"
       stroke-width="0.309093"
       stroke-linejoin="round"
       stroke="#000000"
       stroke-opacity="1"
       width="7.4182134"
       height="5.5636597"
       id="rect24"
       style="stroke:#0000aa;stroke-opacity:1" />
    <rect
       x="36.313118"
       y="68.443436"
       fill="#ffffff"
       fill-opacity="1"
       stroke-width="0.309093"
       stroke-linejoin="round"
       stroke="#000000"
       stroke-opacity="1"
       width="7.4182134"
       height="5.5636597"
       id="rect26"
       style="stroke:#0000aa;stroke-opacity:1" />
    <text
       xml:space="preserve"
       id="text3480"
       x="48.591805"
       y="43.405659"
       style="font-size:1.39091px;fill:#fe0000;fill-opacity:1;stroke:#ff0000;stroke-width:0.11591;stroke-opacity:1">		 <tspan
   style="font-size:3.7091px;font-family:'メイリオ';fill:#fe0000;fill-opacity:1;stroke:#ff0000;stroke-opacity:1"
   letter-spacing="0em"
   fill="#000000"
   fill-opacity="1"
   stroke-width="0.023182"
   stroke-linejoin="round"
   id="tspan3478">x</tspan>	</text>
    <text
       xml:space="preserve"
       id="text3484"
       x="24.156746"
       y="58.139858"
       style="font-size:1.39091px;stroke-width:0.11591">		 <tspan
   style="font-size:3.7091px;font-family:'メイリオ'"
   letter-spacing="0em"
   fill="#000000"
   fill-opacity="1"
   stroke-width="0.023182"
   stroke-linejoin="round"
   id="tspan3482">xy</tspan>	</text>
    <text
       xml:space="preserve"
       id="text3488"
       x="34.754913"
       y="58.139858"
       style="font-size:1.39091px;stroke-width:0.11591">		 <tspan
   style="font-size:3.7091px;font-family:'メイリオ'"
   letter-spacing="0em"
   fill="#000000"
   fill-opacity="1"
   stroke-width="0.023182"
   stroke-linejoin="round"
   id="tspan3486">xyz</tspan>	</text>
    <text
       xml:space="preserve"
       id="text3492"
       x="51.01738"
       y="58.097507"
       style="font-size:1.39091px;fill:#fe0000;fill-opacity:1;stroke:#ff0000;stroke-width:0.11591;stroke-opacity:1">		 <tspan
   style="font-size:3.7091px;font-family:'メイリオ';fill:#fe0000;fill-opacity:1;stroke:#ff0000;stroke-opacity:1"
   letter-spacing="0em"
   fill="#000000"
   fill-opacity="1"
   stroke-width="0.023182"
   stroke-linejoin="round"
   id="tspan3490">x</tspan>	</text>
    <text
       xml:space="preserve"
       id="text3496"
       x="23.200661"
       y="72.158318"
       style="font-size:1.39091px;stroke-width:0.11591">		 <tspan
   style="font-size:3.7091px;font-family:'メイリオ'"
   letter-spacing="0em"
   fill="#000000"
   fill-opacity="1"
   stroke-width="0.023182"
   stroke-linejoin="round"
   id="tspan3494">xy<tspan
   style="fill:#020000;fill-opacity:1"
   id="tspan2358">z</tspan></tspan>	</text>
    <text
       xml:space="preserve"
       id="text3500"
       x="34.857155"
       y="72.158318"
       style="font-size:1.39091px;stroke-width:0.11591">		 <tspan
   style="font-size:3.7091px;font-family:'メイリオ'"
   letter-spacing="0em"
   fill="#000000"
   fill-opacity="1"
   stroke-width="0.023182"
   stroke-linejoin="round"
   id="tspan3498">xy<tspan
   style="fill:#000000;fill-opacity:1;stroke:#000000;stroke-opacity:1"
   id="tspan1995">z</tspan></tspan>	</text>
    <text
       xml:space="preserve"
       id="text3504"
       x="52.639969"
       y="72.392754"
       style="font-size:1.39091px;fill:#fe0000;fill-opacity:1;stroke:#ff0000;stroke-width:0.11591;stroke-opacity:1">		 <tspan
   style="font-size:3.7091px;font-family:'メイリオ';fill:#fe0000;fill-opacity:1;stroke:#ff0000;stroke-opacity:1"
   letter-spacing="0em"
   fill="#000000"
   fill-opacity="1"
   stroke-width="0.023182"
   stroke-linejoin="round"
   id="tspan3502">z</tspan>	</text>
    <rect
       x="22.156624"
       y="78.951225"
       fill="#ffffff"
       fill-opacity="1"
       stroke-width="0.278073"
       stroke-linejoin="round"
       stroke="#000000"
       stroke-opacity="1"
       width="35.919727"
       height="10.746201"
       id="rect3506"
       style="stroke:#00aa00;stroke-dasharray:none;stroke-dashoffset:0;stroke-opacity:1" />
    <rect
       x="25.162582"
       y="82.867226"
       fill="#ffffff"
       fill-opacity="1"
       stroke-width="0.309093"
       stroke-linejoin="round"
       stroke="#000000"
       stroke-opacity="1"
       width="7.4182134"
       height="5.5636597"
       id="rect3508"
       style="stroke:#0000aa;stroke-opacity:1" />
    <text
       xml:space="preserve"
       id="text3512"
       x="24.027176"
       y="86.762924"
       style="font-size:1.39091px;stroke-width:0.11591">		 <tspan
   style="font-size:3.7091px;font-family:'メイリオ'"
   letter-spacing="0em"
   fill="#000000"
   fill-opacity="1"
   stroke-width="0.023182"
   stroke-linejoin="round"
   id="tspan3510">xyz</tspan>	</text>
    <rect
       x="36.150909"
       y="82.867226"
       fill="#ffffff"
       fill-opacity="1"
       stroke-width="0.309093"
       stroke-linejoin="round"
       stroke="#000000"
       stroke-opacity="1"
       width="7.4182134"
       height="5.5636597"
       id="rect3514"
       style="stroke:#0000aa;stroke-opacity:1" />
    <text
       xml:space="preserve"
       id="text3518"
       x="34.625336"
       y="86.762924"
       style="font-size:1.39091px;stroke-width:0.11591">		 <tspan
   style="font-size:3.7091px;font-family:'メイリオ'"
   letter-spacing="0em"
   fill="#000000"
   fill-opacity="1"
   stroke-width="0.023182"
   stroke-linejoin="round"
   id="tspan3516">uyz</tspan>	</text>
    <rect
       x="47.266563"
       y="82.867226"
       fill="#ffffff"
       fill-opacity="1"
       stroke-width="0.309093"
       stroke-linejoin="round"
       stroke="#000000"
       stroke-opacity="1"
       width="7.4182134"
       height="5.5636597"
       id="rect3520"
       style="stroke:#0000aa;stroke-opacity:1" />
    <text
       xml:space="preserve"
       id="text3524"
       x="45.752655"
       y="86.762924"
       style="font-size:1.39091px;stroke-width:0.11591">		 <tspan
   style="font-size:3.7091px;font-family:'メイリオ'"
   letter-spacing="0em"
   fill="#000000"
   fill-opacity="1"
   stroke-width="0.023182"
   stroke-linejoin="round"
   id="tspan3522">uzx</tspan>	</text>
    <text
       xml:space="preserve"
       id="text3528"
       x="61.719704"
       y="86.994736"
       style="font-size:1.39091px;fill:#fe0000;fill-opacity:1;stroke:#ff0000;stroke-width:0.11591;stroke-opacity:1">		 <tspan
   style="font-size:3.7091px;font-family:'メイリオ';fill:#fe0000;fill-opacity:1;stroke:#ff0000;stroke-opacity:1"
   letter-spacing="0em"
   fill="#000000"
   fill-opacity="1"
   stroke-width="0.023182"
   stroke-linejoin="round"
   id="tspan3526">z</tspan>	</text>
    <rect
       x="26.31723"
       y="39.416279"
       fill="#ffffff"
       fill-opacity="1"
       stroke-width="0.309093"
       stroke-linejoin="round"
       stroke="#000000"
       stroke-opacity="1"
       width="7.4182134"
       height="5.5636597"
       id="rect28"
       style="stroke:#0000aa;stroke-opacity:1" />
    <text
       xml:space="preserve"
       id="text3532"
       x="26.273415"
       y="43.116871"
       style="font-size:1.39091px;stroke-width:0.11591"><tspan
   style="fill:#000000;fill-opacity:1;stroke:#000000;stroke-opacity:1"
   id="tspan2218">		 </tspan><tspan
   style="font-size:3.7091px;font-family:'メイリオ'"
   letter-spacing="0em"
   fill="#000000"
   fill-opacity="1"
   stroke-width="0.023182"
   stroke-linejoin="round"
   id="tspan3530"><tspan
   style="fill:#000000;fill-opacity:1;stroke:#000000;stroke-opacity:1"
   id="tspan1971">x</tspan>y</tspan>	</text>
    <path
       fill="#ffffff"
       fill-opacity="1"
       stroke-width="0.309093"
       stroke-linejoin="round"
       stroke="#000000"
       stroke-opacity="1"
       d="m 73.211176,42.120352 v -2.778354 h 6.67639 v -1.388597 l 4.45093,2.778354 -4.45093,2.777193 v -1.388596 z"
       id="path3534" />
    <path
       fill="#ffffff"
       fill-opacity="1"
       stroke-width="0.309093"
       stroke-linejoin="round"
       stroke="#000000"
       stroke-opacity="1"
       d="m 73.211176,71.790888 v -2.77835 h 6.67639 v -1.3886 l 4.45093,2.77719 -4.45093,2.77836 v -1.3886 z"
       id="path3536" />
    <path
       fill="#ffffff"
       fill-opacity="1"
       stroke-width="0.309093"
       stroke-linejoin="round"
       stroke="#000000"
       stroke-opacity="1"
       d="m 73.211176,56.955618 v -2.778357 h 6.67639 v -1.388597 l 4.45093,2.777193 -4.45093,2.778351 v -1.38859 z"
       id="path3538" />
    <path
       fill="#ffffff"
       fill-opacity="1"
       stroke-width="0.309093"
       stroke-linejoin="round"
       stroke="#000000"
       stroke-opacity="1"
       d="m 73.211176,86.626148 v -2.77835 h 6.67639 v -1.3886 l 4.45093,2.7772 -4.45093,2.77835 v -1.3886 z"
       id="path3540" />
    <rect
       x="89.178482"
       y="50.292156"
       fill="#ffffff"
       fill-opacity="1"
       stroke-width="0.260778"
       stroke-linejoin="round"
       stroke="#000000"
       stroke-opacity="1"
       width="26.867073"
       height="10.763495"
       id="rect3542"
       style="stroke:#00aa00;stroke-dasharray:none;stroke-dashoffset:0;stroke-opacity:1" />
    <rect
       x="89.178482"
       y="65.128609"
       fill="#ffffff"
       fill-opacity="1"
       stroke-width="0.260777"
       stroke-linejoin="round"
       stroke="#000000"
       stroke-opacity="1"
       width="26.867077"
       height="10.763496"
       id="rect3544"
       style="stroke:#00aa00;stroke-dasharray:none;stroke-dashoffset:0;stroke-opacity:1" />
    <rect
       x="91.439789"
       y="53.607006"
       fill="#ffffff"
       fill-opacity="1"
       stroke-width="0.309093"
       stroke-linejoin="round"
       stroke="#000000"
       stroke-opacity="1"
       width="7.4182134"
       height="5.5636597"
       id="rect3548"
       style="stroke:#0000aa;stroke-opacity:1" />
    <rect
       x="103.13499"
       y="53.607006"
       fill="#ffffff"
       fill-opacity="1"
       stroke-width="0.309093"
       stroke-linejoin="round"
       stroke="#000000"
       stroke-opacity="1"
       width="7.4182134"
       height="5.5636597"
       id="rect3550"
       style="stroke:#0000aa;stroke-opacity:1" />
    <rect
       x="91.648392"
       y="68.443436"
       fill="#ffffff"
       fill-opacity="1"
       stroke-width="0.309093"
       stroke-linejoin="round"
       stroke="#000000"
       stroke-opacity="1"
       width="7.4182134"
       height="5.5636597"
       id="rect3552"
       style="stroke:#0000aa;stroke-opacity:1" />
    <rect
       x="103.3436"
       y="68.443436"
       fill="#ffffff"
       fill-opacity="1"
       stroke-width="0.309093"
       stroke-linejoin="round"
       stroke="#000000"
       stroke-opacity="1"
       width="7.4182134"
       height="5.5636597"
       id="rect3554"
       style="stroke:#0000aa;stroke-opacity:1" />
    <rect
       x="91.231049"
       y="38.357944"
       fill="#ffffff"
       fill-opacity="1"
       stroke-width="0.309093"
       stroke-linejoin="round"
       stroke="#000000"
       stroke-opacity="1"
       width="7.4182134"
       height="5.5636597"
       id="rect3556"
       style="stroke:#0000aa;stroke-opacity:1" />
    <text
       xml:space="preserve"
       id="text3560"
       x="112.96506"
       y="42.485462"
       style="font-size:1.39091px;stroke-width:0.11591">		 <tspan
   style="font-size:3.7091px;font-family:'メイリオ'"
   letter-spacing="0em"
   fill="#000000"
   fill-opacity="1"
   stroke-width="0.023182"
   stroke-linejoin="round"
   id="tspan3558">x</tspan>	</text>
    <text
       xml:space="preserve"
       id="text3564"
       x="92.64566"
       y="57.321903"
       style="font-size:1.39091px;stroke-width:0.11591">		 <tspan
   style="font-size:3.7091px;font-family:'メイリオ'"
   letter-spacing="0em"
   fill="#000000"
   fill-opacity="1"
   stroke-width="0.023182"
   stroke-linejoin="round"
   id="tspan3562">y</tspan>	</text>
    <text
       xml:space="preserve"
       id="text3568"
       x="103.77299"
       y="57.321903"
       style="font-size:1.39091px;stroke-width:0.11591">		 <tspan
   style="font-size:3.7091px;font-family:'メイリオ'"
   letter-spacing="0em"
   fill="#000000"
   fill-opacity="1"
   stroke-width="0.023182"
   stroke-linejoin="round"
   id="tspan3566">z</tspan>	</text>
    <text
       xml:space="preserve"
       id="text3572"
       x="119.3401"
       y="57.321903"
       style="font-size:1.39091px;stroke-width:0.11591">		 <tspan
   style="font-size:3.7091px;font-family:'メイリオ'"
   letter-spacing="0em"
   fill="#000000"
   fill-opacity="1"
   stroke-width="0.023182"
   stroke-linejoin="round"
   id="tspan3570">x</tspan>	</text>
    <text
       xml:space="preserve"
       id="text3576"
       x="91.718369"
       y="72.158318"
       style="font-size:1.39091px;stroke-width:0.11591">		 <tspan
   style="font-size:3.7091px;font-family:'メイリオ'"
   letter-spacing="0em"
   fill="#000000"
   fill-opacity="1"
   stroke-width="0.023182"
   stroke-linejoin="round"
   id="tspan3574">xy</tspan>	</text>
    <text
       xml:space="preserve"
       id="text3580"
       x="102.84569"
       y="72.158318"
       style="font-size:1.39091px;stroke-width:0.11591">		 <tspan
   style="font-size:3.7091px;font-family:'メイリオ'"
   letter-spacing="0em"
   fill="#000000"
   fill-opacity="1"
   stroke-width="0.023182"
   stroke-linejoin="round"
   id="tspan3578">xy</tspan>	</text>
    <text
       xml:space="preserve"
       id="text3584"
       x="119.3401"
       y="72.158318"
       style="font-size:1.39091px;stroke-width:0.11591">		 <tspan
   style="font-size:3.7091px;font-family:'メイリオ'"
   letter-spacing="0em"
   fill="#000000"
   fill-opacity="1"
   stroke-width="0.023182"
   stroke-linejoin="round"
   id="tspan3582">z</tspan>	</text>
    <rect
       x="89.188568"
       y="79.975105"
       fill="#ffffff"
       fill-opacity="1"
       stroke-width="0.280939"
       stroke-linejoin="round"
       stroke="#000000"
       stroke-opacity="1"
       width="36.673798"
       height="10.743335"
       id="rect3586"
       style="stroke:#00aa00;stroke-dasharray:none;stroke-dashoffset:0;stroke-opacity:1" />
    <rect
       x="92.181534"
       y="82.867226"
       fill="#ffffff"
       fill-opacity="1"
       stroke-width="0.309093"
       stroke-linejoin="round"
       stroke="#000000"
       stroke-opacity="1"
       width="7.4182134"
       height="5.5636597"
       id="rect3588"
       style="stroke:#0000aa;stroke-opacity:1" />
    <text
       xml:space="preserve"
       id="text3592"
       x="91.718369"
       y="86.762924"
       style="font-size:1.39091px;stroke-width:0.11591">		 <tspan
   style="font-size:3.7091px;font-family:'メイリオ'"
   letter-spacing="0em"
   fill="#000000"
   fill-opacity="1"
   stroke-width="0.023182"
   stroke-linejoin="round"
   id="tspan3590">xy</tspan>	</text>
    <rect
       x="103.1814"
       y="82.867226"
       fill="#ffffff"
       fill-opacity="1"
       stroke-width="0.309093"
       stroke-linejoin="round"
       stroke="#000000"
       stroke-opacity="1"
       width="7.4182134"
       height="5.5636597"
       id="rect3594"
       style="stroke:#0000aa;stroke-opacity:1" />
    <text
       xml:space="preserve"
       id="text3598"
       x="102.84569"
       y="86.762924"
       style="font-size:1.39091px;stroke-width:0.11591">		 <tspan
   style="font-size:3.7091px;font-family:'メイリオ'"
   letter-spacing="0em"
   fill="#000000"
   fill-opacity="1"
   stroke-width="0.023182"
   stroke-linejoin="round"
   id="tspan3596">uy</tspan>	</text>
    <rect
       x="114.29709"
       y="82.867226"
       fill="#ffffff"
       fill-opacity="1"
       stroke-width="0.309093"
       stroke-linejoin="round"
       stroke="#000000"
       stroke-opacity="1"
       width="7.4182134"
       height="5.5636597"
       id="rect3600"
       style="stroke:#0000aa;stroke-opacity:1" />
    <text
       xml:space="preserve"
       id="text3604"
       x="113.97302"
       y="86.762924"
       style="font-size:1.39091px;stroke-width:0.11591">		 <tspan
   style="font-size:3.7091px;font-family:'メイリオ'"
   letter-spacing="0em"
   fill="#000000"
   fill-opacity="1"
   stroke-width="0.023182"
   stroke-linejoin="round"
   id="tspan3602">ux</tspan>	</text>
    <text
       xml:space="preserve"
       id="text3608"
       x="126.75833"
       y="86.994736"
       style="font-size:1.39091px;stroke-width:0.11591">		 <tspan
   style="font-size:3.7091px;font-family:'メイリオ'"
   letter-spacing="0em"
   fill="#000000"
   fill-opacity="1"
   stroke-width="0.023182"
   stroke-linejoin="round"
   id="tspan3606">z</tspan>	</text>
    <text
       xml:space="preserve"
       id="text3612"
       x="92.066116"
       y="42.485462"
       style="font-size:1.39091px;stroke-width:0.11591">		 <tspan
   style="font-size:3.7091px;font-family:'メイリオ'"
   letter-spacing="0em"
   fill="#000000"
   fill-opacity="1"
   stroke-width="0.023182"
   stroke-linejoin="round"
   id="tspan3610">y</tspan>	</text>
    <text
       xml:space="preserve"
       id="text22544"
       x="39.246281"
       y="36.795166"
       style="font-size:1.04695px;fill:#f80000;fill-opacity:1;stroke-width:0.0872468"
       transform="scale(0.9678998,1.0331648)"><tspan
         sodipodi:role="line"
         id="tspan5592"
         x="39.246281"
         y="36.795166"><tspan
   style="font-size:2.79188px;font-family:'メイリオ';fill:#f80000;fill-opacity:1"
   letter-spacing="0em"
   fill="#000000"
   fill-opacity="1"
   stroke-width="0.0174494"
   stroke-linejoin="round"
   id="tspan22542">If X/Z outside of ALS is positive</tspan>	</tspan></text>
    <text
       xml:space="preserve"
       style="font-size:5.50014px;font-family:sans-serif;-inkscape-font-specification:'sans-serif, Normal';fill:#0000ed;fill-opacity:1;stroke:none;stroke-width:0.2;stroke-dasharray:none"
       x="35.664524"
       y="27.254503"
       id="text23024"
       transform="scale(0.80133727,1.247914)"><tspan
         sodipodi:role="line"
         id="tspan23022"
         style="fill:#0000ed;fill-opacity:1;stroke:none;stroke-width:0.2;stroke-dasharray:none"
         x="35.664524"
         y="27.254503">ALS</tspan></text>
    <text
       xml:space="preserve"
       style="font-size:5.50014px;font-family:sans-serif;-inkscape-font-specification:'sans-serif, Normal';fill:#0000ed;fill-opacity:1;stroke:none;stroke-width:0.2;stroke-dasharray:none"
       x="117.88319"
       y="27.078882"
       id="text23028"
       transform="scale(0.80133727,1.247914)"><tspan
         sodipodi:role="line"
         id="tspan23026"
         style="fill:#0000ed;fill-opacity:1;stroke:none;stroke-width:0.2;stroke-dasharray:none"
         x="117.88319"
         y="27.078882">LockedSet</tspan></text>
    <text
       xml:space="preserve"
       id="text458"
       x="27.375641"
       y="38.635715"
       style="font-size:1.13712px;fill:#0001bb;fill-opacity:1;stroke-width:0.0947604"><tspan
   style="font-size:3.03232px;font-family:'メイリオ';fill:#0001bb;fill-opacity:1"
   letter-spacing="0em"
   fill="#000000"
   fill-opacity="1"
   stroke-width="0.0189521"
   stroke-linejoin="round"
   id="tspan456">cell</tspan>	</text>
    <text
       xml:space="preserve"
       id="text1622"
       x="24.819527"
       y="53.870182"
       style="font-size:1.13712px;fill:#0001bb;fill-opacity:1;stroke:#0000aa;stroke-width:0.0947604;stroke-opacity:1"><tspan
   style="font-size:3.03232px;font-family:'メイリオ';fill:#0001bb;fill-opacity:1;stroke:#0000aa;stroke-opacity:1"
   letter-spacing="0em"
   fill="#000000"
   fill-opacity="1"
   stroke-width="0.0189521"
   stroke-linejoin="round"
   id="tspan1620">cell1</tspan>	</text>
    <text
       xml:space="preserve"
       id="text1626"
       x="36.373184"
       y="53.870182"
       style="font-size:1.13712px;fill:#0001bb;fill-opacity:1;stroke:#0000aa;stroke-width:0.0947604;stroke-opacity:1"><tspan
   style="font-size:3.03232px;font-family:'メイリオ';fill:#0001bb;fill-opacity:1;stroke:#0000aa;stroke-opacity:1"
   letter-spacing="0em"
   fill="#000000"
   fill-opacity="1"
   stroke-width="0.0189521"
   stroke-linejoin="round"
   id="tspan1624">cell2</tspan>	</text>
    <text
       xml:space="preserve"
       id="text1732"
       x="37.906853"
       y="49.575901"
       style="font-size:1.13712px;fill:#00aa00;fill-opacity:1;stroke:#00a100;stroke-width:0.095;stroke-dasharray:none;stroke-opacity:1"><tspan
         style="font-size:3.03232px;font-family:'メイリオ';fill:#00aa00;fill-opacity:1;stroke:#00a100;stroke-width:0.095;stroke-dasharray:none;stroke-opacity:1"
         letter-spacing="0em"
         fill="#000000"
         fill-opacity="1"
         stroke-width="0.0189521"
         stroke-linejoin="round"
         id="tspan1730">house</tspan></text>
    <text
       xml:space="preserve"
       id="text1739"
       x="25.637482"
       y="67.775467"
       style="font-size:1.13712px;fill:#0001bb;fill-opacity:1;stroke:#0000aa;stroke-width:0.0947604;stroke-opacity:1"><tspan
   style="font-size:3.03232px;font-family:'メイリオ';fill:#0001bb;fill-opacity:1;stroke:#0000aa;stroke-opacity:1"
   letter-spacing="0em"
   fill="#000000"
   fill-opacity="1"
   stroke-width="0.0189521"
   stroke-linejoin="round"
   id="tspan1737">cell1</tspan>	</text>
    <text
       xml:space="preserve"
       id="text1743"
       x="37.191139"
       y="67.775467"
       style="font-size:1.13712px;fill:#0001bb;fill-opacity:1;stroke:#0000aa;stroke-width:0.0947604;stroke-opacity:1"><tspan
   style="font-size:3.03232px;font-family:'メイリオ';fill:#0001bb;fill-opacity:1;stroke:#0000aa;stroke-opacity:1"
   letter-spacing="0em"
   fill="#000000"
   fill-opacity="1"
   stroke-width="0.0189521"
   stroke-linejoin="round"
   id="tspan1741">cell2</tspan>	</text>
    <text
       xml:space="preserve"
       id="text1747"
       x="25.432991"
       y="82.294212"
       style="font-size:1.13712px;fill:#0001bb;fill-opacity:1;stroke:#0000aa;stroke-width:0.0947604;stroke-opacity:1"><tspan
   style="font-size:3.03232px;font-family:'メイリオ';fill:#0001bb;fill-opacity:1;stroke:#0000aa;stroke-opacity:1"
   letter-spacing="0em"
   fill="#000000"
   fill-opacity="1"
   stroke-width="0.0189521"
   stroke-linejoin="round"
   id="tspan1745">cell1</tspan>	</text>
    <text
       xml:space="preserve"
       id="text1751"
       x="36.986649"
       y="82.294212"
       style="font-size:1.13712px;fill:#0001bb;fill-opacity:1;stroke:#0000aa;stroke-width:0.0947604;stroke-opacity:1"><tspan
   style="font-size:3.03232px;font-family:'メイリオ';fill:#0001bb;fill-opacity:1;stroke:#0000aa;stroke-opacity:1"
   letter-spacing="0em"
   fill="#000000"
   fill-opacity="1"
   stroke-width="0.0189521"
   stroke-linejoin="round"
   id="tspan1749">cell2</tspan>	</text>
    <text
       xml:space="preserve"
       id="text1755"
       x="47.62011"
       y="82.294212"
       style="font-size:1.13712px;fill:#0001bb;fill-opacity:1;stroke:#0000aa;stroke-width:0.0947604;stroke-opacity:1"><tspan
   style="font-size:3.03232px;font-family:'メイリオ';fill:#0001bb;fill-opacity:1;stroke:#0000aa;stroke-opacity:1"
   letter-spacing="0em"
   fill="#000000"
   fill-opacity="1"
   stroke-width="0.0189521"
   stroke-linejoin="round"
   id="tspan1753">cell3</tspan>	</text>
    <text
       xml:space="preserve"
       id="text1861"
       x="37.497871"
       y="63.787922"
       style="font-size:1.13712px;fill:#00aa00;fill-opacity:1;stroke:#00a100;stroke-width:0.095;stroke-dasharray:none;stroke-opacity:1"><tspan
         style="font-size:3.03232px;font-family:'メイリオ';fill:#00aa00;fill-opacity:1;stroke:#00a100;stroke-width:0.095;stroke-dasharray:none;stroke-opacity:1"
         letter-spacing="0em"
         fill="#000000"
         fill-opacity="1"
         stroke-width="0.0189521"
         stroke-linejoin="round"
         id="tspan1859">house</tspan></text>
    <text
       xml:space="preserve"
       id="text1865"
       x="48.131325"
       y="78.204422"
       style="font-size:1.13712px;fill:#00aa00;fill-opacity:1;stroke:#00a100;stroke-width:0.095;stroke-dasharray:none;stroke-opacity:1"><tspan
         style="font-size:3.03232px;font-family:'メイリオ';fill:#00aa00;fill-opacity:1;stroke:#00a100;stroke-width:0.095;stroke-dasharray:none;stroke-opacity:1"
         letter-spacing="0em"
         fill="#000000"
         fill-opacity="1"
         stroke-width="0.0189521"
         stroke-linejoin="round"
         id="tspan1863">house</tspan></text>
    <path
       style="opacity:0.8;fill:#fe0000;fill-opacity:1;stroke:#ff0000;stroke-width:0.0991712;stroke-linejoin:round;stroke-miterlimit:0.5;stroke-dasharray:none;stroke-opacity:1;paint-order:stroke fill markers"
       d="M 28.081743,42.3473 H 54.154156"
       id="path2108" />
    <path
       style="opacity:0.8;fill:#fe0000;fill-opacity:1;stroke:#ff0000;stroke-width:0.112302;stroke-linejoin:round;stroke-miterlimit:0.5;stroke-dasharray:none;stroke-opacity:1;paint-order:stroke fill markers"
       d="M 24.605421,57.070548 H 58.039456"
       id="path2110" />
    <path
       style="opacity:0.8;fill:#fe0000;fill-opacity:1;stroke:#ff0000;stroke-width:0.112302;stroke-linejoin:round;stroke-miterlimit:0.5;stroke-dasharray:none;stroke-opacity:1;paint-order:stroke fill markers"
       d="M 24.094197,71.282568 H 57.528226"
       id="path2112" />
    <path
       style="opacity:0.8;fill:#fe0000;fill-opacity:1;stroke:#ff0000;stroke-width:0.126488;stroke-linejoin:round;stroke-miterlimit:0.5;stroke-dasharray:none;stroke-opacity:1;paint-order:stroke fill markers"
       d="M 24.171117,85.596828 H 66.585666"
       id="path2114" />
  </g>
</svg>
