<?xml version="1.0" encoding="UTF-8" standalone="no"?>
<!-- Created with Inkscape (http://www.inkscape.org/) -->

<svg
   width="297mm"
   height="210mm"
   viewBox="0 0 297 210"
   version="1.1"
   id="svg11757"
   inkscape:version="1.2.2 (732a01da63, 2022-12-09)"
   sodipodi:docname="image47.svg"
   xmlns:inkscape="http://www.inkscape.org/namespaces/inkscape"
   xmlns:sodipodi="http://sodipodi.sourceforge.net/DTD/sodipodi-0.dtd"
   xmlns="http://www.w3.org/2000/svg"
   xmlns:svg="http://www.w3.org/2000/svg">
  <sodipodi:namedview
     id="namedview11759"
     pagecolor="#ffffff"
     bordercolor="#000000"
     borderopacity="0.25"
     inkscape:showpageshadow="2"
     inkscape:pageopacity="0.0"
     inkscape:pagecheckerboard="0"
     inkscape:deskcolor="#d1d1d1"
     inkscape:document-units="mm"
     showgrid="false"
     inkscape:zoom="1.6819304"
     inkscape:cx="334.73442"
     inkscape:cy="318.08688"
     inkscape:window-width="2283"
     inkscape:window-height="1547"
     inkscape:window-x="1103"
     inkscape:window-y="178"
     inkscape:window-maximized="0"
     inkscape:current-layer="layer1" />
  <defs
     id="defs11754" />
  <g
     inkscape:label="Layer 1"
     inkscape:groupmode="layer"
     id="layer1">
    <g
       id="g426"
       inkscape:export-filename="img47a1.png"
       inkscape:export-xdpi="96"
       inkscape:export-ydpi="96">
      <path
         fill="#000000"
         fill-opacity="1"
         stroke-linejoin="round"
         d="m 59.659051,37.207988 v 1.138874 h -0.230507 v -1.138874 z m 0,2.276895 v 1.13802 h -0.230507 v -1.13802 z m 0,2.276895 v 1.13802 h -0.230507 v -1.13802 z m 0,2.276041 v 1.138874 h -0.230507 v -1.138874 z m 0,2.276894 v 1.138021 h -0.230507 v -1.138021 z m 0,2.276895 v 1.13802 h -0.230507 v -1.13802 z m 0,2.276041 v 1.138874 h -0.230507 v -1.138874 z m 0,2.276895 v 1.13802 h -0.230507 v -1.13802 z m 0,2.276894 v 1.138021 h -0.230507 v -1.138021 z m 0,2.276041 v 1.138875 h -0.230507 v -1.138875 z m 0,2.276895 v 1.138021 h -0.230507 v -1.138021 z m 0,2.276895 v 1.13802 h -0.230507 v -1.13802 z m 0,2.276041 v 1.138874 H 59.428544 V 64.52731 Z m 0,2.276894 v 1.138021 h -0.230507 v -1.138021 z m 0,2.276895 v 1.138021 h -0.230507 v -1.138021 z m 0,2.276041 v 1.138874 H 59.428544 V 71.35714 Z m 0,2.276895 v 1.13802 h -0.230507 v -1.13802 z m 0,2.276895 v 1.13802 h -0.230507 v -1.13802 z m 0,2.276041 v 1.138874 h -0.230507 v -1.138874 z m 0,2.276894 v 0.910929 h -0.230507 v -0.910929 z m 0,-45.531918 v 1.138021 h -0.230507 v -1.138021 z"
         id="path9728"
         style="stroke-width:0.0853729" />
      <path
         fill="#000000"
         fill-opacity="1"
         stroke-linejoin="round"
         d="m 34.499663,78.528462 h 1.135459 v 0.227946 h -1.135459 z m 2.279456,0 h 1.135459 v 0.227946 h -1.135459 z m 2.270918,0 h 1.143997 v 0.227946 h -1.143997 z m 2.279456,0 h 1.13546 v 0.227946 h -1.13546 z m 2.279456,0 h 1.135459 v 0.227946 h -1.135459 z m 2.270919,0 h 1.143996 v 0.227946 h -1.143996 z m 2.279456,0 h 1.135459 v 0.227946 h -1.135459 z m 2.279456,0 h 1.135459 v 0.227946 H 50.43878 Z m 2.270918,0 h 1.143997 v 0.227946 h -1.143997 z m 2.279456,0 h 1.135459 v 0.227946 h -1.135459 z m 2.279456,0 h 1.135459 v 0.227946 H 57.26861 Z m 2.270919,0 h 1.143996 v 0.227946 h -1.143996 z m 2.279455,0 h 0.452477 v 0.227946 h -0.452477 z m -29.598777,0 h 1.143997 v 0.227946 h -1.143997 z"
         id="path9716"
         style="stroke-width:0.0853729" />
      <rect
         x="15.828681"
         y="32.199993"
         fill="none"
         stroke-width="0.227661"
         stroke-linejoin="round"
         stroke="#000000"
         stroke-opacity="1"
         width="60.102509"
         height="60.102509"
         id="rect9790" />
      <line
         fill="none"
         stroke-width="0.0170746"
         stroke-linejoin="round"
         x1="32.220272"
         y1="40.39579"
         x2="59.539597"
         y2="40.39579"
         id="line9692" />
      <line
         fill="none"
         stroke-width="0.682983"
         stroke-linejoin="round"
         stroke="#000000"
         stroke-opacity="1"
         x1="29.488342"
         y1="40.39579"
         x2="59.539597"
         y2="40.39579"
         id="line9694" />
      <path
         fill="none"
         stroke-width="0.682983"
         stroke-linejoin="round"
         stroke="#000000"
         stroke-opacity="1"
         d="M 29.488275,40.395811 40.416003,51.32354 v 27.319322"
         id="path9696" />
      <rect
         x="26.756409"
         y="37.66386"
         fill="#ffffff"
         fill-opacity="1"
         stroke-width="0.227661"
         stroke-linejoin="round"
         stroke="#000000"
         stroke-opacity="1"
         width="7.0574346"
         height="5.2360897"
         id="rect9698" />
      <text
         xml:space="preserve"
         id="text9702"
         x="26.338449"
         y="41.521736"
         style="font-size:1.02447px;stroke-width:0.0853729">			 <tspan
   style="font-size:4.0979px;font-family:'メイリオ'"
   letter-spacing="0em"
   fill="#000000"
   fill-opacity="1"
   stroke-width="0.0170746"
   stroke-linejoin="round"
   id="tspan9700">xy</tspan>		</text>
      <path
         fill="#ffffff"
         fill-opacity="1"
         stroke-width="0.227661"
         stroke-linejoin="round"
         stroke="#000000"
         stroke-opacity="1"
         d="m 40.416003,48.592462 c 2.5185,0 4.558912,1.375357 4.558912,3.073423 0,1.697213 -2.040412,3.073424 -4.558912,3.073424 -2.509962,0 -4.550374,-1.376211 -4.550374,-3.073424 0,-1.698066 2.040412,-3.073423 4.550374,-3.073423 z"
         id="path9706" />
      <text
         xml:space="preserve"
         id="text9710"
         x="36.497822"
         y="52.876328"
         style="font-size:1.02447px;stroke-width:0.0853729">			 <tspan
   style="font-size:4.0979px;font-family:'メイリオ'"
   letter-spacing="0em"
   fill="#000000"
   fill-opacity="1"
   stroke-width="0.0170746"
   stroke-linejoin="round"
   id="tspan9708">xy</tspan>		</text>
      <rect
         x="36.096069"
         y="76.138016"
         fill="#ffffff"
         fill-opacity="1"
         stroke-width="0.227661"
         stroke-linejoin="round"
         stroke="#000000"
         stroke-opacity="1"
         width="7.0576053"
         height="5.2362604"
         id="rect9718" />
      <text
         xml:space="preserve"
         id="text9722"
         x="35.644093"
         y="79.939529"
         style="font-size:1.02447px;stroke-width:0.0853729">			 <tspan
   style="font-size:4.0979px;font-family:'メイリオ'"
   letter-spacing="0em"
   fill="#000000"
   fill-opacity="1"
   stroke-width="0.0170746"
   stroke-linejoin="round"
   id="tspan9720">xy</tspan>		</text>
      <path
         fill="#ffffff"
         fill-opacity="1"
         stroke-width="0.227661"
         stroke-linejoin="round"
         stroke="#000000"
         stroke-opacity="1"
         d="m 59.317559,37.436787 c 2.509963,0 4.550375,1.376211 4.550375,3.073424 0,1.697213 -2.040412,3.073424 -4.550375,3.073424 -2.5185,0 -4.558912,-1.376211 -4.558912,-3.073424 0,-1.697213 2.040412,-3.073424 4.558912,-3.073424 z"
         id="path9730" />
      <text
         xml:space="preserve"
         id="text9734"
         x="55.365227"
         y="41.692482"
         style="font-size:1.02447px;stroke-width:0.0853729">			 <tspan
   style="font-size:4.0979px;font-family:'メイリオ'"
   letter-spacing="0em"
   fill="#000000"
   fill-opacity="1"
   stroke-width="0.0170746"
   stroke-linejoin="round"
   id="tspan9732">xy</tspan>		</text>
      <path
         fill="#000000"
         fill-opacity="1"
         stroke-width="0.227661"
         stroke-linejoin="round"
         stroke="#000000"
         stroke-opacity="1"
         d="m 59.334634,75.821288 2.364828,3.483214 h -4.729657 z"
         id="path9738" />
      <line
         fill="none"
         stroke-width="0.682983"
         stroke-linejoin="round"
         stroke="#000000"
         stroke-opacity="1"
         x1="18.560614"
         y1="86.022507"
         x2="26.756409"
         y2="86.022507"
         id="line10948" />
      <path
         fill="#000000"
         fill-opacity="1"
         stroke-linejoin="round"
         d="m 51.550288,85.628372 h 1.135459 v 0.227945 h -1.135459 z m 2.279456,0 h 1.135459 v 0.227945 h -1.135459 z m 2.270918,0 h 0.461014 v 0.227945 h -0.461014 z m -6.82983,0 h 1.143997 v 0.227945 h -1.143997 z"
         id="path10952"
         style="stroke-width:0.0853729" />
      <text
         xml:space="preserve"
         id="text10956"
         x="27.157595"
         y="86.837807"
         style="font-size:1.02447px;stroke-width:0.0853729">			 <tspan
   style="font-size:3.18725px;font-family:'メイリオ'"
   letter-spacing="0em"
   fill="#000000"
   fill-opacity="1"
   stroke-width="0.0170746"
   stroke-linejoin="round"
   id="tspan10954">Strong Link</tspan>		</text>
      <text
         xml:space="preserve"
         id="text10960"
         x="56.781986"
         y="86.752434"
         style="font-size:1.02447px;stroke-width:0.0853729">			 <tspan
   style="font-size:3.18725px;font-family:'メイリオ'"
   letter-spacing="0em"
   fill="#000000"
   fill-opacity="1"
   stroke-width="0.0170746"
   stroke-linejoin="round"
   id="tspan10958">Weak Link</tspan>		</text>
    </g>
    <g
       id="g457"
       inkscape:export-filename="img47a2.png"
       inkscape:export-xdpi="96"
       inkscape:export-ydpi="96">
      <path
         fill="#000000"
         fill-opacity="1"
         stroke-linejoin="round"
         d="m 97.334103,75.79653 h 1.135459 v 0.227945 h -1.135459 z m 2.279455,0 h 1.135462 v 0.227945 h -1.135462 z m 2.270922,0 h 1.14399 v 0.227945 h -1.14399 z m 2.27945,0 h 1.13546 v 0.227945 h -1.13546 z m 2.27946,0 h 1.13546 v 0.227945 h -1.13546 z m 2.27092,0 h 1.14399 v 0.227945 h -1.14399 z m 2.27945,0 h 1.13546 v 0.227945 h -1.13546 z m 2.27946,0 h 1.13546 v 0.227945 h -1.13546 z m 2.27092,0 h 1.14399 v 0.227945 h -1.14399 z m 2.27945,0 h 1.13546 v 0.227945 h -1.13546 z m 2.27946,0 h 1.13546 v 0.227945 h -1.13546 z m 2.27092,0 h 1.14399 v 0.227945 h -1.14399 z m 2.27945,0 h 0.45248 v 0.227945 h -0.45248 z m -29.598773,0 h 1.143996 v 0.227945 h -1.143996 z"
         id="path9784"
         style="stroke-width:0.0853729" />
      <path
         fill="#ffffff"
         fill-opacity="1"
         stroke-width="0.682983"
         stroke-linejoin="round"
         stroke="#000000"
         stroke-opacity="1"
         d="M 103.25044,78.642862 V 48.591608 l -8.195793,-8.195797 h 19.123523 l 10.92773,5.463865 v 24.587389"
         id="path9740" />
      <rect
         x="121.46895"
         y="43.354828"
         fill="#ffffff"
         fill-opacity="1"
         stroke-width="0.227661"
         stroke-linejoin="round"
         stroke="#000000"
         stroke-opacity="1"
         width="7.0576053"
         height="5.2362604"
         id="rect9742" />
      <text
         xml:space="preserve"
         id="text9746"
         x="121.01698"
         y="47.156345"
         style="font-size:1.02447px;stroke-width:0.0853729">			 <tspan
   style="font-size:4.0979px;font-family:'メイリオ'"
   letter-spacing="0em"
   fill="#000000"
   fill-opacity="1"
   stroke-width="0.0170746"
   stroke-linejoin="round"
   id="tspan9744">xy</tspan>		</text>
      <path
         fill="#ffffff"
         fill-opacity="1"
         stroke-width="0.227661"
         stroke-linejoin="round"
         stroke="#000000"
         stroke-opacity="1"
         d="m 103.02847,45.86053 c 2.50997,0 4.55038,1.375357 4.55038,3.073423 0,1.697213 -2.04041,3.073424 -4.55038,3.073424 -2.5185,0 -4.558908,-1.376211 -4.558908,-3.073424 0,-1.698066 2.040408,-3.073423 4.558908,-3.073423 z"
         id="path9750" />
      <text
         xml:space="preserve"
         id="text9754"
         x="99.076149"
         y="50.144398"
         style="font-size:1.02447px;stroke-width:0.0853729">			 <tspan
   style="font-size:4.0979px;font-family:'メイリオ'"
   letter-spacing="0em"
   fill="#000000"
   fill-opacity="1"
   stroke-width="0.0170746"
   stroke-linejoin="round"
   id="tspan9752">xy</tspan>		</text>
      <rect
         x="91.870239"
         y="37.66386"
         fill="#ffffff"
         fill-opacity="1"
         stroke-width="0.227661"
         stroke-linejoin="round"
         stroke="#000000"
         stroke-opacity="1"
         width="7.0574346"
         height="5.2361751"
         id="rect9758" />
      <text
         xml:space="preserve"
         id="text9762"
         x="91.477959"
         y="41.521736"
         style="font-size:1.02447px;stroke-width:0.0853729">			 <tspan
   style="font-size:4.0979px;font-family:'メイリオ'"
   letter-spacing="0em"
   fill="#000000"
   fill-opacity="1"
   stroke-width="0.0170746"
   stroke-linejoin="round"
   id="tspan9760">xy</tspan>		</text>
      <path
         fill="#ffffff"
         fill-opacity="1"
         stroke-width="0.227661"
         stroke-linejoin="round"
         stroke="#000000"
         stroke-opacity="1"
         d="m 114.40868,37.891825 c 2.5185,0 4.55037,1.376211 4.55037,3.073424 0,1.698066 -2.03187,3.073423 -4.55037,3.073423 -2.5185,0 -4.55038,-1.375357 -4.55038,-3.073423 0,-1.697213 2.03188,-3.073424 4.55038,-3.073424 z"
         id="path9766" />
      <text
         xml:space="preserve"
         id="text9770"
         x="110.43073"
         y="42.20472"
         style="font-size:1.02447px;stroke-width:0.0853729">			 <tspan
   style="font-size:4.0979px;font-family:'メイリオ'"
   letter-spacing="0em"
   fill="#000000"
   fill-opacity="1"
   stroke-width="0.0170746"
   stroke-linejoin="round"
   id="tspan9768">xy</tspan>		</text>
      <path
         fill="#ffffff"
         fill-opacity="1"
         stroke-width="0.227661"
         stroke-linejoin="round"
         stroke="#000000"
         stroke-opacity="1"
         d="m 125.25103,67.033004 c 2.5185,0 4.55038,1.375357 4.55038,3.073423 0,1.697213 -2.03188,3.073424 -4.55038,3.073424 -2.5185,0 -4.55037,-1.376211 -4.55037,-3.073424 0,-1.698066 2.03187,-3.073423 4.55037,-3.073423 z"
         id="path9774" />
      <text
         xml:space="preserve"
         id="text9778"
         x="121.27309"
         y="71.316872"
         style="font-size:1.02447px;stroke-width:0.0853729">			 <tspan
   style="font-size:4.0979px;font-family:'メイリオ'"
   letter-spacing="0em"
   fill="#000000"
   fill-opacity="1"
   stroke-width="0.0170746"
   stroke-linejoin="round"
   id="tspan9776">xy</tspan>		</text>
      <path
         fill="#000000"
         fill-opacity="1"
         stroke-width="0.227661"
         stroke-linejoin="round"
         stroke="#000000"
         stroke-opacity="1"
         d="m 118.9932,73.634035 2.0831,3.483213 h -4.1662 z"
         id="path9786" />
      <path
         fill="#000000"
         fill-opacity="1"
         stroke-linejoin="round"
         d="m 116.45763,62.136869 h 1.13546 v 0.227946 h -1.13546 z m 2.27945,0 h 1.13546 v 0.227946 h -1.13546 z m 2.27092,0 h 1.144 v 0.227946 h -1.144 z m 2.27946,0 h 1.13546 v 0.227946 h -1.13546 z m 2.27945,0 h 1.13546 v 0.227946 h -1.13546 z m 2.27092,0 h 1.144 v 0.227946 h -1.144 z m 2.27946,0 h 1.13546 v 0.227946 h -1.13546 z m 2.27945,0 h 0.90496 l 0.0171,8.54e-4 0.009,0.0017 0.009,0.0026 0.009,0.0043 0.0171,0.0043 0.009,0.006 0.009,0.0068 0.009,0.0068 0.009,0.0085 v 0.0094 l 0.009,0.0094 0.009,0.01024 v 0.01024 0.0111 l 0.009,0.0111 v 0.0111 0.227092 h -0.23051 v -0.227092 l 0.11099,0.113546 h -0.90496 z m 1.02448,1.480366 v 1.13802 h -0.23051 v -1.13802 z m 0,2.276041 v 1.138874 h -0.23051 v -1.138874 z m 0,2.276895 v 1.13802 h -0.23051 v -1.13802 z m 0,2.276894 v 1.138021 h -0.23051 v -1.138021 z m 0,2.276041 v 1.138874 h -0.23051 v -1.138874 z m 0,2.276895 v 1.13802 h -0.23051 v -1.13802 z m 0,2.276895 v 1.13802 h -0.23051 v -1.13802 z m 0,2.276041 v 1.138874 h -0.23051 v -1.138874 z m -0.572,1.935403 h -1.13546 v -0.227946 h 1.13546 z m -2.27946,0 h -1.13545 v -0.227946 h 1.13545 z m -2.27091,0 h -1.144 v -0.227946 h 1.144 z m -2.27946,0 h -1.13546 v -0.227946 h 1.13546 z m -2.27946,0 h -1.13545 v -0.227946 h 1.13545 z m -2.27091,0 h -1.144 v -0.227946 h 1.144 z m -2.27946,0 h -1.13546 v -0.227946 h 1.13546 z m -2.27946,0 h -1.13546 v -0.227946 h 1.13546 z m -2.27091,0 h -0.46102 l -0.009,-8.54e-4 -0.009,-8.54e-4 -0.0171,-0.0034 -0.009,-0.0034 -0.009,-0.0051 -0.009,-0.0051 -0.009,-0.0068 -0.009,-0.0077 -0.009,-0.0085 -0.009,-0.0085 v -0.0094 l -0.009,-0.01024 v -0.0111 l -0.009,-0.01024 v -0.0111 -0.0111 -0.682983 h 0.2305 v 0.682983 l -0.11952,-0.1144 h 0.46102 z m -0.572,-1.935403 v -1.138021 h 0.2305 v 1.138021 z m 0,-2.276041 v -1.138875 h 0.2305 v 1.138875 z m 0,-2.276895 V 73.86198 h 0.2305 v 1.138021 z m 0,-2.276895 v -1.13802 h 0.2305 v 1.13802 z m 0,-2.276041 v -1.138874 h 0.2305 v 1.138874 z m 0,-2.276894 V 67.03215 h 0.2305 v 1.138021 z m 0,-2.276895 v -1.138021 h 0.2305 v 1.138021 z m 0,-2.276041 v -1.138874 h 0.2305 v 1.138874 z m 0.11098,-1.480366 h 1.144 v 0.227946 h -1.144 z"
         id="path9788"
         style="stroke-width:0.0853729" />
      <rect
         x="81.39505"
         y="32.199993"
         fill="none"
         stroke-width="0.227661"
         stroke-linejoin="round"
         stroke="#000000"
         stroke-opacity="1"
         width="60.102509"
         height="60.102509"
         id="rect9792" />
      <rect
         x="100.51858"
         y="73.406082"
         fill="#ffffff"
         fill-opacity="1"
         stroke-width="0.227661"
         stroke-linejoin="round"
         stroke="#000000"
         stroke-opacity="1"
         width="7.0574346"
         height="5.2362604"
         id="rect9794" />
      <text
         xml:space="preserve"
         id="text9798"
         x="100.10062"
         y="77.207596"
         style="font-size:1.02447px;stroke-width:0.0853729">			 <tspan
   style="font-size:4.0979px;font-family:'メイリオ'"
   letter-spacing="0em"
   fill="#000000"
   fill-opacity="1"
   stroke-width="0.0170746"
   stroke-linejoin="round"
   id="tspan9796">xy</tspan>		</text>
      <line
         fill="none"
         stroke-width="0.682983"
         stroke-linejoin="round"
         stroke="#000000"
         stroke-opacity="1"
         x1="84.126984"
         y1="86.022507"
         x2="92.322784"
         y2="86.022507"
         id="line10964" />
      <path
         fill="#000000"
         fill-opacity="1"
         stroke-linejoin="round"
         d="m 116.45763,85.908094 h 1.13546 v 0.227945 h -1.13546 z m 2.27945,0 h 1.13546 v 0.227945 h -1.13546 z m 2.27092,0 h 0.46102 v 0.227945 H 121.008 Z m -6.82983,0 h 1.144 v 0.227945 h -1.144 z"
         id="path10968"
         style="stroke-width:0.0853729" />
      <text
         xml:space="preserve"
         id="text10972"
         x="92.723969"
         y="86.837807"
         style="font-size:1.02447px;stroke-width:0.0853729">			 <tspan
   style="font-size:3.18725px;font-family:'メイリオ'"
   letter-spacing="0em"
   fill="#000000"
   fill-opacity="1"
   stroke-width="0.0170746"
   stroke-linejoin="round"
   id="tspan10970">Strong Link</tspan>		</text>
      <text
         xml:space="preserve"
         id="text10976"
         x="122.34836"
         y="86.752434"
         style="font-size:1.02447px;stroke-width:0.0853729">			 <tspan
   style="font-size:3.18725px;font-family:'メイリオ'"
   letter-spacing="0em"
   fill="#000000"
   fill-opacity="1"
   stroke-width="0.0170746"
   stroke-linejoin="round"
   id="tspan10974">Weak Link</tspan>		</text>
    </g>
  </g>
</svg>
