<?xml version="1.0" encoding="UTF-8" standalone="no"?>
<!-- Created with Inkscape (http://www.inkscape.org/) -->

<svg
   width="210mm"
   height="297mm"
   viewBox="0 0 210 297"
   version="1.1"
   id="svg3415"
   inkscape:version="1.2.2 (732a01da63, 2022-12-09)"
   sodipodi:docname="image38.svg"
   xmlns:inkscape="http://www.inkscape.org/namespaces/inkscape"
   xmlns:sodipodi="http://sodipodi.sourceforge.net/DTD/sodipodi-0.dtd"
   xmlns="http://www.w3.org/2000/svg"
   xmlns:svg="http://www.w3.org/2000/svg">
  <sodipodi:namedview
     id="namedview3417"
     pagecolor="#ffffff"
     bordercolor="#000000"
     borderopacity="0.25"
     inkscape:showpageshadow="2"
     inkscape:pageopacity="0.0"
     inkscape:pagecheckerboard="0"
     inkscape:deskcolor="#d1d1d1"
     inkscape:document-units="mm"
     showgrid="false"
     inkscape:zoom="1.2938725"
     inkscape:cx="578.88239"
     inkscape:cy="443.24306"
     inkscape:window-width="2443"
     inkscape:window-height="1230"
     inkscape:window-x="1214"
     inkscape:window-y="439"
     inkscape:window-maximized="0"
     inkscape:current-layer="layer1" />
  <defs
     id="defs3412" />
  <g
     inkscape:label="Layer 1"
     inkscape:groupmode="layer"
     id="layer1">
    <rect
       x="27.433495"
       y="116.54383"
       fill="#ffffff"
       fill-opacity="1"
       stroke-width="0.322646"
       stroke-linejoin="round"
       stroke="#000000"
       stroke-opacity="1"
       width="69.691444"
       height="69.691444"
       id="rect8588"
       inkscape:export-filename="img38b.png"
       inkscape:export-xdpi="96"
       inkscape:export-ydpi="96" />
    <text
       xml:space="preserve"
       id="text8602"
       x="20.606941"
       y="141.02823"
       style="font-size:1.45191px;stroke-width:0.120992">			 <tspan
   style="font-size:3.22646px;font-family:'メイリオ'"
   letter-spacing="0em"
   fill="#000000"
   fill-opacity="1"
   stroke-width="0.0241984"
   stroke-linejoin="round"
   id="tspan8600">r0</tspan>		</text>
    <text
       xml:space="preserve"
       id="text8606"
       x="20.606941"
       y="164.2587"
       style="font-size:1.45191px;stroke-width:0.120992">			 <tspan
   style="font-size:3.22646px;font-family:'メイリオ'"
   letter-spacing="0em"
   fill="#000000"
   fill-opacity="1"
   stroke-width="0.0241984"
   stroke-linejoin="round"
   id="tspan8604">r1</tspan>		</text>
    <text
       xml:space="preserve"
       id="text8610"
       x="42.416115"
       y="115.54409"
       style="font-size:1.45191px;stroke-width:0.120992">			 <tspan
   style="font-size:3.22646px;font-family:'メイリオ'"
   letter-spacing="0em"
   fill="#000000"
   fill-opacity="1"
   stroke-width="0.0241984"
   stroke-linejoin="round"
   id="tspan8608">c0</tspan>		</text>
    <text
       xml:space="preserve"
       id="text8614"
       x="61.774845"
       y="115.54409"
       style="font-size:1.45191px;stroke-width:0.120992">			 <tspan
   style="font-size:3.22646px;font-family:'メイリオ'"
   letter-spacing="0em"
   fill="#000000"
   fill-opacity="1"
   stroke-width="0.0241984"
   stroke-linejoin="round"
   id="tspan8612">c1</tspan>		</text>
    <text
       xml:space="preserve"
       id="text8618"
       x="77.261841"
       y="115.54409"
       style="font-size:1.45191px;stroke-width:0.120992">			 <tspan
   style="font-size:3.22646px;font-family:'メイリオ'"
   letter-spacing="0em"
   fill="#000000"
   fill-opacity="1"
   stroke-width="0.0241984"
   stroke-linejoin="round"
   id="tspan8616">cx</tspan>		</text>
    <path
       fill="#000000"
       fill-opacity="1"
       stroke-linejoin="round"
       d="m 95.078158,163.24969 h -0.967937 v -0.27013 h 0.967937 z m -1.935874,0 h -0.967936 v -0.27013 h 0.967936 z m -1.935873,0 h -0.967937 v -0.27013 h 0.967937 z m -1.935873,0 h -0.967937 v -0.27013 h 0.967937 z m -1.935874,0 h -0.967937 v -0.27013 h 0.967937 z m -1.935873,0 h -0.967937 v -0.27013 h 0.967937 z m -1.935874,0 h -0.967936 v -0.27013 h 0.967936 z m -1.935873,0 h -0.967937 v -0.27013 h 0.967937 z m -1.935874,0 h -0.967936 v -0.27013 h 0.967936 z m -1.935873,0 H 76.68736 v -0.27013 h 0.967937 z m -1.935874,0 h -0.967936 v -0.27013 h 0.967936 z m -1.935873,0 h -0.967937 v -0.27013 h 0.967937 z m -1.935873,0 H 70.87974 v -0.27013 h 0.967937 z m -1.935874,0 h -0.967937 v -0.27013 h 0.967937 z m -1.935873,0 h -0.967937 v -0.27013 h 0.967937 z m -1.935874,0 H 65.07212 v -0.27013 h 0.967936 z m -1.935873,0 h -0.967937 v -0.27013 h 0.967937 z m -1.935874,0 h -0.967936 v -0.27013 h 0.967936 z m -1.935873,0 h -0.967937 v -0.27013 h 0.967937 z m -1.935873,0 h -0.967937 v -0.27013 h 0.967937 z m -1.935874,0 h -0.967937 v -0.27013 h 0.967937 z m -1.935873,0 h -0.967937 v -0.27013 h 0.967937 z m -1.935874,0 h -0.967937 v -0.27013 h 0.967937 z m -1.935873,0 h -0.967937 v -0.27013 h 0.967937 z m -1.935874,0 h -0.967936 v -0.27013 h 0.967936 z m -1.935873,0 h -0.967937 v -0.27013 h 0.967937 z m -1.935874,0 h -0.967936 v -0.27013 h 0.967936 z m -1.935873,0 h -0.967937 v -0.27013 h 0.967937 z m -1.935873,0 h -0.967937 v -0.27013 h 0.967937 z m -1.935874,0 h -0.967937 v -0.27013 h 0.967937 z m -1.935873,0 h -0.967937 v -0.27013 h 0.967937 z m -1.935874,0 h -0.967936 v -0.27013 h 0.967936 z m -1.935873,0 h -0.967937 v -0.27013 h 0.967937 z m -1.935874,0 h -0.967936 v -0.27013 h 0.967936 z m -1.935873,0 h -0.967937 v -0.27013 h 0.967937 z m -1.935871,0 v -0.27013 z m 69.691441,0 h -0.967936 v -0.27013 h 0.967936 z"
       id="path8592"
       style="stroke-width:0.11064" />
    <path
       fill="#000000"
       fill-opacity="1"
       stroke-linejoin="round"
       d="m 95.058782,140.4358 h -0.967937 v -0.27013 h 0.967937 z m -1.935874,0 h -0.967936 v -0.27013 h 0.967936 z m -1.935873,0 h -0.967937 v -0.27013 h 0.967937 z m -1.935873,0 h -0.967937 v -0.27013 h 0.967937 z m -1.935874,0 h -0.967937 v -0.27013 h 0.967937 z m -1.935873,0 h -0.967937 v -0.27013 h 0.967937 z m -1.935874,0 h -0.967936 v -0.27013 h 0.967936 z m -1.935873,0 h -0.967937 v -0.27013 h 0.967937 z m -1.935874,0 h -0.967936 v -0.27013 h 0.967936 z m -1.935873,0 h -0.967937 v -0.27013 h 0.967937 z m -1.935874,0 h -0.967936 v -0.27013 h 0.967936 z m -1.935873,0 h -0.967937 v -0.27013 h 0.967937 z m -1.935873,0 h -0.967937 v -0.27013 h 0.967937 z m -1.935874,0 H 68.92449 v -0.27013 h 0.967937 z m -1.935873,0 h -0.967937 v -0.27013 h 0.967937 z m -1.935874,0 h -0.967936 v -0.27013 h 0.967936 z m -1.935873,0 H 63.11687 v -0.27013 h 0.967937 z m -1.935874,0 h -0.967936 v -0.27013 h 0.967936 z m -1.935873,0 h -0.967937 v -0.27013 h 0.967937 z m -1.935873,0 H 57.30925 v -0.27013 h 0.967937 z m -1.935874,0 h -0.967937 v -0.27013 h 0.967937 z m -1.935873,0 h -0.967937 v -0.27013 h 0.967937 z m -1.935874,0 h -0.967937 v -0.27013 h 0.967937 z m -1.935873,0 h -0.967937 v -0.27013 h 0.967937 z m -1.935874,0 h -0.967936 v -0.27013 h 0.967936 z m -1.935873,0 h -0.967937 v -0.27013 h 0.967937 z m -1.935874,0 h -0.967936 v -0.27013 h 0.967936 z m -1.935873,0 h -0.967937 v -0.27013 h 0.967937 z m -1.935873,0 h -0.967937 v -0.27013 h 0.967937 z m -1.935874,0 h -0.967937 v -0.27013 h 0.967937 z m -1.935873,0 h -0.967937 v -0.27013 h 0.967937 z m -1.935874,0 h -0.967936 v -0.27013 h 0.967936 z m -1.935873,0 h -0.967937 v -0.27013 h 0.967937 z m -1.935874,0 h -0.967936 v -0.27013 h 0.967936 z m -1.935873,0 h -0.967937 v -0.27013 h 0.967937 z m -1.935875,0 v -0.27013 z m 69.691445,0 h -0.967936 v -0.27013 h 0.967936 z"
       id="path8598"
       style="stroke-width:0.11064" />
    <line
       fill="none"
       stroke-width="0.353308"
       stroke-linejoin="round"
       stroke="#000000"
       stroke-opacity="1"
       x1="66.355484"
       y1="186.63382"
       x2="66.355484"
       y2="116.94237"
       id="line8594" />
    <line
       fill="none"
       stroke-width="0.353308"
       stroke-linejoin="round"
       stroke="#000000"
       stroke-opacity="1"
       x1="47.146652"
       y1="186.64308"
       x2="47.146652"
       y2="116.95161"
       id="line8620" />
    <path
       fill="#ffffff"
       fill-opacity="1"
       stroke-width="0.0217647"
       stroke-linejoin="round"
       d="m 47.002581,135.90256 c 1.732461,0 3.132134,1.73261 3.132134,3.87175 0,2.13793 -1.399673,3.87175 -3.132134,3.87175 -1.722674,0 -3.132134,-1.73382 -3.132134,-3.87175 0,-2.13914 1.40946,-3.87175 3.132134,-3.87175 z"
       id="path8622" />
    <path
       fill="#ffffff"
       fill-opacity="1"
       stroke-width="0.0195465"
       stroke-linejoin="round"
       d="m 46.878221,159.31263 c 1.397322,0 2.526231,1.73261 2.526231,3.87175 0,2.13793 -1.128909,3.87174 -2.526231,3.87174 -1.389427,0 -2.52623,-1.73381 -2.52623,-3.87174 0,-2.13914 1.136803,-3.87175 2.52623,-3.87175 z"
       id="path8624" />
    <path
       fill="#ffffff"
       fill-opacity="1"
       stroke-width="0.0221676"
       stroke-linejoin="round"
       d="m 66.244295,135.90256 c 1.797188,0 3.249154,1.73261 3.249154,3.87175 0,2.13793 -1.451966,3.87175 -3.249154,3.87175 -1.787034,0 -3.249153,-1.73382 -3.249153,-3.87175 0,-2.13914 1.462119,-3.87175 3.249153,-3.87175 z"
       id="path8626" />
    <path
       fill="#ffffff"
       fill-opacity="1"
       stroke-width="0.0204613"
       stroke-linejoin="round"
       d="m 66.196067,159.13305 c 1.531169,0 2.768215,1.7326 2.768215,3.87174 0,2.13793 -1.237046,3.87175 -2.768215,3.87175 -1.522517,0 -2.768214,-1.73382 -2.768214,-3.87175 0,-2.13914 1.245697,-3.87174 2.768214,-3.87174 z"
       id="path8628" />
    <path
       fill="#ffffff"
       fill-opacity="1"
       stroke-width="0.0241984"
       stroke-linejoin="round"
       d="m 81.637857,135.90256 c 2.14156,0 3.871747,1.73261 3.871747,3.87175 0,2.13793 -1.730187,3.87175 -3.871747,3.87175 -2.129461,0 -3.871747,-1.73382 -3.871747,-3.87175 0,-2.13914 1.742286,-3.87175 3.871747,-3.87175 z"
       id="path8630" />
    <text
       xml:space="preserve"
       id="text8634"
       x="42.658096"
       y="141.70898"
       style="font-size:1.45191px;stroke-width:0.120992">			 <tspan
   style="font-size:4.83968px;font-family:'メイリオ'"
   letter-spacing="0em"
   fill="#000000"
   fill-opacity="1"
   stroke-width="0.0241984"
   stroke-linejoin="round"
   id="tspan8632">X</tspan>		</text>
    <text
       xml:space="preserve"
       id="text8638"
       x="62.016834"
       y="141.70898"
       style="font-size:1.45191px;stroke-width:0.120992">			 <tspan
   style="font-size:4.83968px;font-family:'メイリオ'"
   letter-spacing="0em"
   fill="#000000"
   fill-opacity="1"
   stroke-width="0.0241984"
   stroke-linejoin="round"
   id="tspan8636">X</tspan>		</text>
    <line
       fill="none"
       stroke-width="0.223946"
       stroke-linejoin="round"
       stroke="#000000"
       stroke-opacity="1"
       x1="81.818581"
       y1="145.08942"
       x2="81.818581"
       y2="117.08942"
       id="line1824"
       style="stroke-width:0.35;stroke-dasharray:1.04999998,1.04999998;stroke-dashoffset:0" />
    <path
       fill="#ffffff"
       fill-opacity="1"
       stroke-width="0.322646"
       stroke-linejoin="round"
       stroke="#000000"
       stroke-opacity="1"
       d="m 81.637857,135.90256 c 2.14156,0 3.871747,1.73261 3.871747,3.87175 0,2.13793 -1.730187,3.87175 -3.871747,3.87175 -2.129461,0 -3.871747,-1.73382 -3.871747,-3.87175 0,-2.13914 1.742286,-3.87175 3.871747,-3.87175 z"
       id="path8640" />
    <text
       xml:space="preserve"
       id="text8644"
       x="77.503822"
       y="141.70898"
       style="font-size:1.45191px;stroke-width:0.120992">			 <tspan
   style="font-size:4.83968px;font-family:'メイリオ'"
   letter-spacing="0em"
   fill="#000000"
   fill-opacity="1"
   stroke-width="0.0241984"
   stroke-linejoin="round"
   id="tspan8642">X</tspan>		</text>
    <text
       xml:space="preserve"
       id="text8648"
       x="42.658096"
       y="164.93945"
       style="font-size:1.45191px;stroke-width:0.120992">			 <tspan
   style="font-size:4.83968px;font-family:'メイリオ'"
   letter-spacing="0em"
   fill="#000000"
   fill-opacity="1"
   stroke-width="0.0241984"
   stroke-linejoin="round"
   id="tspan8646">X</tspan>		</text>
    <text
       xml:space="preserve"
       id="text8652"
       x="62.548283"
       y="163.75685"
       style="font-size:1.4415px;stroke-width:0.120124"
       transform="scale(0.99283007,1.0072217)">			 <tspan
   style="font-size:4.80498px;font-family:'メイリオ'"
   letter-spacing="0em"
   fill="#000000"
   fill-opacity="1"
   stroke-width="0.0240249"
   stroke-linejoin="round"
   id="tspan8650">X</tspan>		</text>
    <rect
       x="112.61193"
       y="116.54383"
       fill="#ffffff"
       fill-opacity="1"
       stroke-width="0.322646"
       stroke-linejoin="round"
       stroke="#000000"
       stroke-opacity="1"
       width="69.691444"
       height="69.691444"
       id="rect8654" />
    <path
       fill="#000000"
       fill-opacity="1"
       stroke-linejoin="round"
       d="m 116.48358,139.61279 h 0.96794 v 0.32305 h -0.96794 z m 1.93587,0 h 0.96794 v 0.32305 h -0.96794 z m 1.93588,0 h 0.96793 v 0.32305 h -0.96793 z m 1.93587,0 h 0.96794 v 0.32305 h -0.96794 z m 1.93587,0 h 0.96794 v 0.32305 h -0.96794 z m 1.93588,0 h 0.96793 v 0.32305 h -0.96793 z m 1.93587,0 h 0.96794 v 0.32305 h -0.96794 z m 1.93587,0 h 0.96794 v 0.32305 h -0.96794 z m 1.93588,0 h 0.96793 v 0.32305 h -0.96793 z m 1.93587,0 h 0.96794 v 0.32305 h -0.96794 z m 1.93587,0 h 0.96794 v 0.32305 h -0.96794 z m 1.93588,0 h 0.96794 v 0.32305 h -0.96794 z m 1.93587,0 h 0.96794 v 0.32305 h -0.96794 z m 1.93588,0 h 0.96793 v 0.32305 h -0.96793 z m 1.93587,0 h 0.96794 v 0.32305 h -0.96794 z m 1.93587,0 h 0.96794 v 0.32305 h -0.96794 z m 1.93588,0 h 0.96793 v 0.32305 h -0.96793 z m 1.93587,0 h 0.96794 v 0.32305 h -0.96794 z m 1.93587,0 h 0.96794 v 0.32305 h -0.96794 z m 1.93588,0 h 0.96793 v 0.32305 h -0.96793 z m 1.93587,0 h 0.96794 v 0.32305 h -0.96794 z m 1.93587,0 h 0.96794 v 0.32305 h -0.96794 z m 1.93588,0 h 0.96793 v 0.32305 h -0.96793 z m 1.93587,0 h 0.96794 v 0.32305 h -0.96794 z m 1.93587,0 h 0.96794 v 0.32305 h -0.96794 z m 1.93588,0 h 0.96793 v 0.32305 h -0.96793 z m 1.93587,0 h 0.96794 v 0.32305 h -0.96794 z m 1.93587,0 h 0.96794 v 0.32305 h -0.96794 z m 1.93588,0 h 0.96793 v 0.32305 h -0.96793 z m 1.93587,0 h 0.96794 v 0.32305 h -0.96794 z m 1.93587,0 h 0.96794 v 0.32305 h -0.96794 z m 1.93588,0 h 0.96793 v 0.32305 h -0.96793 z m 1.93587,0 h 0.96794 v 0.32305 h -0.96794 z m 1.93587,0 h 0.96794 v 0.32305 h -0.96794 z m 1.93588,0 h 0.96793 v 0.32305 h -0.96793 z m 1.93587,0 v 0.32305 z m -69.69144,0 h 0.96793 v 0.32305 h -0.96793 z"
       id="path8658"
       style="stroke-width:0.120992" />
    <line
       fill="none"
       stroke-width="0.322646"
       stroke-linejoin="round"
       stroke="#000000"
       stroke-opacity="1"
       x1="131.97066"
       y1="116.54383"
       x2="131.97066"
       y2="186.23528"
       id="line8660" />
    <path
       fill="#000000"
       fill-opacity="1"
       stroke-linejoin="round"
       d="m 114.70913,163.00479 h 0.96794 v 0.32305 h -0.96794 z m 1.93587,0 h 0.96794 v 0.32305 H 116.645 Z m 1.93588,0 h 0.96793 v 0.32305 h -0.96793 z m 1.93587,0 h 0.96794 v 0.32305 h -0.96794 z m 1.93587,0 h 0.96794 v 0.32305 h -0.96794 z m 1.93588,0 h 0.96793 v 0.32305 h -0.96793 z m 1.93587,0 h 0.96794 v 0.32305 h -0.96794 z m 1.93587,0 h 0.96794 v 0.32305 h -0.96794 z m 1.93588,0 h 0.96793 v 0.32305 h -0.96793 z m 1.93587,0 h 0.96794 v 0.32305 h -0.96794 z m 1.93587,0 h 0.96794 v 0.32305 h -0.96794 z m 1.93588,0 h 0.96794 v 0.32305 h -0.96794 z m 1.93587,0 h 0.96794 v 0.32305 h -0.96794 z m 1.93588,0 h 0.96793 v 0.32305 h -0.96793 z m 1.93587,0 h 0.96794 v 0.32305 h -0.96794 z m 1.93587,0 h 0.96794 v 0.32305 h -0.96794 z m 1.93588,0 h 0.96793 v 0.32305 h -0.96793 z m 1.93587,0 h 0.96794 v 0.32305 h -0.96794 z m 1.93587,0 h 0.96794 v 0.32305 h -0.96794 z m 1.93588,0 h 0.96793 v 0.32305 h -0.96793 z m 1.93587,0 h 0.96794 v 0.32305 h -0.96794 z m 1.93587,0 h 0.96794 v 0.32305 h -0.96794 z m 1.93588,0 h 0.96793 v 0.32305 h -0.96793 z m 1.93587,0 h 0.96794 v 0.32305 h -0.96794 z m 1.93587,0 h 0.96794 v 0.32305 h -0.96794 z m 1.93588,0 h 0.96793 v 0.32305 h -0.96793 z m 1.93587,0 h 0.96794 v 0.32305 h -0.96794 z m 1.93587,0 h 0.96794 v 0.32305 h -0.96794 z m 1.93588,0 h 0.96793 v 0.32305 h -0.96793 z m 1.93587,0 h 0.96794 v 0.32305 h -0.96794 z m 1.93587,0 h 0.96794 v 0.32305 h -0.96794 z m 1.93588,0 h 0.96793 v 0.32305 h -0.96793 z m 1.93587,0 h 0.96794 v 0.32305 h -0.96794 z m 1.93587,0 h 0.96794 v 0.32305 h -0.96794 z m 1.93588,0 h 0.96793 v 0.32305 h -0.96793 z m 1.93587,0 v 0.32305 z m -69.69144,0 h 0.96793 v 0.32305 h -0.96793 z"
       id="path8664"
       style="stroke-width:0.120992" />
    <text
       xml:space="preserve"
       id="text8668"
       x="105.78537"
       y="141.02823"
       style="font-size:1.45191px;stroke-width:0.120992">			 <tspan
   style="font-size:3.22646px;font-family:'メイリオ'"
   letter-spacing="0em"
   fill="#000000"
   fill-opacity="1"
   stroke-width="0.0241984"
   stroke-linejoin="round"
   id="tspan8666">r0</tspan>		</text>
    <text
       xml:space="preserve"
       id="text8672"
       x="105.78537"
       y="164.2587"
       style="font-size:1.45191px;stroke-width:0.120992">			 <tspan
   style="font-size:3.22646px;font-family:'メイリオ'"
   letter-spacing="0em"
   fill="#000000"
   fill-opacity="1"
   stroke-width="0.0241984"
   stroke-linejoin="round"
   id="tspan8670">r1</tspan>		</text>
    <text
       xml:space="preserve"
       id="text8676"
       x="126.98959"
       y="115.44453"
       style="font-size:1.45191px;stroke-width:0.120992">			 <tspan
   style="font-size:3.22646px;font-family:'メイリオ'"
   letter-spacing="0em"
   fill="#000000"
   fill-opacity="1"
   stroke-width="0.0241984"
   stroke-linejoin="round"
   id="tspan8674">c0</tspan>		</text>
    <text
       xml:space="preserve"
       id="text8680"
       x="146.34834"
       y="115.44453"
       style="font-size:1.45191px;stroke-width:0.120992">			 <tspan
   style="font-size:3.22646px;font-family:'メイリオ'"
   letter-spacing="0em"
   fill="#000000"
   fill-opacity="1"
   stroke-width="0.0241984"
   stroke-linejoin="round"
   id="tspan8678">c1</tspan>		</text>
    <text
       xml:space="preserve"
       id="text8684"
       x="161.83534"
       y="115.44453"
       style="font-size:1.45191px;stroke-width:0.120992">			 <tspan
   style="font-size:3.22646px;font-family:'メイリオ'"
   letter-spacing="0em"
   fill="#000000"
   fill-opacity="1"
   stroke-width="0.0241984"
   stroke-linejoin="round"
   id="tspan8682">cx</tspan>		</text>
    <line
       fill="none"
       stroke-width="0.322646"
       stroke-linejoin="round"
       stroke="#000000"
       stroke-opacity="1"
       x1="151.32939"
       y1="116.00542"
       x2="151.32939"
       y2="185.69687"
       id="line8686" />
    <path
       fill="#000000"
       fill-opacity="1"
       stroke-linejoin="round"
       d="m 166.98568,118.4797 v 0.96794 H 166.659 v -0.96794 z m 0,1.93588 v 0.96793 H 166.659 v -0.96793 z m 0,1.93587 v 0.96794 H 166.659 v -0.96794 z m 0,1.93587 v 0.96794 H 166.659 v -0.96794 z m 0,1.93588 v 0.96793 H 166.659 v -0.96793 z m 0,1.93587 v 0.96794 H 166.659 v -0.96794 z m 0,1.93587 v 0.96794 H 166.659 v -0.96794 z m 0,1.93588 v 0.96793 H 166.659 v -0.96793 z m 0,1.93587 v 0.96794 H 166.659 v -0.96794 z m 0,1.93587 v 0.96794 H 166.659 v -0.96794 z m 0,1.93588 v 0.96793 H 166.659 v -0.96793 z m 0,1.93587 v 0.96794 H 166.659 v -0.96794 z m 0,1.93587 v 0.96794 H 166.659 v -0.96794 z m 0,1.93588 v 0.96793 H 166.659 v -0.96793 z m 0,1.93587 v 0.96794 H 166.659 v -0.96794 z m 0,1.93587 H 166.659 Z m 0,-30.97397 v 0.96794 H 166.659 v -0.96794 z"
       id="path8690"
       style="stroke-width:0.120992" />
    <path
       fill="#ffffff"
       fill-opacity="1"
       stroke-width="0.0214886"
       stroke-linejoin="round"
       d="m 131.73082,135.90256 c 1.68878,0 3.05316,1.73261 3.05316,3.87175 0,2.13793 -1.36438,3.87175 -3.05316,3.87175 -1.67923,0 -3.05315,-1.73382 -3.05315,-3.87175 0,-2.13914 1.37392,-3.87175 3.05315,-3.87175 z"
       id="path8692" />
    <path
       fill="#ffffff"
       fill-opacity="1"
       stroke-width="0.018233"
       stroke-linejoin="round"
       d="m 132.05669,159.13305 c 1.21583,0 2.19812,1.7326 2.19812,3.87174 0,2.13793 -0.98229,3.87175 -2.19812,3.87175 -1.20897,0 -2.19812,-1.73382 -2.19812,-3.87175 0,-2.13914 0.98915,-3.87174 2.19812,-3.87174 z"
       id="path8694" />
    <path
       fill="#ffffff"
       fill-opacity="1"
       stroke-width="0.0215114"
       stroke-linejoin="round"
       d="m 151.61224,135.90256 c 1.69237,0 3.05964,1.73261 3.05964,3.87175 0,2.13793 -1.36727,3.87175 -3.05964,3.87175 -1.6828,0 -3.05964,-1.73382 -3.05964,-3.87175 0,-2.13914 1.37684,-3.87175 3.05964,-3.87175 z"
       id="path8696" />
    <path
       fill="#ffffff"
       fill-opacity="1"
       stroke-width="0.0224837"
       stroke-linejoin="round"
       d="m 151.3294,159.13305 c 1.84881,0 3.34248,1.7326 3.34248,3.87174 0,2.13793 -1.49367,3.87175 -3.34248,3.87175 -1.83836,0 -3.34248,-1.73382 -3.34248,-3.87175 0,-2.13914 1.50412,-3.87174 3.34248,-3.87174 z"
       id="path8698" />
    <path
       fill="#ffffff"
       fill-opacity="1"
       stroke-width="0.0241984"
       stroke-linejoin="round"
       d="m 166.81629,135.90256 c 2.14156,0 3.87175,1.73261 3.87175,3.87175 0,2.13793 -1.73019,3.87175 -3.87175,3.87175 -2.12946,0 -3.87174,-1.73382 -3.87174,-3.87175 0,-2.13914 1.74228,-3.87175 3.87174,-3.87175 z"
       id="path8700" />
    <text
       xml:space="preserve"
       id="text8704"
       x="127.83656"
       y="141.70898"
       style="font-size:1.45191px;stroke-width:0.120992">			 <tspan
   style="font-size:4.83968px;font-family:'メイリオ'"
   letter-spacing="0em"
   fill="#000000"
   fill-opacity="1"
   stroke-width="0.0241984"
   stroke-linejoin="round"
   id="tspan8702">X</tspan>		</text>
    <text
       xml:space="preserve"
       id="text8708"
       x="147.1953"
       y="141.70898"
       style="font-size:1.45191px;stroke-width:0.120992">			 <tspan
   style="font-size:4.83968px;font-family:'メイリオ'"
   letter-spacing="0em"
   fill="#000000"
   fill-opacity="1"
   stroke-width="0.0241984"
   stroke-linejoin="round"
   id="tspan8706">X</tspan>		</text>
    <path
       fill="#ffffff"
       fill-opacity="1"
       stroke-width="0.322646"
       stroke-linejoin="round"
       stroke="#000000"
       stroke-opacity="1"
       d="m 166.81629,135.90256 c 2.14156,0 3.87175,1.73261 3.87175,3.87175 0,2.13793 -1.73019,3.87175 -3.87175,3.87175 -2.12946,0 -3.87174,-1.73382 -3.87174,-3.87175 0,-2.13914 1.74228,-3.87175 3.87174,-3.87175 z"
       id="path8710" />
    <text
       xml:space="preserve"
       id="text8714"
       x="162.68228"
       y="141.70898"
       style="font-size:1.45191px;stroke-width:0.120992">			 <tspan
   style="font-size:4.83968px;font-family:'メイリオ'"
   letter-spacing="0em"
   fill="#000000"
   fill-opacity="1"
   stroke-width="0.0241984"
   stroke-linejoin="round"
   id="tspan8712">X</tspan>		</text>
    <text
       xml:space="preserve"
       id="text8718"
       x="127.83656"
       y="164.93945"
       style="font-size:1.45191px;stroke-width:0.120992">			 <tspan
   style="font-size:4.83968px;font-family:'メイリオ'"
   letter-spacing="0em"
   fill="#000000"
   fill-opacity="1"
   stroke-width="0.0241984"
   stroke-linejoin="round"
   id="tspan8716">X</tspan>		</text>
    <text
       xml:space="preserve"
       id="text8722"
       x="147.1953"
       y="164.93945"
       style="font-size:1.45191px;stroke-width:0.120992">			 <tspan
   style="font-size:4.83968px;font-family:'メイリオ'"
   letter-spacing="0em"
   fill="#000000"
   fill-opacity="1"
   stroke-width="0.0241984"
   stroke-linejoin="round"
   id="tspan8720">X</tspan>		</text>
    <rect
       x="147.45764"
       y="122.35145"
       fill="#ffffff"
       fill-opacity="1"
       stroke-width="0.322646"
       stroke-linejoin="round"
       stroke="#000000"
       stroke-opacity="1"
       width="7.7434936"
       height="7.7434936"
       id="rect8724" />
    <text
       xml:space="preserve"
       id="text8728"
       x="146.42415"
       y="127.91588"
       style="font-size:1.45191px;stroke-width:0.120992">				 <tspan
   style="font-size:4.83968px;font-family:'メイリオ'"
   letter-spacing="0em"
   fill="#000000"
   fill-opacity="1"
   stroke-width="0.0241984"
   stroke-linejoin="round"
   id="tspan8726">X</tspan>			</text>
    <text
       xml:space="preserve"
       id="text8734"
       x="51.853497"
       y="192.23846"
       style="font-size:1.45191px;stroke-width:0.120992">			 <tspan
   style="font-size:5.80762px;font-family:'メイリオ'"
   letter-spacing="0em"
   fill="#000000"
   fill-opacity="1"
   stroke-width="0.0241984"
   stroke-linejoin="round"
   id="tspan8732">Fish</tspan>		</text>
    <text
       xml:space="preserve"
       id="text8738"
       x="128.06252"
       y="192.23846"
       style="font-size:1.45191px;stroke-width:0.120992">			 <tspan
   style="font-size:5.80762px;font-family:'メイリオ'"
   letter-spacing="0em"
   fill="#000000"
   fill-opacity="1"
   stroke-width="0.0241984"
   stroke-linejoin="round"
   id="tspan8736">Finned Fish</tspan>		</text>
    <text
       xml:space="preserve"
       id="text8742"
       x="53.079407"
       y="134.37366"
       style="font-size:1.45191px;stroke-width:0.120992">			 <tspan
   style="font-size:5.80762px;font-family:'メイリオ'"
   letter-spacing="0em"
   fill="#ff0000"
   fill-opacity="1"
   stroke-width="0.0241984"
   stroke-linejoin="round"
   id="tspan8740">w</tspan>		</text>
    <text
       xml:space="preserve"
       id="text8746"
       x="69.27636"
       y="148.89272"
       style="font-size:1.45191px;stroke-width:0.120992">			 <tspan
   style="font-size:5.80762px;font-family:'メイリオ'"
   letter-spacing="0em"
   fill="#ff0000"
   fill-opacity="1"
   stroke-width="0.0241984"
   stroke-linejoin="round"
   id="tspan8744">w</tspan>		</text>
    <text
       xml:space="preserve"
       id="text8750"
       x="137.15295"
       y="134.11707"
       style="font-size:1.45191px;stroke-width:0.120992">			 <tspan
   style="font-size:5.80762px;font-family:'メイリオ'"
   letter-spacing="0em"
   fill="#ff0000"
   fill-opacity="1"
   stroke-width="0.0241984"
   stroke-linejoin="round"
   id="tspan8748">w</tspan>		</text>
    <text
       xml:space="preserve"
       id="text8754"
       x="153.84987"
       y="147.5166"
       style="font-size:1.45191px;stroke-width:0.120992">			 <tspan
   style="font-size:5.80762px;font-family:'メイリオ'"
   letter-spacing="0em"
   fill="#ff0000"
   fill-opacity="1"
   stroke-width="0.0241984"
   stroke-linejoin="round"
   id="tspan8752">w</tspan>		</text>
    <text
       xml:space="preserve"
       id="text8758"
       x="157.28284"
       y="129.60976"
       style="font-size:1.45191px;stroke-width:0.120992">			 <tspan
   style="font-size:5.80762px;font-family:'メイリオ'"
   letter-spacing="0em"
   fill="#ff0000"
   fill-opacity="1"
   stroke-width="0.0241984"
   stroke-linejoin="round"
   id="tspan8756">w</tspan>		</text>
    <path
       fill="#ff0000"
       fill-opacity="1"
       stroke-width="0.0241984"
       stroke-linejoin="round"
       d="m 162.94455,137.71745 -7.7435,-7.7435 7.7435,7.7435"
       id="path8760" />
    <line
       fill="none"
       stroke-width="0.0241984"
       stroke-linejoin="round"
       x1="155.20114"
       y1="129.97395"
       x2="166.81638"
       y2="137.71744"
       id="line8762" />
    <path
       fill="none"
       stroke-width="0.322646"
       stroke-linejoin="round"
       stroke="#ff0000"
       stroke-opacity="1"
       d="m 46.792135,138.06832 c 0,0 3.82335,-2.78524 14.906226,-2.8179 11.082875,-0.0339 16.067749,2.78523 16.067749,2.78523"
       id="path8764" />
    <path
       fill="none"
       stroke-width="0.322646"
       stroke-linejoin="round"
       stroke="#ff0000"
       stroke-opacity="1"
       d="m 81.229682,143.18266 c 0,0 -1.790683,1.59467 -6.981244,1.61403 -5.19056,0.0181 -7.525708,-1.59467 -7.525708,-1.59467"
       id="path8766" />
    <path
       fill="none"
       stroke-width="0.322646"
       stroke-linejoin="round"
       stroke="#ff0000"
       stroke-opacity="1"
       d="m 132.56663,137.5109 c 0,0 3.82335,-2.67877 14.90622,-2.71023 11.08288,-0.0315 16.06775,2.67877 16.06775,2.67877"
       id="path8768" />
    <path
       fill="none"
       stroke-width="0.322646"
       stroke-linejoin="round"
       stroke="#ff0000"
       stroke-opacity="1"
       d="m 164.14876,142.19536 c 0,0 -1.5003,1.59347 -5.81972,1.61283 -4.31942,0.0194 -6.26739,-1.59468 -6.26739,-1.59468"
       id="path8770" />
    <path
       fill="none"
       stroke-width="0.322646"
       stroke-linejoin="round"
       stroke="#ff0000"
       stroke-opacity="1"
       d="m 165.70317,135.23953 c 0,0 -1.75439,-2.62916 -4.51301,-4.79976 -2.75862,-2.1706 -6.1343,-3.26679 -6.1343,-3.26679"
       id="path8772" />
    <rect
       x="27.433495"
       y="212.49057"
       fill="#ffffff"
       fill-opacity="1"
       stroke-width="0.322646"
       stroke-linejoin="round"
       stroke="#000000"
       stroke-opacity="1"
       width="69.691444"
       height="69.691444"
       id="rect8776"
       inkscape:export-filename="img38c.png"
       inkscape:export-xdpi="96"
       inkscape:export-ydpi="96" />
    <path
       fill="#000000"
       fill-opacity="1"
       stroke-linejoin="round"
       d="m 29.414472,235.72104 h 0.967937 v 0.32305 h -0.967937 z m 1.935874,0 h 0.967936 v 0.32305 h -0.967936 z m 1.935873,0 h 0.967937 v 0.32305 h -0.967937 z m 1.935873,0 h 0.967937 v 0.32305 h -0.967937 z m 1.935874,0 h 0.967937 v 0.32305 h -0.967937 z m 1.935873,0 h 0.967937 v 0.32305 h -0.967937 z m 1.935874,0 h 0.967936 v 0.32305 h -0.967936 z m 1.935873,0 h 0.967937 v 0.32305 h -0.967937 z m 1.935874,0 h 0.967936 v 0.32305 H 44.90146 Z m 1.935873,0 h 0.967937 v 0.32305 h -0.967937 z m 1.935874,0 h 0.967936 v 0.32305 h -0.967936 z m 1.935873,0 h 0.967937 v 0.32305 H 50.70908 Z m 1.935873,0 h 0.967937 v 0.32305 h -0.967937 z m 1.935874,0 h 0.967937 v 0.32305 h -0.967937 z m 1.935873,0 h 0.967937 v 0.32305 H 56.5167 Z m 1.935874,0 h 0.967936 v 0.32305 h -0.967936 z m 1.935873,0 h 0.967937 v 0.32305 h -0.967937 z m 1.935874,0 h 0.967936 v 0.32305 h -0.967936 z m 1.935873,0 h 0.967938 v 0.32305 h -0.967938 z m 1.935873,0 h 0.967938 v 0.32305 h -0.967938 z m 1.935874,0 h 0.967938 v 0.32305 h -0.967938 z m 1.935873,0 h 0.967938 v 0.32305 h -0.967938 z m 1.935874,0 h 0.967937 v 0.32305 h -0.967937 z m 1.935873,0 h 0.967938 v 0.32305 h -0.967938 z m 1.935874,0 h 0.967936 v 0.32305 h -0.967936 z m 1.935873,0 h 0.967937 v 0.32305 h -0.967937 z m 1.935874,0 h 0.967936 v 0.32305 h -0.967936 z m 1.935873,0 h 0.967937 v 0.32305 h -0.967937 z m 1.935873,0 h 0.967937 v 0.32305 h -0.967937 z m 1.935874,0 h 0.967937 v 0.32305 h -0.967937 z m 1.935873,0 h 0.967937 v 0.32305 h -0.967937 z m 1.935874,0 h 0.967936 v 0.32305 h -0.967936 z m 1.935873,0 h 0.967937 v 0.32305 h -0.967937 z m 1.935874,0 h 0.967936 v 0.32305 h -0.967936 z m 1.935873,0 h 0.967937 v 0.32305 h -0.967937 z m 1.935879,0 v 0.32305 z m -69.691449,0 h 0.967936 v 0.32305 h -0.967936 z"
       id="path8780"
       style="stroke-width:0.120992" />
    <line
       fill="none"
       stroke-width="0.322646"
       stroke-linejoin="round"
       stroke="#000000"
       stroke-opacity="1"
       x1="46.792233"
       y1="212.49057"
       x2="46.792233"
       y2="282.18198"
       id="line8782" />
    <path
       fill="#000000"
       fill-opacity="1"
       stroke-linejoin="round"
       d="m 29.369371,258.79853 h 0.967937 v 0.32305 h -0.967937 z m 1.935874,0 h 0.967936 v 0.32305 h -0.967936 z m 1.935873,0 h 0.967937 v 0.32305 h -0.967937 z m 1.935873,0 h 0.967937 v 0.32305 h -0.967937 z m 1.935874,0 h 0.967937 v 0.32305 h -0.967937 z m 1.935873,0 h 0.967937 v 0.32305 h -0.967937 z m 1.935874,0 h 0.967936 v 0.32305 h -0.967936 z m 1.935873,0 h 0.967937 v 0.32305 h -0.967937 z m 1.935874,0 h 0.967936 v 0.32305 h -0.967936 z m 1.935873,0 h 0.967937 v 0.32305 h -0.967937 z m 1.935874,0 h 0.967936 v 0.32305 h -0.967936 z m 1.935873,0 h 0.967937 v 0.32305 h -0.967937 z m 1.935873,0 h 0.967937 v 0.32305 h -0.967937 z m 1.935874,0 h 0.967937 v 0.32305 h -0.967937 z m 1.935873,0 h 0.967937 v 0.32305 h -0.967937 z m 1.935874,0 h 0.967936 v 0.32305 h -0.967936 z m 1.935873,0 h 0.967937 v 0.32305 h -0.967937 z m 1.935874,0 h 0.967936 v 0.32305 H 62.27922 Z m 1.935873,0 h 0.967937 v 0.32305 h -0.967937 z m 1.935873,0 h 0.967937 v 0.32305 h -0.967937 z m 1.935874,0 h 0.967937 v 0.32305 H 68.08684 Z m 1.935873,0 h 0.967937 v 0.32305 h -0.967937 z m 1.935874,0 h 0.967937 v 0.32305 h -0.967937 z m 1.935873,0 h 0.967937 v 0.32305 H 73.89446 Z m 1.935874,0 h 0.967936 v 0.32305 h -0.967936 z m 1.935873,0 h 0.967937 v 0.32305 h -0.967937 z m 1.935874,0 h 0.967936 v 0.32305 h -0.967936 z m 1.935873,0 h 0.967937 v 0.32305 h -0.967937 z m 1.935873,0 h 0.967937 v 0.32305 h -0.967937 z m 1.935874,0 h 0.967937 v 0.32305 h -0.967937 z m 1.935873,0 h 0.967937 v 0.32305 h -0.967937 z m 1.935874,0 h 0.967936 v 0.32305 h -0.967936 z m 1.935873,0 h 0.967937 v 0.32305 h -0.967937 z m 1.935874,0 h 0.967936 v 0.32305 h -0.967936 z m 1.935873,0 h 0.967937 v 0.32305 h -0.967937 z m 1.935879,0 v 0.32305 z m -69.691449,0 h 0.967936 v 0.32305 h -0.967936 z"
       id="path8786"
       style="stroke-width:0.120992" />
    <text
       xml:space="preserve"
       id="text8790"
       x="20.606941"
       y="236.97495"
       style="font-size:1.45191px;stroke-width:0.120992">			 <tspan
   style="font-size:3.22646px;font-family:'メイリオ'"
   letter-spacing="0em"
   fill="#000000"
   fill-opacity="1"
   stroke-width="0.0241984"
   stroke-linejoin="round"
   id="tspan8788">r0</tspan>		</text>
    <text
       xml:space="preserve"
       id="text8794"
       x="20.606941"
       y="260.20544"
       style="font-size:1.45191px;stroke-width:0.120992">			 <tspan
   style="font-size:3.22646px;font-family:'メイリオ'"
   letter-spacing="0em"
   fill="#000000"
   fill-opacity="1"
   stroke-width="0.0241984"
   stroke-linejoin="round"
   id="tspan8792">r1</tspan>		</text>
    <text
       xml:space="preserve"
       id="text8798"
       x="42.416115"
       y="211.4908"
       style="font-size:1.45191px;stroke-width:0.120992">			 <tspan
   style="font-size:3.22646px;font-family:'メイリオ'"
   letter-spacing="0em"
   fill="#000000"
   fill-opacity="1"
   stroke-width="0.0241984"
   stroke-linejoin="round"
   id="tspan8796">c0</tspan>		</text>
    <text
       xml:space="preserve"
       id="text8802"
       x="61.774849"
       y="211.4908"
       style="font-size:1.45191px;stroke-width:0.120992">			 <tspan
   style="font-size:3.22646px;font-family:'メイリオ'"
   letter-spacing="0em"
   fill="#000000"
   fill-opacity="1"
   stroke-width="0.0241984"
   stroke-linejoin="round"
   id="tspan8800">c1</tspan>		</text>
    <line
       fill="none"
       stroke-width="0.322646"
       stroke-linejoin="round"
       stroke="#000000"
       stroke-opacity="1"
       x1="66.15097"
       y1="212.48131"
       x2="66.15097"
       y2="282.17276"
       id="line8808" />
    <path
       fill="#ffffff"
       fill-opacity="1"
       stroke-width="0.0241984"
       stroke-linejoin="round"
       d="m 46.792135,231.84929 c 2.14156,0 3.871747,1.73261 3.871747,3.87175 0,2.13793 -1.730187,3.87174 -3.871747,3.87174 -2.129461,0 -3.871747,-1.73381 -3.871747,-3.87174 0,-2.13914 1.742286,-3.87175 3.871747,-3.87175 z"
       id="path8810" />
    <path
       fill="#ffffff"
       fill-opacity="1"
       stroke-width="0.0241984"
       stroke-linejoin="round"
       d="m 46.792135,255.07977 c 2.14156,0 3.871747,1.73261 3.871747,3.87175 0,2.13793 -1.730187,3.87174 -3.871747,3.87174 -2.129461,0 -3.871747,-1.73381 -3.871747,-3.87174 0,-2.13914 1.742286,-3.87175 3.871747,-3.87175 z"
       id="path8812" />
    <path
       fill="#ffffff"
       fill-opacity="1"
       stroke-width="0.0241984"
       stroke-linejoin="round"
       d="m 66.150869,231.84929 c 2.14156,0 3.871747,1.73261 3.871747,3.87175 0,2.13793 -1.730187,3.87174 -3.871747,3.87174 -2.12946,0 -3.871746,-1.73381 -3.871746,-3.87174 0,-2.13914 1.742286,-3.87175 3.871746,-3.87175 z"
       id="path8814" />
    <path
       fill="#ffffff"
       fill-opacity="1"
       stroke-width="0.0241984"
       stroke-linejoin="round"
       d="m 66.150869,255.07977 c 2.14156,0 3.871747,1.73261 3.871747,3.87175 0,2.13793 -1.730187,3.87174 -3.871747,3.87174 -2.12946,0 -3.871746,-1.73381 -3.871746,-3.87174 0,-2.13914 1.742286,-3.87175 3.871746,-3.87175 z"
       id="path8816" />
    <text
       xml:space="preserve"
       id="text8820"
       x="42.658096"
       y="237.6557"
       style="font-size:1.45191px;stroke-width:0.120992">			 <tspan
   style="font-size:4.83968px;font-family:'メイリオ'"
   letter-spacing="0em"
   fill="#000000"
   fill-opacity="1"
   stroke-width="0.0241984"
   stroke-linejoin="round"
   id="tspan8818">X</tspan>		</text>
    <text
       xml:space="preserve"
       id="text8824"
       x="62.016838"
       y="237.6557"
       style="font-size:1.45191px;stroke-width:0.120992">			 <tspan
   style="font-size:4.83968px;font-family:'メイリオ'"
   letter-spacing="0em"
   fill="#000000"
   fill-opacity="1"
   stroke-width="0.0241984"
   stroke-linejoin="round"
   id="tspan8822">X</tspan>		</text>
    <path
       fill="#ffffff"
       fill-opacity="1"
       stroke-width="0.322646"
       stroke-linejoin="round"
       stroke="#000000"
       stroke-opacity="1"
       d="m 83.743119,220.96 c 2.129461,0 3.871747,1.73261 3.871747,3.87175 0,2.13793 -1.742286,3.87174 -3.871747,3.87174 -2.14156,0 -3.871747,-1.73381 -3.871747,-3.87174 0,-2.13914 1.730187,-3.87175 3.871747,-3.87175 z"
       id="path8826" />
    <text
       xml:space="preserve"
       id="text8830"
       x="79.439697"
       y="226.64542"
       style="font-size:1.45191px;stroke-width:0.120992">			 <tspan
   style="font-size:4.83968px;font-family:'メイリオ'"
   letter-spacing="0em"
   fill="#000000"
   fill-opacity="1"
   stroke-width="0.0241984"
   stroke-linejoin="round"
   id="tspan8828">X</tspan>		</text>
    <text
       xml:space="preserve"
       id="text8834"
       x="42.658096"
       y="260.88617"
       style="font-size:1.45191px;stroke-width:0.120992">			 <tspan
   style="font-size:4.83968px;font-family:'メイリオ'"
   letter-spacing="0em"
   fill="#000000"
   fill-opacity="1"
   stroke-width="0.0241984"
   stroke-linejoin="round"
   id="tspan8832">X</tspan>		</text>
    <text
       xml:space="preserve"
       id="text8838"
       x="62.016838"
       y="260.88617"
       style="font-size:1.45191px;stroke-width:0.120992">			 <tspan
   style="font-size:4.83968px;font-family:'メイリオ'"
   letter-spacing="0em"
   fill="#000000"
   fill-opacity="1"
   stroke-width="0.0241984"
   stroke-linejoin="round"
   id="tspan8836">X</tspan>		</text>
    <rect
       x="112.61193"
       y="212.49057"
       fill="none"
       stroke-width="0.322646"
       stroke-linejoin="round"
       stroke="#000000"
       stroke-opacity="1"
       width="69.691444"
       height="69.691444"
       id="rect8840" />
    <path
       fill="#000000"
       fill-opacity="1"
       stroke-linejoin="round"
       d="m 114.54771,235.72103 h 0.96794 v 0.32305 h -0.96794 z m 1.93587,0 h 0.96794 v 0.32305 h -0.96794 z m 1.93588,0 h 0.96793 v 0.32305 h -0.96793 z m 1.93587,0 h 0.96794 v 0.32305 h -0.96794 z m 1.93587,0 h 0.96794 v 0.32305 h -0.96794 z m 1.93588,0 h 0.96793 v 0.32305 h -0.96793 z m 1.93587,0 h 0.96794 v 0.32305 h -0.96794 z m 1.93587,0 h 0.96794 v 0.32305 h -0.96794 z m 1.93588,0 h 0.96793 v 0.32305 h -0.96793 z m 1.93587,0 h 0.96794 v 0.32305 h -0.96794 z m 1.93587,0 h 0.96794 v 0.32305 h -0.96794 z m 1.93588,0 h 0.96794 v 0.32305 h -0.96794 z m 1.93587,0 h 0.96794 v 0.32305 h -0.96794 z m 1.93588,0 h 0.96793 v 0.32305 h -0.96793 z m 1.93587,0 h 0.96794 v 0.32305 h -0.96794 z m 1.93587,0 h 0.96794 v 0.32305 h -0.96794 z m 1.93588,0 h 0.96793 v 0.32305 h -0.96793 z m 1.93587,0 h 0.96794 v 0.32305 h -0.96794 z m 1.93587,0 h 0.96794 v 0.32305 h -0.96794 z m 1.93588,0 h 0.96793 v 0.32305 h -0.96793 z m 1.93587,0 h 0.96794 v 0.32305 h -0.96794 z m 1.93587,0 h 0.96794 v 0.32305 h -0.96794 z m 1.93588,0 h 0.96793 v 0.32305 h -0.96793 z m 1.93587,0 h 0.96794 v 0.32305 h -0.96794 z m 1.93587,0 h 0.96794 v 0.32305 h -0.96794 z m 1.93588,0 h 0.96793 v 0.32305 h -0.96793 z m 1.93587,0 h 0.96794 v 0.32305 h -0.96794 z m 1.93587,0 h 0.96794 v 0.32305 h -0.96794 z m 1.93588,0 h 0.96793 v 0.32305 h -0.96793 z m 1.93587,0 h 0.96794 v 0.32305 h -0.96794 z m 1.93587,0 h 0.96794 v 0.32305 h -0.96794 z m 1.93588,0 h 0.96793 v 0.32305 h -0.96793 z m 1.93587,0 h 0.96794 v 0.32305 h -0.96794 z m 1.93587,0 h 0.96794 v 0.32305 h -0.96794 z m 1.93588,0 h 0.96793 v 0.32305 h -0.96793 z m 1.93587,0 v 0.32305 z m -69.69144,0 h 0.96793 v 0.32305 h -0.96793 z"
       id="path8844"
       style="stroke-width:0.120992" />
    <line
       fill="none"
       stroke-width="0.322646"
       stroke-linejoin="round"
       stroke="#000000"
       stroke-opacity="1"
       x1="131.97066"
       y1="212.49057"
       x2="131.97066"
       y2="282.18198"
       id="line8846" />
    <path
       fill="#000000"
       fill-opacity="1"
       stroke-linejoin="round"
       d="m 114.54771,258.95152 h 0.96794 v 0.32305 h -0.96794 z m 1.93587,0 h 0.96794 v 0.32305 h -0.96794 z m 1.93588,0 h 0.96793 v 0.32305 h -0.96793 z m 1.93587,0 h 0.96794 v 0.32305 h -0.96794 z m 1.93587,0 h 0.96794 v 0.32305 h -0.96794 z m 1.93588,0 h 0.96793 v 0.32305 h -0.96793 z m 1.93587,0 h 0.96794 v 0.32305 h -0.96794 z m 1.93587,0 h 0.96794 v 0.32305 h -0.96794 z m 1.93588,0 h 0.96793 v 0.32305 h -0.96793 z m 1.93587,0 h 0.96794 v 0.32305 h -0.96794 z m 1.93587,0 h 0.96794 v 0.32305 h -0.96794 z m 1.93588,0 h 0.96794 v 0.32305 h -0.96794 z m 1.93587,0 h 0.96794 v 0.32305 h -0.96794 z m 1.93588,0 h 0.96793 v 0.32305 h -0.96793 z m 1.93587,0 h 0.96794 v 0.32305 h -0.96794 z m 1.93587,0 h 0.96794 v 0.32305 h -0.96794 z m 1.93588,0 h 0.96793 v 0.32305 h -0.96793 z m 1.93587,0 h 0.96794 v 0.32305 h -0.96794 z m 1.93587,0 h 0.96794 v 0.32305 h -0.96794 z m 1.93588,0 h 0.96793 v 0.32305 h -0.96793 z m 1.93587,0 h 0.96794 v 0.32305 h -0.96794 z m 1.93587,0 h 0.96794 v 0.32305 h -0.96794 z m 1.93588,0 h 0.96793 v 0.32305 h -0.96793 z m 1.93587,0 h 0.96794 v 0.32305 h -0.96794 z m 1.93587,0 h 0.96794 v 0.32305 h -0.96794 z m 1.93588,0 h 0.96793 v 0.32305 h -0.96793 z m 1.93587,0 h 0.96794 v 0.32305 h -0.96794 z m 1.93587,0 h 0.96794 v 0.32305 h -0.96794 z m 1.93588,0 h 0.96793 v 0.32305 h -0.96793 z m 1.93587,0 h 0.96794 v 0.32305 h -0.96794 z m 1.93587,0 h 0.96794 v 0.32305 h -0.96794 z m 1.93588,0 h 0.96793 v 0.32305 h -0.96793 z m 1.93587,0 h 0.96794 v 0.32305 h -0.96794 z m 1.93587,0 h 0.96794 v 0.32305 h -0.96794 z m 1.93588,0 h 0.96793 v 0.32305 h -0.96793 z m 1.93587,0 v 0.32305 z m -69.69144,0 h 0.96793 v 0.32305 h -0.96793 z"
       id="path8850"
       style="stroke-width:0.120992" />
    <text
       xml:space="preserve"
       id="text8854"
       x="105.78539"
       y="236.97495"
       style="font-size:1.45191px;stroke-width:0.120992">			 <tspan
   style="font-size:3.22646px;font-family:'メイリオ'"
   letter-spacing="0em"
   fill="#000000"
   fill-opacity="1"
   stroke-width="0.0241984"
   stroke-linejoin="round"
   id="tspan8852">r0</tspan>		</text>
    <text
       xml:space="preserve"
       id="text8858"
       x="105.78539"
       y="260.20544"
       style="font-size:1.45191px;stroke-width:0.120992">			 <tspan
   style="font-size:3.22646px;font-family:'メイリオ'"
   letter-spacing="0em"
   fill="#000000"
   fill-opacity="1"
   stroke-width="0.0241984"
   stroke-linejoin="round"
   id="tspan8856">r1</tspan>		</text>
    <text
       xml:space="preserve"
       id="text8862"
       x="127.0654"
       y="211.4908"
       style="font-size:1.45191px;stroke-width:0.120992">			 <tspan
   style="font-size:3.22646px;font-family:'メイリオ'"
   letter-spacing="0em"
   fill="#000000"
   fill-opacity="1"
   stroke-width="0.0241984"
   stroke-linejoin="round"
   id="tspan8860">c0</tspan>		</text>
    <text
       xml:space="preserve"
       id="text8866"
       x="146.42415"
       y="211.4908"
       style="font-size:1.45191px;stroke-width:0.120992">			 <tspan
   style="font-size:3.22646px;font-family:'メイリオ'"
   letter-spacing="0em"
   fill="#000000"
   fill-opacity="1"
   stroke-width="0.0241984"
   stroke-linejoin="round"
   id="tspan8864">c1</tspan>		</text>
    <line
       fill="none"
       stroke-width="0.322646"
       stroke-linejoin="round"
       stroke="#000000"
       stroke-opacity="1"
       x1="151.32939"
       y1="212.48131"
       x2="151.32939"
       y2="282.17276"
       id="line8872" />
    <path
       fill="#ffffff"
       fill-opacity="1"
       stroke-width="0.0241984"
       stroke-linejoin="round"
       d="m 131.97057,231.84929 c 2.14156,0 3.87175,1.73261 3.87175,3.87175 0,2.13793 -1.73019,3.87174 -3.87175,3.87174 -2.12946,0 -3.87175,-1.73381 -3.87175,-3.87174 0,-2.13914 1.74229,-3.87175 3.87175,-3.87175 z"
       id="path8874" />
    <path
       fill="#ffffff"
       fill-opacity="1"
       stroke-width="0.0241984"
       stroke-linejoin="round"
       d="m 131.97057,255.07977 c 2.14156,0 3.87175,1.73261 3.87175,3.87175 0,2.13793 -1.73019,3.87174 -3.87175,3.87174 -2.12946,0 -3.87175,-1.73381 -3.87175,-3.87174 0,-2.13914 1.74229,-3.87175 3.87175,-3.87175 z"
       id="path8876" />
    <path
       fill="#ffffff"
       fill-opacity="1"
       stroke-width="0.0241984"
       stroke-linejoin="round"
       d="m 151.32931,231.84929 c 2.14156,0 3.87174,1.73261 3.87174,3.87175 0,2.13793 -1.73018,3.87174 -3.87174,3.87174 -2.12946,0 -3.87175,-1.73381 -3.87175,-3.87174 0,-2.13914 1.74229,-3.87175 3.87175,-3.87175 z"
       id="path8878" />
    <path
       fill="#ffffff"
       fill-opacity="1"
       stroke-width="0.0241984"
       stroke-linejoin="round"
       d="m 151.32931,255.07977 c 2.14156,0 3.87174,1.73261 3.87174,3.87175 0,2.13793 -1.73018,3.87174 -3.87174,3.87174 -2.12946,0 -3.87175,-1.73381 -3.87175,-3.87174 0,-2.13914 1.74229,-3.87175 3.87175,-3.87175 z"
       id="path8880" />
    <text
       xml:space="preserve"
       id="text8884"
       x="127.83656"
       y="237.6557"
       style="font-size:1.45191px;stroke-width:0.120992">			 <tspan
   style="font-size:4.83968px;font-family:'メイリオ'"
   letter-spacing="0em"
   fill="#000000"
   fill-opacity="1"
   stroke-width="0.0241984"
   stroke-linejoin="round"
   id="tspan8882">X</tspan>		</text>
    <text
       xml:space="preserve"
       id="text8888"
       x="146.99513"
       y="237.6557"
       style="font-size:1.45191px;stroke-width:0.120992">			 <tspan
   style="font-size:4.83968px;font-family:'メイリオ'"
   letter-spacing="0em"
   fill="#000000"
   fill-opacity="1"
   stroke-width="0.0241984"
   stroke-linejoin="round"
   id="tspan8886">X</tspan>		</text>
    <path
       fill="#ffffff"
       fill-opacity="1"
       stroke-width="0.322646"
       stroke-linejoin="round"
       stroke="#000000"
       stroke-opacity="1"
       d="m 166.659,243.46453 c 2.14156,0 4.47671,1.73382 4.47671,3.87175 0,2.13793 -2.33515,3.87174 -4.47671,3.87174 -2.14156,0 -3.87174,-1.73381 -3.87174,-3.87174 0,-2.13914 1.73018,-3.87175 3.87174,-3.87175 z"
       id="path8890" />
    <text
       xml:space="preserve"
       id="text8894"
       x="162.56129"
       y="249.27095"
       style="font-size:1.45191px;stroke-width:0.120992">			 <tspan
   style="font-size:4.83968px;font-family:'メイリオ'"
   letter-spacing="0em"
   fill="#000000"
   fill-opacity="1"
   stroke-width="0.0241984"
   stroke-linejoin="round"
   id="tspan8892">X</tspan>		</text>
    <text
       xml:space="preserve"
       id="text8898"
       x="127.3074"
       y="260.88617"
       style="font-size:1.45191px;stroke-width:0.120992">			 <tspan
   style="font-size:4.83968px;font-family:'メイリオ'"
   letter-spacing="0em"
   fill="#000000"
   fill-opacity="1"
   stroke-width="0.0241984"
   stroke-linejoin="round"
   id="tspan8896">X</tspan>		</text>
    <text
       xml:space="preserve"
       id="text8902"
       x="146.96614"
       y="260.98624"
       style="font-size:1.45191px;stroke-width:0.120992">			 <tspan
   style="font-size:4.83968px;font-family:'メイリオ'"
   letter-spacing="0em"
   fill="#000000"
   fill-opacity="1"
   stroke-width="0.0241984"
   stroke-linejoin="round"
   id="tspan8900">X</tspan>		</text>
    <rect
       x="147.45764"
       y="218.29817"
       fill="#ffffff"
       fill-opacity="1"
       stroke-width="0.322646"
       stroke-linejoin="round"
       stroke="#000000"
       stroke-opacity="1"
       width="7.7434936"
       height="7.7434936"
       id="rect8904" />
    <text
       xml:space="preserve"
       id="text8908"
       x="147.25313"
       y="223.86261"
       style="font-size:1.45191px;stroke-width:0.120992">			 <tspan
   style="font-size:4.83968px;font-family:'メイリオ'"
   letter-spacing="0em"
   fill="#000000"
   fill-opacity="1"
   stroke-width="0.0241984"
   stroke-linejoin="round"
   id="tspan8906">X</tspan>		</text>
    <text
       xml:space="preserve"
       id="text8912"
       x="54.499332"
       y="288.71436"
       style="font-size:1.45191px;stroke-width:0.120992">			 <tspan
   style="font-size:5.80762px;font-family:'メイリオ'"
   letter-spacing="0em"
   fill="#000000"
   fill-opacity="1"
   stroke-width="0.0241984"
   stroke-linejoin="round"
   id="tspan8910">Fish</tspan>		</text>
    <text
       xml:space="preserve"
       id="text8916"
       x="128.06252"
       y="288.71436"
       style="font-size:1.45191px;stroke-width:0.120992">			 <tspan
   style="font-size:5.80762px;font-family:'メイリオ'"
   letter-spacing="0em"
   fill="#000000"
   fill-opacity="1"
   stroke-width="0.0241984"
   stroke-linejoin="round"
   id="tspan8914">Finned Fish</tspan>		</text>
    <path
       fill="#ff0000"
       fill-opacity="1"
       stroke-width="0.0241984"
       stroke-linejoin="round"
       d="m 162.94455,233.66417 -7.7435,-7.74349 7.7435,7.74349"
       id="path8918" />
    <path
       fill="none"
       stroke-width="0.322646"
       stroke-linejoin="round"
       stroke="#ff0000"
       stroke-opacity="1"
       d="m 163.54951,249.76459 c 0,0 -3.38778,0.16213 -6.1222,2.42105 -2.74652,2.25771 -4.52511,4.19359 -4.52511,4.19359"
       id="path8920" />
    <path
       fill="none"
       stroke-width="0.322646"
       stroke-linejoin="round"
       stroke="#ff0000"
       stroke-opacity="1"
       d="m 81.758849,227.17899 c 0,0 -4.355715,-0.64609 -7.416815,1.45191 -3.0611,2.09679 -6.291589,5.96854 -6.291589,5.96854"
       id="path8922" />
    <path
       fill="none"
       stroke-width="0.322646"
       stroke-linejoin="round"
       stroke="#ff0000"
       stroke-opacity="1"
       d="m 79.822976,224.27518 -40.810632,-0.16213 v 17.59709 l 6.448878,-5.17483"
       id="path8924" />
    <path
       fill="none"
       stroke-width="0.315622"
       stroke-linejoin="round"
       stroke="#ff0000"
       stroke-opacity="1"
       d="m 166.93902,243.30147 v -21.4659 h -13.07066"
       id="path8926" />
    <path
       fill="none"
       stroke-width="0.335583"
       stroke-linejoin="round"
       stroke="#ff0000"
       stroke-opacity="1"
       d="m 163.01574,247.67503 h -44.52806 l -0.14516,23.21541 11.77012,-9.42598"
       id="path8928" />
    <rect
       x="27.433495"
       y="20.821339"
       fill="#ffffff"
       fill-opacity="1"
       stroke-width="0.322646"
       stroke-linejoin="round"
       stroke="#000000"
       stroke-opacity="1"
       width="69.691444"
       height="69.691444"
       id="rect5916"
       inkscape:export-filename="img38a.png"
       inkscape:export-xdpi="96"
       inkscape:export-ydpi="96" />
    <path
       fill="#000000"
       fill-opacity="1"
       stroke-linejoin="round"
       d="m 29.530692,43.796387 h 0.967937 v 0.32305 h -0.967937 z m 1.935874,0 h 0.967936 v 0.32305 h -0.967936 z m 1.935873,0 h 0.967937 v 0.32305 h -0.967937 z m 1.935873,0 h 0.967937 v 0.32305 h -0.967937 z m 1.935874,0 h 0.967937 v 0.32305 h -0.967937 z m 1.935873,0 h 0.967937 v 0.32305 h -0.967937 z m 1.935874,0 h 0.967936 v 0.32305 h -0.967936 z m 1.935873,0 h 0.967937 v 0.32305 h -0.967937 z m 1.935874,0 h 0.967936 v 0.32305 H 45.01768 Z m 1.935873,0 h 0.967937 v 0.32305 h -0.967937 z m 1.935874,0 h 0.967936 v 0.32305 h -0.967936 z m 1.935873,0 h 0.967937 v 0.32305 H 50.8253 Z m 1.935873,0 h 0.967937 v 0.32305 h -0.967937 z m 1.935874,0 h 0.967937 v 0.32305 h -0.967937 z m 1.935873,0 h 0.967937 v 0.32305 H 56.63292 Z m 1.935874,0 h 0.967936 v 0.32305 h -0.967936 z m 1.935873,0 h 0.967937 v 0.32305 h -0.967937 z m 1.935874,0 h 0.967936 v 0.32305 h -0.967936 z m 1.935873,0 h 0.967937 v 0.32305 h -0.967937 z m 1.935873,0 h 0.967937 v 0.32305 h -0.967937 z m 1.935874,0 h 0.967937 v 0.32305 h -0.967937 z m 1.935873,0 h 0.967937 v 0.32305 h -0.967937 z m 1.935874,0 h 0.967937 v 0.32305 h -0.967937 z m 1.935873,0 h 0.967937 v 0.32305 h -0.967937 z m 1.935874,0 h 0.967936 v 0.32305 h -0.967936 z m 1.935873,0 h 0.967937 v 0.32305 h -0.967937 z m 1.935874,0 h 0.967936 v 0.32305 h -0.967936 z m 1.935873,0 h 0.967937 v 0.32305 h -0.967937 z m 1.935873,0 h 0.967937 v 0.32305 h -0.967937 z m 1.935874,0 h 0.967937 v 0.32305 h -0.967937 z m 1.935873,0 h 0.967937 v 0.32305 h -0.967937 z m 1.935874,0 h 0.967936 v 0.32305 h -0.967936 z m 1.935873,0 h 0.967937 v 0.32305 h -0.967937 z m 1.935874,0 h 0.967936 v 0.32305 h -0.967936 z m 1.935873,0 h 0.967937 v 0.32305 h -0.967937 z m 1.935871,0 v 0.32305 z m -69.691441,0 h 0.967936 v 0.32305 h -0.967936 z"
       id="path5918"
       style="stroke-width:0.120992" />
    <line
       fill="none"
       stroke-width="0.322646"
       stroke-linejoin="round"
       stroke="#000000"
       stroke-opacity="1"
       x1="46.792233"
       y1="20.821339"
       x2="46.792233"
       y2="90.512779"
       id="line5920" />
    <path
       fill="#000000"
       fill-opacity="1"
       stroke-linejoin="round"
       d="m 29.550068,67.282297 h 0.967937 v 0.32305 h -0.967937 z m 1.935874,0 h 0.967936 v 0.32305 h -0.967936 z m 1.935873,0 h 0.967937 v 0.32305 h -0.967937 z m 1.935873,0 h 0.967937 v 0.32305 h -0.967937 z m 1.935874,0 h 0.967937 v 0.32305 h -0.967937 z m 1.935873,0 h 0.967937 v 0.32305 h -0.967937 z m 1.935874,0 h 0.967936 v 0.32305 h -0.967936 z m 1.935873,0 h 0.967937 v 0.32305 h -0.967937 z m 1.935874,0 h 0.967936 v 0.32305 h -0.967936 z m 1.935873,0 h 0.967937 v 0.32305 h -0.967937 z m 1.935874,0 h 0.967936 v 0.32305 h -0.967936 z m 1.935873,0 h 0.967937 v 0.32305 h -0.967937 z m 1.935873,0 h 0.967937 v 0.32305 h -0.967937 z m 1.935874,0 h 0.967937 v 0.32305 h -0.967937 z m 1.935873,0 h 0.967937 v 0.32305 h -0.967937 z m 1.935874,0 h 0.967936 v 0.32305 H 58.58817 Z m 1.935873,0 h 0.967937 v 0.32305 h -0.967937 z m 1.935874,0 h 0.967936 v 0.32305 h -0.967936 z m 1.935873,0 h 0.967937 v 0.32305 H 64.39579 Z m 1.935873,0 H 67.2996 v 0.32305 h -0.967937 z m 1.935874,0 h 0.967937 v 0.32305 h -0.967937 z m 1.935873,0 h 0.967937 v 0.32305 H 70.20341 Z m 1.935874,0 h 0.967937 v 0.32305 h -0.967937 z m 1.935873,0 h 0.967937 v 0.32305 h -0.967937 z m 1.935874,0 h 0.967936 v 0.32305 h -0.967936 z m 1.935873,0 h 0.967937 v 0.32305 h -0.967937 z m 1.935874,0 h 0.967936 v 0.32305 h -0.967936 z m 1.935873,0 h 0.967937 v 0.32305 h -0.967937 z m 1.935873,0 h 0.967937 v 0.32305 h -0.967937 z m 1.935874,0 h 0.967937 v 0.32305 h -0.967937 z m 1.935873,0 h 0.967937 v 0.32305 h -0.967937 z m 1.935874,0 h 0.967936 v 0.32305 h -0.967936 z m 1.935873,0 h 0.967937 v 0.32305 h -0.967937 z m 1.935874,0 h 0.967936 v 0.32305 h -0.967936 z m 1.935873,0 h 0.967937 v 0.32305 h -0.967937 z m 1.935875,0 v 0.32305 z m -69.691445,0 h 0.967936 v 0.32305 h -0.967936 z"
       id="path5922"
       style="stroke-width:0.120992" />
    <text
       xml:space="preserve"
       id="text5926"
       x="20.606941"
       y="45.305737"
       style="font-size:1.45191px;stroke-width:0.120992">			 <tspan
   style="font-size:3.22646px;font-family:'メイリオ'"
   letter-spacing="0em"
   fill="#000000"
   fill-opacity="1"
   stroke-width="0.0241984"
   stroke-linejoin="round"
   id="tspan5924">r0</tspan>		</text>
    <text
       xml:space="preserve"
       id="text5930"
       x="20.606941"
       y="68.536201"
       style="font-size:1.45191px;stroke-width:0.120992">			 <tspan
   style="font-size:3.22646px;font-family:'メイリオ'"
   letter-spacing="0em"
   fill="#000000"
   fill-opacity="1"
   stroke-width="0.0241984"
   stroke-linejoin="round"
   id="tspan5928">r1</tspan>		</text>
    <text
       xml:space="preserve"
       id="text5934"
       x="42.416115"
       y="19.821598"
       style="font-size:1.45191px;stroke-width:0.120992">			 <tspan
   style="font-size:3.22646px;font-family:'メイリオ'"
   letter-spacing="0em"
   fill="#000000"
   fill-opacity="1"
   stroke-width="0.0241984"
   stroke-linejoin="round"
   id="tspan5932">c0</tspan>		</text>
    <text
       xml:space="preserve"
       id="text5938"
       x="61.774845"
       y="19.821598"
       style="font-size:1.45191px;stroke-width:0.120992">			 <tspan
   style="font-size:3.22646px;font-family:'メイリオ'"
   letter-spacing="0em"
   fill="#000000"
   fill-opacity="1"
   stroke-width="0.0241984"
   stroke-linejoin="round"
   id="tspan5936">c1</tspan>		</text>
    <text
       xml:space="preserve"
       id="text5942"
       x="77.261841"
       y="19.821598"
       style="font-size:1.45191px;stroke-width:0.120992">			 <tspan
   style="font-size:3.22646px;font-family:'メイリオ'"
   letter-spacing="0em"
   fill="#000000"
   fill-opacity="1"
   stroke-width="0.0241984"
   stroke-linejoin="round"
   id="tspan5940">cx</tspan>		</text>
    <line
       fill="none"
       stroke-width="0.322646"
       stroke-linejoin="round"
       stroke="#000000"
       stroke-opacity="1"
       x1="66.15097"
       y1="20.812092"
       x2="66.15097"
       y2="90.50354"
       id="line5944" />
    <path
       fill="#ffffff"
       fill-opacity="1"
       stroke-width="0.0217647"
       stroke-linejoin="round"
       d="m 47.002581,40.180067 c 1.732461,0 3.132134,1.73261 3.132134,3.87175 0,2.13793 -1.399673,3.87175 -3.132134,3.87175 -1.722674,0 -3.132134,-1.73382 -3.132134,-3.87175 0,-2.13914 1.40946,-3.87175 3.132134,-3.87175 z"
       id="path5946" />
    <path
       fill="#ffffff"
       fill-opacity="1"
       stroke-width="0.0195465"
       stroke-linejoin="round"
       d="m 46.878221,63.590137 c 1.397322,0 2.526231,1.73261 2.526231,3.87175 0,2.13793 -1.128909,3.87174 -2.526231,3.87174 -1.389427,0 -2.52623,-1.73381 -2.52623,-3.87174 0,-2.13914 1.136803,-3.87175 2.52623,-3.87175 z"
       id="path5948" />
    <path
       fill="#ffffff"
       fill-opacity="1"
       stroke-width="0.0221676"
       stroke-linejoin="round"
       d="m 66.244295,40.180067 c 1.797188,0 3.249154,1.73261 3.249154,3.87175 0,2.13793 -1.451966,3.87175 -3.249154,3.87175 -1.787034,0 -3.249153,-1.73382 -3.249153,-3.87175 0,-2.13914 1.462119,-3.87175 3.249153,-3.87175 z"
       id="path5950" />
    <path
       fill="#ffffff"
       fill-opacity="1"
       stroke-width="0.0204613"
       stroke-linejoin="round"
       d="m 66.196067,63.410557 c 1.531169,0 2.768215,1.7326 2.768215,3.87174 0,2.13793 -1.237046,3.87175 -2.768215,3.87175 -1.522517,0 -2.768214,-1.73382 -2.768214,-3.87175 0,-2.13914 1.245697,-3.87174 2.768214,-3.87174 z"
       id="path5952" />
    <path
       fill="#ffffff"
       fill-opacity="1"
       stroke-width="0.0241984"
       stroke-linejoin="round"
       d="m 81.637857,40.180067 c 2.14156,0 3.871747,1.73261 3.871747,3.87175 0,2.13793 -1.730187,3.87175 -3.871747,3.87175 -2.129461,0 -3.871747,-1.73382 -3.871747,-3.87175 0,-2.13914 1.742286,-3.87175 3.871747,-3.87175 z"
       id="path5954" />
    <path
       fill="#000000"
       fill-opacity="1"
       stroke-linejoin="round"
       d="m 81.681959,22.757207 v 0.96794 h -0.32668 v -0.96794 z m 0,1.93588 v 0.96793 h -0.32668 v -0.96793 z m 0,1.93587 v 0.96794 h -0.32668 v -0.96794 z m 0,1.93587 v 0.96794 h -0.32668 v -0.96794 z m 0,1.93588 v 0.96793 h -0.32668 v -0.96793 z m 0,1.93587 v 0.96794 h -0.32668 v -0.96794 z m 0,1.93587 v 0.96794 h -0.32668 v -0.96794 z m 0,1.93588 v 0.96793 h -0.32668 v -0.96793 z m 0,1.93587 v 0.96794 h -0.32668 v -0.96794 z m 0,1.93587 v 0.96794 h -0.32668 v -0.96794 z m 0,1.93588 v 0.96793 h -0.32668 v -0.96793 z m 0,1.93587 v 0.96794 h -0.32668 v -0.96794 z m 0,1.93587 v 0.96794 h -0.32668 v -0.96794 z m 0,1.93588 v 0.96793 h -0.32668 v -0.96793 z m 0,1.93587 v 0.96794 h -0.32668 v -0.96794 z m 0,1.93587 h -0.32668 z m 0,-30.97397 v 0.96794 h -0.32668 v -0.96794 z"
       id="path6090"
       style="stroke-width:0.120992" />
    <text
       xml:space="preserve"
       id="text5958"
       x="42.658096"
       y="45.986492"
       style="font-size:1.45191px;stroke-width:0.120992">			 <tspan
   style="font-size:4.83968px;font-family:'メイリオ'"
   letter-spacing="0em"
   fill="#000000"
   fill-opacity="1"
   stroke-width="0.0241984"
   stroke-linejoin="round"
   id="tspan5956">X</tspan>		</text>
    <text
       xml:space="preserve"
       id="text5962"
       x="62.016834"
       y="45.986492"
       style="font-size:1.45191px;stroke-width:0.120992">			 <tspan
   style="font-size:4.83968px;font-family:'メイリオ'"
   letter-spacing="0em"
   fill="#000000"
   fill-opacity="1"
   stroke-width="0.0241984"
   stroke-linejoin="round"
   id="tspan5960">X</tspan>		</text>
    <path
       fill="#ffffff"
       fill-opacity="1"
       stroke-width="0.322646"
       stroke-linejoin="round"
       stroke="#000000"
       stroke-opacity="1"
       d="m 81.637857,40.180067 c 2.14156,0 3.871747,1.73261 3.871747,3.87175 0,2.13793 -1.730187,3.87175 -3.871747,3.87175 -2.129461,0 -3.871747,-1.73382 -3.871747,-3.87175 0,-2.13914 1.742286,-3.87175 3.871747,-3.87175 z"
       id="path5964" />
    <text
       xml:space="preserve"
       id="text5968"
       x="77.503822"
       y="45.986492"
       style="font-size:1.45191px;stroke-width:0.120992">			 <tspan
   style="font-size:4.83968px;font-family:'メイリオ'"
   letter-spacing="0em"
   fill="#000000"
   fill-opacity="1"
   stroke-width="0.0241984"
   stroke-linejoin="round"
   id="tspan5966">X</tspan>		</text>
    <text
       xml:space="preserve"
       id="text5972"
       x="42.658096"
       y="69.216957"
       style="font-size:1.45191px;stroke-width:0.120992">			 <tspan
   style="font-size:4.83968px;font-family:'メイリオ'"
   letter-spacing="0em"
   fill="#000000"
   fill-opacity="1"
   stroke-width="0.0241984"
   stroke-linejoin="round"
   id="tspan5970">X</tspan>		</text>
    <text
       xml:space="preserve"
       id="text5976"
       x="62.548283"
       y="68.72068"
       style="font-size:1.4415px;stroke-width:0.120124"
       transform="scale(0.99283007,1.0072217)">			 <tspan
   style="font-size:4.80498px;font-family:'メイリオ'"
   letter-spacing="0em"
   fill="#000000"
   fill-opacity="1"
   stroke-width="0.0240249"
   stroke-linejoin="round"
   id="tspan5974">X</tspan>		</text>
    <rect
       x="112.61193"
       y="20.821339"
       fill="#ffffff"
       fill-opacity="1"
       stroke-width="0.322646"
       stroke-linejoin="round"
       stroke="#000000"
       stroke-opacity="1"
       width="69.691444"
       height="69.691444"
       id="rect5978" />
    <path
       fill="#000000"
       fill-opacity="1"
       stroke-linejoin="round"
       d="m 114.89607,43.890297 h 0.96794 v 0.32305 h -0.96794 z m 1.93587,0 h 0.96794 v 0.32305 h -0.96794 z m 1.93588,0 h 0.96793 v 0.32305 h -0.96793 z m 1.93587,0 h 0.96794 v 0.32305 h -0.96794 z m 1.93587,0 h 0.96794 v 0.32305 h -0.96794 z m 1.93588,0 h 0.96793 v 0.32305 h -0.96793 z m 1.93587,0 h 0.96794 v 0.32305 h -0.96794 z m 1.93587,0 h 0.96794 v 0.32305 h -0.96794 z m 1.93588,0 h 0.96793 v 0.32305 h -0.96793 z m 1.93587,0 h 0.96794 v 0.32305 h -0.96794 z m 1.93587,0 h 0.96794 v 0.32305 h -0.96794 z m 1.93588,0 h 0.96794 v 0.32305 h -0.96794 z m 1.93587,0 h 0.96794 v 0.32305 h -0.96794 z m 1.93588,0 h 0.96793 v 0.32305 h -0.96793 z m 1.93587,0 h 0.96794 v 0.32305 h -0.96794 z m 1.93587,0 h 0.96794 v 0.32305 h -0.96794 z m 1.93588,0 h 0.96793 v 0.32305 h -0.96793 z m 1.93587,0 h 0.96794 v 0.32305 h -0.96794 z m 1.93587,0 h 0.96794 v 0.32305 h -0.96794 z m 1.93588,0 h 0.96793 v 0.32305 h -0.96793 z m 1.93587,0 h 0.96794 v 0.32305 h -0.96794 z m 1.93587,0 h 0.96794 v 0.32305 h -0.96794 z m 1.93588,0 h 0.96793 v 0.32305 h -0.96793 z m 1.93587,0 h 0.96794 v 0.32305 h -0.96794 z m 1.93587,0 h 0.96794 v 0.32305 h -0.96794 z m 1.93588,0 h 0.96793 v 0.32305 h -0.96793 z m 1.93587,0 h 0.96794 v 0.32305 h -0.96794 z m 1.93587,0 h 0.96794 v 0.32305 h -0.96794 z m 1.93588,0 h 0.96793 v 0.32305 h -0.96793 z m 1.93587,0 h 0.96794 v 0.32305 h -0.96794 z m 1.93587,0 h 0.96794 v 0.32305 h -0.96794 z m 1.93588,0 h 0.96793 v 0.32305 h -0.96793 z m 1.93587,0 h 0.96794 v 0.32305 h -0.96794 z m 1.93587,0 h 0.96794 v 0.32305 h -0.96794 z m 1.93588,0 h 0.96793 v 0.32305 h -0.96793 z m 1.93587,0 v 0.32305 z m -69.69144,0 h 0.96793 v 0.32305 h -0.96793 z"
       id="path5980"
       style="stroke-width:0.120992" />
    <line
       fill="none"
       stroke-width="0.322646"
       stroke-linejoin="round"
       stroke="#000000"
       stroke-opacity="1"
       x1="131.97066"
       y1="20.821339"
       x2="131.97066"
       y2="90.512779"
       id="line5982" />
    <path
       fill="#000000"
       fill-opacity="1"
       stroke-linejoin="round"
       d="m 115.2383,67.282297 h 0.96794 v 0.32305 h -0.96794 z m 1.93587,0 h 0.96794 v 0.32305 h -0.96794 z m 1.93588,0 h 0.96793 v 0.32305 h -0.96793 z m 1.93587,0 h 0.96794 v 0.32305 h -0.96794 z m 1.93587,0 h 0.96794 v 0.32305 h -0.96794 z m 1.93588,0 h 0.96793 v 0.32305 h -0.96793 z m 1.93587,0 h 0.96794 v 0.32305 h -0.96794 z m 1.93587,0 h 0.96794 v 0.32305 h -0.96794 z m 1.93588,0 h 0.96793 v 0.32305 h -0.96793 z m 1.93587,0 h 0.96794 v 0.32305 h -0.96794 z m 1.93587,0 h 0.96794 v 0.32305 h -0.96794 z m 1.93588,0 h 0.96794 v 0.32305 h -0.96794 z m 1.93587,0 h 0.96794 v 0.32305 h -0.96794 z m 1.93588,0 h 0.96793 v 0.32305 h -0.96793 z m 1.93587,0 h 0.96794 v 0.32305 h -0.96794 z m 1.93587,0 h 0.96794 v 0.32305 h -0.96794 z m 1.93588,0 h 0.96793 v 0.32305 h -0.96793 z m 1.93587,0 h 0.96794 v 0.32305 h -0.96794 z m 1.93587,0 h 0.96794 v 0.32305 h -0.96794 z m 1.93588,0 h 0.96793 v 0.32305 h -0.96793 z m 1.93587,0 h 0.96794 v 0.32305 h -0.96794 z m 1.93587,0 h 0.96794 v 0.32305 h -0.96794 z m 1.93588,0 h 0.96793 v 0.32305 h -0.96793 z m 1.93587,0 h 0.96794 v 0.32305 h -0.96794 z m 1.93587,0 h 0.96794 v 0.32305 h -0.96794 z m 1.93588,0 h 0.96793 v 0.32305 h -0.96793 z m 1.93587,0 h 0.96794 v 0.32305 h -0.96794 z m 1.93587,0 h 0.96794 v 0.32305 h -0.96794 z m 1.93588,0 h 0.96793 v 0.32305 h -0.96793 z m 1.93587,0 h 0.96794 v 0.32305 h -0.96794 z m 1.93587,0 h 0.96794 v 0.32305 h -0.96794 z m 1.93588,0 h 0.96793 v 0.32305 h -0.96793 z m 1.93587,0 h 0.96794 v 0.32305 h -0.96794 z m 1.93587,0 h 0.96794 v 0.32305 h -0.96794 z m 1.93588,0 h 0.96793 v 0.32305 H 181.058 Z m 1.93587,0 v 0.32305 z m -69.69144,0 h 0.96793 v 0.32305 h -0.96793 z"
       id="path5984"
       style="stroke-width:0.120992" />
    <text
       xml:space="preserve"
       id="text5988"
       x="105.78537"
       y="45.305737"
       style="font-size:1.45191px;stroke-width:0.120992">			 <tspan
   style="font-size:3.22646px;font-family:'メイリオ'"
   letter-spacing="0em"
   fill="#000000"
   fill-opacity="1"
   stroke-width="0.0241984"
   stroke-linejoin="round"
   id="tspan5986">r0</tspan>		</text>
    <text
       xml:space="preserve"
       id="text5992"
       x="105.78537"
       y="68.536201"
       style="font-size:1.45191px;stroke-width:0.120992">			 <tspan
   style="font-size:3.22646px;font-family:'メイリオ'"
   letter-spacing="0em"
   fill="#000000"
   fill-opacity="1"
   stroke-width="0.0241984"
   stroke-linejoin="round"
   id="tspan5990">r1</tspan>		</text>
    <text
       xml:space="preserve"
       id="text5996"
       x="127.59457"
       y="19.82159"
       style="font-size:1.45191px;stroke-width:0.120992">			 <tspan
   style="font-size:3.22646px;font-family:'メイリオ'"
   letter-spacing="0em"
   fill="#000000"
   fill-opacity="1"
   stroke-width="0.0241984"
   stroke-linejoin="round"
   id="tspan5994">c0</tspan>		</text>
    <text
       xml:space="preserve"
       id="text6000"
       x="146.95331"
       y="19.82159"
       style="font-size:1.45191px;stroke-width:0.120992">			 <tspan
   style="font-size:3.22646px;font-family:'メイリオ'"
   letter-spacing="0em"
   fill="#000000"
   fill-opacity="1"
   stroke-width="0.0241984"
   stroke-linejoin="round"
   id="tspan5998">c1</tspan>		</text>
    <text
       xml:space="preserve"
       id="text6004"
       x="166.73451"
       y="27.35932"
       style="font-size:1.45191px;stroke-width:0.120992">			 <tspan
   style="font-size:3.22646px;font-family:'メイリオ'"
   letter-spacing="0em"
   fill="#000000"
   fill-opacity="1"
   stroke-width="0.0241984"
   stroke-linejoin="round"
   id="tspan6002">bx</tspan>		</text>
    <line
       fill="none"
       stroke-width="0.322646"
       stroke-linejoin="round"
       stroke="#000000"
       stroke-opacity="1"
       x1="151.32939"
       y1="20.812092"
       x2="151.32939"
       y2="90.50354"
       id="line6006" />
    <path
       fill="#ffffff"
       fill-opacity="1"
       stroke-width="0.0214886"
       stroke-linejoin="round"
       d="m 131.73082,40.180067 c 1.68878,0 3.05316,1.73261 3.05316,3.87175 0,2.13793 -1.36438,3.87175 -3.05316,3.87175 -1.67923,0 -3.05315,-1.73382 -3.05315,-3.87175 0,-2.13914 1.37392,-3.87175 3.05315,-3.87175 z"
       id="path6010" />
    <path
       fill="#ffffff"
       fill-opacity="1"
       stroke-width="0.018233"
       stroke-linejoin="round"
       d="m 132.05669,63.410557 c 1.21583,0 2.19812,1.7326 2.19812,3.87174 0,2.13793 -0.98229,3.87175 -2.19812,3.87175 -1.20897,0 -2.19812,-1.73382 -2.19812,-3.87175 0,-2.13914 0.98915,-3.87174 2.19812,-3.87174 z"
       id="path6012" />
    <path
       fill="#ffffff"
       fill-opacity="1"
       stroke-width="0.0215114"
       stroke-linejoin="round"
       d="m 151.61224,40.180067 c 1.69237,0 3.05964,1.73261 3.05964,3.87175 0,2.13793 -1.36727,3.87175 -3.05964,3.87175 -1.6828,0 -3.05964,-1.73382 -3.05964,-3.87175 0,-2.13914 1.37684,-3.87175 3.05964,-3.87175 z"
       id="path6014" />
    <path
       fill="#ffffff"
       fill-opacity="1"
       stroke-width="0.0224837"
       stroke-linejoin="round"
       d="m 151.3294,63.410557 c 1.84881,0 3.34248,1.7326 3.34248,3.87174 0,2.13793 -1.49367,3.87175 -3.34248,3.87175 -1.83836,0 -3.34248,-1.73382 -3.34248,-3.87175 0,-2.13914 1.50412,-3.87174 3.34248,-3.87174 z"
       id="path6016" />
    <path
       fill="#ffffff"
       fill-opacity="1"
       stroke-width="0.0241984"
       stroke-linejoin="round"
       d="m 166.81629,40.180067 c 2.14156,0 3.87175,1.73261 3.87175,3.87175 0,2.13793 -1.73019,3.87175 -3.87175,3.87175 -2.12946,0 -3.87174,-1.73382 -3.87174,-3.87175 0,-2.13914 1.74228,-3.87175 3.87174,-3.87175 z"
       id="path6018" />
    <text
       xml:space="preserve"
       id="text6022"
       x="127.83656"
       y="45.986492"
       style="font-size:1.45191px;stroke-width:0.120992">			 <tspan
   style="font-size:4.83968px;font-family:'メイリオ'"
   letter-spacing="0em"
   fill="#000000"
   fill-opacity="1"
   stroke-width="0.0241984"
   stroke-linejoin="round"
   id="tspan6020">X</tspan>		</text>
    <text
       xml:space="preserve"
       id="text6026"
       x="147.1953"
       y="45.986492"
       style="font-size:1.45191px;stroke-width:0.120992">			 <tspan
   style="font-size:4.83968px;font-family:'メイリオ'"
   letter-spacing="0em"
   fill="#000000"
   fill-opacity="1"
   stroke-width="0.0241984"
   stroke-linejoin="round"
   id="tspan6024">X</tspan>		</text>
    <path
       fill="#ffffff"
       fill-opacity="1"
       stroke-width="0.322646"
       stroke-linejoin="round"
       stroke="#000000"
       stroke-opacity="1"
       d="m 166.81629,40.180067 c 2.14156,0 3.87175,1.73261 3.87175,3.87175 0,2.13793 -1.73019,3.87175 -3.87175,3.87175 -2.12946,0 -3.87174,-1.73382 -3.87174,-3.87175 0,-2.13914 1.74228,-3.87175 3.87174,-3.87175 z"
       id="path6028" />
    <text
       xml:space="preserve"
       id="text6032"
       x="162.68228"
       y="45.986492"
       style="font-size:1.45191px;stroke-width:0.120992">			 <tspan
   style="font-size:4.83968px;font-family:'メイリオ'"
   letter-spacing="0em"
   fill="#000000"
   fill-opacity="1"
   stroke-width="0.0241984"
   stroke-linejoin="round"
   id="tspan6030">X</tspan>		</text>
    <text
       xml:space="preserve"
       id="text6036"
       x="127.83656"
       y="69.216957"
       style="font-size:1.45191px;stroke-width:0.120992">			 <tspan
   style="font-size:4.83968px;font-family:'メイリオ'"
   letter-spacing="0em"
   fill="#000000"
   fill-opacity="1"
   stroke-width="0.0241984"
   stroke-linejoin="round"
   id="tspan6034">X</tspan>		</text>
    <text
       xml:space="preserve"
       id="text6040"
       x="147.1953"
       y="69.216957"
       style="font-size:1.45191px;stroke-width:0.120992">			 <tspan
   style="font-size:4.83968px;font-family:'メイリオ'"
   letter-spacing="0em"
   fill="#000000"
   fill-opacity="1"
   stroke-width="0.0241984"
   stroke-linejoin="round"
   id="tspan6038">X</tspan>		</text>
    <rect
       x="147.45764"
       y="26.628956"
       fill="#ffffff"
       fill-opacity="1"
       stroke-width="0.322646"
       stroke-linejoin="round"
       stroke="#000000"
       stroke-opacity="1"
       width="7.7434936"
       height="7.7434936"
       id="rect6042" />
    <text
       xml:space="preserve"
       id="text6046"
       x="146.42415"
       y="32.193386"
       style="font-size:1.45191px;stroke-width:0.120992">				 <tspan
   style="font-size:4.83968px;font-family:'メイリオ'"
   letter-spacing="0em"
   fill="#000000"
   fill-opacity="1"
   stroke-width="0.0241984"
   stroke-linejoin="round"
   id="tspan6044">X</tspan>			</text>
    <text
       xml:space="preserve"
       id="text6050"
       x="51.853497"
       y="96.515968"
       style="font-size:1.45191px;stroke-width:0.120992">			 <tspan
   style="font-size:5.80762px;font-family:'メイリオ'"
   letter-spacing="0em"
   fill="#000000"
   fill-opacity="1"
   stroke-width="0.0241984"
   stroke-linejoin="round"
   id="tspan6048">Fish</tspan>		</text>
    <text
       xml:space="preserve"
       id="text6054"
       x="128.06252"
       y="96.515968"
       style="font-size:1.45191px;stroke-width:0.120992">			 <tspan
   style="font-size:5.80762px;font-family:'メイリオ'"
   letter-spacing="0em"
   fill="#000000"
   fill-opacity="1"
   stroke-width="0.0241984"
   stroke-linejoin="round"
   id="tspan6052">Finned Fish</tspan>		</text>
    <path
       fill="#ff0000"
       fill-opacity="1"
       stroke-width="0.0241984"
       stroke-linejoin="round"
       d="m 162.94455,41.994957 -7.7435,-7.7435 7.7435,7.7435"
       id="path6076" />
    <line
       fill="none"
       stroke-width="0.0241984"
       stroke-linejoin="round"
       x1="155.20114"
       y1="34.251461"
       x2="166.81638"
       y2="41.994946"
       id="line6078" />
    <circle
       style="fill:none;stroke:#0d0200;stroke-width:0.306831;stroke-dasharray:0.920494, 0.920494;stroke-dashoffset:0;stroke-opacity:1;paint-order:fill markers stroke"
       id="path6144"
       cx="157.48534"
       cy="38.372726"
       r="15.824066" />
    <g
       id="g7341">
      <line
         fill="none"
         stroke-width="0.172843"
         stroke-linejoin="round"
         stroke="#000000"
         stroke-opacity="1"
         x1="89.439705"
         y1="78.914467"
         x2="69.439705"
         y2="78.914467"
         id="line7322" />
      <line
         fill="none"
         stroke-width="0.172843"
         stroke-linejoin="round"
         stroke="#000000"
         stroke-opacity="1"
         x1="89.439705"
         y1="86.156197"
         x2="69.439705"
         y2="86.156197"
         id="line7326"
         style="stroke-dasharray:0.51852898,0.51852898;stroke-dashoffset:0" />
      <text
         xml:space="preserve"
         id="text7330"
         x="66.622833"
         y="77.82328"
         style="font-style:normal;font-variant:normal;font-weight:normal;font-stretch:normal;font-size:3.175px;font-family:sans-serif;-inkscape-font-specification:'sans-serif, Normal';font-variant-ligatures:normal;font-variant-caps:normal;font-variant-numeric:normal;font-variant-east-asian:normal;stroke-width:0.120124"
         transform="scale(0.99283007,1.0072217)">			 <tspan
   style="font-style:normal;font-variant:normal;font-weight:normal;font-stretch:normal;font-size:3.175px;font-family:sans-serif;-inkscape-font-specification:'sans-serif, Normal';font-variant-ligatures:normal;font-variant-caps:normal;font-variant-numeric:normal;font-variant-east-asian:normal"
   letter-spacing="0em"
   fill="#000000"
   fill-opacity="1"
   stroke-width="0.0240249"
   stroke-linejoin="round"
   id="tspan7328">BaseSet</tspan>		</text>
      <text
         xml:space="preserve"
         id="text7334"
         x="67.510529"
         y="84.846817"
         style="font-style:normal;font-variant:normal;font-weight:normal;font-stretch:normal;font-size:3.175px;font-family:sans-serif;-inkscape-font-specification:'sans-serif, Normal';font-variant-ligatures:normal;font-variant-caps:normal;font-variant-numeric:normal;font-variant-east-asian:normal;stroke-width:0.120124"
         transform="scale(0.99283007,1.0072217)">			CoverSet		</text>
    </g>
    <g
       id="g7353"
       transform="translate(0.89677128,95.88805)">
      <line
         fill="none"
         stroke-width="0.172843"
         stroke-linejoin="round"
         stroke="#000000"
         stroke-opacity="1"
         x1="89.439705"
         y1="78.914467"
         x2="69.439705"
         y2="78.914467"
         id="line7343" />
      <line
         fill="none"
         stroke-width="0.172843"
         stroke-linejoin="round"
         stroke="#000000"
         stroke-opacity="1"
         x1="89.439705"
         y1="86.156197"
         x2="69.439705"
         y2="86.156197"
         id="line7345"
         style="stroke-dasharray:0.518529, 0.518529;stroke-dashoffset:0" />
      <text
         xml:space="preserve"
         id="text7349"
         x="66.622833"
         y="77.82328"
         style="font-style:normal;font-variant:normal;font-weight:normal;font-stretch:normal;font-size:3.175px;font-family:sans-serif;-inkscape-font-specification:'sans-serif, Normal';font-variant-ligatures:normal;font-variant-caps:normal;font-variant-numeric:normal;font-variant-east-asian:normal;stroke-width:0.120124"
         transform="scale(0.99283007,1.0072217)">			 <tspan
   style="font-style:normal;font-variant:normal;font-weight:normal;font-stretch:normal;font-size:3.175px;font-family:sans-serif;-inkscape-font-specification:'sans-serif, Normal';font-variant-ligatures:normal;font-variant-caps:normal;font-variant-numeric:normal;font-variant-east-asian:normal"
   letter-spacing="0em"
   fill="#000000"
   fill-opacity="1"
   stroke-width="0.0240249"
   stroke-linejoin="round"
   id="tspan7347">BaseSet</tspan>		</text>
      <text
         xml:space="preserve"
         id="text7351"
         x="67.510529"
         y="84.846817"
         style="font-style:normal;font-variant:normal;font-weight:normal;font-stretch:normal;font-size:3.175px;font-family:sans-serif;-inkscape-font-specification:'sans-serif, Normal';font-variant-ligatures:normal;font-variant-caps:normal;font-variant-numeric:normal;font-variant-east-asian:normal;stroke-width:0.120124"
         transform="scale(0.99283007,1.0072217)">			CoverSet		</text>
    </g>
    <g
       id="g7365"
       transform="translate(2.3428144,192.2494)">
      <line
         fill="none"
         stroke-width="0.172843"
         stroke-linejoin="round"
         stroke="#000000"
         stroke-opacity="1"
         x1="89.439705"
         y1="78.914467"
         x2="69.439705"
         y2="78.914467"
         id="line7355" />
      <line
         fill="none"
         stroke-width="0.172843"
         stroke-linejoin="round"
         stroke="#000000"
         stroke-opacity="1"
         x1="89.439705"
         y1="86.156197"
         x2="69.439705"
         y2="86.156197"
         id="line7357"
         style="stroke-dasharray:0.518529, 0.518529;stroke-dashoffset:0" />
      <text
         xml:space="preserve"
         id="text7361"
         x="66.622833"
         y="77.82328"
         style="font-style:normal;font-variant:normal;font-weight:normal;font-stretch:normal;font-size:3.175px;font-family:sans-serif;-inkscape-font-specification:'sans-serif, Normal';font-variant-ligatures:normal;font-variant-caps:normal;font-variant-numeric:normal;font-variant-east-asian:normal;stroke-width:0.120124"
         transform="scale(0.99283007,1.0072217)">			 <tspan
   style="font-style:normal;font-variant:normal;font-weight:normal;font-stretch:normal;font-size:3.175px;font-family:sans-serif;-inkscape-font-specification:'sans-serif, Normal';font-variant-ligatures:normal;font-variant-caps:normal;font-variant-numeric:normal;font-variant-east-asian:normal"
   letter-spacing="0em"
   fill="#000000"
   fill-opacity="1"
   stroke-width="0.0240249"
   stroke-linejoin="round"
   id="tspan7359">BaseSet</tspan>		</text>
      <text
         xml:space="preserve"
         id="text7363"
         x="67.510529"
         y="84.846817"
         style="font-style:normal;font-variant:normal;font-weight:normal;font-stretch:normal;font-size:3.175px;font-family:sans-serif;-inkscape-font-specification:'sans-serif, Normal';font-variant-ligatures:normal;font-variant-caps:normal;font-variant-numeric:normal;font-variant-east-asian:normal;stroke-width:0.120124"
         transform="scale(0.99283007,1.0072217)">			CoverSet		</text>
    </g>
  </g>
</svg>
