<?xml version="1.0" encoding="UTF-8" standalone="no"?>
<!-- Created with Inkscape (http://www.inkscape.org/) -->

<svg
   width="297mm"
   height="210mm"
   viewBox="0 0 297 210"
   version="1.1"
   id="svg11612"
   inkscape:version="1.2.2 (732a01da63, 2022-12-09)"
   sodipodi:docname="image45.svg"
   xmlns:inkscape="http://www.inkscape.org/namespaces/inkscape"
   xmlns:sodipodi="http://sodipodi.sourceforge.net/DTD/sodipodi-0.dtd"
   xmlns="http://www.w3.org/2000/svg"
   xmlns:svg="http://www.w3.org/2000/svg">
  <sodipodi:namedview
     id="namedview11614"
     pagecolor="#ffffff"
     bordercolor="#000000"
     borderopacity="0.25"
     inkscape:showpageshadow="2"
     inkscape:pageopacity="0.0"
     inkscape:pagecheckerboard="0"
     inkscape:deskcolor="#d1d1d1"
     inkscape:document-units="mm"
     showgrid="false"
     inkscape:zoom="0.84096521"
     inkscape:cx="299.06112"
     inkscape:cy="488.72414"
     inkscape:window-width="1806"
     inkscape:window-height="1091"
     inkscape:window-x="1426"
     inkscape:window-y="170"
     inkscape:window-maximized="0"
     inkscape:current-layer="layer1" />
  <defs
     id="defs11609">
    <rect
       x="92.750567"
       y="151.01695"
       width="668.27973"
       height="405.48645"
       id="rect6508" />
  </defs>
  <g
     inkscape:label="Layer 1"
     inkscape:groupmode="layer"
     id="layer1">
    <g
       id="g6577"
       inkscape:export-filename="img45a.png"
       inkscape:export-xdpi="96"
       inkscape:export-ydpi="96">
      <rect
         x="39.619492"
         y="108.75316"
         fill="#ffffff"
         fill-opacity="1"
         stroke-width="0.190907"
         stroke-linejoin="round"
         stroke="#000000"
         stroke-opacity="1"
         width="46.344086"
         height="9.418025"
         id="rect10980" />
      <rect
         x="38.860664"
         y="107.35355"
         fill="none"
         stroke-width="0.190907"
         stroke-linejoin="round"
         stroke="#000000"
         stroke-opacity="1"
         width="21.908049"
         height="22.145157"
         id="rect10982" />
      <rect
         x="41.130013"
         y="109.92936"
         fill="#ffffff"
         fill-opacity="1"
         stroke-width="0.381813"
         stroke-linejoin="round"
         stroke="#000000"
         stroke-opacity="1"
         width="18.344513"
         height="6.872642"
         id="rect10984" />
      <text
         xml:space="preserve"
         id="text10988"
         x="41.838783"
         y="114.44813"
         style="font-size:0.85908px;stroke-width:0.07159">			 <tspan
   style="font-size:3.43632px;font-family:'メイリオ'"
   letter-spacing="0em"
   fill="#000000"
   fill-opacity="1"
   stroke-width="0.014318"
   stroke-linejoin="round"
   id="tspan10986">IS_FreeB</tspan>		</text>
      <rect
         x="64.318047"
         y="109.92936"
         fill="#ffffff"
         fill-opacity="1"
         stroke-width="0.381813"
         stroke-linejoin="round"
         stroke="#000000"
         stroke-opacity="1"
         width="19.594833"
         height="6.872642"
         id="rect10990" />
      <text
         xml:space="preserve"
         id="text10994"
         x="66.250977"
         y="114.44813"
         style="font-size:0.85908px;stroke-width:0.07159">			 <tspan
   style="font-size:3.43632px;font-family:'メイリオ'"
   letter-spacing="0em"
   fill="#000000"
   fill-opacity="1"
   stroke-width="0.014318"
   stroke-linejoin="round"
   id="tspan10992">PR_FreeB</tspan>		</text>
      <rect
         x="41.130013"
         y="121.38376"
         fill="#ffffff"
         fill-opacity="1"
         stroke-width="0.381813"
         stroke-linejoin="round"
         stroke="#000000"
         stroke-opacity="1"
         width="18.344513"
         height="6.872642"
         id="rect10996" />
      <text
         xml:space="preserve"
         id="text11000"
         x="41.838783"
         y="125.90253"
         style="font-size:0.85908px;stroke-width:0.07159">			 <tspan
   style="font-size:3.43632px;font-family:'メイリオ'"
   letter-spacing="0em"
   fill="#000000"
   fill-opacity="1"
   stroke-width="0.014318"
   stroke-linejoin="round"
   id="tspan10998">PB_FreeB</tspan>		</text>
      <rect
         x="103.29168"
         y="72.099068"
         fill="#ffffff"
         fill-opacity="1"
         stroke-width="0.190907"
         stroke-linejoin="round"
         stroke="#000000"
         stroke-opacity="1"
         width="46.344086"
         height="9.4180965"
         id="rect11002" />
      <rect
         x="102.52566"
         y="70.699455"
         fill="none"
         stroke-width="0.190907"
         stroke-linejoin="round"
         stroke="#000000"
         stroke-opacity="1"
         width="21.908049"
         height="22.145157"
         id="rect11004" />
      <rect
         x="104.80221"
         y="73.275269"
         fill="#ffffff"
         fill-opacity="1"
         stroke-width="0.381813"
         stroke-linejoin="round"
         stroke="#000000"
         stroke-opacity="1"
         width="18.344513"
         height="6.872642"
         id="rect11006" />
      <text
         xml:space="preserve"
         id="text11010"
         x="110.13566"
         y="77.507675"
         style="font-size:0.85908px;stroke-width:0.07159">			 <tspan
   style="font-size:3.43632px;font-family:'メイリオ'"
   letter-spacing="0em"
   fill="#000000"
   fill-opacity="1"
   stroke-width="0.014318"
   stroke-linejoin="round"
   id="tspan11008">IS</tspan>		</text>
      <rect
         x="127.99024"
         y="73.275269"
         fill="#ffffff"
         fill-opacity="1"
         stroke-width="0.381813"
         stroke-linejoin="round"
         stroke="#000000"
         stroke-opacity="1"
         width="19.594904"
         height="6.872642"
         id="rect11012" />
      <text
         xml:space="preserve"
         id="text11016"
         x="134.54787"
         y="77.507675"
         style="font-size:0.85908px;stroke-width:0.07159">			 <tspan
   style="font-size:3.43632px;font-family:'メイリオ'"
   letter-spacing="0em"
   fill="#000000"
   fill-opacity="1"
   stroke-width="0.014318"
   stroke-linejoin="round"
   id="tspan11014">PR</tspan>		</text>
      <rect
         x="104.80221"
         y="84.729668"
         fill="#ffffff"
         fill-opacity="1"
         stroke-width="0.381813"
         stroke-linejoin="round"
         stroke="#000000"
         stroke-opacity="1"
         width="18.344513"
         height="6.872642"
         id="rect11018" />
      <text
         xml:space="preserve"
         id="text11022"
         x="110.13566"
         y="88.962082"
         style="font-size:0.85908px;stroke-width:0.07159">			 <tspan
   style="font-size:3.43632px;font-family:'メイリオ'"
   letter-spacing="0em"
   fill="#000000"
   fill-opacity="1"
   stroke-width="0.014318"
   stroke-linejoin="round"
   id="tspan11020">PB</tspan>		</text>
      <path
         fill="#ffffff"
         fill-opacity="1"
         stroke-width="0.190907"
         stroke-linejoin="round"
         stroke="#000000"
         stroke-opacity="1"
         d="m 93.362119,78.717548 h 4.911076 v -1.14544 l 1.961565,2.29088 -1.961565,2.290881 v -1.14544 h -4.911076 z"
         id="path11024" />
      <path
         fill="#ffffff"
         fill-opacity="1"
         stroke-width="0.190907"
         stroke-linejoin="round"
         stroke="#000000"
         stroke-opacity="1"
         d="m 29.697115,115.37164 h 4.911075 v -1.14544 l 1.961567,2.29088 -1.961567,2.29088 v -1.14544 h -4.911075 z"
         id="path11026" />
      <text
         xml:space="preserve"
         id="text11030"
         x="39.619492"
         y="60.755611"
         style="font-size:0.85908px;stroke-width:0.07159">			 <tspan
   style="font-size:3.43632px;font-family:'メイリオ'"
   letter-spacing="0em"
   fill="#000000"
   fill-opacity="1"
   stroke-width="0.014318"
   stroke-linejoin="round"
   id="tspan11028">(1) Block and Row Cell group</tspan>		</text>
      <text
         xml:space="preserve"
         id="text11034"
         x="108.34591"
         y="67.628258"
         style="font-size:0.85908px;stroke-width:0.07159">			 <tspan
   style="font-size:3.43632px;font-family:'メイリオ'"
   letter-spacing="0em"
   fill="#000000"
   fill-opacity="1"
   stroke-width="0.014318"
   stroke-linejoin="round"
   id="tspan11032">(2)Separation of Cell group</tspan>		</text>
      <text
         xml:space="preserve"
         id="text11038"
         x="38.259281"
         y="104.28234"
         style="font-size:0.85908px;stroke-width:0.07159">			 <tspan
   style="font-size:3.43632px;font-family:'メイリオ'"
   letter-spacing="0em"
   fill="#000000"
   fill-opacity="1"
   stroke-width="0.014318"
   stroke-linejoin="round"
   id="tspan11036">(3)Candidate number of Cell group</tspan>		</text>
      <text
         xml:space="preserve"
         id="text11044"
         x="105.67478"
         y="103.17"
         style="font-size:0.85908px;word-spacing:0.0529167px;stroke-width:0.07159"><tspan
           sodipodi:role="line"
           id="tspan6152"
           x="105.67478"
           y="103.17">			 <tspan
   style="font-size:3.43632px;font-family:'メイリオ';word-spacing:0.264583px"
   letter-spacing="0em"
   fill="#000000"
   fill-opacity="1"
   stroke-width="0.014318"
   stroke-linejoin="round"
   id="tspan11040"
   dy="0.5"
   dx="0">(4)Candidate number only in PR, PB</tspan></tspan><tspan
           sodipodi:role="line"
           id="tspan6154"
           x="105.67478"
           y="107.4654"
           style="word-spacing:0.264583px">			 <tspan
   x="105.67478"
   dy="1.1597583"
   style="font-size:3.43632px;font-family:'メイリオ';word-spacing:0.264583px"
   letter-spacing="0em"
   fill="#000000"
   fill-opacity="1"
   stroke-width="0.014318"
   stroke-linejoin="round"
   id="tspan11042">            (  :difference set）</tspan>		</tspan></text>
      <text
         xml:space="preserve"
         id="text11048"
         x="101.9744"
         y="115.30721"
         style="font-size:0.85908px;stroke-width:0.07159">			 <tspan
   style="font-size:3.43632px;font-family:'メイリオ'"
   letter-spacing="0em"
   fill="#000000"
   fill-opacity="1"
   stroke-width="0.014318"
   stroke-linejoin="round"
   id="tspan11046">PR_FreeBn=PR_FreeB  IS_FreeB</tspan>		</text>
      <text
         xml:space="preserve"
         id="text11052"
         x="101.9744"
         y="124.90027"
         style="font-size:0.85908px;stroke-width:0.07159">			 <tspan
   style="font-size:3.43632px;font-family:'メイリオ'"
   letter-spacing="0em"
   fill="#000000"
   fill-opacity="1"
   stroke-width="0.014318"
   stroke-linejoin="round"
   id="tspan11050">PB_FreeBn=PB_FreeB  IS_FreeB</tspan>		</text>
      <line
         fill="none"
         stroke-width="0.381813"
         stroke-linejoin="round"
         stroke="#000000"
         stroke-opacity="1"
         x1="139.07236"
         y1="112.07133"
         x2="141.36324"
         y2="116.08037"
         id="line11054" />
      <line
         fill="none"
         stroke-width="0.381813"
         stroke-linejoin="round"
         stroke="#000000"
         stroke-opacity="1"
         x1="139.02223"
         y1="121.44962"
         x2="141.31311"
         y2="125.45866"
         id="line11056" />
      <line
         fill="none"
         stroke-width="0.381813"
         stroke-linejoin="round"
         stroke="#000000"
         stroke-opacity="1"
         x1="110.08553"
         y1="106.21597"
         x2="112.37641"
         y2="110.22501"
         id="line11058" />
      <rect
         x="100.75737"
         y="111.14066"
         fill="none"
         stroke-width="0.190907"
         stroke-linejoin="round"
         stroke="#000000"
         stroke-opacity="1"
         width="57.653805"
         height="5.5362711"
         id="rect11060" />
      <rect
         x="100.49247"
         y="120.8769"
         fill="none"
         stroke-width="0.190907"
         stroke-linejoin="round"
         stroke="#000000"
         stroke-opacity="1"
         width="57.653805"
         height="5.5362711"
         id="rect11062" />
      <line
         fill="none"
         stroke-width="0.190907"
         stroke-linejoin="round"
         stroke="#000000"
         stroke-opacity="1"
         x1="83.024506"
         y1="114.4102"
         x2="100.97927"
         y2="114.4102"
         id="line11064" />
      <line
         fill="none"
         stroke-width="0.190907"
         stroke-linejoin="round"
         stroke="#000000"
         stroke-opacity="1"
         x1="58.211433"
         y1="124.12208"
         x2="100.22758"
         y2="124.12208"
         id="line11066" />
      <path
         fill="#000000"
         fill-opacity="1"
         stroke-width="0.014318"
         stroke-linejoin="round"
         d="m 83.124747,113.38358 c 0.472494,0 0.85908,0.38516 0.85908,0.85908 0,0.47465 -0.386586,0.85908 -0.85908,0.85908 -0.479654,0 -0.859081,-0.38443 -0.859081,-0.85908 0,-0.47392 0.379427,-0.85908 0.859081,-0.85908 z"
         id="path11068" />
      <path
         fill="#000000"
         fill-opacity="1"
         stroke-width="0.014318"
         stroke-linejoin="round"
         d="m 58.304487,122.97665 c 0.472494,0 0.85908,0.38515 0.85908,0.85908 0,0.47464 -0.386586,0.85908 -0.85908,0.85908 -0.472495,0 -0.859081,-0.38444 -0.859081,-0.85908 0,-0.47393 0.386586,-0.85908 0.859081,-0.85908 z"
         id="path11070" />
      <text
         xml:space="preserve"
         id="text11074"
         x="68.040726"
         y="136.35468"
         style="font-size:0.85908px;stroke-width:0.07159">			 <tspan
   style="font-size:4.00904px;font-family:'メイリオ'"
   letter-spacing="0em"
   fill="#000000"
   fill-opacity="1"
   stroke-width="0.014318"
   stroke-linejoin="round"
   id="tspan11072">Configuration of SuDeCoq</tspan>		</text>
      <rect
         x="39.147026"
         y="72.099068"
         fill="#ffffff"
         fill-opacity="1"
         stroke-width="0.190907"
         stroke-linejoin="round"
         stroke="#000000"
         stroke-opacity="1"
         width="46.344086"
         height="9.4180965"
         id="rect11076" />
      <rect
         x="38.380997"
         y="70.699455"
         fill="none"
         stroke-width="0.190907"
         stroke-linejoin="round"
         stroke="#000000"
         stroke-opacity="1"
         width="21.908049"
         height="22.145157"
         id="rect11078" />
      <path
         fill="#000000"
         fill-opacity="1"
         stroke-linejoin="round"
         d="m 36.11158,65.10041 h 0.952148 v 0.191146 H 36.11158 Z m 1.904295,0 h 0.959306 v 0.191146 h -0.959306 z m 1.911453,0 h 0.952148 v 0.191146 h -0.952148 z m 1.911454,0 h 0.952147 v 0.191146 h -0.952147 z m 1.904295,0 h 0.959306 v 0.191146 h -0.959306 z m 1.911453,0 h 0.952147 v 0.191146 H 45.65453 Z m 1.911454,0 h 0.952147 v 0.191146 h -0.952147 z m 1.904294,0 h 0.959306 v 0.191146 h -0.959306 z m 1.911454,0 h 0.952147 v 0.191146 h -0.952147 z m 1.911453,0 h 0.952147 v 0.191146 h -0.952147 z m 1.904295,0 h 0.959306 v 0.191146 H 55.19748 Z m 1.911453,0 h 0.952148 v 0.191146 h -0.952148 z m 1.911454,0 h 0.952147 v 0.191146 h -0.952147 z m 1.904294,0 h 0.257724 l 0.336474,0.0673 0.272042,0.184702 0.05727,0.08591 -0.136021,0.135305 -0.05727,-0.08662 -0.214771,-0.143181 -0.257724,-0.05226 h -0.257724 z m 1.116805,1.321552 v 0.955011 h -0.193293 v -0.955011 z m 0,1.909306 v 0.954295 h -0.193293 v -0.954295 z m 0,1.909306 v 0.954295 h -0.193293 v -0.954295 z m 0,1.90859 v 0.955011 h -0.193293 v -0.955011 z m 0,1.909306 v 0.954295 H 61.848193 V 74.05847 Z m 0,1.909305 v 0.954295 h -0.193293 v -0.954295 z m 0,1.90859 v 0.955011 h -0.193293 v -0.955011 z m 0,1.909306 v 0.954295 h -0.193293 v -0.954295 z m 0,1.909306 v 0.954295 h -0.193293 v -0.954295 z m 0,1.90859 v 0.955011 h -0.193293 v -0.955011 z m 0,1.909306 v 0.954295 h -0.193293 v -0.954295 z m 0,1.909306 v 0.954295 h -0.193293 v -0.954295 z m 0,1.90859 v 0.95501 h -0.193293 v -0.95501 z m 0,1.909305 v 0.954295 h -0.193293 v -0.954295 z m 0,1.909306 v 0.173248 l -0.06443,0.334325 -0.186134,0.273474 -0.157498,0.10309 -0.128862,-0.134589 0.150339,-0.103806 0.14318,-0.212622 0.05011,-0.259872 V 93.14938 Z m -1.403165,1.032328 h -0.952147 v -0.190429 h 0.952147 z m -1.911453,0 H 57.77472 v -0.190429 h 0.952148 z m -1.904295,0 h -0.959306 v -0.190429 h 0.959306 z m -1.911453,0 h -0.952148 v -0.190429 h 0.952148 z m -1.911454,0 h -0.952147 v -0.190429 h 0.952147 z m -1.904294,0 h -0.959307 v -0.190429 h 0.959307 z m -1.911454,0 h -0.952147 v -0.190429 h 0.952147 z m -1.911453,0 h -0.952148 v -0.190429 h 0.952148 z m -1.904295,0 h -0.959306 v -0.190429 h 0.959306 z m -1.911454,0 h -0.952147 v -0.190429 h 0.952147 z m -1.911453,0 h -0.952147 v -0.190429 h 0.952147 z m -1.904295,0 h -0.959306 v -0.190429 h 0.959306 z m -1.911453,0 h -0.952147 v -0.190429 h 0.952147 z m -1.911454,0 h -0.952147 v -0.190429 h 0.952147 z m -1.897135,-0.05727 -0.05727,-0.01002 -0.272042,-0.183987 -0.178975,-0.273474 -0.07159,-0.334325 v -0.05154 h 0.193293 v 0.05154 l 0.05011,0.259872 0.14318,0.212622 0.21477,0.14318 -0.02148,-0.0043 z M 33.341047,92.31679 v -0.954295 h 0.193293 v 0.954295 z m 0,-1.909306 v -0.954295 h 0.193293 v 0.954295 z m 0,-1.908589 v -0.955011 h 0.193293 v 0.955011 z m 0,-1.909306 v -0.954295 h 0.193293 v 0.954295 z m 0,-1.909306 v -0.954295 h 0.193293 v 0.954295 z m 0,-1.90859 V 81.81668 h 0.193293 v 0.955011 z m 0,-1.909306 V 79.90809 h 0.193293 v 0.954295 z m 0,-1.909306 v -0.954295 h 0.193293 v 0.954295 z m 0,-1.90859 V 76.08948 h 0.193293 v 0.955011 z m 0,-1.909306 v -0.954294 h 0.193293 v 0.954294 z m 0,-1.909305 v -0.954295 h 0.193293 v 0.954295 z m 0,-1.90859 v -0.955011 h 0.193293 v 0.955011 z m 0,-1.909306 v -0.954295 h 0.193293 v 0.954295 z m 0,-1.909306 v -0.954295 h 0.193293 v 0.954295 z m 0.107385,-1.928635 0.14318,-0.217634 0.272042,-0.184702 0.336473,-0.0673 h 0.952147 v 0.191146 h -0.952147 l -0.257724,0.05226 -0.21477,0.143181 -0.107385,0.157498 z"
         id="path11080"
         style="stroke-width:0.07159" />
      <path
         fill="#000000"
         fill-opacity="1"
         stroke-linejoin="round"
         d="m 31.780384,69.682172 h 0.959306 v 0.191145 h -0.959306 z m 1.911454,0 h 0.952147 v 0.191145 h -0.952147 z m 1.911453,0 h 0.952148 v 0.191145 h -0.952148 z m 1.904295,0 h 0.959306 v 0.191145 h -0.959306 z m 1.911453,0 h 0.952148 v 0.191145 h -0.952148 z m 1.911454,0 h 0.952147 v 0.191145 h -0.952147 z m 1.904294,0 h 0.959307 v 0.191145 h -0.959307 z m 1.911454,0 h 0.952147 v 0.191145 h -0.952147 z m 1.911453,0 h 0.952148 v 0.191145 h -0.952148 z m 1.904295,0 h 0.959306 v 0.191145 h -0.959306 z m 1.911454,0 h 0.952147 v 0.191145 h -0.952147 z m 1.911453,0 h 0.952147 v 0.191145 h -0.952147 z m 1.904295,0 h 0.959306 v 0.191145 h -0.959306 z m 1.911453,0 h 0.952147 v 0.191145 h -0.952147 z m 1.911454,0 h 0.952147 v 0.191145 h -0.952147 z m 1.904294,0 h 0.959306 v 0.191145 h -0.959306 z m 1.911454,0 h 0.952147 v 0.191145 h -0.952147 z m 1.911453,0 h 0.952148 v 0.191145 h -0.952148 z m 1.904295,0 H 67.1029 v 0.191145 h -0.959306 z m 1.911453,0 h 0.952148 v 0.191145 h -0.952148 z m 1.911454,0 h 0.952147 v 0.191145 h -0.952147 z m 1.904294,0 h 0.959307 v 0.191145 h -0.959307 z m 1.911454,0 h 0.952147 v 0.191145 h -0.952147 z m 1.911453,0 h 0.952148 v 0.191145 h -0.952148 z m 1.904295,0 h 0.959306 v 0.191145 h -0.959306 z m 1.911454,0 h 0.952147 v 0.191145 h -0.952147 z m 1.911453,0 h 0.952147 v 0.191145 h -0.952147 z m 1.904295,0 h 0.959306 v 0.191145 h -0.959306 z m 1.911453,0 h 0.952147 v 0.191145 h -0.952147 z m 1.911454,0 h 0.952147 v 0.191145 h -0.952147 z m 1.904294,0 h 0.959306 v 0.191145 H 89.0524 Z m 1.897136,0.299962 0.150339,0.224793 0.07159,0.334325 v 0.416654 h -0.193293 v -0.416654 l -0.05011,-0.259872 -0.114544,-0.164657 z m 0.221929,1.930067 v 0.954295 h -0.193293 v -0.954295 z m 0,1.909306 v 0.954295 h -0.193293 v -0.954295 z m 0,1.90859 v 0.95501 h -0.193293 v -0.95501 z m 0,1.909305 v 0.954295 h -0.193293 v -0.954295 z m 0,1.909306 v 0.954295 h -0.193293 v -0.954295 z m 0,1.90859 v 0.410927 l -0.07159,0.334325 -0.136021,0.199736 -0.171816,-0.07445 0.136021,-0.19902 0.05011,-0.260588 v -0.410927 z m -1.166918,1.270007 H 89.0524 v -0.190429 h 0.952147 z m -1.911453,0 h -0.952147 v -0.190429 h 0.952147 z m -1.904295,0 h -0.959306 v -0.190429 h 0.959306 z m -1.911453,0 h -0.952147 v -0.190429 h 0.952147 z m -1.911454,0 h -0.952147 v -0.190429 h 0.952147 z m -1.904294,0 h -0.959306 v -0.190429 h 0.959306 z m -1.911454,0 h -0.952147 v -0.190429 h 0.952147 z m -1.911453,0 h -0.952148 v -0.190429 h 0.952148 z m -1.904295,0 H 73.77509 v -0.190429 h 0.959306 z m -1.911453,0 h -0.952148 v -0.190429 h 0.952148 z m -1.911454,0 h -0.952147 v -0.190429 h 0.952147 z m -1.904294,0 h -0.959307 v -0.190429 h 0.959307 z m -1.911454,0 h -0.952147 v -0.190429 h 0.952147 z m -1.911453,0 H 64.23214 v -0.190429 h 0.952148 z m -1.904295,0 h -0.959306 v -0.190429 h 0.959306 z m -1.911454,0 h -0.952147 v -0.190429 h 0.952147 z m -1.911453,0 h -0.952147 v -0.190429 h 0.952147 z m -1.904295,0 h -0.959306 v -0.190429 h 0.959306 z m -1.911453,0 h -0.952147 v -0.190429 h 0.952147 z m -1.911454,0 h -0.952147 v -0.190429 h 0.952147 z m -1.904294,0 h -0.959306 v -0.190429 h 0.959306 z m -1.911454,0 h -0.952147 v -0.190429 h 0.952147 z m -1.911453,0 h -0.952148 v -0.190429 h 0.952148 z m -1.904295,0 h -0.959306 v -0.190429 h 0.959306 z m -1.911453,0 h -0.952148 v -0.190429 h 0.952148 z m -1.911454,0 h -0.952147 v -0.190429 h 0.952147 z m -1.904294,0 H 39.41188 v -0.190429 h 0.959307 z m -1.911454,0 h -0.952147 v -0.190429 h 0.952147 z m -1.911453,0 h -0.952148 v -0.190429 h 0.952148 z m -1.904295,0 h -0.959306 v -0.190429 h 0.959306 z m -1.911454,0 h -0.952147 v -0.190429 h 0.952147 z m -1.911453,0 H 29.87609 l -0.0072,-7.16e-4 v -0.191145 l 0.0072,0.0014 h 0.944988 z m -1.753956,-0.594197 -0.05011,-0.264883 v -0.722343 h 0.186134 v 0.722343 l 0.04295,0.190429 z m -0.05011,-1.941521 v -0.955011 h 0.186134 v 0.955011 z m 0,-1.909306 v -0.954295 h 0.186134 v 0.954295 z m 0,-1.909306 V 75.41868 h 0.186134 v 0.954295 z m 0,-1.90859 v -0.955011 h 0.186134 v 0.955011 z m 0,-1.909306 v -0.954295 h 0.186134 v 0.954295 z m 0,-1.909306 v -0.104521 l 0.06443,-0.334325 0.186135,-0.272758 0.207611,-0.142465 0.136021,0.135306 -0.207611,0.141748 -0.14318,0.212622 -0.05727,0.259872 v 0.104521 z m 0.859081,-0.963601 h 0.952147 v 0.191145 h -0.95215 z"
         id="path11082"
         style="stroke-width:0.07159" />
      <text
         xml:space="preserve"
         id="text11086"
         x="49.785275"
         y="64.478294"
         style="font-size:0.85908px;stroke-width:0.07159">				 <tspan
   style="font-size:2.29088px;font-family:'メイリオ'"
   letter-spacing="0em"
   fill="#000000"
   fill-opacity="1"
   stroke-width="0.014318"
   stroke-linejoin="round"
   id="tspan11084">Block</tspan>			</text>
      <text
         xml:space="preserve"
         id="text11090"
         x="70.403198"
         y="68.988464"
         style="font-size:0.85908px;stroke-width:0.07159">				 <tspan
   style="font-size:2.29088px;font-family:'メイリオ'"
   letter-spacing="0em"
   fill="#000000"
   fill-opacity="1"
   stroke-width="0.014318"
   stroke-linejoin="round"
   id="tspan11088">Row(Column)</tspan>			</text>
      <rect
         x="63.692707"
         y="77.083366"
         fill="#ffffff"
         fill-opacity="1"
         stroke-width="0.0138393"
         stroke-linejoin="round"
         stroke="#ffffff"
         stroke-opacity="1"
         width="26.748775"
         height="2.8965816"
         id="rect11092" />
      <text
         transform="scale(0.95023153,1.0523751)"
         xml:space="preserve"
         id="text11096"
         x="65.723808"
         y="75.532509"
         style="font-size:0.816458px;stroke-width:0.0680382">		 <tspan
   style="font-size:2.25198px;font-family:'メイリオ'"
   letter-spacing="0em"
   fill="#000000"
   fill-opacity="1"
   stroke-width="0.0136076"
   stroke-linejoin="round"
   stroke="#ffffff"
   stroke-opacity="1"
   id="tspan11094">Group in the Row(ISPR)</tspan>				</text>
      <g
         id="g11106"
         transform="matrix(0.07159002,0,0,0.07159002,-1003.4471,-414.67073)">
        <rect
           x="14559.2"
           y="7009.8799"
           fill="#ffffff"
           fill-opacity="1"
           stroke-width="0.2"
           stroke-linejoin="round"
           stroke="#ffffff"
           stroke-opacity="1"
           width="400"
           height="40.454102"
           id="rect11100" />
        <text
           transform="matrix(0.96680337,0,0,1,14565,7040)"
           xml:space="preserve"
           id="text11104"><tspan
   style="font-size:33.0988px;font-family:'メイリオ'"
   letter-spacing="0em"
   fill="#000000"
   fill-opacity="1"
   stroke-width="0.2"
   stroke-linejoin="round"
   stroke="#ffffff"
   stroke-opacity="1"
   id="tspan11102">Group in the Block(ISPB)</tspan>				</text>
      </g>
    </g>
    <text
       xml:space="preserve"
       transform="scale(0.26458333)"
       id="text6506"
       style="fill:#ffffff;-inkscape-font-specification:'MS Gothic, Normal';font-family:'MS Gothic';font-size:32.00001144px;paint-order:fill markers stroke;stroke-linecap:square;stroke-width:3.02362205;stroke-dasharray:6.04724409, 6.04724409;stroke:#ffffff;white-space:pre;shape-inside:url(#rect6508)"
       inkscape:export-filename="img45a.png"
       inkscape:export-xdpi="96"
       inkscape:export-ydpi="96" />
  </g>
</svg>
