<?xml version="1.0" encoding="UTF-8" standalone="no"?>
<!-- Created with Inkscape (http://www.inkscape.org/) -->

<svg
   width="297mm"
   height="210mm"
   viewBox="0 0 297 210"
   version="1.1"
   id="svg5534"
   inkscape:version="1.2.2 (732a01da63, 2022-12-09)"
   sodipodi:docname="image41.svg"
   xmlns:inkscape="http://www.inkscape.org/namespaces/inkscape"
   xmlns:sodipodi="http://sodipodi.sourceforge.net/DTD/sodipodi-0.dtd"
   xmlns="http://www.w3.org/2000/svg"
   xmlns:svg="http://www.w3.org/2000/svg">
  <sodipodi:namedview
     id="namedview5536"
     pagecolor="#ffffff"
     bordercolor="#000000"
     borderopacity="0.25"
     inkscape:showpageshadow="2"
     inkscape:pageopacity="0.0"
     inkscape:pagecheckerboard="0"
     inkscape:deskcolor="#d1d1d1"
     inkscape:document-units="mm"
     showgrid="false"
     inkscape:zoom="0.457453"
     inkscape:cx="301.67033"
     inkscape:cy="809.91927"
     inkscape:window-width="1409"
     inkscape:window-height="1230"
     inkscape:window-x="781"
     inkscape:window-y="242"
     inkscape:window-maximized="0"
     inkscape:current-layer="layer1" />
  <defs
     id="defs5531" />
  <g
     inkscape:label="Layer 1"
     inkscape:groupmode="layer"
     id="layer1">
    <g
       id="g2662"
       transform="matrix(0.11605092,0,0,0.11605092,-1115.6115,-629.727)">
		<rect
   x="10021.3"
   y="5670.0098"
   fill="#ffffff"
   fill-opacity="1"
   stroke-width="2.66667"
   stroke-linejoin="round"
   stroke="#000000"
   stroke-opacity="1"
   width="928"
   height="928"
   id="rect2632" />

		<rect
   x="10133.3"
   y="5847.0098"
   fill="#ffffff"
   fill-opacity="1"
   stroke-width="2.66667"
   stroke-linejoin="round"
   stroke="#000000"
   stroke-opacity="1"
   width="288"
   height="288"
   id="rect2634" />

		<path
   fill="#000000"
   fill-opacity="1"
   stroke-width="2.66667"
   stroke-linejoin="round"
   stroke="#000000"
   stroke-opacity="1"
   d="m 10181.3,5862.01 c 17.7,0 32,14.32 32,32 0,17.67 -14.3,32 -32,32 -17.6,0 -32,-14.33 -32,-32 0,-17.68 14.4,-32 32,-32 z"
   id="path2636" />

		<path
   fill="#000000"
   fill-opacity="1"
   stroke-width="2.66667"
   stroke-linejoin="round"
   stroke="#000000"
   stroke-opacity="1"
   d="m 10181.3,6278.01 c 17.7,0 32,14.32 32,32 0,17.67 -14.3,32 -32,32 -17.6,0 -32,-14.33 -32,-32 0,-17.68 14.4,-32 32,-32 z"
   id="path2638" />

		<path
   fill="#000000"
   fill-opacity="1"
   stroke-width="2.66667"
   stroke-linejoin="round"
   stroke="#000000"
   stroke-opacity="1"
   d="m 10373.3,5958.01 c 17.7,0 32,14.32 32,32 0,17.67 -14.3,32 -32,32 -17.6,0 -32,-14.33 -32,-32 0,-17.68 14.4,-32 32,-32 z"
   id="path2640" />

		<path
   fill="#000000"
   fill-opacity="1"
   stroke-width="2.66667"
   stroke-linejoin="round"
   stroke="#000000"
   stroke-opacity="1"
   d="m 10181.3,6054.01 c 17.7,0 32,14.32 32,32 0,17.67 -14.3,32 -32,32 -17.6,0 -32,-14.33 -32,-32 0,-17.68 14.4,-32 32,-32 z"
   id="path2642" />

		<path
   fill="#000000"
   fill-opacity="1"
   stroke-width="2.66667"
   stroke-linejoin="round"
   stroke="#000000"
   stroke-opacity="1"
   d="m 10725.3,6278.01 c 17.7,0 32,14.32 32,32 0,17.67 -14.3,32 -32,32 -17.6,0 -32,-14.33 -32,-32 0,-17.68 14.4,-32 32,-32 z"
   id="path2644" />

		<line
   fill="none"
   stroke-width="2.66667"
   stroke-linejoin="round"
   stroke="#000000"
   stroke-opacity="1"
   x1="10181.3"
   y1="5798.0098"
   x2="10181.3"
   y2="6406.0098"
   id="line2646" />

		<path
   fill="#000000"
   fill-opacity="1"
   stroke-linejoin="round"
   d="m 10182.7,5840.67 v 21.34 h -2.7 v -21.34 z m 0,42.67 v 21.33 h -2.7 v -21.33 z m 0,42.67 v 21.33 h -2.7 v -21.33 z m 0,42.66 v 21.34 h -2.7 v -21.34 z m 0,42.67 v 21.33 h -2.7 v -21.33 z m 0,42.67 v 21.33 h -2.7 v -21.33 z m 0,42.66 v 21.34 h -2.7 v -21.34 z m 0,42.67 v 21.33 h -2.7 v -21.33 z m 0,42.67 v 21.33 h -2.7 v -21.33 z m 0,42.66 v 21.34 h -2.7 v -21.34 z m 0,42.67 v 21.33 h -2.7 v -21.33 z m 0,42.67 v 21.33 h -2.7 v -21.33 z m 0,42.66 v 21.34 h -2.7 v -21.34 z m 0,42.67 v 10.67 h -2.7 v -10.67 z m 0,-597.33 v 21.33 h -2.7 v -21.33 z"
   id="path2648" />

		<line
   fill="none"
   stroke-width="2.66667"
   stroke-linejoin="round"
   stroke="#000000"
   stroke-opacity="1"
   x1="10724.3"
   y1="5862.0098"
   x2="10724.3"
   y2="6470.0098"
   id="line2650" />

		<path
   fill="#000000"
   fill-opacity="1"
   stroke-linejoin="round"
   d="m 10725.7,5904.67 v 21.34 h -2.7 v -21.34 z m 0,42.67 v 21.33 h -2.7 v -21.33 z m 0,42.67 v 21.33 h -2.7 v -21.33 z m 0,42.66 v 21.34 h -2.7 v -21.34 z m 0,42.67 v 21.33 h -2.7 v -21.33 z m 0,42.67 v 21.33 h -2.7 v -21.33 z m 0,42.66 v 21.34 h -2.7 v -21.34 z m 0,42.67 v 21.33 h -2.7 v -21.33 z m 0,42.67 v 21.33 h -2.7 v -21.33 z m 0,42.66 v 21.34 h -2.7 v -21.34 z m 0,42.67 v 21.33 h -2.7 v -21.33 z m 0,42.67 v 21.33 h -2.7 v -21.33 z m 0,42.66 v 21.34 h -2.7 v -21.34 z m 0,42.67 v 10.67 h -2.7 v -10.67 z m 0,-597.33 v 21.33 h -2.7 v -21.33 z"
   id="path2652" />

		<line
   fill="none"
   stroke-width="2.66667"
   stroke-linejoin="round"
   stroke="#000000"
   stroke-opacity="1"
   x1="10117.3"
   y1="5990.0098"
   x2="10821.3"
   y2="5990.0098"
   id="line2654" />

		<path
   fill="#000000"
   fill-opacity="1"
   stroke-linejoin="round"
   d="m 10160,5988.67 h 21.3 v 2.67 h -21.3 z m 42.7,0 h 21.3 v 2.67 h -21.3 z m 42.6,0 h 21.4 v 2.67 h -21.4 z m 42.7,0 h 21.3 v 2.67 h -21.3 z m 42.7,0 h 21.3 v 2.67 h -21.3 z m 42.6,0 h 21.4 v 2.67 h -21.4 z m 42.7,0 h 21.3 v 2.67 h -21.3 z m 42.7,0 h 21.3 v 2.67 h -21.3 z m 42.6,0 h 21.4 v 2.67 h -21.4 z m 42.7,0 h 21.3 v 2.67 h -21.3 z m 42.7,0 h 21.3 v 2.67 h -21.3 z m 42.6,0 h 21.4 v 2.67 h -21.4 z m 42.7,0 h 21.3 v 2.67 h -21.3 z m 42.7,0 h 21.3 v 2.67 h -21.3 z m 42.6,0 h 21.4 v 2.67 h -21.4 z m 42.7,0 h 21.3 v 2.67 h -21.3 z m -682.7,0 h 21.4 v 2.67 h -21.4 z"
   id="path2656" />

		<path
   fill="#ffffff"
   fill-opacity="1"
   stroke-width="2.66667"
   stroke-linejoin="round"
   stroke="#000000"
   stroke-opacity="1"
   d="m 10724.3,5958.01 c 17.7,0 32,14.32 32,32 0,17.67 -14.3,32 -32,32 -17.6,0 -32,-14.33 -32,-32 0,-17.68 14.4,-32 32,-32 z"
   id="path2658" />

		<line
   fill="none"
   stroke-width="2.66667"
   stroke-linejoin="round"
   stroke="#000000"
   stroke-opacity="1"
   x1="10117.3"
   y1="6310.0098"
   x2="10788.3"
   y2="6310.0098"
   id="line2660" />

	</g>
  </g>
</svg>
