<?xml version="1.0" encoding="UTF-8" standalone="no"?>
<!-- Created with Inkscape (http://www.inkscape.org/) -->

<svg
   width="297mm"
   height="210mm"
   viewBox="0 0 297 210"
   version="1.1"
   id="svg5"
   inkscape:version="1.2.2 (732a01da63, 2022-12-09)"
   sodipodi:docname="image50 ALS XY-Wing.svg"
   xmlns:inkscape="http://www.inkscape.org/namespaces/inkscape"
   xmlns:sodipodi="http://sodipodi.sourceforge.net/DTD/sodipodi-0.dtd"
   xmlns="http://www.w3.org/2000/svg"
   xmlns:svg="http://www.w3.org/2000/svg">
  <sodipodi:namedview
     id="namedview7"
     pagecolor="#ffffff"
     bordercolor="#000000"
     borderopacity="0.25"
     inkscape:showpageshadow="2"
     inkscape:pageopacity="0.0"
     inkscape:pagecheckerboard="0"
     inkscape:deskcolor="#d1d1d1"
     inkscape:document-units="mm"
     showgrid="false"
     inkscape:zoom="1.2938725"
     inkscape:cx="256.20762"
     inkscape:cy="397.64351"
     inkscape:window-width="2132"
     inkscape:window-height="1398"
     inkscape:window-x="1434"
     inkscape:window-y="258"
     inkscape:window-maximized="0"
     inkscape:current-layer="layer1" />
  <defs
     id="defs2" />
  <g
     inkscape:label="Layer 1"
     inkscape:groupmode="layer"
     id="layer1">
    <g
       id="g7804"
       transform="matrix(1.5345803,0,0,1.4918594,-125.38696,-150.94015)"
       inkscape:export-filename="img51a.png"
       inkscape:export-xdpi="96"
       inkscape:export-ydpi="96">
      <rect
         x="100.04288"
         y="120.53522"
         fill="#ffffff"
         fill-opacity="1"
         stroke-width="0.183078"
         stroke-linejoin="round"
         stroke="#000000"
         stroke-opacity="1"
         width="6.2673407"
         height="25.413404"
         id="rect4904" />
      <rect
         x="114.39583"
         y="135.48044"
         fill="#ffffff"
         fill-opacity="1"
         stroke-width="0.183078"
         stroke-linejoin="round"
         stroke="#000000"
         stroke-opacity="1"
         width="22.980249"
         height="6.9309282"
         id="rect4906" />
      <rect
         x="114.39583"
         y="121.61859"
         fill="#ffffff"
         fill-opacity="1"
         stroke-width="0.183078"
         stroke-linejoin="round"
         stroke="#000000"
         stroke-opacity="1"
         width="29.247723"
         height="6.9309282"
         id="rect4908" />
      <text
         transform="scale(0.95092431,1.0516084)"
         xml:space="preserve"
         id="text4912"
         x="122.47589"
         y="120.04324"
         style="font-size:0.823849px;stroke-width:0.068654">			 <tspan
   style="font-size:3.29539px;font-family:'メイリオ'"
   letter-spacing="0em"
   fill="#000000"
   fill-opacity="1"
   stroke-width="0.0137308"
   stroke-linejoin="round"
   id="tspan4910">x</tspan>		</text>
      <text
         transform="scale(0.95092431,1.0516084)"
         xml:space="preserve"
         id="text4916"
         x="105.98444"
         y="133.22482"
         style="font-size:0.823849px;stroke-width:0.068654">			 <tspan
   style="font-size:3.29539px;font-family:'メイリオ'"
   letter-spacing="0em"
   fill="#000000"
   fill-opacity="1"
   stroke-width="0.0137308"
   stroke-linejoin="round"
   id="tspan4914">y</tspan>		</text>
      <text
         transform="scale(0.95092431,1.0516084)"
         xml:space="preserve"
         id="text4920"
         x="105.98444"
         y="120.04324"
         style="font-size:0.823849px;stroke-width:0.068654">			 <tspan
   style="font-size:3.29539px;font-family:'メイリオ'"
   letter-spacing="0em"
   fill="#000000"
   fill-opacity="1"
   stroke-width="0.0137308"
   stroke-linejoin="round"
   id="tspan4918">x</tspan>		</text>
      <text
         transform="scale(0.95092431,1.0516084)"
         xml:space="preserve"
         id="text4924"
         x="142.24825"
         y="115.10015"
         style="font-size:0.823849px;stroke-width:0.068654">			 <tspan
   style="font-size:3.29539px;font-family:'メイリオ'"
   letter-spacing="0em"
   fill="#000000"
   fill-opacity="1"
   stroke-width="0.0137308"
   stroke-linejoin="round"
   id="tspan4922">ALS A</tspan>		</text>
      <text
         transform="scale(0.95092431,1.0516084)"
         xml:space="preserve"
         id="text4928"
         x="141.1353"
         y="128.35039"
         style="font-size:0.823849px;stroke-width:0.068654">			 <tspan
   style="font-size:3.29539px;font-family:'メイリオ'"
   letter-spacing="0em"
   fill="#000000"
   fill-opacity="1"
   stroke-width="0.0137308"
   stroke-linejoin="round"
   id="tspan4926">ALS B</tspan>		</text>
      <text
         transform="scale(0.95092431,1.0516084)"
         xml:space="preserve"
         id="text4932"
         x="111.12624"
         y="118.67017"
         style="font-size:0.823849px;stroke-width:0.068654">			 <tspan
   style="font-size:2.19693px;font-family:'メイリオ'"
   letter-spacing="0em"
   fill="#000000"
   fill-opacity="1"
   stroke-width="0.0137308"
   stroke-linejoin="round"
   id="tspan4930">RCC:x</tspan>		</text>
      <rect
         x="95.593803"
         y="114.68758"
         fill="none"
         stroke-width="0.183078"
         stroke-linejoin="round"
         stroke="#000000"
         stroke-opacity="1"
         width="52.22784"
         height="36.964951"
         id="rect4934" />
      <text
         transform="scale(0.95092431,1.0516084)"
         xml:space="preserve"
         id="text4938"
         x="118.08204"
         y="148.60333"
         style="font-size:0.823849px;stroke-width:0.068654">			 <tspan
   style="font-size:3.29539px;font-family:'メイリオ'"
   letter-spacing="0em"
   fill="#000000"
   fill-opacity="1"
   stroke-width="0.0137308"
   stroke-linejoin="round"
   id="tspan4936">ALS XY-Wing</tspan>		</text>
      <text
         transform="scale(0.95092431,1.0516084)"
         xml:space="preserve"
         id="text4942"
         x="122.47589"
         y="133.22482"
         style="font-size:0.823849px;stroke-width:0.068654">			 <tspan
   style="font-size:3.29539px;font-family:'メイリオ'"
   letter-spacing="0em"
   fill="#000000"
   fill-opacity="1"
   stroke-width="0.0137308"
   stroke-linejoin="round"
   id="tspan4940">y</tspan>		</text>
      <text
         transform="scale(0.95092431,1.0516084)"
         xml:space="preserve"
         id="text4946"
         x="132.3476"
         y="133.22482"
         style="font-size:0.823849px;stroke-width:0.068654">			 <tspan
   style="font-size:3.29539px;font-family:'メイリオ'"
   letter-spacing="0em"
   fill="#000000"
   fill-opacity="1"
   stroke-width="0.0137308"
   stroke-linejoin="round"
   id="tspan4944">z</tspan>		</text>
      <rect
         x="127.34256"
         y="143.62285"
         fill="#ffffff"
         fill-opacity="1"
         stroke-width="0.183078"
         stroke-linejoin="round"
         stroke="#000000"
         stroke-opacity="1"
         width="3.34266"
         height="4.0430417"
         id="rect4948" />
      <text
         transform="scale(0.95092431,1.0516084)"
         xml:space="preserve"
         id="text4952"
         x="132.97279"
         y="139.47234"
         style="font-size:0.823849px;stroke-width:0.068654">				 <tspan
   style="font-size:3.29539px;font-family:'メイリオ'"
   letter-spacing="0em"
   fill="#000000"
   fill-opacity="1"
   stroke-width="0.0137308"
   stroke-linejoin="round"
   id="tspan4950">z</tspan>			</text>
      <text
         transform="scale(0.95092431,1.0516084)"
         xml:space="preserve"
         id="text4958"
         x="135.84895"
         y="133.22482"
         style="font-size:0.823849px;stroke-width:0.068654">			 <tspan
   style="font-size:3.29539px;font-family:'メイリオ'"
   letter-spacing="0em"
   fill="#000000"
   fill-opacity="1"
   stroke-width="0.0137308"
   stroke-linejoin="round"
   id="tspan4956">z</tspan>		</text>
      <path
         fill="#000000"
         fill-opacity="1"
         stroke-linejoin="round"
         d="m 127.13579,122.45824 h 0.87886 v 0.19204 h -0.87886 z m 1.76433,0 h 0.87887 v 0.19204 h -0.87887 z m 1.75774,0 h 0.88545 v 0.19204 h -0.88545 z m 1.76432,0 h 0.87888 v 0.19204 h -0.87888 z m 1.36787,0.6209 v 0.96238 h -0.17182 v -0.96238 z m 0,1.92477 v 0.96311 h -0.17182 v -0.96311 z m 0,1.9255 v 0.96239 h -0.17182 v -0.96239 z m 0,1.9255 v 0.96239 h -0.17182 v -0.96239 z m 0,1.92478 v 0.96311 h -0.17182 v -0.96311 z m 0,1.92549 v 0.96239 h -0.17182 v -0.96239 z m 0,1.9255 v 0.96239 h -0.17182 v -0.96239 z m 0,1.92478 v 0.96311 h -0.17182 v -0.96311 z m 0,1.9255 v 0.96239 h -0.17182 v -0.96239 z m 0,1.9255 v 0.96238 h -0.17182 v -0.96238 z m 0,1.92477 v 0.96311 h -0.17182 v -0.96311 z m 0,1.9255 v 0.96239 h -0.17182 v -0.96239 z m 0,1.9255 v 0.96239 h -0.17182 v -0.96239 z m 0,1.92478 v 0.96311 h -0.17182 v -0.96311 z m -0.72028,1.33131 h -0.87887 v -0.19276 h 0.87887 z m -1.75772,0 h -0.88548 v -0.19276 h 0.88548 z m -1.76435,0 h -0.87886 v -0.19276 h 0.87886 z m -1.76433,0 h -0.87887 v -0.19276 h 0.87887 z m -1.75773,0 h -0.65419 -0.007 l -0.007,-0.001 -0.0133,-0.003 -0.007,-0.003 -0.007,-0.004 -0.007,-0.004 -0.007,-0.006 -0.007,-0.006 -0.007,-0.007 -0.007,-0.007 v -0.008 l -0.007,-0.009 v -0.009 l -0.007,-0.009 v -0.009 -0.009 -0.25269 h 0.17842 v 0.25269 l -0.0925,-0.0967 h 0.65419 z m -0.74009,-1.3111 v -0.96239 h 0.17841 v 0.96239 z m 0,-1.9255 v -0.96238 h 0.17841 v 0.96238 z m 0,-1.92477 v -0.96311 h 0.17841 v 0.96311 z m 0,-1.9255 v -0.96239 h 0.17841 v 0.96239 z m 0,-1.9255 v -0.96239 h 0.17841 v 0.96239 z m 0,-1.92478 v -0.96311 h 0.17841 v 0.96311 z m 0,-1.9255 v -0.96238 h 0.17841 v 0.96238 z m 0,-1.92549 v -0.96239 h 0.17841 v 0.96239 z m 0,-1.92478 v -0.96311 h 0.17841 v 0.96311 z m 0,-1.9255 v -0.96239 h 0.17841 v 0.96239 z m 0,-1.9255 v -0.96239 h 0.17841 v 0.96239 z m 0,-1.92477 v -0.96311 h 0.17841 v 0.96311 z m 0,-1.9255 v -0.96239 h 0.17841 v 0.96239 z m 0,-1.9255 v -0.54437 -0.009 -0.009 l 0.007,-0.009 v -0.009 l 0.007,-0.009 v -0.008 l 0.007,-0.008 0.007,-0.006 0.007,-0.007 0.007,-0.006 0.007,-0.005 0.007,-0.004 0.007,-0.004 0.0133,-0.002 0.007,-0.001 h 0.007 0.88547 v 0.19204 h -0.88547 l 0.0925,-0.096 v 0.54437 z"
         id="path4960"
         style="stroke-width:0.0690709" />
      <line
         fill="none"
         stroke-width="0.366155"
         stroke-linejoin="round"
         stroke="#ff0000"
         stroke-opacity="1"
         x1="131.53043"
         y1="142.75441"
         x2="126.56879"
         y2="148.23851"
         id="line4962" />
      <text
         transform="scale(0.95092431,1.0516084)"
         xml:space="preserve"
         id="text4966"
         x="133.46054"
         y="120.04324"
         style="font-size:0.823849px;stroke-width:0.068654">			 <tspan
   style="font-size:3.29539px;font-family:'メイリオ'"
   letter-spacing="0em"
   fill="#000000"
   fill-opacity="1"
   stroke-width="0.0137308"
   stroke-linejoin="round"
   id="tspan4964">z</tspan>		</text>
      <line
         fill="none"
         stroke-width="0.183078"
         stroke-linejoin="round"
         stroke="#000000"
         stroke-opacity="1"
         x1="103.95026"
         y1="125.27393"
         x2="116.36087"
         y2="125.27393"
         id="line4968" />
      <line
         fill="none"
         stroke-width="0.0137308"
         stroke-linejoin="round"
         x1="100.08532"
         y1="139.88158"
         x2="116.79823"
         y2="139.88158"
         id="line4970" />
      <text
         transform="scale(0.95092431,1.0516084)"
         xml:space="preserve"
         id="text4974"
         x="111.12624"
         y="131.85175"
         style="font-size:0.823849px;stroke-width:0.068654">			 <tspan
   style="font-size:2.19693px;font-family:'メイリオ'"
   letter-spacing="0em"
   fill="#000000"
   fill-opacity="1"
   stroke-width="0.0137308"
   stroke-linejoin="round"
   id="tspan4972">RCC:y</tspan>		</text>
      <line
         fill="none"
         stroke-width="0.183078"
         stroke-linejoin="round"
         stroke="#000000"
         stroke-opacity="1"
         x1="103.9894"
         y1="139.11124"
         x2="116.40002"
         y2="139.11124"
         id="line4976" />
      <text
         transform="scale(0.95092431,1.0516084)"
         xml:space="preserve"
         id="text4980"
         x="103.78751"
         y="112.83456"
         style="font-size:0.823849px;stroke-width:0.068654">			 <tspan
   style="font-size:3.29539px;font-family:'メイリオ'"
   letter-spacing="0em"
   fill="#000000"
   fill-opacity="1"
   stroke-width="0.0137308"
   stroke-linejoin="round"
   id="tspan4978">ALS C</tspan>		</text>
    </g>
  </g>
</svg>
