<?xml version="1.0" encoding="UTF-8" standalone="no"?>
<!-- Created with Inkscape (http://www.inkscape.org/) -->

<svg
   width="420mm"
   height="297mm"
   viewBox="0 0 420 297"
   version="1.1"
   id="svg8179"
   inkscape:version="1.2.2 (732a01da63, 2022-12-09)"
   sodipodi:docname="image44.svg"
   xmlns:inkscape="http://www.inkscape.org/namespaces/inkscape"
   xmlns:sodipodi="http://sodipodi.sourceforge.net/DTD/sodipodi-0.dtd"
   xmlns="http://www.w3.org/2000/svg"
   xmlns:svg="http://www.w3.org/2000/svg">
  <sodipodi:namedview
     id="namedview8181"
     pagecolor="#ffffff"
     bordercolor="#000000"
     borderopacity="0.25"
     inkscape:showpageshadow="2"
     inkscape:pageopacity="0.0"
     inkscape:pagecheckerboard="0"
     inkscape:deskcolor="#d1d1d1"
     inkscape:document-units="mm"
     showgrid="false"
     inkscape:zoom="0.64693625"
     inkscape:cx="508.55088"
     inkscape:cy="493.86628"
     inkscape:window-width="2105"
     inkscape:window-height="1230"
     inkscape:window-x="1208"
     inkscape:window-y="361"
     inkscape:window-maximized="0"
     inkscape:current-layer="layer1" />
  <defs
     id="defs8176">
    <rect
       x="619.07182"
       y="104.33795"
       width="124.43266"
       height="44.0538"
       id="rect845" />
  </defs>
  <g
     inkscape:label="Layer 1"
     inkscape:groupmode="layer"
     id="layer1">
    <path
       fill="#000000"
       fill-opacity="1"
       stroke-linejoin="round"
       d="m 346.37962,36.833321 h 1.16213 v 0.233299 h -1.16213 z m 2.33299,0 h 1.16213 v 0.233299 h -1.16213 z m 2.32426,0 h 1.17087 v 0.233299 h -1.17087 z m 2.333,0 h 1.16212 v 0.233299 h -1.16212 z m 2.33299,0 h 1.16213 v 0.233299 h -1.16213 z m 2.32426,0 h 1.17086 v 0.233299 h -1.17086 z m 2.333,0 h 1.16212 v 0.233299 h -1.16212 z m 2.33299,0 h 1.16213 v 0.233299 h -1.16213 z m 2.32426,0 h 1.17086 v 0.233299 h -1.17086 z m 2.333,0 h 1.16212 v 0.233299 h -1.16212 z m 2.33299,0 h 1.16213 v 0.233299 h -1.16213 z m 2.32425,0 h 1.17087 v 0.233299 h -1.17087 z m 2.333,0 h 1.16213 v 0.233299 h -1.16213 z m 2.333,0 h 1.16212 v 0.233299 h -1.16212 z m 2.32425,0 h 1.17087 v 0.233299 h -1.17087 z m 2.333,0 h 1.16213 v 0.233299 h -1.16213 z m 2.333,0 h 1.16213 v 0.233299 h -1.16213 z m 2.32425,0 h 1.17087 v 0.233299 h -1.17087 z m 2.333,0 h 1.16213 v 0.233299 h -1.16213 z m 2.333,0 h 1.16212 v 0.233299 h -1.16212 z m 2.32425,0 h 1.17087 v 0.233299 h -1.17087 z m 2.33299,0 h 0.93495 v 0.233299 h -0.93495 z m -51.26473,0 h 1.17087 v 0.233299 h -1.17087 z"
       id="path4132"
       style="stroke-width:0.0873781"
       inkscape:export-filename="img44c.png"
       inkscape:export-xdpi="96"
       inkscape:export-ydpi="96" />
    <path
       fill="#000000"
       fill-opacity="1"
       stroke-linejoin="round"
       d="m 262.49663,36.833321 h 1.16213 v 0.233299 h -1.16213 z m 2.33299,0 h 1.16214 v 0.233299 h -1.16214 z m 2.32426,0 h 1.17087 v 0.233299 h -1.17087 z m 2.333,0 h 1.16213 v 0.233299 h -1.16213 z m 2.33299,0 h 1.16214 v 0.233299 h -1.16214 z m 2.32426,0 h 1.17087 v 0.233299 h -1.17087 z m 2.333,0 h 1.16213 v 0.233299 h -1.16213 z m 2.33299,0 h 1.16213 v 0.233299 h -1.16213 z m 2.32426,0 h 1.17087 v 0.233299 h -1.17087 z m 2.333,0 h 1.16213 v 0.233299 h -1.16213 z m 2.33299,0 h 1.16213 v 0.233299 h -1.16213 z m 2.32426,0 h 1.17087 v 0.233299 h -1.17087 z m 2.333,0 h 1.16212 v 0.233299 h -1.16212 z m 2.33299,0 h 1.16213 v 0.233299 h -1.16213 z m 2.32426,0 h 1.17087 v 0.233299 h -1.17087 z m 2.33299,0 H 298.61 v 0.233299 h -1.16213 z m 2.333,0 h 1.16212 v 0.233299 h -1.16212 z m 2.32426,0 h 1.17086 v 0.233299 h -1.17086 z m 2.33299,0 h 1.16213 v 0.233299 h -1.16213 z m 2.333,0 h 1.16212 v 0.233299 h -1.16212 z m 2.32426,0 h 1.17086 v 0.233299 h -1.17086 z m 2.33299,0 h 0.93495 v 0.233299 h -0.93495 z m -51.26473,0 h 1.17087 v 0.233299 h -1.17087 z"
       id="path4134"
       style="stroke-width:0.0873781" />
    <rect
       x="262.03351"
       y="34.154305"
       fill="#ffffff"
       fill-opacity="1"
       stroke-width="0.233009"
       stroke-linejoin="round"
       stroke="#000000"
       stroke-opacity="1"
       width="7.3122807"
       height="5.5921988"
       id="rect4136" />
    <path
       fill="#ffffff"
       fill-opacity="1"
       stroke-width="0.233009"
       stroke-linejoin="round"
       stroke="#000000"
       stroke-opacity="1"
       d="m 293.72557,33.221983 h 14.91544 c 0.51553,0 0.92621,0.416794 0.92621,0.932325 v 6.523649 c 0,0.514657 -0.41068,0.932325 -0.92621,0.932325 h -14.91544 c -0.51553,0 -0.93495,-0.417668 -0.93495,-0.932325 v -6.523649 c 0,-0.515531 0.41942,-0.932325 0.93495,-0.932325 z"
       id="path4138" />
    <rect
       x="256.44128"
       y="19.241491"
       fill="none"
       stroke-width="0.233009"
       stroke-linejoin="round"
       stroke="#000000"
       stroke-opacity="1"
       width="58.718082"
       height="44.737591"
       id="rect4140" />
    <path
       fill="#000000"
       fill-opacity="1"
       stroke-linejoin="round"
       d="m 262.50537,27.513572 h 1.16213 v 0.232425 h -1.16213 z m 2.32425,0 h 1.17087 v 0.232425 h -1.17087 z m 2.333,0 h 1.16213 v 0.232425 h -1.16213 z m 2.333,0 h 1.16213 v 0.232425 h -1.16213 z m 2.32425,0 h 1.17087 v 0.232425 h -1.17087 z m 2.333,0 h 1.16213 v 0.232425 h -1.16213 z m 2.333,0 h 1.16213 v 0.232425 h -1.16213 z m 2.32425,0 h 1.17087 v 0.232425 h -1.17087 z m 2.333,0 h 1.16213 v 0.232425 h -1.16213 z m 2.333,0 h 1.16212 v 0.232425 h -1.16212 z m 2.32425,0 h 0.47184 l 0.40194,0.08214 0.27961,0.183494 -0.0961,0.21495 -0.27087,-0.183493 -0.31456,-0.06466 h -0.47184 z m 1.52038,1.457467 v 1.16475 h -0.23592 v -1.16475 z m 0,2.3295 v 1.165624 h -0.23592 v -1.165624 z m 0,2.330374 v 1.16475 h -0.23592 v -1.16475 z m 0,2.330374 v 1.16475 h -0.23592 v -1.16475 z m 0,2.329501 v 1.165624 h -0.23592 v -1.165624 z m 0,2.330374 v 1.16475 h -0.23592 v -1.16475 z m 0,2.330374 v 1.16475 h -0.23592 v -1.16475 z m 0,2.3295 v 1.165623 h -0.23592 v -1.165623 z m 0,2.330374 v 1.16475 h -0.23592 v -1.16475 z m 0,2.330374 v 1.16475 h -0.23592 v -1.16475 z m 0,2.3295 v 1.165624 h -0.23592 v -1.165624 z m 0,2.330374 v 1.164751 h -0.23592 v -1.164751 z m 0,2.330373 v 0.522523 l -0.0874,0.408055 -0.14854,0.225434 -0.21845,-0.09 0.15728,-0.226309 0.0612,-0.317181 V 56.93203 Z m -1.40679,1.571059 h -1.16212 v -0.232426 h 1.16212 z m -2.32425,0 h -1.17087 v -0.232426 h 1.17087 z m -2.333,0 h -1.16213 v -0.232426 h 1.16213 z m -2.33299,0 h -1.16213 v -0.232426 h 1.16213 z m -2.32426,0 h -1.17087 v -0.232426 h 1.17087 z m -2.333,0 h -1.16212 v -0.232426 h 1.16212 z m -2.33299,0 h -1.16213 v -0.232426 h 1.16213 z m -2.32426,0 h -1.17086 v -0.232426 h 1.17086 z m -2.333,0 h -1.16212 v -0.232426 h 1.16212 z m -2.33299,0 h -1.16213 v -0.232426 h 1.16213 z m -2.32426,0 h -1.17086 v -0.232426 h 1.17086 z m -2.333,0 h -0.11358 l -0.41068,-0.08213 -0.33204,-0.224562 -0.1835,-0.269127 0.16602,-0.164269 0.1835,0.268251 0.26214,0.174754 0.31456,0.06466 h 0.11358 z m -1.16212,-1.809601 v -1.165622 h 0.23592 v 1.165622 z m 0,-2.330373 v -1.16475 h 0.23592 v 1.16475 z m 0,-2.330374 v -1.16475 h 0.23592 v 1.16475 z m 0,-2.3295 v -1.165625 h 0.23592 v 1.165625 z m 0,-2.330374 v -1.164751 h 0.23592 v 1.164751 z m 0,-2.330374 v -1.16475 h 0.23592 v 1.16475 z m 0,-2.329501 V 41.54737 h 0.23592 v 1.165623 z m 0,-2.330374 v -1.16475 h 0.23592 v 1.16475 z m 0,-2.330374 v -1.16475 h 0.23592 v 1.16475 z m 0,-2.3295 v -1.165624 h 0.23592 v 1.165624 z m 0,-2.330374 V 32.22762 h 0.23592 v 1.164751 z m 0,-2.330374 v -1.164751 h 0.23592 v 1.164751 z m 0,-2.3295 v -0.170388 l 0.0786,-0.40893 0.22718,-0.33291 0.22719,-0.149417 0.15727,0.165145 -0.21844,0.149416 -0.17476,0.258639 -0.0611,0.318057 v 0.170388 z m 1.04854,-1.218925 h 1.16213 v 0.232425 h -1.16213 z"
       id="path4142"
       style="stroke-width:0.0873781" />
    <text
       xml:space="preserve"
       id="text4146"
       x="295.56049"
       y="38.795834"
       style="font-size:1.04854px;stroke-width:0.0873781"><tspan
   style="font-size:4.19416px;font-family:'メイリオ'"
   letter-spacing="0em"
   fill="#000000"
   fill-opacity="1"
   stroke-width="0.0174756"
   stroke-linejoin="round"
   id="tspan4144">ALS 2</tspan>	</text>
    <path
       fill="#ffffff"
       fill-opacity="1"
       stroke-width="0.233009"
       stroke-linejoin="round"
       stroke="#000000"
       stroke-opacity="1"
       d="m 265.76457,44.406381 h 14.91545 c 0.51553,0 0.9262,0.416794 0.9262,0.932324 v 6.52365 c 0,0.514656 -0.41067,0.932324 -0.9262,0.932324 h -14.91545 c -0.51553,0 -0.93495,-0.417668 -0.93495,-0.932324 v -6.52365 c 0,-0.51553 0.41942,-0.932324 0.93495,-0.932324 z"
       id="path4148" />
    <text
       xml:space="preserve"
       id="text4152"
       x="267.59949"
       y="49.980236"
       style="font-size:1.04854px;stroke-width:0.0873781"><tspan
   style="font-size:4.19416px;font-family:'メイリオ'"
   letter-spacing="0em"
   fill="#000000"
   fill-opacity="1"
   stroke-width="0.0174756"
   stroke-linejoin="round"
   id="tspan4150">ALS 1</tspan>	</text>
    <text
       xml:space="preserve"
       id="text4156"
       x="264.36649"
       y="38.358944"
       style="font-size:1.04854px;stroke-width:0.0873781"><tspan
   style="font-size:4.19416px;font-family:'メイリオ'"
   letter-spacing="0em"
   fill="#000000"
   fill-opacity="1"
   stroke-width="0.0174756"
   stroke-linejoin="round"
   id="tspan4154">P</tspan>	</text>
    <path
       fill="none"
       stroke-width="0.466017"
       stroke-linejoin="round"
       stroke="#000000"
       stroke-opacity="1"
       d="m 320.75162,44.766379 v -1.984357 -1.983483 h 8.3883 v -1.984357 l 5.59219,3.96784 -5.59219,3.968714 v -1.984357 h -8.3883"
       id="path4158" />
    <rect
       x="340.32428"
       y="19.241491"
       fill="none"
       stroke-width="0.233009"
       stroke-linejoin="round"
       stroke="#000000"
       stroke-opacity="1"
       width="58.718082"
       height="44.737591"
       id="rect4164" />
    <path
       fill="#000000"
       fill-opacity="1"
       stroke-linejoin="round"
       d="m 346.38835,27.513572 h 1.16214 v 0.232425 h -1.16214 z m 2.32426,0 h 1.17087 v 0.232425 h -1.17087 z m 2.333,0 h 1.16213 v 0.232425 h -1.16213 z m 2.33299,0 h 1.16213 v 0.232425 h -1.16213 z m 2.32426,0 h 1.17087 v 0.232425 h -1.17087 z m 2.33299,0 h 1.16213 v 0.232425 h -1.16213 z m 2.333,0 h 1.16213 v 0.232425 h -1.16213 z m 2.32426,0 h 1.17087 v 0.232425 h -1.17087 z m 2.333,0 h 1.16212 v 0.232425 h -1.16212 z m 2.33299,0 h 1.16213 v 0.232425 h -1.16213 z m 2.32426,0 h 0.47184 l 0.40194,0.08214 0.27961,0.183494 -0.0961,0.21495 -0.27088,-0.183493 -0.31456,-0.06466 h -0.47184 z m 1.52038,1.457467 v 1.16475 h -0.23593 v -1.16475 z m 0,2.330374 v 1.16475 h -0.23593 v -1.16475 z m 0,2.3295 v 1.165624 h -0.23593 v -1.165624 z m 0,2.330374 v 1.16475 h -0.23593 v -1.16475 z m 0,2.330374 v 1.164751 h -0.23593 v -1.164751 z m 0,2.329501 v 1.165624 h -0.23593 v -1.165624 z m 0,2.330374 v 1.16475 h -0.23593 v -1.16475 z m 0,2.330374 v 1.164749 h -0.23593 V 45.28191 Z m 0,2.3295 v 1.165624 h -0.23593 V 47.61141 Z m 0,2.330374 v 1.16475 h -0.23593 v -1.16475 z m 0,2.330374 v 1.16475 h -0.23593 v -1.16475 z m 0,2.3295 v 1.165622 h -0.23593 v -1.165622 z m 0,2.330373 v 0.522523 l -0.0874,0.408055 -0.14855,0.226309 -0.21844,-0.09087 0.15728,-0.225434 0.0611,-0.318056 v -0.522523 z m -1.40679,1.571059 h -1.16213 v -0.232426 h 1.16213 z m -2.32426,0 h -1.17086 v -0.232426 h 1.17086 z m -2.33299,0 h -1.16213 v -0.232426 h 1.16213 z m -2.333,0 h -1.16213 v -0.232426 h 1.16213 z m -2.32426,0 h -1.17087 v -0.232426 h 1.17087 z m -2.33299,0 h -1.16213 v -0.232426 h 1.16213 z m -2.33299,0 h -1.16214 v -0.232426 h 1.16214 z m -2.32426,0 h -1.17087 v -0.232426 h 1.17087 z m -2.333,0 h -1.16213 v -0.232426 h 1.16213 z m -2.333,0 h -1.16213 v -0.232426 h 1.16213 z m -2.32426,0 h -1.17086 v -0.232426 h 1.17086 z m -2.33299,0 h -0.11359 l -0.41068,-0.08213 -0.33203,-0.224562 -0.1835,-0.269127 0.16602,-0.164269 0.1835,0.268251 0.26213,0.174754 0.31456,0.06466 h 0.11359 z m -1.16212,-1.809601 v -1.165622 h 0.23591 v 1.165622 z m 0,-2.330373 v -1.16475 h 0.23591 v 1.16475 z m 0,-2.330374 v -1.16475 h 0.23591 v 1.16475 z m 0,-2.3295 v -1.165625 h 0.23591 v 1.165625 z m 0,-2.330374 v -1.164751 h 0.23591 v 1.164751 z m 0,-2.330374 v -1.16475 h 0.23591 v 1.16475 z m 0,-2.329501 V 41.54737 h 0.23591 v 1.165623 z m 0,-2.330374 v -1.16475 h 0.23591 v 1.16475 z m 0,-2.330374 v -1.16475 h 0.23591 v 1.16475 z m 0,-2.3295 v -1.165624 h 0.23591 v 1.165624 z m 0,-2.330374 V 32.22762 h 0.23591 v 1.164751 z m 0,-2.330374 v -1.164751 h 0.23591 v 1.164751 z m 0,-2.3295 v -0.170388 l 0.0786,-0.408055 0.22719,-0.333785 0.22718,-0.149417 0.15728,0.165145 -0.21844,0.149416 -0.17476,0.258639 -0.0611,0.318057 v 0.170388 z m 1.04853,-1.218925 h 1.16213 v 0.232425 h -1.16213 z"
       id="path4166"
       style="stroke-width:0.0873781" />
    <g
       id="g8639"
       transform="matrix(0.67931921,0,0,0.67931921,231.66951,-8.4444058)">
      <g
         id="g8633">
        <path
           fill="#ffffff"
           fill-opacity="1"
           stroke-width="0.343003"
           stroke-linejoin="round"
           stroke="#000000"
           stroke-opacity="1"
           d="m 214.83132,58.689675 h 21.95645 c 0.7589,0 1.36344,0.613546 1.36344,1.372439 v 9.603217 c 0,0.757607 -0.60454,1.372439 -1.36344,1.372439 h -21.95645 c -0.75889,0 -1.3763,-0.614832 -1.3763,-1.372439 v -9.603217 c 0,-0.758893 0.61741,-1.372439 1.3763,-1.372439 z"
           id="path4162" />
      </g>
      <text
         xml:space="preserve"
         id="text4170"
         x="217.53239"
         y="66.89473"
         style="font-size:1.54351px;stroke-width:0.128626"><tspan
   style="font-size:6.17406px;font-family:'メイリオ'"
   letter-spacing="0em"
   fill="#000000"
   fill-opacity="1"
   stroke-width="0.0257252"
   stroke-linejoin="round"
   id="tspan4168">ALS 2</tspan>	</text>
    </g>
    <path
       fill="#ffffff"
       fill-opacity="1"
       stroke-width="0.233009"
       stroke-linejoin="round"
       stroke="#000000"
       stroke-opacity="1"
       d="M 349.64756,44.406381 H 364.563 c 0.51553,0 0.92621,0.417667 0.92621,0.932324 v 6.52365 c 0,0.514656 -0.41068,0.932324 -0.92621,0.932324 h -14.91544 c -0.51553,0 -0.93495,-0.417668 -0.93495,-0.932324 v -6.52365 c 0,-0.514657 0.41942,-0.932324 0.93495,-0.932324 z"
       id="path4172" />
    <text
       xml:space="preserve"
       id="text4176"
       x="351.48245"
       y="49.980236"
       style="font-size:1.04854px;stroke-width:0.0873781"><tspan
   style="font-size:4.19416px;font-family:'メイリオ'"
   letter-spacing="0em"
   fill="#000000"
   fill-opacity="1"
   stroke-width="0.0174756"
   stroke-linejoin="round"
   id="tspan4174">ALS 1</tspan>	</text>
    <g
       id="g8630"
       transform="matrix(0.67931921,0,0,0.67931921,231.66951,-6.6470398)">
      <rect
         x="168.17859"
         y="58.474606"
         fill="#ffffff"
         fill-opacity="1"
         stroke-width="0.343003"
         stroke-linejoin="round"
         stroke="#000000"
         stroke-opacity="1"
         width="10.764131"
         height="8.2320633"
         id="rect4160" />
      <text
         xml:space="preserve"
         id="text4180"
         x="171.35567"
         y="64.921356"
         style="font-size:1.54351px;stroke-width:0.128626"><tspan
   style="font-size:6.17406px;font-family:'メイリオ'"
   letter-spacing="0em"
   fill="#000000"
   fill-opacity="1"
   stroke-width="0.0257252"
   stroke-linejoin="round"
   id="tspan4178">P</tspan>	</text>
    </g>
    <g
       id="g4188"
       transform="matrix(0.08737811,0,0,0.08737811,-784.1708,-719.20928)">
      <rect
         x="13091.7"
         y="8634.3203"
         fill="#ffffff"
         fill-opacity="1"
         stroke-width="0.2"
         stroke-linejoin="round"
         width="51.555698"
         height="40.888699"
         id="rect4182" />
      <text
         transform="translate(13095,8670)"
         xml:space="preserve"
         id="text4186">	<tspan
   style="font-size:48px;font-family:'メイリオ'"
   letter-spacing="0em"
   fill="#ff0000"
   fill-opacity="1"
   stroke-width="0.2"
   stroke-linejoin="round"
   id="tspan4184">＊</tspan>		</text>
    </g>
    <path
       fill="#000000"
       fill-opacity="1"
       stroke-linejoin="round"
       d="m 346.37962,87.163118 h 1.16213 v 0.23329 h -1.16213 z m 2.33299,0 h 1.16213 v 0.23329 h -1.16213 z m 2.32426,0 h 1.17087 v 0.23329 h -1.17087 z m 2.333,0 h 1.16212 v 0.23329 h -1.16212 z m 2.33299,0 h 1.16213 v 0.23329 h -1.16213 z m 2.32426,0 h 1.17086 v 0.23329 h -1.17086 z m 2.333,0 h 1.16212 v 0.23329 h -1.16212 z m 2.33299,0 h 1.16213 v 0.23329 h -1.16213 z m 2.32426,0 h 1.17086 v 0.23329 h -1.17086 z m 2.333,0 h 1.16212 v 0.23329 h -1.16212 z m 2.33299,0 h 1.16213 v 0.23329 h -1.16213 z m 2.32425,0 h 1.17087 v 0.23329 h -1.17087 z m 2.333,0 h 1.16213 v 0.23329 h -1.16213 z m 2.333,0 h 1.16212 v 0.23329 h -1.16212 z m 2.32425,0 h 1.17087 v 0.23329 h -1.17087 z m 2.333,0 h 1.16213 v 0.23329 h -1.16213 z m 2.333,0 h 1.16213 v 0.23329 h -1.16213 z m 2.32425,0 h 1.17087 v 0.23329 h -1.17087 z m 2.333,0 h 1.16213 v 0.23329 h -1.16213 z m 2.333,0 h 1.16212 v 0.23329 h -1.16212 z m 2.32425,0 h 1.17087 v 0.23329 h -1.17087 z m 2.33299,0 h 0.93495 v 0.23329 h -0.93495 z m -51.26473,0 h 1.17087 v 0.23329 h -1.17087 z"
       id="path4190"
       style="stroke-width:0.0873781" />
    <rect
       x="345.91647"
       y="84.484077"
       fill="#ffffff"
       fill-opacity="1"
       stroke-width="0.233009"
       stroke-linejoin="round"
       stroke="#000000"
       stroke-opacity="1"
       width="7.3122807"
       height="5.5921988"
       id="rect4192" />
    <rect
       x="340.32428"
       y="69.571274"
       fill="none"
       stroke-width="0.233009"
       stroke-linejoin="round"
       stroke="#000000"
       stroke-opacity="1"
       width="58.718082"
       height="44.737591"
       id="rect4196" />
    <path
       fill="#000000"
       fill-opacity="1"
       stroke-linejoin="round"
       d="m 346.38835,77.843361 h 1.16214 v 0.232423 h -1.16214 z m 2.32426,0 h 1.17087 v 0.232423 h -1.17087 z m 2.333,0 h 1.16213 v 0.232423 h -1.16213 z m 2.33299,0 h 1.16213 v 0.232423 h -1.16213 z m 2.32426,0 h 1.17087 v 0.232423 h -1.17087 z m 2.33299,0 h 1.16213 v 0.232423 h -1.16213 z m 2.333,0 h 1.16213 v 0.232423 h -1.16213 z m 2.32426,0 h 1.17087 v 0.232423 h -1.17087 z m 2.333,0 h 1.16212 v 0.232423 h -1.16212 z m 2.33299,0 h 1.16213 v 0.232423 h -1.16213 z m 2.32426,0 h 0.47184 l 0.40194,0.08214 0.27961,0.183491 -0.0961,0.21495 -0.27088,-0.183491 -0.31456,-0.06467 h -0.47184 z m 1.52038,1.457466 v 1.164751 h -0.23593 v -1.164751 z m 0,2.330381 v 1.16475 h -0.23593 v -1.16475 z m 0,2.3295 v 1.16562 h -0.23593 v -1.16562 z m 0,2.33037 v 1.16475 h -0.23593 v -1.16475 z m 0,2.33038 v 1.16474 h -0.23593 v -1.16474 z m 0,2.32949 v 1.16563 h -0.23593 v -1.16563 z m 0,2.33038 v 1.16475 h -0.23593 v -1.16475 z m 0,2.33037 v 1.16475 h -0.23593 v -1.16475 z m 0,2.3295 v 1.16562 h -0.23593 v -1.16562 z m 0,2.330382 v 1.16475 h -0.23593 v -1.16475 z m 0,2.33038 v 1.16474 h -0.23593 v -1.16474 z m 0,2.32949 v 1.16562 h -0.23593 v -1.16562 z m 0,2.33037 v 0.52253 l -0.0874,0.40805 -0.14855,0.22631 -0.21844,-0.0909 0.15728,-0.22544 0.0611,-0.31805 v -0.52253 z m -1.40679,1.57106 h -1.16213 v -0.23242 h 1.16213 z m -2.32426,0 h -1.17086 v -0.23242 h 1.17086 z m -2.33299,0 h -1.16213 v -0.23242 h 1.16213 z m -2.333,0 h -1.16213 v -0.23242 h 1.16213 z m -2.32426,0 h -1.17087 v -0.23242 h 1.17087 z m -2.33299,0 h -1.16213 v -0.23242 h 1.16213 z m -2.33299,0 h -1.16214 v -0.23242 h 1.16214 z m -2.32426,0 h -1.17087 v -0.23242 h 1.17087 z m -2.333,0 h -1.16213 v -0.23242 h 1.16213 z m -2.333,0 h -1.16213 v -0.23242 h 1.16213 z m -2.32426,0 h -1.17086 v -0.23242 h 1.17086 z m -2.33299,0 h -0.11359 l -0.41068,-0.0821 -0.33203,-0.22457 -0.1835,-0.26912 0.16602,-0.16427 0.1835,0.26825 0.26213,0.17476 0.31456,0.0647 h 0.11359 z m -1.16212,-1.8096 v -1.16563 h 0.23591 v 1.16563 z m 0,-2.33037 v -1.16475 h 0.23591 v 1.16475 z m 0,-2.33037 v -1.16476 h 0.23591 v 1.16476 z m 0,-2.3295 v -1.165632 h 0.23591 v 1.165632 z m 0,-2.330382 v -1.16475 h 0.23591 v 1.16475 z m 0,-2.33037 v -1.16476 h 0.23591 v 1.16476 z m 0,-2.3295 v -1.16563 h 0.23591 v 1.16563 z m 0,-2.33038 v -1.16475 h 0.23591 v 1.16475 z m 0,-2.33037 v -1.16475 h 0.23591 v 1.16475 z m 0,-2.3295 v -1.16563 h 0.23591 v 1.16563 z m 0,-2.33037 v -1.16476 h 0.23591 v 1.16476 z m 0,-2.33038 v -1.164757 h 0.23591 v 1.164757 z m 0,-2.329504 v -0.170387 l 0.0786,-0.408053 0.22719,-0.333784 0.22718,-0.149423 0.15728,0.16515 -0.21844,0.149416 -0.17476,0.258637 -0.0611,0.318057 v 0.170387 z m 1.04853,-1.218923 h 1.16213 v 0.232423 h -1.16213 z"
       id="path4198"
       style="stroke-width:0.0873781" />
    <g
       id="g8648"
       transform="matrix(0.67931921,0,0,0.67931921,231.66951,-6.6470398)">
      <g
         id="g8642"
         transform="translate(0,-1.5875)">
        <path
           fill="#ffffff"
           fill-opacity="1"
           stroke-width="0.343003"
           stroke-linejoin="round"
           stroke="#000000"
           stroke-opacity="1"
           d="m 214.83132,132.77825 h 21.95645 c 0.7589,0 1.36344,0.61354 1.36344,1.37244 v 9.60321 c 0,0.75761 -0.60454,1.37244 -1.36344,1.37244 h -21.95645 c -0.75889,0 -1.3763,-0.61483 -1.3763,-1.37244 v -9.60321 c 0,-0.7589 0.61741,-1.37244 1.3763,-1.37244 z"
           id="path4194" />
      </g>
      <text
         xml:space="preserve"
         id="text4202"
         x="217.53239"
         y="139.92499"
         style="font-size:1.54351px;stroke-width:0.128626"> <tspan
   style="font-size:6.17406px;font-family:'メイリオ'"
   letter-spacing="0em"
   fill="#000000"
   fill-opacity="1"
   stroke-width="0.0257252"
   stroke-linejoin="round"
   id="tspan4200">ALS 2</tspan>	</text>
    </g>
    <path
       fill="#ffffff"
       fill-opacity="1"
       stroke-width="0.233009"
       stroke-linejoin="round"
       stroke="#000000"
       stroke-opacity="1"
       d="M 349.64756,94.736168 H 364.563 c 0.51553,0 0.92621,0.41768 0.92621,0.93233 v 6.523652 c 0,0.51466 -0.41068,0.93232 -0.92621,0.93232 h -14.91544 c -0.51553,0 -0.93495,-0.41766 -0.93495,-0.93232 v -6.523652 c 0,-0.51465 0.41942,-0.93233 0.93495,-0.93233 z"
       id="path4204" />
    <text
       xml:space="preserve"
       id="text4208"
       x="351.48245"
       y="100.31003"
       style="font-size:1.04854px;stroke-width:0.0873781"> <tspan
   style="font-size:4.19416px;font-family:'メイリオ'"
   letter-spacing="0em"
   fill="#000000"
   fill-opacity="1"
   stroke-width="0.0174756"
   stroke-linejoin="round"
   id="tspan4206">ALS 1</tspan>	</text>
    <text
       xml:space="preserve"
       id="text4212"
       x="348.07471"
       y="88.863487"
       style="font-size:1.04854px;stroke-width:0.0873781"><tspan
   style="font-size:4.19416px;font-family:'メイリオ'"
   letter-spacing="0em"
   fill="#000000"
   fill-opacity="1"
   stroke-width="0.0174756"
   stroke-linejoin="round"
   id="tspan4210">P</tspan>	</text>
    <g
       id="g4220"
       transform="matrix(0.08737811,0,0,0.08737811,-784.1708,-719.20928)">
      <rect
         x="13349.3"
         y="9347.21"
         fill="#ffffff"
         fill-opacity="1"
         stroke-width="0.2"
         stroke-linejoin="round"
         width="51.555698"
         height="40.888699"
         id="rect4214" />
      <text
         transform="translate(13353,9383)"
         xml:space="preserve"
         id="text4218"><tspan
   style="font-size:48px;font-family:'メイリオ'"
   letter-spacing="0em"
   fill="#ff0000"
   fill-opacity="1"
   stroke-width="0.2"
   stroke-linejoin="round"
   id="tspan4216">＊</tspan>		</text>
    </g>
    <path
       fill="#766adc"
       fill-opacity="1"
       stroke-width="0.466017"
       stroke-linejoin="round"
       stroke="#685dc4"
       stroke-opacity="1"
       d="m 364.45815,37.55419 v -0.652714 -0.651841 h 7.0252 v -0.651841 l 4.6922,1.303682 -4.6922,1.304555 V 37.55419 h -7.0252"
       id="path4222" />
    <path
       fill="#766adc"
       fill-opacity="1"
       stroke-width="0.466017"
       stroke-linejoin="round"
       stroke="#685dc4"
       stroke-opacity="1"
       d="m 361.52224,38.673504 h 0.65534 0.6466 v 4.013276 h 0.65533 l -1.30193,2.675517 -1.31067,-2.675517 h 0.65533 v -4.013276"
       id="path4224" />
    <path
       fill="#00c800"
       fill-opacity="1"
       stroke-width="0.466017"
       stroke-linejoin="round"
       stroke="#00c800"
       stroke-opacity="1"
       d="m 377.46874,33.291886 v 0.651841 0.652714 H 363.4533 v 0.651841 l -9.34072,-1.304555 9.34072,-1.303682 v 0.651841 h 14.01544"
       id="path4226" />
    <path
       fill="#00c800"
       fill-opacity="1"
       stroke-width="0.466017"
       stroke-linejoin="round"
       stroke="#00c800"
       stroke-opacity="1"
       d="m 352.25143,45.196279 h -0.6466 -0.65534 v -2.905322 h -0.65533 l 1.31067,-1.936299 1.30193,1.936299 h -0.65533 v 2.905322"
       id="path4228" />
    <path
       fill="#766adc"
       fill-opacity="1"
       stroke-width="0.466017"
       stroke-linejoin="round"
       stroke="#685dc4"
       stroke-opacity="1"
       d="m 382.28328,98.371978 v 0.65271 0.65184 h -9.41936 v 0.652722 l -6.28248,-1.304562 6.28248,-1.30455 v 0.65184 h 9.41936"
       id="path4230" />
    <path
       fill="#766adc"
       fill-opacity="1"
       stroke-width="0.466017"
       stroke-linejoin="round"
       stroke="#685dc4"
       stroke-opacity="1"
       d="m 383.87356,97.041208 h 0.65533 0.65534 v -3.72842 h 0.6466 l -1.30194,-2.48504 -1.30192,2.48504 h 0.64659 v 3.72842"
       id="path4232" />
    <path
       fill="#00c800"
       fill-opacity="1"
       stroke-width="0.466017"
       stroke-linejoin="round"
       stroke="#00c800"
       stroke-opacity="1"
       d="m 377.46001,84.851958 v 0.65184 0.65184 h -14.01545 v 0.65272 l -9.34072,-1.30456 9.34072,-1.30455 v 0.65271 h 14.01545"
       id="path4234" />
    <path
       fill="#00c800"
       fill-opacity="1"
       stroke-width="0.466017"
       stroke-linejoin="round"
       stroke="#00c800"
       stroke-opacity="1"
       d="m 351.46502,95.824028 h -0.64659 -0.65534 v -2.90532 h -0.65534 l 1.31068,-1.93718 1.30193,1.93718 h -0.65534 v 2.90532"
       id="path4236" />
    <path
       fill="#00c800"
       fill-opacity="1"
       stroke-width="0.466017"
       stroke-linejoin="round"
       stroke="#00c800"
       stroke-opacity="1"
       d="m 360.08924,36.039928 v 0.65184 0.652714 h -3.69609 v 0.651841 l -2.46407,-1.304555 2.46407,-1.304555 v 0.652715 h 3.69609"
       id="path4238" />
    <text
       xml:space="preserve"
       id="text4242"
       x="347.60797"
       y="26.253237"
       style="font-size:1.04854px;stroke-width:0.0873781">		 <tspan
   style="font-size:2.7961px;font-family:'メイリオ'"
   letter-spacing="0em"
   fill="#000000"
   fill-opacity="1"
   stroke-width="0.0174756"
   stroke-linejoin="round"
   id="tspan4240">P contains the focused digit</tspan>	</text>
    <text
       xml:space="preserve"
       id="text9190"
       x="343.09418"
       y="76.485672"
       style="font-size:1.04854px;stroke-width:0.0873781">		 <tspan
   style="font-size:2.7961px;font-family:'メイリオ'"
   letter-spacing="0em"
   fill="#000000"
   fill-opacity="1"
   stroke-width="0.0174756"
   stroke-linejoin="round"
   id="tspan9188">P not contain the focused digit</tspan>	</text>
    <path
       fill="#000000"
       fill-opacity="1"
       stroke-linejoin="round"
       d="m 28.917913,55.048253 h 2.033349 v 0.405152 h -2.033349 z m 4.05153,0 h 2.018182 v 0.405152 h -2.018182 z m 4.051537,0 h 2.018175 v 0.405152 H 37.02098 Z m 4.036357,0 h 2.033347 v 0.405152 h -2.033347 z m 4.05153,0 h 2.018174 v 0.405152 h -2.018174 z m 4.05153,0 h 2.018174 v 0.405152 h -2.018174 z m 4.036355,0 h 2.033349 v 0.405152 h -2.033349 z m 4.051537,0 h 2.018175 v 0.405152 h -2.018175 z m 4.05153,0 h 2.018175 v 0.405152 h -2.018175 z m 4.036357,0 h 2.033347 v 0.405152 h -2.033347 z m 4.05153,0 h 2.018174 v 0.405152 h -2.018174 z m 4.05153,0 h 2.018181 v 0.405152 h -2.018181 z m 4.036363,0 h 2.033348 v 0.405152 h -2.033348 z m 4.051529,0 h 2.018177 v 0.405152 h -2.018177 z m 4.051532,0 h 2.018174 v 0.405152 H 85.57866 Z m 4.036356,0 h 1.638823 v 0.405152 h -1.638823 z m -64.733458,0 h 2.018174 v 0.405152 h -2.018174 z"
       id="path8"
       style="stroke-width:0.151743"
       inkscape:export-filename="img44a.png"
       inkscape:export-xdpi="96"
       inkscape:export-ydpi="96" />
    <rect
       x="24.88162"
       y="49.990654"
       fill="#ffffff"
       fill-opacity="1"
       stroke-width="0.404648"
       stroke-linejoin="round"
       stroke="#000000"
       stroke-opacity="1"
       width="14.567305"
       height="10.52078"
       id="rect3768" />
    <rect
       x="34.183426"
       y="65.973732"
       fill="#ffffff"
       fill-opacity="1"
       stroke-width="0.404648"
       stroke-linejoin="round"
       stroke="#000000"
       stroke-opacity="1"
       width="12.544119"
       height="8.9022932"
       id="rect3770" />
    <rect
       x="72.619835"
       y="50.799458"
       fill="#ffffff"
       fill-opacity="1"
       stroke-width="0.404648"
       stroke-linejoin="round"
       stroke="#000000"
       stroke-opacity="1"
       width="12.543967"
       height="8.9022932"
       id="rect3772" />
    <text
       xml:space="preserve"
       id="text3776"
       x="26.273973"
       y="56.518929"
       style="font-size:1.82091px;stroke-width:0.151743"><tspan
   style="font-size:7.28366px;font-family:'メイリオ'"
   letter-spacing="0em"
   fill="#000000"
   fill-opacity="1"
   stroke-width="0.0303485"
   stroke-linejoin="round"
   id="tspan3774">xyz</tspan>	</text>
    <text
       xml:space="preserve"
       id="text3780"
       x="36.535427"
       y="72.22097"
       style="font-size:1.82091px;stroke-width:0.151743"><tspan
   style="font-size:7.28366px;font-family:'メイリオ'"
   letter-spacing="0em"
   fill="#000000"
   fill-opacity="1"
   stroke-width="0.0303485"
   stroke-linejoin="round"
   id="tspan3778">yz</tspan>	</text>
    <text
       xml:space="preserve"
       id="text3784"
       x="75.381569"
       y="57.653671"
       style="font-size:1.82091px;stroke-width:0.151743"><tspan
   style="font-size:7.28366px;font-family:'メイリオ'"
   letter-spacing="0em"
   fill="#000000"
   fill-opacity="1"
   stroke-width="0.0303485"
   stroke-linejoin="round"
   id="tspan3782">xz</tspan>	</text>
    <rect
       x="17.157829"
       y="18.809004"
       fill="none"
       stroke-width="0.404648"
       stroke-linejoin="round"
       stroke="#000000"
       stroke-opacity="1"
       width="77.692284"
       height="77.692284"
       id="rect3786" />
    <path
       fill="#000000"
       fill-opacity="1"
       stroke-linejoin="round"
       d="m 149.91759,55.048253 h 2.01819 v 0.405152 h -2.01819 z m 4.03637,0 h 2.03334 v 0.405152 h -2.03334 z m 4.05153,0 h 2.01818 v 0.405152 h -2.01818 z m 4.05153,0 h 2.01817 v 0.405152 h -2.01817 z m 4.03636,0 h 2.03335 v 0.405152 h -2.03335 z m 4.05153,0 h 2.01817 v 0.405152 h -2.01817 z m 4.05152,0 h 2.01819 v 0.405152 h -2.01819 z m 4.03637,0 h 2.03335 v 0.405152 h -2.03335 z m 4.05153,0 h 2.01817 v 0.405152 h -2.01817 z m 4.05153,0 h 2.01818 v 0.405152 h -2.01818 z m 4.03635,0 h 2.03336 v 0.405152 h -2.03336 z m 4.05154,0 h 2.01817 v 0.405152 h -2.01817 z m 4.05153,0 h 2.01818 v 0.405152 h -2.01818 z m 4.03636,0 h 2.03335 v 0.405152 h -2.03335 z m 4.05153,0 h 2.01818 v 0.405152 h -2.01818 z m 4.05153,0 h 1.62365 v 0.405152 h -1.62365 z m -64.74863,0 h 2.01818 v 0.405152 h -2.01818 z"
       id="path3788"
       style="stroke-width:0.151743" />
    <rect
       x="146.2758"
       y="49.990654"
       fill="#ffffff"
       fill-opacity="1"
       stroke-width="0.404648"
       stroke-linejoin="round"
       stroke="#000000"
       stroke-opacity="1"
       width="14.567305"
       height="10.52078"
       id="rect3790" />
    <rect
       x="155.57761"
       y="65.973732"
       fill="#ffffff"
       fill-opacity="1"
       stroke-width="0.404648"
       stroke-linejoin="round"
       stroke="#000000"
       stroke-opacity="1"
       width="12.543967"
       height="8.9022932"
       id="rect3792" />
    <rect
       x="193.61954"
       y="50.799458"
       fill="#ffffff"
       fill-opacity="1"
       stroke-width="0.404648"
       stroke-linejoin="round"
       stroke="#000000"
       stroke-opacity="1"
       width="12.544119"
       height="8.9022932"
       id="rect3794" />
    <text
       xml:space="preserve"
       id="text3798"
       x="148.21808"
       y="57.653671"
       style="font-size:1.82091px;stroke-width:0.151743"><tspan
   style="font-size:7.28366px;font-family:'メイリオ'"
   letter-spacing="0em"
   fill="#000000"
   fill-opacity="1"
   stroke-width="0.0303485"
   stroke-linejoin="round"
   id="tspan3796">xyz</tspan>	</text>
    <text
       xml:space="preserve"
       id="text3802"
       x="157.92961"
       y="72.22097"
       style="font-size:1.82091px;stroke-width:0.151743"> <tspan
   style="font-size:7.28366px;font-family:'メイリオ'"
   letter-spacing="0em"
   fill="#000000"
   fill-opacity="1"
   stroke-width="0.0303485"
   stroke-linejoin="round"
   id="tspan3800">yz</tspan>	</text>
    <text
       xml:space="preserve"
       id="text3806"
       x="196.32053"
       y="57.653671"
       style="font-size:1.82091px;stroke-width:0.151743"><tspan
   style="font-size:7.28366px;font-family:'メイリオ'"
   letter-spacing="0em"
   fill="#000000"
   fill-opacity="1"
   stroke-width="0.0303485"
   stroke-linejoin="round"
   id="tspan3804">xz</tspan>	</text>
    <path
       fill="#000000"
       fill-opacity="1"
       stroke-linejoin="round"
       d="m 147.88425,45.043853 h 2.03334 v 0.403636 h -2.03334 z m 4.05153,0 h 2.01818 v 0.403636 h -2.01818 z m 4.05152,0 h 2.01819 v 0.403636 h -2.01819 z m 4.03637,0 h 2.03335 v 0.403636 h -2.03335 z m 4.05152,0 h 2.01819 v 0.403636 h -2.01819 z m 4.05154,0 h 2.01818 v 0.403636 h -2.01818 z m 4.03635,0 h 2.03335 v 0.403636 h -2.03335 z m 4.03637,0.08498 0.2883,0.05767 0.5918,0.389979 0.37935,0.579657 0.12141,0.556896 -0.37937,0.157812 -0.10622,-0.556896 -0.30348,-0.450675 -0.45523,-0.303486 -0.13656,-0.02732 z m 1.4112,3.684315 v 2.024247 h -0.40971 v -2.024251 z m 0,4.046979 v 2.02273 h -0.40971 v -2.02273 z m 0,4.04698 v 2.02273 h -0.40971 v -2.02273 z m 0,4.045461 v 2.024249 h -0.40971 v -2.024249 z m 0,4.04698 v 2.022731 h -0.40971 v -2.022731 z m 0,4.046978 v 2.022732 h -0.40971 v -2.022732 z m 0,4.045466 v 2.024243 h -0.40971 v -2.024243 z m 0,4.046977 V 78.0388 l -0.15175,0.708638 -0.25796,0.399084 -0.37935,-0.157811 0.27313,-0.399085 0.10622,-0.550826 v -0.899832 z m -2.44306,2.720743 h -2.01818 v -0.405154 h 2.01818 z m -4.05153,0 h -2.01817 v -0.405154 h 2.01817 z m -4.03636,0 h -2.03336 v -0.405154 h 2.03336 z m -4.05152,0 h -2.01819 v -0.405154 h 2.01819 z m -4.05154,0 h -2.01818 v -0.405154 h 2.01818 z m -4.03636,0 h -2.03335 v -0.405154 h 2.03335 z m -4.05153,0 h -2.01818 v -0.405154 h 2.01818 z m -4.05153,0 h -2.01817 v -0.405154 h 2.01817 z m -4.03636,-0.370247 -0.24279,-0.162363 -0.39453,-0.579664 -0.13657,-0.708638 v -0.544757 h 0.39454 V 78.0388 l 0.12139,0.550826 0.30349,0.450675 0.10622,0.07739 z m -0.77389,-4.019667 v -2.022733 h 0.39454 v 2.022733 z m 0,-4.045463 v -2.024249 h 0.39454 v 2.024249 z m 0,-4.04698 v -2.022731 h 0.39454 v 2.022731 z m 0,-4.046979 v -2.022731 h 0.39454 v 2.022731 z m 0,-4.045461 v -2.024249 h 0.39454 v 2.024249 z m 0,-4.04698 v -2.022731 h 0.39454 v 2.022731 z m 0,-4.046979 v -2.022731 h 0.39454 v 2.022731 z m 0,-4.045462 V 46.86477 l 0.13657,-0.708639 0.39453,-0.579657 0.39454,-0.267068 0.2883,0.285276 -0.39452,0.268585 -0.30349,0.450677 -0.12139,0.550826 v 0.280724 z m 1.82092,-2.101638 h 2.01818 v 0.403636 h -2.01818 z"
       id="path3808"
       style="stroke-width:0.151743" />
    <rect
       x="138.55203"
       y="18.809004"
       fill="none"
       stroke-width="0.404648"
       stroke-linejoin="round"
       stroke="#000000"
       stroke-opacity="1"
       width="77.692284"
       height="77.692284"
       id="rect3810" />
    <path
       fill="none"
       stroke-width="0.809296"
       stroke-linejoin="round"
       stroke="#000000"
       stroke-opacity="1"
       d="M 104.56169,63.136142 V 59.690064 56.243987 H 119.129 v -3.444562 l 9.71153,6.890639 -9.71153,6.890639 v -3.444561 h -14.56731"
       id="path3812" />
    <rect
       x="166.50307"
       y="50.59763"
       fill="#ffffff"
       fill-opacity="1"
       stroke-width="0.404648"
       stroke-linejoin="round"
       stroke="#ff0000"
       stroke-opacity="1"
       width="8.4975948"
       height="8.9022932"
       id="rect3814" />
    <text
       xml:space="preserve"
       id="text3818"
       x="168.85509"
       y="56.743206"
       style="font-size:1.82091px;stroke-width:0.151743"><tspan
   style="font-size:7.28366px;font-family:'メイリオ'"
   letter-spacing="0em"
   fill="#ff0000"
   fill-opacity="1"
   stroke-width="0.0303485"
   stroke-linejoin="round"
   id="tspan3816">z</tspan>	</text>
    <path
       fill="#000000"
       fill-opacity="1"
       stroke-linejoin="round"
       d="m 25.622451,45.46418 h 2.033355 v 0.405154 h -2.033355 z m 4.051537,0 h 2.018174 v 0.405154 h -2.018174 z m 4.05153,0 h 2.018174 v 0.405154 h -2.018174 z m 4.036356,0 h 2.033348 v 0.405154 h -2.033348 z m 4.051538,0 h 2.018174 v 0.405154 h -2.018174 z m 4.051529,0 h 2.018175 v 0.405154 h -2.018175 z m 4.036356,0 h 2.033348 v 0.405154 h -2.033348 z m 4.036356,0.08498 0.288311,0.05917 0.591795,0.389979 0.379358,0.578139 0.121396,0.556897 -0.379359,0.157813 -0.106222,-0.556894 -0.303483,-0.450676 -0.455227,-0.303486 -0.136569,-0.0258 z m 1.411207,3.685832 v 2.02273 h -0.409706 v -2.02273 z m 0,4.045461 v 2.024249 h -0.409706 v -2.024249 z m 0,4.04698 v 2.022731 h -0.409706 v -2.022731 z m 0,4.046979 v 2.022731 h -0.409706 v -2.022731 z m 0,4.045462 v 2.024248 h -0.409706 v -2.024248 z m 0,4.046976 v 2.02273 h -0.409706 v -2.02273 z m 0,4.04699 v 2.02272 h -0.409706 v -2.02272 z m 0,4.04546 v 0.90134 l -0.151743,0.70864 -0.257963,0.39757 -0.379359,-0.15781 0.273137,-0.39757 0.106222,-0.55083 V 77.5593 Z m -2.443061,2.72226 H 50.887625 V 79.8764 h 2.018174 z m -4.05153,0 H 46.836095 V 79.8764 h 2.018174 z m -4.036357,0 H 42.784565 V 79.8764 h 2.033347 z m -4.051537,0 H 38.748201 V 79.8764 h 2.018174 z m -4.051529,0 H 34.696671 V 79.8764 h 2.018175 z m -4.036356,0 H 30.645142 V 79.8764 h 2.033348 z m -4.05153,0 H 26.608786 V 79.8764 h 2.018174 z m -4.05153,0 H 22.557256 V 79.8764 h 2.018174 z m -4.036326,-0.37025 -0.24279,-0.16388 -0.394532,-0.57815 -0.136569,-0.70864 v -0.54627 h 0.394532 v 0.54627 l 0.121395,0.55083 0.303484,0.45068 0.106222,0.0759 z m -0.773891,-4.01967 v -2.02425 h 0.394532 v 2.02425 z m 0,-4.04698 v -2.02273 h 0.394532 v 2.02273 z m 0,-4.046979 V 65.77495 h 0.394532 v 2.022731 z m 0,-4.045462 V 61.72797 h 0.394532 v 2.024249 z m 0,-4.04698 v -2.022731 h 0.394532 v 2.022731 z m 0,-4.04698 v -2.02273 h 0.394532 v 2.02273 z m 0,-4.045462 V 49.58855 h 0.394532 v 2.024247 z m 0,-4.046979 v -0.280724 l 0.136569,-0.708638 0.394532,-0.57814 0.394532,-0.268585 0.28831,0.286794 -0.394532,0.267067 -0.303484,0.450676 -0.121395,0.550826 v 0.280724 z m 1.820912,-2.101637 h 2.018152 v 0.405154 h -2.018152 z"
       id="path3820"
       style="stroke-width:0.151743" />
    <text
       xml:space="preserve"
       id="text3826"
       x="162.17192"
       y="30.603703"
       style="font-size:1.82091px;line-height:0.9;stroke-width:0.151743"><tspan
         sodipodi:role="line"
         id="tspan904"
         x="162.17192"
         y="30.603703"><tspan
           style="font-size:7.28366px;font-family:'MS UI Gothic'"
           letter-spacing="0em"
           fill="#ff0000"
           fill-opacity="1"
           stroke-width="0.0303485"
           stroke-linejoin="round"
           id="tspan3822"
           dy="0 0 0 0 0 0 0 0 0 0 0">Locked on z</tspan></tspan><tspan
         sodipodi:role="line"
         x="162.17192"
         y="37.158993"
         id="tspan910"><tspan
   style="font-size:7.28366px;font-family:'MS UI Gothic'"
   letter-spacing="0em"
   fill="#ff0000"
   fill-opacity="1"
   stroke-width="0.0303485"
   stroke-linejoin="round"
   id="tspan912"> is excluded</tspan>	</tspan></text>
    <rect
       x="158.48985"
       y="24.468328"
       fill="none"
       stroke-width="0.375853"
       stroke-linejoin="round"
       stroke="#ff0000"
       stroke-opacity="1"
       width="44.292198"
       height="13.778142"
       id="rect3828" />
    <line
       fill="none"
       stroke-width="0.404648"
       stroke-linejoin="round"
       stroke="#ff0000"
       stroke-opacity="1"
       x1="177.73204"
       y1="38.232075"
       x2="173.84749"
       y2="50.395794"
       id="line3830" />
    <rect
       x="10.222601"
       y="127.71444"
       fill="#ffffff"
       fill-opacity="1"
       stroke-width="0.461505"
       stroke-linejoin="round"
       stroke="#000000"
       stroke-opacity="1"
       width="99.68486"
       height="71.994621"
       id="rect2"
       inkscape:export-filename="img44b.png"
       inkscape:export-xdpi="96"
       inkscape:export-ydpi="96" />
    <line
       fill="none"
       stroke-width="0.461505"
       stroke-linejoin="round"
       stroke="#000000"
       stroke-opacity="1"
       x1="17.33563"
       y1="158.35548"
       x2="105.32127"
       y2="158.35548"
       id="line4" />
    <path
       fill="#000000"
       fill-opacity="1"
       stroke-linejoin="round"
       d="m 21.956341,158.12357 h 2.301752 v 0.46208 h -2.301752 z m 4.603502,0 h 2.319058 v 0.46208 h -2.319058 z m 4.620809,0 h 2.301751 v 0.46208 h -2.301751 z m 4.620809,0 h 2.301751 v 0.46208 h -2.301751 z m 4.603503,0 h 2.319057 v 0.46208 h -2.319057 z m 4.620808,0 h 2.301751 v 0.46208 h -2.301751 z m 4.620809,0 h 2.301751 v 0.46208 h -2.301751 z m 4.603502,0 h 2.319058 v 0.46208 h -2.319058 z m 4.620809,0 h 2.301751 v 0.46208 h -2.301751 z m 4.620809,0 h 2.301751 v 0.46208 h -2.301751 z m 4.603502,0 h 2.319058 v 0.46208 h -2.319058 z m 4.620809,0 h 2.301751 v 0.46208 h -2.301751 z m 4.620809,0 h 2.301751 v 0.46208 h -2.301751 z m 4.603502,0 h 2.319057 v 0.46208 h -2.319057 z m 4.620809,0 h 2.301751 v 0.46208 h -2.301751 z m 4.620808,0 h 2.301752 v 0.46208 H 91.18194 Z m 4.603503,0 h 2.319058 v 0.46208 h -2.319058 z m 4.620807,0 h 2.30175 v 0.46208 h -2.30175 z m 4.62081,0 h 0.29421 v 0.46208 h -0.29421 z m -87.691528,0 h 2.301751 v 0.46208 h -2.301751 z"
       id="path6"
       style="stroke-width:0.173064" />
    <rect
       x="20.104658"
       y="153.73988"
       fill="#ffffff"
       fill-opacity="1"
       stroke-width="0.461505"
       stroke-linejoin="round"
       stroke="#000000"
       stroke-opacity="1"
       width="23.07514"
       height="9.2300224"
       id="rect3832" />
    <rect
       x="36.718803"
       y="170.96837"
       fill="#ffffff"
       fill-opacity="1"
       stroke-width="0.461505"
       stroke-linejoin="round"
       stroke="#000000"
       stroke-opacity="1"
       width="14.152879"
       height="7.6917081"
       id="rect3834" />
    <rect
       x="71.746849"
       y="154.35422"
       fill="#ffffff"
       fill-opacity="1"
       stroke-width="0.461505"
       stroke-linejoin="round"
       stroke="#000000"
       stroke-opacity="1"
       width="10.460732"
       height="8.6146584"
       id="rect3836" />
    <rect
       x="88.360992"
       y="154.66232"
       fill="#ffffff"
       fill-opacity="1"
       stroke-width="0.461505"
       stroke-linejoin="round"
       stroke="#000000"
       stroke-opacity="1"
       width="11.076096"
       height="8.3070717"
       id="rect3838" />
    <text
       xml:space="preserve"
       id="text3842"
       x="21.246809"
       y="160.94113"
       style="font-size:2.07677px;stroke-width:0.173064"><tspan
   style="font-size:8.30709px;font-family:'メイリオ'"
   letter-spacing="0em"
   fill="#000000"
   fill-opacity="1"
   stroke-width="0.0346128"
   stroke-linejoin="round"
   id="tspan3840">wxyz</tspan>	</text>
    <text
       xml:space="preserve"
       id="text3846"
       x="37.860954"
       y="177.55528"
       style="font-size:2.07677px;stroke-width:0.173064"><tspan
   style="font-size:8.30709px;font-family:'メイリオ'"
   letter-spacing="0em"
   fill="#000000"
   fill-opacity="1"
   stroke-width="0.0346128"
   stroke-linejoin="round"
   id="tspan3844">wz</tspan>	</text>
    <text
       xml:space="preserve"
       id="text3850"
       x="72.473755"
       y="160.94113"
       style="font-size:2.07677px;stroke-width:0.173064"><tspan
   style="font-size:8.30709px;font-family:'メイリオ'"
   letter-spacing="0em"
   fill="#000000"
   fill-opacity="1"
   stroke-width="0.0346128"
   stroke-linejoin="round"
   id="tspan3848">xz</tspan>	</text>
    <text
       xml:space="preserve"
       id="text3854"
       x="89.087898"
       y="160.94113"
       style="font-size:2.07677px;stroke-width:0.173064">	<tspan
   style="font-size:8.30709px;font-family:'メイリオ'"
   letter-spacing="0em"
   fill="#000000"
   fill-opacity="1"
   stroke-width="0.0346128"
   stroke-linejoin="round"
   id="tspan3852">yz</tspan>	</text>
    <text
       xml:space="preserve"
       id="text3858"
       x="40.753166"
       y="138.78894"
       style="font-size:2.07677px;stroke-width:0.173064">		 <tspan
   style="font-size:8.30709px;font-family:'メイリオ'"
   letter-spacing="0em"
   fill="#000000"
   fill-opacity="1"
   stroke-width="0.0346128"
   stroke-linejoin="round"
   id="tspan3856">wxyz-wing</tspan>	</text>
    <path
       fill="#000000"
       fill-opacity="1"
       stroke-linejoin="round"
       d="m 25.019574,147.35553 h 2.319058 v 0.46208 h -2.319058 z m 4.620808,0 h 2.301752 v 0.46208 h -2.301752 z m 4.62081,0 h 2.301751 v 0.46208 h -2.301751 z m 4.603502,0 h 2.319057 v 0.46208 h -2.319057 z m 4.620809,0 h 2.30175 v 0.46208 h -2.30175 z m 4.620808,0 h 2.301752 v 0.46208 h -2.301752 z m 4.603503,0 h 2.319057 v 0.46208 h -2.319057 z m 4.620808,0 h 2.301752 v 0.46208 h -2.301752 z m 4.603502,0.44131 0.24229,0.16614 0.449967,0.6611 0.173064,0.80822 v 0.65591 h -0.467273 v -0.65591 l -0.121145,-0.62823 -0.346128,-0.514 -0.103838,-0.0675 z m 0.865321,4.60004 v 2.30695 h -0.467273 v -2.30695 z m 0,4.61389 v 2.30867 h -0.467273 v -2.30867 z m 0,4.61561 v 2.30695 h -0.467273 v -2.30695 z m 0,4.61563 v 2.30693 h -0.467273 v -2.30693 z m 0,4.61388 v 2.30867 h -0.467273 v -2.30867 z m 0,4.61562 v 2.30694 h -0.467273 v -2.30694 z m 0,4.61561 v 2.30695 h -0.467273 v -2.30695 z m 0,4.61389 v 2.30867 h -0.467273 v -2.30867 z m 0,4.61561 v 2.30695 h -0.467273 v -2.30695 z m -0.761482,4.5689 -0.519192,0.35305 -0.796094,0.16268 h -1.038384 v -0.46209 h 1.038384 l 0.62303,-0.12633 0.380741,-0.25268 z m -4.672728,0.51573 h -2.301751 v -0.46209 h 2.301751 z m -4.603502,0 h -2.319058 v -0.46209 h 2.319058 z m -4.620809,0 h -2.301751 v -0.46209 h 2.301751 z m -4.620809,0 h -2.301751 v -0.46209 h 2.301751 z m -4.603502,0 h -2.319057 v -0.46209 h 2.319057 z m -4.620809,0 h -2.301751 v -0.46209 h 2.301751 z m -4.620808,0 h -2.301752 v -0.46209 h 2.301752 z m -4.603503,0 h -2.319058 v -0.46209 h 2.319058 z m -4.620808,0 h -0.03461 l -0.813401,-0.16268 -0.657643,-0.44478 -0.449967,-0.66111 -0.01731,-0.11248 0.415354,-0.17999 0.03462,0.11249 0.346127,0.514 0.501886,0.34613 0.640337,0.12633 h 0.03462 z m -2.111382,-3.76588 v -2.30867 h 0.449967 v 2.30867 z m 0,-4.61561 v -2.30695 h 0.449967 v 2.30695 z m 0,-4.61562 v -2.30694 h 0.449967 v 2.30694 z m 0,-4.61389 v -2.30867 h 0.449967 v 2.30867 z m 0,-4.61561 v -2.30694 h 0.449967 v 2.30694 z m 0,-4.61562 v -2.30695 h 0.449967 v 2.30695 z m 0,-4.61389 v -2.30867 h 0.449967 v 2.30867 z m 0,-4.61561 v -2.30695 h 0.449967 v 2.30695 z m 0,-4.61562 v -2.30694 h 0.449967 v 2.30694 z m 0.05192,-4.60869 0.103839,-0.48113 0.449966,-0.6611 0.657644,-0.44477 0.484579,-0.0969 0.173063,0.42574 -0.484578,0.0969 -0.501886,0.34613 -0.346128,0.514 -0.06923,0.30114 z m 2.024849,-1.74968 h 2.301751 v 0.46208 h -2.301751 z"
       id="path3860"
       style="stroke-width:0.173064" />
    <rect
       x="115.44551"
       y="127.71444"
       fill="#ffffff"
       fill-opacity="1"
       stroke-width="0.461505"
       stroke-linejoin="round"
       stroke="#000000"
       stroke-opacity="1"
       width="99.68486"
       height="71.994621"
       id="rect3862" />
    <line
       fill="none"
       stroke-width="0.461505"
       stroke-linejoin="round"
       stroke="#000000"
       stroke-opacity="1"
       x1="122.55854"
       y1="158.35548"
       x2="210.54417"
       y2="158.35548"
       id="line3864" />
    <path
       fill="#000000"
       fill-opacity="1"
       stroke-linejoin="round"
       d="m 127.17925,158.12357 h 2.30175 v 0.46208 h -2.30175 z m 4.6035,0 h 2.31906 v 0.46208 h -2.31906 z m 4.62081,0 h 2.30175 v 0.46208 h -2.30175 z m 4.62081,0 h 2.30175 v 0.46208 h -2.30175 z m 4.6035,0 h 2.31906 v 0.46208 h -2.31906 z m 4.62081,0 h 2.30176 v 0.46208 h -2.30176 z m 4.62081,0 h 2.30175 v 0.46208 h -2.30175 z m 4.6035,0 h 2.31906 v 0.46208 h -2.31906 z m 4.62081,0 h 2.30175 v 0.46208 h -2.30175 z m 4.62081,0 h 2.30175 v 0.46208 h -2.30175 z m 4.6035,0 h 2.31906 v 0.46208 h -2.31906 z m 4.62082,0 h 2.30175 v 0.46208 h -2.30175 z m 4.6208,0 h 2.30175 v 0.46208 h -2.30175 z m 4.6035,0 h 2.31906 v 0.46208 h -2.31906 z m 4.62081,0 h 2.30175 v 0.46208 h -2.30175 z m 4.62081,0 h 2.30175 v 0.46208 h -2.30175 z m 4.60351,0 h 2.31905 v 0.46208 h -2.31905 z m 4.6208,0 h 2.30175 v 0.46208 h -2.30175 z m 4.62081,0 h 0.29421 v 0.46208 h -0.29421 z m -87.69153,0 h 2.30175 v 0.46208 h -2.30175 z"
       id="path3866"
       style="stroke-width:0.173064" />
    <rect
       x="125.32757"
       y="153.73988"
       fill="#ffffff"
       fill-opacity="1"
       stroke-width="0.461505"
       stroke-linejoin="round"
       stroke="#000000"
       stroke-opacity="1"
       width="23.07514"
       height="9.2300224"
       id="rect3868" />
    <rect
       x="132.05966"
       y="172.01892"
       fill="#ffffff"
       fill-opacity="1"
       stroke-width="0.461505"
       stroke-linejoin="round"
       stroke="#000000"
       stroke-opacity="1"
       width="14.152879"
       height="8.1807356"
       id="rect3870" />
    <rect
       x="176.39868"
       y="154.04799"
       fill="#ffffff"
       fill-opacity="1"
       stroke-width="0.461505"
       stroke-linejoin="round"
       stroke="#000000"
       stroke-opacity="1"
       width="10.460906"
       height="8.9224348"
       id="rect3872" />
    <rect
       x="154.21185"
       y="172.01892"
       fill="#ffffff"
       fill-opacity="1"
       stroke-width="0.461505"
       stroke-linejoin="round"
       stroke="#000000"
       stroke-opacity="1"
       width="11.076096"
       height="8.3070717"
       id="rect3874" />
    <text
       xml:space="preserve"
       id="text3878"
       x="126.46972"
       y="160.94113"
       style="font-size:2.07677px;stroke-width:0.173064"><tspan
   style="font-size:8.30709px;font-family:'メイリオ'"
   letter-spacing="0em"
   fill="#000000"
   fill-opacity="1"
   stroke-width="0.0346128"
   stroke-linejoin="round"
   id="tspan3876">wxyz</tspan>	</text>
    <text
       xml:space="preserve"
       id="text3882"
       x="131.10258"
       y="178.42059"
       style="font-size:2.07677px;stroke-width:0.173064">		 <tspan
   style="font-size:8.30709px;font-family:'メイリオ'"
   letter-spacing="0em"
   fill="#000000"
   fill-opacity="1"
   stroke-width="0.0346128"
   stroke-linejoin="round"
   id="tspan3880">wz</tspan>	</text>
    <text
       xml:space="preserve"
       id="text3886"
       x="176.83134"
       y="160.595"
       style="font-size:2.07677px;stroke-width:0.173064"> <tspan
   style="font-size:8.30709px;font-family:'メイリオ'"
   letter-spacing="0em"
   fill="#000000"
   fill-opacity="1"
   stroke-width="0.0346128"
   stroke-linejoin="round"
   id="tspan3884">xz</tspan>	</text>
    <text
       xml:space="preserve"
       id="text3890"
       x="155.02528"
       y="178.24754"
       style="font-size:2.07677px;stroke-width:0.173064"><tspan
   style="font-size:8.30709px;font-family:'メイリオ'"
   letter-spacing="0em"
   fill="#000000"
   fill-opacity="1"
   stroke-width="0.0346128"
   stroke-linejoin="round"
   id="tspan3888">yz</tspan>	</text>
    <text
       xml:space="preserve"
       id="text3894"
       x="145.44696"
       y="138.78894"
       style="font-size:2.07677px;stroke-width:0.173064">		 <tspan
   style="font-size:8.30709px;font-family:'メイリオ'"
   letter-spacing="0em"
   fill="#000000"
   fill-opacity="1"
   stroke-width="0.0346128"
   stroke-linejoin="round"
   id="tspan3892">wxyz-wing</tspan>	</text>
    <path
       fill="#000000"
       fill-opacity="1"
       stroke-linejoin="round"
       d="m 130.24248,147.35553 h 2.31906 v 0.46208 h -2.31906 z m 4.62081,0 h 2.30175 v 0.46208 h -2.30175 z m 4.62081,0 h 2.30175 v 0.46208 h -2.30175 z m 4.60351,0 h 2.31905 v 0.46208 h -2.31905 z m 4.6208,0 h 2.30175 v 0.46208 h -2.30175 z m 4.62081,0 h 2.30175 v 0.46208 h -2.30175 z m 4.6035,0 h 2.31906 v 0.46208 h -2.31906 z m 4.62081,0 h 2.30175 v 0.46208 h -2.30175 z m 4.60351,0.44131 0.24228,0.16614 0.44997,0.6611 0.17307,0.80822 v 0.65591 h -0.46728 v -0.65591 l -0.12114,-0.62823 -0.34613,-0.514 -0.10384,-0.0675 z m 0.86532,4.60004 v 2.30695 h -0.46728 v -2.30695 z m 0,4.61389 v 2.30867 h -0.46728 v -2.30867 z m 0,4.61561 v 2.30695 h -0.46728 v -2.30695 z m 0,4.61563 v 2.30693 h -0.46728 v -2.30693 z m 0,4.61388 v 2.30867 h -0.46728 v -2.30867 z m 0,4.61562 v 2.30694 h -0.46728 v -2.30694 z m 0,4.61561 v 2.30695 h -0.46728 v -2.30695 z m 0,4.61389 v 2.30867 h -0.46728 v -2.30867 z m 0,4.61561 v 2.30695 h -0.46728 v -2.30695 z m -0.76148,4.5689 -0.5192,0.35305 -0.79609,0.16268 h -1.03839 v -0.46209 h 1.03839 l 0.62302,-0.12633 0.38075,-0.25268 z m -4.67273,0.51573 h -2.30175 v -0.46209 h 2.30175 z m -4.6035,0 h -2.31906 v -0.46209 h 2.31906 z m -4.62081,0 h -2.30176 v -0.46209 h 2.30176 z m -4.62082,0 h -2.30175 v -0.46209 h 2.30175 z m -4.6035,0 h -2.31905 v -0.46209 h 2.31905 z m -4.62081,0 h -2.30175 v -0.46209 h 2.30175 z m -4.6208,0 h -2.30176 v -0.46209 h 2.30176 z m -4.60351,0 h -2.31905 v -0.46209 h 2.31905 z m -4.62081,0 h -0.0346 l -0.8134,-0.16268 -0.65764,-0.44478 -0.44997,-0.66111 -0.0173,-0.11248 0.41536,-0.17999 0.0346,0.11249 0.34613,0.514 0.50188,0.34613 0.64034,0.12633 h 0.0346 z m -2.11138,-3.76588 v -2.30867 h 0.44997 v 2.30867 z m 0,-4.61561 v -2.30695 h 0.44997 v 2.30695 z m 0,-4.61562 v -2.30694 h 0.44997 v 2.30694 z m 0,-4.61389 v -2.30867 h 0.44997 v 2.30867 z m 0,-4.61561 v -2.30694 h 0.44997 v 2.30694 z m 0,-4.61562 v -2.30695 h 0.44997 v 2.30695 z m 0,-4.61389 v -2.30867 h 0.44997 v 2.30867 z m 0,-4.61561 v -2.30695 h 0.44997 v 2.30695 z m 0,-4.61562 v -2.30694 h 0.44997 v 2.30694 z m 0.0519,-4.60869 0.10384,-0.48113 0.44997,-0.6611 0.65764,-0.44477 0.48458,-0.0969 0.17307,0.42574 -0.48458,0.0969 -0.50189,0.34613 -0.34613,0.514 -0.0692,0.30114 z m 2.02485,-1.74968 h 2.30175 v 0.46208 h -2.30175 z"
       id="path3896"
       style="stroke-width:0.173064" />
    <rect
       x="226.20647"
       y="127.01704"
       fill="#ffffff"
       fill-opacity="1"
       stroke-width="0.461505"
       stroke-linejoin="round"
       stroke="#000000"
       stroke-opacity="1"
       width="99.68486"
       height="71.994621"
       id="rect3898" />
    <line
       fill="none"
       stroke-width="0.461505"
       stroke-linejoin="round"
       stroke="#000000"
       stroke-opacity="1"
       x1="233.31949"
       y1="158.35548"
       x2="321.30515"
       y2="158.35548"
       id="line3900" />
    <path
       fill="#000000"
       fill-opacity="1"
       stroke-linejoin="round"
       d="m 237.94021,158.12357 h 2.30175 v 0.46208 h -2.30175 z m 4.6035,0 h 2.31906 v 0.46208 h -2.31906 z m 4.62081,0 h 2.30175 v 0.46208 h -2.30175 z m 4.62081,0 h 2.30175 v 0.46208 h -2.30175 z m 4.6035,0 h 2.31906 v 0.46208 h -2.31906 z m 4.62081,0 h 2.30175 v 0.46208 h -2.30175 z m 4.62081,0 h 2.30175 v 0.46208 h -2.30175 z m 4.6035,0 h 2.31906 v 0.46208 h -2.31906 z m 4.62081,0 h 2.30175 v 0.46208 h -2.30175 z m 4.62081,0 h 2.30175 v 0.46208 h -2.30175 z m 4.6035,0 h 2.31906 v 0.46208 h -2.31906 z m 4.62081,0 h 2.30175 v 0.46208 h -2.30175 z m 4.62081,0 h 2.30175 v 0.46208 h -2.30175 z m 4.6035,0 h 2.31905 v 0.46208 h -2.31905 z m 4.62081,0 h 2.30175 v 0.46208 H 302.545 Z m 4.62081,0 h 2.30175 v 0.46208 h -2.30175 z m 4.6035,0 h 2.31906 v 0.46208 h -2.31906 z m 4.62081,0 h 2.30175 v 0.46208 h -2.30175 z m 4.62081,0 h 0.2942 v 0.46208 h -0.2942 z m -87.69153,0 h 2.30175 v 0.46208 h -2.30175 z"
       id="path3902"
       style="stroke-width:0.173064" />
    <rect
       x="236.08853"
       y="153.73988"
       fill="#ffffff"
       fill-opacity="1"
       stroke-width="0.461505"
       stroke-linejoin="round"
       stroke="#000000"
       stroke-opacity="1"
       width="27.382532"
       height="9.2300224"
       id="rect3904" />
    <rect
       x="242.82062"
       y="172.01892"
       fill="#ffffff"
       fill-opacity="1"
       stroke-width="0.461505"
       stroke-linejoin="round"
       stroke="#000000"
       stroke-opacity="1"
       width="14.152879"
       height="8.1807356"
       id="rect3906" />
    <rect
       x="287.15964"
       y="154.04799"
       fill="#ffffff"
       fill-opacity="1"
       stroke-width="0.461505"
       stroke-linejoin="round"
       stroke="#000000"
       stroke-opacity="1"
       width="10.460732"
       height="8.9224348"
       id="rect3908" />
    <rect
       x="264.97281"
       y="172.01892"
       fill="#ffffff"
       fill-opacity="1"
       stroke-width="0.461505"
       stroke-linejoin="round"
       stroke="#000000"
       stroke-opacity="1"
       width="11.076096"
       height="8.3070717"
       id="rect3910" />
    <text
       xml:space="preserve"
       id="text3914"
       x="237.23068"
       y="160.94113"
       style="font-size:2.07677px;stroke-width:0.173064"><tspan
   style="font-size:8.30709px;font-family:'メイリオ'"
   letter-spacing="0em"
   fill="#000000"
   fill-opacity="1"
   stroke-width="0.0346128"
   stroke-linejoin="round"
   id="tspan3912">vwxyz</tspan>	</text>
    <text
       xml:space="preserve"
       id="text3918"
       x="241.86354"
       y="178.42059"
       style="font-size:2.07677px;stroke-width:0.173064">		 <tspan
   style="font-size:8.30709px;font-family:'メイリオ'"
   letter-spacing="0em"
   fill="#000000"
   fill-opacity="1"
   stroke-width="0.0346128"
   stroke-linejoin="round"
   id="tspan3916">wz</tspan>	</text>
    <text
       xml:space="preserve"
       id="text3922"
       x="287.59232"
       y="160.595"
       style="font-size:2.07677px;stroke-width:0.173064"><tspan
   style="font-size:8.30709px;font-family:'メイリオ'"
   letter-spacing="0em"
   fill="#000000"
   fill-opacity="1"
   stroke-width="0.0346128"
   stroke-linejoin="round"
   id="tspan3920">xz</tspan>	</text>
    <text
       xml:space="preserve"
       id="text3926"
       x="263.66956"
       y="178.24754"
       style="font-size:2.07677px;stroke-width:0.173064">		 <tspan
   style="font-size:8.30709px;font-family:'メイリオ'"
   letter-spacing="0em"
   fill="#000000"
   fill-opacity="1"
   stroke-width="0.0346128"
   stroke-linejoin="round"
   id="tspan3924">vz</tspan>	</text>
    <text
       xml:space="preserve"
       id="text3930"
       x="247.16194"
       y="139.6069"
       style="font-size:2.07677px;stroke-width:0.173064">		 <tspan
   style="font-size:8.30709px;font-family:'メイリオ'"
   letter-spacing="0em"
   fill="#000000"
   fill-opacity="1"
   stroke-width="0.0346128"
   stroke-linejoin="round"
   id="tspan3928">vwxyz-wing</tspan>	</text>
    <path
       fill="#000000"
       fill-opacity="1"
       stroke-linejoin="round"
       d="m 241.00344,147.35553 h 2.31906 v 0.46208 h -2.31906 z m 4.62081,0 h 2.30175 v 0.46208 h -2.30175 z m 4.62081,0 h 2.30175 v 0.46208 h -2.30175 z m 4.6035,0 h 2.31906 v 0.46208 h -2.31906 z m 4.62081,0 h 2.30175 v 0.46208 h -2.30175 z m 4.62081,0 h 2.30175 v 0.46208 h -2.30175 z m 4.6035,0 h 2.31906 v 0.46208 h -2.31906 z m 4.62081,0 h 2.30175 v 0.46208 h -2.30175 z m 4.6035,0.44131 0.24229,0.16614 0.44997,0.6611 0.17306,0.80822 v 0.65591 h -0.46727 v -0.65591 l -0.12115,-0.62823 -0.34612,-0.514 -0.10384,-0.0675 z m 0.86532,4.60004 v 2.30695 h -0.46727 v -2.30695 z m 0,4.61389 v 2.30867 h -0.46727 v -2.30867 z m 0,4.61561 v 2.30695 h -0.46727 v -2.30695 z m 0,4.61563 v 2.30693 h -0.46727 v -2.30693 z m 0,4.61388 v 2.30867 h -0.46727 v -2.30867 z m 0,4.61562 v 2.30694 h -0.46727 v -2.30694 z m 0,4.61561 v 2.30695 h -0.46727 v -2.30695 z m 0,4.61389 v 2.30867 h -0.46727 v -2.30867 z m 0,4.61561 v 2.30695 h -0.46727 v -2.30695 z m -0.76148,4.5689 -0.51919,0.35305 -0.7961,0.16268 h -1.03838 v -0.46209 h 1.03838 l 0.62303,-0.12633 0.38074,-0.25268 z m -4.67273,0.51573 h -2.30175 v -0.46209 h 2.30175 z m -4.6035,0 h -2.31906 v -0.46209 h 2.31906 z m -4.62081,0 h -2.30175 v -0.46209 h 2.30175 z m -4.62081,0 h -2.30175 v -0.46209 h 2.30175 z m -4.6035,0 h -2.31905 v -0.46209 h 2.31905 z m -4.62081,0 h -2.30175 v -0.46209 h 2.30175 z m -4.62081,0 h -2.30175 v -0.46209 h 2.30175 z m -4.6035,0 h -2.31906 v -0.46209 h 2.31906 z m -4.62081,0 h -0.0346 l -0.8134,-0.16268 -0.65764,-0.44478 -0.44997,-0.66111 -0.0173,-0.11248 0.41535,-0.17999 0.0346,0.11249 0.34613,0.514 0.50189,0.34613 0.64033,0.12633 h 0.0346 z m -2.11138,-3.76761 v -2.30694 h 0.44996 v 2.30694 z m 0,-4.61388 v -2.30867 h 0.44996 v 2.30867 z m 0,-4.61562 v -2.30694 h 0.44996 v 2.30694 z m 0,-4.61562 v -2.30694 h 0.44996 v 2.30694 z m 0,-4.61388 v -2.30868 h 0.44996 v 2.30868 z m 0,-4.61562 v -2.30695 h 0.44996 v 2.30695 z m 0,-4.61562 v -2.30694 h 0.44996 v 2.30694 z m 0,-4.61388 v -2.30868 h 0.44996 v 2.30868 z m 0,-4.61562 v -2.30694 h 0.44996 v 2.30694 z m 0.0519,-4.60869 0.10384,-0.48113 0.44997,-0.6611 0.65764,-0.44477 0.48457,-0.0969 0.17307,0.42574 -0.48458,0.0969 -0.50188,0.34613 -0.34613,0.514 -0.0692,0.30114 z m 2.02485,-1.74968 h 2.30175 v 0.46208 h -2.30175 z"
       id="path3932"
       style="stroke-width:0.173064" />
    <rect
       x="303.73914"
       y="154.19333"
       fill="#ffffff"
       fill-opacity="1"
       stroke-width="0.461505"
       stroke-linejoin="round"
       stroke="#000000"
       stroke-opacity="1"
       width="11.076096"
       height="8.3070717"
       id="rect3934" />
    <text
       xml:space="preserve"
       id="text3938"
       x="304.55258"
       y="160.76807"
       style="font-size:2.07677px;stroke-width:0.173064"><tspan
   style="font-size:8.30709px;font-family:'メイリオ'"
   letter-spacing="0em"
   fill="#000000"
   fill-opacity="1"
   stroke-width="0.0346128"
   stroke-linejoin="round"
   id="tspan3936">yz</tspan>	</text>
    <rect
       x="10.222601"
       y="210.78525"
       fill="#ffffff"
       fill-opacity="1"
       stroke-width="0.461505"
       stroke-linejoin="round"
       stroke="#000000"
       stroke-opacity="1"
       width="105.22291"
       height="71.994621"
       id="rect3940" />
    <line
       fill="none"
       stroke-width="0.461505"
       stroke-linejoin="round"
       stroke="#000000"
       stroke-opacity="1"
       x1="17.33563"
       y1="241.42451"
       x2="105.32127"
       y2="241.42451"
       id="line3942" />
    <path
       fill="#000000"
       fill-opacity="1"
       stroke-linejoin="round"
       d="m 21.956341,241.19429 h 2.301752 v 0.46208 h -2.301752 z m 4.603502,0 h 2.319058 v 0.46208 h -2.319058 z m 4.620809,0 h 2.301751 v 0.46208 h -2.301751 z m 4.620809,0 h 2.301751 v 0.46208 h -2.301751 z m 4.603503,0 h 2.319057 v 0.46208 h -2.319057 z m 4.620808,0 h 2.301751 v 0.46208 h -2.301751 z m 4.620809,0 h 2.301751 v 0.46208 h -2.301751 z m 4.603502,0 h 2.319058 v 0.46208 h -2.319058 z m 4.620809,0 h 2.301751 v 0.46208 h -2.301751 z m 4.620809,0 h 2.301751 v 0.46208 h -2.301751 z m 4.603502,0 h 2.319058 v 0.46208 h -2.319058 z m 4.620809,0 h 2.301751 v 0.46208 h -2.301751 z m 4.620809,0 h 2.301751 v 0.46208 h -2.301751 z m 4.603502,0 h 2.319057 v 0.46208 h -2.319057 z m 4.620809,0 h 2.301751 v 0.46208 h -2.301751 z m 4.620808,0 h 2.301752 v 0.46208 H 91.18194 Z m 4.603503,0 h 2.319058 v 0.46208 h -2.319058 z m 4.620807,0 h 2.30175 v 0.46208 h -2.30175 z m 4.62081,0 h 0.29421 v 0.46208 h -0.29421 z m -87.691528,0 h 2.301751 v 0.46208 h -2.301751 z"
       id="path3944"
       style="stroke-width:0.173064" />
    <g
       id="g3952"
       transform="matrix(0.173064,0,0,0.173064,-2061.9245,-1080.62)">
      <rect
         x="12232.2"
         y="7618.1499"
         fill="#ffffff"
         fill-opacity="1"
         stroke-width="0.2"
         stroke-linejoin="round"
         width="51.555698"
         height="40.888699"
         id="rect3946" />
      <text
         transform="translate(12236,7654)"
         xml:space="preserve"
         id="text3950"><tspan
   style="font-size:48px;font-family:'メイリオ'"
   letter-spacing="0em"
   fill="#ff0000"
   fill-opacity="1"
   stroke-width="0.2"
   stroke-linejoin="round"
   id="tspan3948">＊</tspan>		</text>
    </g>
    <rect
       x="20.104658"
       y="236.81059"
       fill="#ffffff"
       fill-opacity="1"
       stroke-width="0.461505"
       stroke-linejoin="round"
       stroke="#000000"
       stroke-opacity="1"
       width="32.689888"
       height="9.2301092"
       id="rect3954" />
    <rect
       x="28.567381"
       y="255.08965"
       fill="#ffffff"
       fill-opacity="1"
       stroke-width="0.461505"
       stroke-linejoin="round"
       stroke="#000000"
       stroke-opacity="1"
       width="14.152706"
       height="7.6917949"
       id="rect3956" />
    <rect
       x="71.746849"
       y="237.42496"
       fill="#ffffff"
       fill-opacity="1"
       stroke-width="0.461505"
       stroke-linejoin="round"
       stroke="#000000"
       stroke-opacity="1"
       width="10.460732"
       height="8.6148319"
       id="rect3958" />
    <text
       xml:space="preserve"
       id="text3962"
       x="20.554556"
       y="244.01186"
       style="font-size:2.07677px;stroke-width:0.173064"><tspan
   style="font-size:8.30709px;font-family:'メイリオ'"
   letter-spacing="0em"
   fill="#000000"
   fill-opacity="1"
   stroke-width="0.0346128"
   stroke-linejoin="round"
   id="tspan3960">uvwxyz</tspan>	</text>
    <text
       xml:space="preserve"
       id="text3966"
       x="29.72695"
       y="261.66437"
       style="font-size:2.07677px;stroke-width:0.173064">		 <tspan
   style="font-size:8.30709px;font-family:'メイリオ'"
   letter-spacing="0em"
   fill="#000000"
   fill-opacity="1"
   stroke-width="0.0346128"
   stroke-linejoin="round"
   id="tspan3964">yz</tspan>	</text>
    <text
       xml:space="preserve"
       id="text3970"
       x="72.473755"
       y="244.01186"
       style="font-size:2.07677px;stroke-width:0.173064"><tspan
   style="font-size:8.30709px;font-family:'メイリオ'"
   letter-spacing="0em"
   fill="#000000"
   fill-opacity="1"
   stroke-width="0.0346128"
   stroke-linejoin="round"
   id="tspan3968">xz</tspan>	</text>
    <text
       xml:space="preserve"
       id="text3974"
       x="33.627617"
       y="221.85966"
       style="font-size:2.07677px;stroke-width:0.173064">		 <tspan
   style="font-size:8.30709px;font-family:'メイリオ'"
   letter-spacing="0em"
   fill="#000000"
   fill-opacity="1"
   stroke-width="0.0346128"
   stroke-linejoin="round"
   id="tspan3972">uvwxyz-wing</tspan>	</text>
    <path
       fill="#000000"
       fill-opacity="1"
       stroke-linejoin="round"
       d="m 25.019574,230.42625 h 2.319058 v 0.46208 h -2.319058 z m 4.620808,0 h 2.301752 v 0.46208 h -2.301752 z m 4.62081,0 h 2.301751 v 0.46208 h -2.301751 z m 4.603502,0 h 2.319057 v 0.46208 h -2.319057 z m 4.620809,0 h 2.30175 v 0.46208 h -2.30175 z m 4.620808,0 h 2.301752 v 0.46208 h -2.301752 z m 4.603503,0 h 2.319057 v 0.46208 h -2.319057 z m 4.620808,0 h 2.301752 v 0.46208 h -2.301752 z m 4.620809,0 h 2.232526 l 0.06923,0.0156 v 0.46035 l -0.06923,-0.0139 h -2.232526 z m 4.188149,1.50046 0.121145,0.57631 v 1.81025 h -0.467273 v -1.81025 l -0.08653,-0.39805 z m 0.121145,4.6935 v 2.30867 h -0.467273 v -2.30867 z m 0,4.61562 v 2.30694 h -0.467273 v -2.30694 z m 0,4.61561 v 2.30694 h -0.467273 v -2.30694 z m 0,4.61389 v 2.30867 h -0.467273 v -2.30867 z m 0,4.61561 v 2.30695 h -0.467273 v -2.30695 z m 0,4.61562 v 2.30695 h -0.467273 v -2.30695 z m 0,4.61389 v 2.30867 h -0.467273 v -2.30867 z m 0,4.61561 v 2.30695 h -0.467273 v -2.30695 z m 0,4.61562 v 1.85352 l -0.103839,0.44477 H 65.70692 l 0.08653,-0.44477 v -1.85352 z m -1.869091,3.88875 -0.207677,0.0415 h -2.197913 v -0.46208 h 2.197913 l 0.01731,-0.005 z m -4.707341,0.0415 h -2.319058 v -0.46208 h 2.319058 z m -4.620809,0 h -2.301751 v -0.46208 h 2.301751 z m -4.620809,0 h -2.301751 v -0.46208 h 2.301751 z m -4.603502,0 h -2.319058 v -0.46208 h 2.319058 z m -4.620809,0 h -2.301751 v -0.46208 h 2.301751 z m -4.620808,0 h -2.301752 v -0.46208 h 2.301752 z m -4.603503,0 h -2.319057 v -0.46208 h 2.319057 z m -4.620809,0 h -2.301751 v -0.46208 h 2.301751 z m -4.620809,0 h -2.30175 v -0.46208 h 2.30175 z m -4.274681,-1.38105 -0.138451,-0.69571 v -1.69084 h 0.449967 v 1.69084 l 0.103838,0.51573 z m -0.138451,-4.69349 v -2.30695 h 0.449967 v 2.30695 z m 0,-4.61562 v -2.30694 h 0.449967 v 2.30694 z m 0,-4.61389 v -2.30867 h 0.449967 v 2.30867 z m 0,-4.61561 v -2.30694 h 0.449967 v 2.30694 z m 0,-4.61562 v -2.30694 h 0.449967 v 2.30694 z m 0,-4.61388 v -2.30868 h 0.449967 v 2.30868 z m 0,-4.61562 v -2.30695 h 0.449967 v 2.30695 z m 0,-4.61562 v -2.30694 h 0.449967 v 2.30694 z m 0,-4.61388 v -1.97466 l 0.05192,-0.32709 h 0.467274 l -0.06923,0.32709 v 1.97466 z m 1.747947,-3.98567 0.328822,-0.0658 h 2.30175 v 0.46208 h -2.30175 l -0.155758,0.0294 z"
       id="path3976"
       style="stroke-width:0.173064" />
    <rect
       x="28.567381"
       y="264.01105"
       fill="#ffffff"
       fill-opacity="1"
       stroke-width="0.461505"
       stroke-linejoin="round"
       stroke="#000000"
       stroke-opacity="1"
       width="14.152706"
       height="7.6917949"
       id="rect3978" />
    <text
       xml:space="preserve"
       id="text3982"
       x="29.553877"
       y="270.1445"
       style="font-size:2.07677px;stroke-width:0.173064">		 <tspan
   style="font-size:8.30709px;font-family:'メイリオ'"
   letter-spacing="0em"
   fill="#000000"
   fill-opacity="1"
   stroke-width="0.0346128"
   stroke-linejoin="round"
   id="tspan3980">uz</tspan>	</text>
    <rect
       x="45.562302"
       y="255.19002"
       fill="#ffffff"
       fill-opacity="1"
       stroke-width="0.461505"
       stroke-linejoin="round"
       stroke="#000000"
       stroke-opacity="1"
       width="14.152879"
       height="7.6917081"
       id="rect3984" />
    <text
       xml:space="preserve"
       id="text3988"
       x="45.099716"
       y="261.66437"
       style="font-size:2.07677px;stroke-width:0.173064">		 <tspan
   style="font-size:8.30709px;font-family:'メイリオ'"
   letter-spacing="0em"
   fill="#000000"
   fill-opacity="1"
   stroke-width="0.0346128"
   stroke-linejoin="round"
   id="tspan3986">wz</tspan>	</text>
    <rect
       x="45.562302"
       y="264.11313"
       fill="#ffffff"
       fill-opacity="1"
       stroke-width="0.461505"
       stroke-linejoin="round"
       stroke="#000000"
       stroke-opacity="1"
       width="14.152879"
       height="7.6918817"
       id="rect3990" />
    <text
       xml:space="preserve"
       id="text3994"
       x="45.455818"
       y="270.1445"
       style="font-size:2.07677px;stroke-width:0.173064">		 <tspan
   style="font-size:8.30709px;font-family:'メイリオ'"
   letter-spacing="0em"
   fill="#000000"
   fill-opacity="1"
   stroke-width="0.0346128"
   stroke-linejoin="round"
   id="tspan3992">vz</tspan>	</text>
    <g
       id="g4002"
       transform="matrix(0.173064,0,0,0.173064,-2061.9245,-1080.62)">
      <rect
         x="12206.8"
         y="7138.1499"
         fill="#ffffff"
         fill-opacity="1"
         stroke-width="0.2"
         stroke-linejoin="round"
         width="51.556599"
         height="40.888699"
         id="rect3996" />
      <text
         transform="translate(12210,7174)"
         xml:space="preserve"
         id="text4000"><tspan
   style="font-size:48px;font-family:'メイリオ'"
   letter-spacing="0em"
   fill="#ff0000"
   fill-opacity="1"
   stroke-width="0.2"
   stroke-linejoin="round"
   id="tspan3998">＊</tspan>		</text>
    </g>
    <g
       id="g4010"
       transform="matrix(0.173064,0,0,0.173064,-2061.9245,-1080.62)">
      <rect
         x="12809.5"
         y="7136.3701"
         fill="#ffffff"
         fill-opacity="1"
         stroke-width="0.2"
         stroke-linejoin="round"
         width="51.555698"
         height="40.889599"
         id="rect4004" />
      <text
         transform="translate(12813,7172)"
         xml:space="preserve"
         id="text4008"><tspan
   style="font-size:48px;font-family:'メイリオ'"
   letter-spacing="0em"
   fill="#ff0000"
   fill-opacity="1"
   stroke-width="0.2"
   stroke-linejoin="round"
   id="tspan4006">＊</tspan>		</text>
    </g>
    <g
       id="g4018"
       transform="matrix(0.173064,0,0,0.173064,-2061.9245,-1080.62)">
      <rect
         x="13456.6"
         y="7138.1499"
         fill="#ffffff"
         fill-opacity="1"
         stroke-width="0.2"
         stroke-linejoin="round"
         width="51.555698"
         height="40.888699"
         id="rect4012" />
      <text
         transform="translate(13460,7174)"
         xml:space="preserve"
         id="text4016"><tspan
   style="font-size:48px;font-family:'メイリオ'"
   letter-spacing="0em"
   fill="#ff0000"
   fill-opacity="1"
   stroke-width="0.2"
   stroke-linejoin="round"
   id="tspan4014">＊</tspan>		</text>
    </g>
    <rect
       x="120.98356"
       y="210.78525"
       fill="#ffffff"
       fill-opacity="1"
       stroke-width="0.461505"
       stroke-linejoin="round"
       stroke="#000000"
       stroke-opacity="1"
       width="105.22291"
       height="71.994621"
       id="rect4020" />
    <line
       fill="none"
       stroke-width="0.461505"
       stroke-linejoin="round"
       stroke="#000000"
       stroke-opacity="1"
       x1="126.01982"
       y1="241.42451"
       x2="214.00546"
       y2="241.42451"
       id="line4022" />
    <path
       fill="#000000"
       fill-opacity="1"
       stroke-linejoin="round"
       d="m 130.64053,241.19429 h 2.30175 v 0.46208 h -2.30175 z m 4.6035,0 h 2.31906 v 0.46208 h -2.31906 z m 4.62081,0 h 2.30175 v 0.46208 h -2.30175 z m 4.62081,0 h 2.30175 v 0.46208 h -2.30175 z m 4.6035,0 h 2.31906 v 0.46208 h -2.31906 z m 4.62081,0 h 2.30175 v 0.46208 h -2.30175 z m 4.62081,0 h 2.30175 v 0.46208 h -2.30175 z m 4.60351,0 h 2.31905 v 0.46208 h -2.31905 z m 4.6208,0 h 2.30176 v 0.46208 h -2.30176 z m 4.62081,0 h 2.30175 v 0.46208 h -2.30175 z m 4.6035,0 h 2.31906 v 0.46208 h -2.31906 z m 4.62081,0 h 2.30175 v 0.46208 h -2.30175 z m 4.62081,0 h 2.30175 v 0.46208 h -2.30175 z m 4.60351,0 h 2.31905 v 0.46208 h -2.31905 z m 4.6208,0 h 2.30175 v 0.46208 h -2.30175 z m 4.62081,0 h 2.30175 v 0.46208 h -2.30175 z m 4.6035,0 h 2.31906 v 0.46208 h -2.31906 z m 4.62081,0 h 2.30175 v 0.46208 h -2.30175 z m 4.62081,0 h 0.29421 v 0.46208 h -0.29421 z m -87.69153,0 h 2.30175 v 0.46208 h -2.30175 z"
       id="path4024"
       style="stroke-width:0.173064" />
    <g
       id="g4032"
       transform="matrix(0.173064,0,0,0.173064,-2061.9245,-1080.62)">
      <rect
         x="12872.2"
         y="7618.1499"
         fill="#ffffff"
         fill-opacity="1"
         stroke-width="0.2"
         stroke-linejoin="round"
         width="51.555698"
         height="40.889198"
         id="rect4026" />
      <text
         transform="translate(12876,7654)"
         xml:space="preserve"
         id="text4030">			 <tspan
   style="font-size:48px;font-family:'メイリオ'"
   letter-spacing="0em"
   fill="#ff0000"
   fill-opacity="1"
   stroke-width="0.2"
   stroke-linejoin="round"
   id="tspan4028">＊</tspan>		</text>
    </g>
    <rect
       x="130.86562"
       y="236.81059"
       fill="#ffffff"
       fill-opacity="1"
       stroke-width="0.461505"
       stroke-linejoin="round"
       stroke="#000000"
       stroke-opacity="1"
       width="32.689888"
       height="9.2301092"
       id="rect4034" />
    <rect
       x="195.14148"
       y="237.41801"
       fill="#ffffff"
       fill-opacity="1"
       stroke-width="0.461505"
       stroke-linejoin="round"
       stroke="#000000"
       stroke-opacity="1"
       width="11.488472"
       height="7.6917949"
       id="rect4036" />
    <rect
       x="182.68088"
       y="237.77107"
       fill="#ffffff"
       fill-opacity="1"
       stroke-width="0.461505"
       stroke-linejoin="round"
       stroke="#000000"
       stroke-opacity="1"
       width="10.460732"
       height="7.4581409"
       id="rect4038" />
    <text
       xml:space="preserve"
       id="text4042"
       x="131.31551"
       y="244.01186"
       style="font-size:2.07677px;stroke-width:0.173064">	<tspan
   style="font-size:8.30709px;font-family:'メイリオ'"
   letter-spacing="0em"
   fill="#000000"
   fill-opacity="1"
   stroke-width="0.0346128"
   stroke-linejoin="round"
   id="tspan4040">uvwxyz</tspan>	</text>
    <text
       xml:space="preserve"
       id="text4046"
       x="196.21451"
       y="243.83879"
       style="font-size:2.07677px;stroke-width:0.173064"><tspan
   style="font-size:8.30709px;font-family:'メイリオ'"
   letter-spacing="0em"
   fill="#000000"
   fill-opacity="1"
   stroke-width="0.0346128"
   stroke-linejoin="round"
   id="tspan4044">yz</tspan>	</text>
    <text
       xml:space="preserve"
       id="text4050"
       x="183.23471"
       y="244.01186"
       style="font-size:2.07677px;stroke-width:0.173064"><tspan
   style="font-size:8.30709px;font-family:'メイリオ'"
   letter-spacing="0em"
   fill="#000000"
   fill-opacity="1"
   stroke-width="0.0346128"
   stroke-linejoin="round"
   id="tspan4048">xz</tspan>	</text>
    <text
       xml:space="preserve"
       id="text4054"
       x="144.38864"
       y="221.85966"
       style="font-size:2.07677px;stroke-width:0.173064">		 <tspan
   style="font-size:8.30709px;font-family:'メイリオ'"
   letter-spacing="0em"
   fill="#000000"
   fill-opacity="1"
   stroke-width="0.0346128"
   stroke-linejoin="round"
   id="tspan4052">uvwxyz-wing</tspan>	</text>
    <path
       fill="#000000"
       fill-opacity="1"
       stroke-linejoin="round"
       d="m 135.78053,230.42625 h 2.31906 v 0.46208 h -2.31906 z m 4.62081,0 h 2.30175 v 0.46208 h -2.30175 z m 4.62081,0 h 2.30175 v 0.46208 h -2.30175 z m 4.6035,0 h 2.31906 v 0.46208 h -2.31906 z m 4.62081,0 h 2.30175 v 0.46208 h -2.30175 z m 4.62081,0 h 2.30175 v 0.46208 h -2.30175 z m 4.6035,0 h 2.31906 v 0.46208 h -2.31906 z m 4.62081,0 h 2.30175 v 0.46208 h -2.30175 z m 4.62081,0 h 2.23252 l 0.0692,0.0156 v 0.46035 l -0.0692,-0.0139 h -2.23252 z m 4.18815,1.50046 0.12115,0.57631 v 1.81025 h -0.46728 v -1.81025 l -0.0865,-0.39805 z m 0.12115,4.6935 v 2.30867 h -0.46728 v -2.30867 z m 0,4.61562 v 2.30694 h -0.46728 v -2.30694 z m 0,4.61561 v 2.30694 h -0.46728 v -2.30694 z m 0,4.61389 v 2.30867 h -0.46728 v -2.30867 z m 0,4.61561 v 2.30695 h -0.46728 v -2.30695 z m 0,4.61562 v 2.30695 h -0.46728 v -2.30695 z m 0,4.61389 v 2.30867 h -0.46728 v -2.30867 z m 0,4.61561 v 2.30695 h -0.46728 v -2.30695 z m 0,4.61562 v 1.85352 l -0.10384,0.44477 h -0.44997 l 0.0865,-0.44477 v -1.85352 z m -1.8691,3.88875 -0.20768,0.0415 H 172.747 v -0.46208 h 2.19791 l 0.0173,-0.005 z m -4.70734,0.0415 h -2.31906 v -0.46208 h 2.31906 z m -4.62081,0 h -2.30175 v -0.46208 h 2.30175 z m -4.6208,0 h -2.30175 v -0.46208 h 2.30175 z m -4.60351,0 h -2.31906 v -0.46208 h 2.31906 z m -4.62081,0 h -2.30175 v -0.46208 h 2.30175 z m -4.62081,0 h -2.30175 v -0.46208 h 2.30175 z m -4.6035,0 h -2.31906 v -0.46208 h 2.31906 z m -4.62081,0 h -2.30175 v -0.46205 h 2.30175 z m -4.62081,0 h -2.30175 v -0.46208 h 2.30175 z m -4.27468,-1.38105 -0.13845,-0.69571 v -1.69084 h 0.44997 v 1.69084 l 0.10384,0.51573 z m -0.13845,-4.69349 v -2.30695 h 0.44997 v 2.30695 z m 0,-4.61562 v -2.30694 h 0.44997 v 2.30694 z m 0,-4.61389 v -2.30867 h 0.44997 v 2.30867 z m 0,-4.61561 v -2.30694 h 0.44997 v 2.30694 z m 0,-4.61562 v -2.30694 h 0.44997 v 2.30694 z m 0,-4.61388 v -2.30868 h 0.44997 v 2.30868 z m 0,-4.61562 v -2.30695 h 0.44997 v 2.30695 z m 0,-4.61562 v -2.30694 h 0.44997 v 2.30694 z m 0,-4.61388 v -1.97466 l 0.0519,-0.32709 h 0.46727 l -0.0692,0.32709 v 1.97466 z m 1.74795,-3.98567 0.32882,-0.0658 h 2.30175 v 0.46208 h -2.30175 l -0.15576,0.0294 z"
       id="path4056"
       style="stroke-width:0.173064" />
    <rect
       x="139.32834"
       y="264.01105"
       fill="#ffffff"
       fill-opacity="1"
       stroke-width="0.461505"
       stroke-linejoin="round"
       stroke="#000000"
       stroke-opacity="1"
       width="14.152879"
       height="7.6917949"
       id="rect4058" />
    <text
       xml:space="preserve"
       id="text4062"
       x="140.31483"
       y="270.1445"
       style="font-size:2.07677px;stroke-width:0.173064"><tspan
   style="font-size:8.30709px;font-family:'メイリオ'"
   letter-spacing="0em"
   fill="#000000"
   fill-opacity="1"
   stroke-width="0.0346128"
   stroke-linejoin="round"
   id="tspan4060">uz</tspan>	</text>
    <rect
       x="156.32326"
       y="255.19002"
       fill="#ffffff"
       fill-opacity="1"
       stroke-width="0.461505"
       stroke-linejoin="round"
       stroke="#000000"
       stroke-opacity="1"
       width="14.152706"
       height="7.6917081"
       id="rect4064" />
    <text
       xml:space="preserve"
       id="text4068"
       x="157.44818"
       y="261.66437"
       style="font-size:2.07677px;stroke-width:0.173064"><tspan
   style="font-size:8.30709px;font-family:'メイリオ'"
   letter-spacing="0em"
   fill="#000000"
   fill-opacity="1"
   stroke-width="0.0346128"
   stroke-linejoin="round"
   id="tspan4066">wz</tspan>	</text>
    <rect
       x="156.32326"
       y="264.11313"
       fill="#ffffff"
       fill-opacity="1"
       stroke-width="0.461505"
       stroke-linejoin="round"
       stroke="#000000"
       stroke-opacity="1"
       width="14.152706"
       height="7.6917949"
       id="rect4070" />
    <text
       xml:space="preserve"
       id="text4074"
       x="158.86259"
       y="270.1445"
       style="font-size:2.07677px;stroke-width:0.173064"><tspan
   style="font-size:8.30709px;font-family:'メイリオ'"
   letter-spacing="0em"
   fill="#000000"
   fill-opacity="1"
   stroke-width="0.0346128"
   stroke-linejoin="round"
   id="tspan4072">vz</tspan>	</text>
    <rect
       x="231.74452"
       y="210.78525"
       fill="#ffffff"
       fill-opacity="1"
       stroke-width="0.461505"
       stroke-linejoin="round"
       stroke="#000000"
       stroke-opacity="1"
       width="105.22274"
       height="71.994621"
       id="rect4076" />
    <line
       fill="none"
       stroke-width="0.461505"
       stroke-linejoin="round"
       stroke="#000000"
       stroke-opacity="1"
       x1="236.60773"
       y1="241.42451"
       x2="332.36398"
       y2="241.42451"
       id="line4078" />
    <path
       fill="#000000"
       fill-opacity="1"
       stroke-linejoin="round"
       d="m 241.22842,241.19429 h 2.30175 v 0.46208 h -2.30175 z m 4.60351,0 h 2.31906 v 0.46208 h -2.31906 z m 4.62081,0 h 2.30175 v 0.46208 h -2.30175 z m 4.6208,0 h 2.30176 v 0.46208 h -2.30176 z m 4.60351,0 h 2.31905 v 0.46208 h -2.31905 z m 4.6208,0 h 2.30175 v 0.46208 h -2.30175 z m 4.62081,0 h 2.30176 v 0.46208 h -2.30176 z m 4.60351,0 h 2.31906 v 0.46208 h -2.31906 z m 4.62081,0 h 2.30175 v 0.46208 h -2.30175 z m 4.6208,0 h 2.30175 v 0.46208 h -2.30175 z m 4.6035,0 h 2.31906 v 0.46208 h -2.31906 z m 4.62081,0 h 2.30176 v 0.46208 h -2.30176 z m 4.62082,0 h 2.30175 v 0.46208 h -2.30175 z m 4.6035,0 h 2.31905 v 0.46208 h -2.31905 z m 4.62081,0 h 2.30175 v 0.46208 h -2.30175 z m 4.6208,0 h 2.30175 v 0.46208 h -2.30175 z m 4.6035,0 h 2.31906 v 0.46208 h -2.31906 z m 4.62082,0 h 2.30175 v 0.46208 h -2.30175 z m 4.62081,0 h 2.30175 v 0.46208 h -2.30175 z m 4.6035,0 h 2.31905 v 0.46208 h -2.31905 z m -92.29504,0 h 2.30175 v 0.46208 h -2.30175 z"
       id="path4080"
       style="stroke-width:0.173064" />
    <g
       id="g4088"
       transform="matrix(0.173064,0,0,0.173064,-2061.9245,-1080.62)">
      <rect
         x="13512.2"
         y="7618.1499"
         fill="#ffffff"
         fill-opacity="1"
         stroke-width="0.2"
         stroke-linejoin="round"
         width="51.555698"
         height="40.889198"
         id="rect4082" />
      <text
         transform="translate(13516,7654)"
         xml:space="preserve"
         id="text4086">			 <tspan
   style="font-size:48px;font-family:'メイリオ'"
   letter-spacing="0em"
   fill="#ff0000"
   fill-opacity="1"
   stroke-width="0.2"
   stroke-linejoin="round"
   id="tspan4084">＊</tspan>		</text>
    </g>
    <rect
       x="241.62657"
       y="236.81059"
       fill="#ffffff"
       fill-opacity="1"
       stroke-width="0.461505"
       stroke-linejoin="round"
       stroke="#000000"
       stroke-opacity="1"
       width="32.690056"
       height="9.2301092"
       id="rect4090" />
    <text
       xml:space="preserve"
       id="text4094"
       x="242.07646"
       y="244.01186"
       style="font-size:2.07677px;stroke-width:0.173064"><tspan
   style="font-size:8.30709px;font-family:'メイリオ'"
   letter-spacing="0em"
   fill="#000000"
   fill-opacity="1"
   stroke-width="0.0346128"
   stroke-linejoin="round"
   id="tspan4092">uvwxyz</tspan>	</text>
    <text
       xml:space="preserve"
       id="text4098"
       x="257.26617"
       y="221.85966"
       style="font-size:2.07677px;stroke-width:0.173064">		 <tspan
   style="font-size:8.30709px;font-family:'メイリオ'"
   letter-spacing="0em"
   fill="#000000"
   fill-opacity="1"
   stroke-width="0.0346128"
   stroke-linejoin="round"
   id="tspan4096">uvwxyz-wing</tspan>	</text>
    <path
       fill="#000000"
       fill-opacity="1"
       stroke-linejoin="round"
       d="m 246.54149,230.42625 h 2.31906 v 0.46208 h -2.31906 z m 4.62081,0 h 2.30175 v 0.46208 h -2.30175 z m 4.62081,0 h 2.30175 v 0.46208 h -2.30175 z m 4.6035,0 h 2.31906 v 0.46208 h -2.31906 z m 4.62081,0 h 2.30175 v 0.46208 h -2.30175 z m 4.6208,0 h 2.30176 v 0.46208 h -2.30176 z m 4.60351,0 h 2.31906 v 0.46208 h -2.31906 z m 4.62081,0 h 2.30175 v 0.46208 h -2.30175 z m 4.62081,0 h 2.23252 l 0.0692,0.0156 v 0.46035 l -0.0692,-0.0139 h -2.23252 z m 4.18814,1.50046 0.12115,0.57631 v 1.81025 h -0.46727 v -1.81025 l -0.0865,-0.39805 z m 0.12115,4.6935 v 2.30867 h -0.46727 v -2.30867 z m 0,4.61562 v 2.30694 h -0.46727 v -2.30694 z m 0,4.61561 v 2.30694 h -0.46727 v -2.30694 z m 0,4.61389 v 2.30867 h -0.46727 v -2.30867 z m 0,4.61561 v 2.30695 h -0.46727 v -2.30695 z m 0,4.61562 v 2.30695 h -0.46727 v -2.30695 z m 0,4.61389 v 2.30867 h -0.46727 v -2.30867 z m 0,4.61561 v 2.30695 h -0.46727 v -2.30695 z m 0,4.61562 v 1.85352 l -0.10384,0.44477 h -0.44996 l 0.0865,-0.44477 v -1.85352 z m -1.86909,3.88875 -0.20768,0.0415 h -2.19791 v -0.46208 h 2.19791 l 0.0173,-0.005 z m -4.70735,0.0415 h -2.31905 v -0.46208 h 2.31905 z m -4.6208,0 h -2.30175 v -0.46208 h 2.30175 z m -4.62081,0 h -2.30175 v -0.46208 h 2.30175 z m -4.6035,0 h -2.31906 v -0.46208 h 2.31906 z m -4.62081,0 h -2.30175 v -0.46208 h 2.30175 z m -4.62081,0 h -2.30175 v -0.46208 h 2.30175 z m -4.6035,0 h -2.31906 v -0.46208 h 2.31906 z m -4.62081,0 h -2.30175 v -0.46208 h 2.30175 z m -4.62081,0 h -2.30175 v -0.46208 h 2.30175 z m -4.27468,-1.38105 -0.13845,-0.69571 v -1.69084 h 0.44996 v 1.69084 l 0.10384,0.51573 z m -0.13845,-4.69349 v -2.30695 h 0.44996 v 2.30695 z m 0,-4.61562 v -2.30694 h 0.44996 v 2.30694 z m 0,-4.61389 v -2.30867 h 0.44996 v 2.30867 z m 0,-4.61561 v -2.30694 h 0.44996 v 2.30694 z m 0,-4.61562 v -2.30694 h 0.44996 v 2.30694 z m 0,-4.61388 v -2.30868 h 0.44996 v 2.30868 z m 0,-4.61562 v -2.30695 h 0.44996 v 2.30695 z m 0,-4.61562 v -2.30694 h 0.44996 v 2.30694 z m 0,-4.61388 v -1.97466 l 0.0519,-0.32709 h 0.46727 l -0.0692,0.32709 v 1.97466 z m 1.74795,-3.98567 0.32881,-0.0658 h 2.30176 v 0.46208 h -2.30176 l -0.15575,0.0294 z"
       id="path4100"
       style="stroke-width:0.173064" />
    <rect
       x="254.08717"
       y="255.70399"
       fill="#ffffff"
       fill-opacity="1"
       stroke-width="0.461505"
       stroke-linejoin="round"
       stroke="#000000"
       stroke-opacity="1"
       width="12.964259"
       height="7.6917949"
       id="rect4102" />
    <text
       xml:space="preserve"
       id="text4106"
       x="255.05627"
       y="261.83743"
       style="font-size:2.07677px;stroke-width:0.173064">	<tspan
   style="font-size:8.30709px;font-family:'メイリオ'"
   letter-spacing="0em"
   fill="#000000"
   fill-opacity="1"
   stroke-width="0.0346128"
   stroke-linejoin="round"
   id="tspan4104">uz</tspan>	</text>
    <rect
       x="269.66293"
       y="255.80608"
       fill="#ffffff"
       fill-opacity="1"
       stroke-width="0.461505"
       stroke-linejoin="round"
       stroke="#000000"
       stroke-opacity="1"
       width="12.964259"
       height="7.6917949"
       id="rect4108" />
    <text
       xml:space="preserve"
       id="text4112"
       x="270.42902"
       y="261.83743"
       style="font-size:2.07677px;stroke-width:0.173064">	 <tspan
   style="font-size:8.30709px;font-family:'メイリオ'"
   letter-spacing="0em"
   fill="#000000"
   fill-opacity="1"
   stroke-width="0.0346128"
   stroke-linejoin="round"
   id="tspan4110">vz</tspan>	</text>
    <rect
       x="302.64886"
       y="236.89375"
       fill="#ffffff"
       fill-opacity="1"
       stroke-width="0.461505"
       stroke-linejoin="round"
       stroke="#000000"
       stroke-opacity="1"
       width="11.488472"
       height="7.6918817"
       id="rect4114" />
    <rect
       x="290.18826"
       y="237.24849"
       fill="#ffffff"
       fill-opacity="1"
       stroke-width="0.461505"
       stroke-linejoin="round"
       stroke="#000000"
       stroke-opacity="1"
       width="10.460732"
       height="7.4580545"
       id="rect4116" />
    <text
       xml:space="preserve"
       id="text4120"
       x="303.15808"
       y="243.3196"
       style="font-size:2.07677px;stroke-width:0.173064">	<tspan
   style="font-size:8.30709px;font-family:'メイリオ'"
   letter-spacing="0em"
   fill="#000000"
   fill-opacity="1"
   stroke-width="0.0346128"
   stroke-linejoin="round"
   id="tspan4118">yz</tspan>	</text>
    <text
       xml:space="preserve"
       id="text4124"
       x="290.35135"
       y="243.3196"
       style="font-size:2.07677px;stroke-width:0.173064">	<tspan
   style="font-size:8.30709px;font-family:'メイリオ'"
   letter-spacing="0em"
   fill="#000000"
   fill-opacity="1"
   stroke-width="0.0346128"
   stroke-linejoin="round"
   id="tspan4122">xz</tspan>	</text>
    <rect
       x="315.49023"
       y="236.9404"
       fill="#ffffff"
       fill-opacity="1"
       stroke-width="0.461505"
       stroke-linejoin="round"
       stroke="#000000"
       stroke-opacity="1"
       width="12.742512"
       height="7.8081627"
       id="rect4126" />
    <text
       xml:space="preserve"
       id="text4130"
       x="316.14786"
       y="243.14655"
       style="font-size:2.07677px;stroke-width:0.173064"><tspan
   style="font-size:8.30709px;font-family:'メイリオ'"
   letter-spacing="0em"
   fill="#000000"
   fill-opacity="1"
   stroke-width="0.0346128"
   stroke-linejoin="round"
   id="tspan4128">wz</tspan>	</text>
    <text
       xml:space="preserve"
       transform="scale(0.26458333)"
       id="text843"
       style="fill:#ffffff;-inkscape-font-specification:'sans-serif, Normal';font-family:sans-serif;font-size:32px;paint-order:fill markers stroke;stroke-linecap:square;stroke-width:3.02362205;stroke:#009641;stroke-dasharray:6.04724409, 6.04724409;line-height:0.54917598;white-space:pre;shape-inside:url(#rect845)" />
  </g>
</svg>
