<?xml version="1.0" encoding="UTF-8" standalone="no"?>
<!-- Created with Inkscape (http://www.inkscape.org/) -->

<svg
   width="297mm"
   height="210mm"
   viewBox="0 0 297 210"
   version="1.1"
   id="svg6986"
   inkscape:version="1.2.2 (732a01da63, 2022-12-09)"
   sodipodi:docname="image42.svg"
   xmlns:inkscape="http://www.inkscape.org/namespaces/inkscape"
   xmlns:sodipodi="http://sodipodi.sourceforge.net/DTD/sodipodi-0.dtd"
   xmlns="http://www.w3.org/2000/svg"
   xmlns:svg="http://www.w3.org/2000/svg">
  <sodipodi:namedview
     id="namedview6988"
     pagecolor="#ffffff"
     bordercolor="#000000"
     borderopacity="0.25"
     inkscape:showpageshadow="2"
     inkscape:pageopacity="0.0"
     inkscape:pagecheckerboard="0"
     inkscape:deskcolor="#d1d1d1"
     inkscape:document-units="mm"
     showgrid="false"
     inkscape:zoom="0.914906"
     inkscape:cx="446.49395"
     inkscape:cy="561.25984"
     inkscape:window-width="1898"
     inkscape:window-height="1230"
     inkscape:window-x="1424"
     inkscape:window-y="443"
     inkscape:window-maximized="0"
     inkscape:current-layer="layer1" />
  <defs
     id="defs6983" />
  <g
     inkscape:label="Layer 1"
     inkscape:groupmode="layer"
     id="layer1">
    <g
       id="g7422"
       inkscape:export-filename="img42a.png"
       inkscape:export-xdpi="96"
       inkscape:export-ydpi="96">
      <rect
         x="155.87045"
         y="45.077183"
         fill="#ffffff"
         fill-opacity="1"
         stroke-width="0.471852"
         stroke-linejoin="round"
         stroke="#000000"
         stroke-opacity="1"
         width="101.92001"
         height="101.92001"
         id="rect2664" />
      <path
         fill="#ffffff"
         fill-opacity="1"
         stroke-width="0.471852"
         stroke-linejoin="round"
         stroke="#000000"
         stroke-opacity="1"
         d="m 214.38606,73.388378 h 35.86665 c 1.04397,0 1.87561,0.844025 1.87561,1.886228 v 35.861324 c 0,1.04221 -0.83164,1.888 -1.87561,1.888 h -35.86665 c -1.04397,0 -1.8933,-0.84579 -1.8933,-1.888 V 75.274606 c 0,-1.042203 0.84933,-1.886228 1.8933,-1.886228 z"
         id="path2666" />
      <path
         fill="#000000"
         fill-opacity="1"
         stroke-linejoin="round"
         d="m 219.11048,73.151273 h 2.35337 v 0.472441 h -2.35337 z m 4.70673,0 h 2.37105 v 0.472441 h -2.37105 z m 4.72441,0 h 2.35336 v 0.472441 h -2.35336 z m 4.72442,0 h 2.35336 v 0.472441 h -2.35336 z m 4.70672,0 h 2.37106 v 0.472441 h -2.37106 z m 4.72442,0 h 2.35336 v 0.472441 h -2.35336 z m 4.72442,0 h 2.35336 v 0.472441 h -2.35336 z m 4.56516,0.966116 0.21234,0.330886 0.17694,0.826331 v 1.300542 h -0.47775 v -1.300542 l -0.12386,-0.642308 -0.12386,-0.180483 z m 0.38928,4.818198 v 2.35867 h -0.47775 v -2.35867 z m 0,4.717339 v 2.36044 h -0.47775 v -2.36044 z m 0,4.719109 v 2.358667 h -0.47775 v -2.358667 z m 0,4.71911 v 2.35867 h -0.47775 v -2.35867 z m 0,4.717341 v 2.360434 h -0.47775 v -2.360434 z m 0,4.719104 v 2.35867 h -0.47775 v -2.35867 z m 0,4.71911 v 2.35867 h -0.47775 v -2.35867 z m -0.21233,4.78104 -0.40697,0.61045 -0.69009,0.45475 -0.81394,0.16633 h -0.24772 v -0.47244 h 0.24772 l 0.637,-0.12917 0.53083,-0.35389 0.30081,-0.46005 z m -4.51209,1.23153 h -2.37105 v -0.47244 h 2.37105 z m -4.72441,0 h -2.35336 v -0.47244 h 2.35336 z m -4.72442,0 h -2.35336 v -0.47244 h 2.35336 z m -4.70672,0 h -2.37106 v -0.47244 h 2.37106 z m -4.72442,0 h -2.35336 v -0.47244 h 2.35336 z m -4.72441,0 h -2.35337 v -0.47244 h 2.35337 z m -4.70673,0 h -2.37106 v -0.47244 h 2.37106 z m -4.72442,0 h -0.23003 l -0.83164,-0.16633 -0.67238,-0.45475 -0.37158,-0.54498 0.33619,-0.33266 0.37158,0.54322 0.53084,0.35389 0.63699,0.12917 h 0.23003 z m -2.35336,-3.66629 v -2.35867 h 0.47775 v 2.35867 z m 0,-4.71734 v -2.36043 h 0.47775 v 2.36043 z m 0,-4.7191 v -2.358674 h 0.47775 v 2.358674 z m 0,-4.71911 v -2.358671 h 0.47775 v 2.358671 z m 0,-4.717341 v -2.36044 h 0.47775 v 2.36044 z m 0,-4.71911 V 83.64231 h 0.47775 v 2.358669 z m 0,-4.719108 v -2.35867 h 0.47775 v 2.35867 z m 0,-4.717339 v -1.289926 l 0.15925,-0.826331 0.19464,-0.265416 0.42467,0.184022 -0.17695,0.265417 -0.12386,0.642308 v 1.289926 z m 2.12333,-3.413259 h 2.35336 v 0.472441 h -2.35336 z"
         id="path2668"
         style="stroke-width:0.176945" />
      <path
         fill="#ffffff"
         fill-opacity="1"
         stroke-width="0.471852"
         stroke-linejoin="round"
         stroke="#000000"
         stroke-opacity="1"
         d="m 163.42606,73.388378 h 35.86665 c 1.04397,0 1.87561,0.844025 1.87561,1.886228 v 35.861324 c 0,1.04221 -0.83164,1.888 -1.87561,1.888 h -35.86665 c -1.04397,0 -1.8933,-0.84579 -1.8933,-1.888 V 75.274606 c 0,-1.042203 0.84933,-1.886228 1.8933,-1.886228 z"
         id="path2670" />
      <path
         fill="#000000"
         fill-opacity="1"
         stroke-linejoin="round"
         d="m 168.15048,73.151273 h 2.35336 v 0.472441 h -2.35336 z m 4.70673,0 h 2.37105 v 0.472441 h -2.37105 z m 4.72441,0 h 2.35336 v 0.472441 h -2.35336 z m 4.72442,0 h 2.35336 v 0.472441 h -2.35336 z m 4.70672,0 h 2.37105 v 0.472441 h -2.37105 z m 4.72442,0 h 2.35336 v 0.472441 h -2.35336 z m 4.72441,0 h 2.35337 v 0.472441 h -2.35337 z m 4.56517,0.966116 0.21233,0.330886 0.17695,0.826331 v 1.300542 h -0.47775 v -1.300542 l -0.12386,-0.642308 -0.12387,-0.180483 z m 0.38928,4.818198 v 2.35867 h -0.47775 v -2.35867 z m 0,4.717339 v 2.36044 h -0.47775 v -2.36044 z m 0,4.719109 v 2.358667 h -0.47775 v -2.358667 z m 0,4.71911 v 2.35867 h -0.47775 v -2.35867 z m 0,4.717341 v 2.360434 h -0.47775 v -2.360434 z m 0,4.719104 v 2.35867 h -0.47775 v -2.35867 z m 0,4.71911 v 2.35867 h -0.47775 v -2.35867 z m -0.21234,4.78104 -0.40697,0.61045 -0.69008,0.45475 -0.81394,0.16633 h -0.24773 v -0.47244 h 0.24773 l 0.637,-0.12917 0.53083,-0.35389 0.30081,-0.46005 z m -4.51208,1.23153 h -2.37106 v -0.47244 h 2.37106 z m -4.72442,0 h -2.35336 v -0.47244 h 2.35336 z m -4.72441,0 h -2.35336 v -0.47244 h 2.35336 z m -4.70672,0 h -2.37106 v -0.47244 h 2.37106 z m -4.72443,0 h -2.35336 v -0.47244 h 2.35336 z m -4.72441,0 h -2.35336 v -0.47244 h 2.35336 z m -4.70672,0 h -2.37106 v -0.47244 h 2.37106 z m -4.72442,0 h -0.23003 l -0.83164,-0.16633 -0.67238,-0.45475 -0.37159,-0.54498 0.3362,-0.33266 0.37158,0.54322 0.53083,0.35389 0.637,0.12917 h 0.23003 z m -2.35336,-3.66629 v -2.35867 h 0.47775 v 2.35867 z m 0,-4.71734 v -2.36043 h 0.47775 v 2.36043 z m 0,-4.7191 v -2.358674 h 0.47775 v 2.358674 z m 0,-4.71911 v -2.358671 h 0.47775 v 2.358671 z m 0,-4.717341 v -2.36044 h 0.47775 v 2.36044 z m 0,-4.71911 V 83.64231 h 0.47775 v 2.358669 z m 0,-4.719108 v -2.35867 h 0.47775 v 2.35867 z m 0,-4.717339 v -1.289926 l 0.15925,-0.826331 0.19464,-0.265416 0.42466,0.184022 -0.17694,0.265417 -0.12386,0.642308 v 1.289926 z m 2.12333,-3.413259 h 2.35336 v 0.472441 h -2.35336 z"
         id="path2672"
         style="stroke-width:0.176945" />
      <line
         fill="none"
         stroke-width="0.471852"
         stroke-linejoin="round"
         stroke="#000000"
         stroke-opacity="1"
         x1="160.11711"
         y1="101.69941"
         x2="257.79047"
         y2="101.69941"
         id="line2674" />
      <path
         fill="#000000"
         fill-opacity="1"
         stroke-linejoin="round"
         d="m 164.84162,101.46238 h 2.35336 v 0.47245 h -2.35336 z m 4.72442,0 h 2.35336 v 0.47245 h -2.35336 z m 4.70672,0 h 2.37106 v 0.47245 h -2.37106 z m 4.72442,0 h 2.35336 v 0.47245 h -2.35336 z m 4.72441,0 h 2.35336 v 0.47245 h -2.35336 z m 4.70672,0 h 2.37106 v 0.47245 h -2.37106 z m 4.72443,0 h 2.35336 v 0.47245 h -2.35336 z m 4.72441,0 h 2.35336 v 0.47245 h -2.35336 z m 4.70672,0 h 2.37106 v 0.47245 h -2.37106 z m 4.72442,0 h 2.35336 v 0.47245 h -2.35336 z m 4.72441,0 h 2.35336 v 0.47245 h -2.35336 z m 4.70672,0 h 2.37106 v 0.47245 h -2.37106 z m 4.72443,0 h 2.35336 v 0.47245 h -2.35336 z m 4.72441,0 h 2.35336 v 0.47245 h -2.35336 z m 4.70672,0 h 2.37106 v 0.47245 h -2.37106 z m 4.72442,0 h 2.35336 v 0.47245 h -2.35336 z m 4.72442,0 h 2.35336 v 0.47245 h -2.35336 z m 4.70672,0 h 2.37106 v 0.47245 h -2.37106 z m 4.72442,0 h 2.35336 v 0.47245 h -2.35336 z m 4.72442,0 h 2.35336 v 0.47245 h -2.35336 z m -94.38218,0 h 2.37106 v 0.47245 h -2.37106 z"
         id="path2676"
         style="stroke-width:0.176945" />
      <rect
         x="31.30155"
         y="45.077183"
         fill="#ffffff"
         fill-opacity="1"
         stroke-width="0.471852"
         stroke-linejoin="round"
         stroke="#000000"
         stroke-opacity="1"
         width="101.92001"
         height="101.92001"
         id="rect2678" />
      <line
         fill="none"
         stroke-width="0.471852"
         stroke-linejoin="round"
         stroke="#000000"
         stroke-opacity="1"
         x1="41.812126"
         y1="70.373245"
         x2="122.49879"
         y2="70.373245"
         id="line2680" />
      <path
         fill="#000000"
         fill-opacity="1"
         stroke-linejoin="round"
         d="m 46.518855,70.137909 h 2.371056 v 0.472441 h -2.371056 z m 4.724417,0 h 2.353362 v 0.472441 h -2.353362 z m 4.724418,0 h 2.353361 V 70.61035 H 55.96769 Z m 4.706723,0 h 2.371056 v 0.472441 h -2.371056 z m 4.724417,0 h 2.353362 V 70.61035 H 65.39883 Z m 4.724417,0 h 2.353362 v 0.472441 h -2.353362 z m 4.706723,0 h 2.371056 V 70.61035 H 74.82997 Z m 4.724417,0 h 2.353361 v 0.472441 h -2.353361 z m 4.724417,0 h 2.353362 v 0.472441 h -2.353362 z m 4.706723,0 h 2.371056 v 0.472441 h -2.371056 z m 4.724417,0 h 2.353362 v 0.472441 h -2.353362 z m 4.724418,0 h 2.353358 v 0.472441 h -2.353358 z m 4.706718,0 h 2.37106 v 0.472441 h -2.37106 z m 4.72442,0 h 2.35336 v 0.472441 h -2.35336 z m 4.72442,0 h 2.35336 v 0.472441 h -2.35336 z m 4.70672,0 h 2.37106 v 0.472441 h -2.37106 z m 4.72442,0 h 0.47775 v 0.472441 h -0.47775 z m -80.208927,0 h 2.353361 v 0.472441 h -2.353361 z"
         id="path2682"
         style="stroke-width:0.176945" />
      <line
         fill="none"
         stroke-width="0.471852"
         stroke-linejoin="round"
         stroke="#000000"
         stroke-opacity="1"
         x1="40.272675"
         y1="121.80569"
         x2="120.95934"
         y2="121.80569"
         id="line2684" />
      <path
         fill="#000000"
         fill-opacity="1"
         stroke-linejoin="round"
         d="m 44.997133,121.57035 h 2.353361 v 0.47067 h -2.353361 z m 4.706723,0 h 2.371056 v 0.47067 h -2.371056 z m 4.724417,0 h 2.353362 v 0.47067 h -2.353362 z m 4.724418,0 h 2.353361 v 0.47067 h -2.353361 z m 4.706722,0 h 2.371056 v 0.47067 h -2.371056 z m 4.724417,0 h 2.353361 v 0.47067 H 68.58383 Z m 4.724417,0 h 2.353362 v 0.47067 h -2.353362 z m 4.706723,0 h 2.371056 v 0.47067 H 78.01497 Z m 4.724417,0 h 2.353362 v 0.47067 h -2.353362 z m 4.724418,0 h 2.353361 v 0.47067 h -2.353361 z m 4.706722,0 h 2.371056 v 0.47067 h -2.371056 z m 4.724417,0 h 2.353362 v 0.47067 h -2.353362 z m 4.724416,0 h 2.35336 v 0.47067 h -2.35336 z m 4.70672,0 h 2.37106 v 0.47067 h -2.37106 z m 4.72442,0 h 2.35336 v 0.47067 h -2.35336 z m 4.72442,0 h 2.35336 v 0.47067 h -2.35336 z m 4.70672,0 h 0.47775 v 0.47067 h -0.47775 z m -80.208924,0 h 2.353361 v 0.47067 h -2.353361 z"
         id="path2686"
         style="stroke-width:0.176945" />
      <line
         fill="none"
         stroke-width="0.471852"
         stroke-linejoin="round"
         stroke="#000000"
         stroke-opacity="1"
         x1="54.02129"
         y1="57.397892"
         x2="54.02129"
         y2="135.34547"
         id="line2688" />
      <path
         fill="#000000"
         fill-opacity="1"
         stroke-linejoin="round"
         d="m 54.251328,62.117016 v 2.358669 h -0.477749 v -2.358669 z m 0,4.717339 v 2.360439 h -0.477749 v -2.360439 z m 0,4.719109 v 2.35867 h -0.477749 v -2.35867 z m 0,4.719109 v 2.35867 h -0.477749 v -2.35867 z m 0,4.717339 v 2.36044 h -0.477749 v -2.36044 z m 0,4.719109 v 2.35867 h -0.477749 v -2.35867 z m 0,4.719111 v 2.35867 h -0.477749 v -2.35867 z m 0,4.71734 v 2.360436 h -0.477749 v -2.360436 z m 0,4.719107 v 2.358671 h -0.477749 v -2.358671 z m 0,4.719101 v 2.35868 h -0.477749 v -2.35868 z m 0,4.71735 v 2.36043 h -0.477749 v -2.36043 z m 0,4.7191 v 2.35867 h -0.477749 v -2.35867 z m 0,4.71911 v 2.35867 h -0.477749 v -2.35867 z m 0,4.71734 v 2.36044 h -0.477749 v -2.36044 z m 0,4.71911 v 2.35867 h -0.477749 v -2.35867 z m 0,4.7191 v 2.35867 h -0.477749 v -2.35867 z m 0,-75.496883 v 2.35867 h -0.477749 v -2.35867 z"
         id="path2690"
         style="stroke-width:0.176945" />
      <line
         fill="none"
         stroke-width="0.471852"
         stroke-linejoin="round"
         stroke="#000000"
         stroke-opacity="1"
         x1="104.32657"
         y1="57.351841"
         x2="104.32657"
         y2="135.29942"
         id="line2692" />
      <path
         fill="#000000"
         fill-opacity="1"
         stroke-linejoin="round"
         d="m 104.55664,62.07101 v 2.35867 h -0.46006 v -2.35867 z m 0,4.71734 v 2.360439 h -0.46006 V 66.78835 Z m 0,4.719109 v 2.358669 h -0.46006 v -2.358669 z m 0,4.719108 v 2.35867 h -0.46006 v -2.35867 z m 0,4.71734 v 2.360439 h -0.46006 v -2.360439 z m 0,4.719109 v 2.358669 h -0.46006 v -2.358669 z m 0,4.719111 v 2.358671 h -0.46006 v -2.358671 z m 0,4.717334 v 2.360443 h -0.46006 v -2.360443 z m 0,4.719113 v 2.358666 h -0.46006 v -2.358666 z m 0,4.719106 v 2.35867 h -0.46006 v -2.35867 z m 0,4.71734 v 2.36043 h -0.46006 v -2.36043 z m 0,4.7191 v 2.35867 h -0.46006 v -2.35867 z m 0,4.71912 v 2.35867 h -0.46006 v -2.35867 z m 0,4.71734 v 2.36043 h -0.46006 v -2.36043 z m 0,4.7191 v 2.35867 h -0.46006 v -2.35867 z m 0,4.71911 v 2.35867 h -0.46006 v -2.35867 z m 0,-75.496889 v 2.35867 h -0.46006 v -2.35867 z"
         id="path2694"
         style="stroke-width:0.176945" />
      <rect
         x="45.634056"
         y="65.071907"
         fill="#ffffff"
         fill-opacity="1"
         stroke-width="0.943705"
         stroke-linejoin="round"
         stroke="#00c800"
         stroke-opacity="1"
         width="12.434842"
         height="11.200373"
         id="rect2696" />
      <text
         xml:space="preserve"
         id="text2700"
         x="48.235172"
         y="73.386574"
         style="font-size:2.12333px;stroke-width:0.176945"><tspan
   style="font-size:8.49335px;font-family:'メイリオ'"
   letter-spacing="0em"
   fill="#000000"
   fill-opacity="1"
   stroke-width="0.0353889"
   stroke-linejoin="round"
   id="tspan2698">xy</tspan>	</text>
      <rect
         x="97.461159"
         y="65.480659"
         fill="#ffffff"
         fill-opacity="1"
         stroke-width="0.943705"
         stroke-linejoin="round"
         stroke="#230fd2"
         stroke-opacity="1"
         width="12.995739"
         height="11.200373"
         id="rect2702" />
      <text
         xml:space="preserve"
         id="text2706"
         x="99.195175"
         y="73.386574"
         style="font-size:2.12333px;stroke-width:0.176945"><tspan
   style="font-size:8.49335px;font-family:'メイリオ'"
   letter-spacing="0em"
   fill="#000000"
   fill-opacity="1"
   stroke-width="0.0353889"
   stroke-linejoin="round"
   id="tspan2704">ax</tspan>	</text>
      <rect
         x="46.023369"
         y="116.67783"
         fill="#ffffff"
         fill-opacity="1"
         stroke-width="0.943705"
         stroke-linejoin="round"
         stroke="#230fd2"
         stroke-opacity="1"
         width="12.995915"
         height="11.200373"
         id="rect2708" />
      <text
         xml:space="preserve"
         id="text2712"
         x="48.235172"
         y="124.34657"
         style="font-size:2.12333px;stroke-width:0.176945"><tspan
   style="font-size:8.49335px;font-family:'メイリオ'"
   letter-spacing="0em"
   fill="#000000"
   fill-opacity="1"
   stroke-width="0.0353889"
   stroke-linejoin="round"
   id="tspan2710">ay</tspan>	</text>
      <rect
         x="97.938942"
         y="116.41241"
         fill="#ffffff"
         fill-opacity="1"
         stroke-width="0.943705"
         stroke-linejoin="round"
         stroke="#ff7d00"
         stroke-opacity="1"
         width="13.211735"
         height="11.200284"
         id="rect2714" />
      <text
         xml:space="preserve"
         id="text2718"
         x="102.38018"
         y="124.34657"
         style="font-size:2.12333px;stroke-width:0.176945"><tspan
   style="font-size:8.49335px;font-family:'メイリオ'"
   letter-spacing="0em"
   fill="#000000"
   fill-opacity="1"
   stroke-width="0.0353889"
   stroke-linejoin="round"
   id="tspan2716">a</tspan>	</text>
      <line
         fill="none"
         stroke-width="0.471852"
         stroke-linejoin="round"
         stroke="#000000"
         stroke-opacity="1"
         x1="160.29405"
         y1="80.819962"
         x2="257.96741"
         y2="80.819962"
         id="line2720" />
      <path
         fill="#000000"
         fill-opacity="1"
         stroke-linejoin="round"
         d="m 165.01856,80.58294 h 2.35337 v 0.472442 h -2.35337 z m 4.72442,0 h 2.35336 v 0.472442 h -2.35336 z m 4.70672,0 h 2.37106 v 0.472442 h -2.37106 z m 4.72442,0 h 2.35336 v 0.472442 h -2.35336 z m 4.72441,0 h 2.35337 v 0.472442 h -2.35337 z m 4.70673,0 h 2.37106 v 0.472442 h -2.37106 z m 4.72442,0 h 2.35336 v 0.472442 h -2.35336 z m 4.72441,0 h 2.35337 v 0.472442 h -2.35337 z m 4.70673,0 h 2.37105 v 0.472442 h -2.37105 z m 4.72441,0 h 2.35337 v 0.472442 h -2.35337 z m 4.72442,0 h 2.35336 v 0.472442 h -2.35336 z m 4.70672,0 h 2.37106 v 0.472442 h -2.37106 z m 4.72442,0 h 2.35336 v 0.472442 h -2.35336 z m 4.72442,0 h 2.35336 v 0.472442 h -2.35336 z m 4.70672,0 h 2.37105 v 0.472442 h -2.37105 z m 4.72441,0 h 2.35337 v 0.472442 h -2.35337 z m 4.72443,0 h 2.35336 v 0.472442 h -2.35336 z m 4.70672,0 h 2.37105 v 0.472442 h -2.37105 z m 4.72441,0 h 2.35336 v 0.472442 h -2.35336 z m 4.72442,0 h 2.35336 v 0.472442 h -2.35336 z m -94.38217,0 h 2.37105 v 0.472442 h -2.37105 z"
         id="path2722"
         style="stroke-width:0.176945" />
      <rect
         x="170.80464"
         y="76.927185"
         fill="#ffffff"
         fill-opacity="1"
         stroke-width="0.943705"
         stroke-linejoin="round"
         stroke="#00c800"
         stroke-opacity="1"
         width="13.142797"
         height="11.200373"
         id="rect2724" />
      <text
         xml:space="preserve"
         id="text2728"
         x="172.80406"
         y="84.711014"
         style="font-size:2.12333px;stroke-width:0.176945"><tspan
   style="font-size:8.49335px;font-family:'メイリオ'"
   letter-spacing="0em"
   fill="#000000"
   fill-opacity="1"
   stroke-width="0.0353889"
   stroke-linejoin="round"
   id="tspan2726">xy</tspan>	</text>
      <rect
         x="230.54102"
         y="76.74678"
         fill="#ffffff"
         fill-opacity="1"
         stroke-width="0.943705"
         stroke-linejoin="round"
         stroke="#230fd2"
         stroke-opacity="1"
         width="13.211735"
         height="11.200284"
         id="rect2730" />
      <text
         xml:space="preserve"
         id="text2734"
         x="232.08047"
         y="84.534073"
         style="font-size:2.12333px;stroke-width:0.176945"><tspan
   style="font-size:8.49335px;font-family:'メイリオ'"
   letter-spacing="0em"
   fill="#000000"
   fill-opacity="1"
   stroke-width="0.0353889"
   stroke-linejoin="round"
   id="tspan2732">ax</tspan>	</text>
      <rect
         x="179.26254"
         y="96.24247"
         fill="#ffffff"
         fill-opacity="1"
         stroke-width="0.943705"
         stroke-linejoin="round"
         stroke="#230fd2"
         stroke-opacity="1"
         width="13.289148"
         height="11.200373"
         id="rect2736" />
      <text
         xml:space="preserve"
         id="text2740"
         x="180.76657"
         y="103.99796"
         style="font-size:2.12333px;stroke-width:0.176945"><tspan
   style="font-size:8.49335px;font-family:'メイリオ'"
   letter-spacing="0em"
   fill="#000000"
   fill-opacity="1"
   stroke-width="0.0353889"
   stroke-linejoin="round"
   id="tspan2738">ay</tspan>	</text>
      <rect
         x="222.75546"
         y="96.161079"
         fill="#ffffff"
         fill-opacity="1"
         stroke-width="0.943705"
         stroke-linejoin="round"
         stroke="#ff7d00"
         stroke-opacity="1"
         width="13.447779"
         height="11.200284"
         id="rect2742" />
      <text
         xml:space="preserve"
         id="text2746"
         x="226.94907"
         y="103.99796"
         style="font-size:2.12333px;stroke-width:0.176945"><tspan
   style="font-size:8.49335px;font-family:'メイリオ'"
   letter-spacing="0em"
   fill="#000000"
   fill-opacity="1"
   stroke-width="0.0353889"
   stroke-linejoin="round"
   id="tspan2744">a</tspan>	</text>
    </g>
  </g>
</svg>
