<?xml version="1.0" encoding="UTF-8" standalone="no"?>
<!-- Created with Inkscape (http://www.inkscape.org/) -->

<svg
   width="297mm"
   height="210mm"
   viewBox="0 0 297 210"
   version="1.1"
   id="svg7427"
   inkscape:version="1.2.2 (732a01da63, 2022-12-09)"
   sodipodi:docname="image43.svg"
   xmlns:inkscape="http://www.inkscape.org/namespaces/inkscape"
   xmlns:sodipodi="http://sodipodi.sourceforge.net/DTD/sodipodi-0.dtd"
   xmlns="http://www.w3.org/2000/svg"
   xmlns:svg="http://www.w3.org/2000/svg">
  <sodipodi:namedview
     id="namedview7429"
     pagecolor="#ffffff"
     bordercolor="#000000"
     borderopacity="0.25"
     inkscape:showpageshadow="2"
     inkscape:pageopacity="0.0"
     inkscape:pagecheckerboard="0"
     inkscape:deskcolor="#d1d1d1"
     inkscape:document-units="mm"
     showgrid="false"
     inkscape:zoom="0.914906"
     inkscape:cx="615.36376"
     inkscape:cy="481.47023"
     inkscape:window-width="1947"
     inkscape:window-height="1230"
     inkscape:window-x="1754"
     inkscape:window-y="432"
     inkscape:window-maximized="0"
     inkscape:current-layer="layer1" />
  <defs
     id="defs7424">
    <rect
       x="90.719702"
       y="66.673516"
       width="944.35931"
       height="550.87626"
       id="rect7936" />
  </defs>
  <g
     inkscape:label="Layer 1"
     inkscape:groupmode="layer"
     id="layer1">
    <g
       id="g2834"
       transform="matrix(0.17316681,0,0,0.17316681,-1925.1674,-949.35182)">
		<rect
   x="11397.3"
   y="5734.0098"
   fill="#ffffff"
   fill-opacity="1"
   stroke-width="2.66667"
   stroke-linejoin="round"
   stroke="#000000"
   stroke-opacity="1"
   width="544"
   height="544"
   id="rect2748" />

		<path
   fill="#ffffff"
   fill-opacity="1"
   stroke-width="2.66667"
   stroke-linejoin="round"
   stroke="#000000"
   stroke-opacity="1"
   d="m 11440,5798.01 h 202.7 c 5.9,0 10.6,4.77 10.6,10.66 v 202.67 c 0,5.89 -4.7,10.67 -10.6,10.67 H 11440 c -5.9,0 -10.7,-4.78 -10.7,-10.67 v -202.67 c 0,-5.89 4.8,-10.66 10.7,-10.66 z"
   id="path2750" />

		<path
   fill="#000000"
   fill-opacity="1"
   stroke-linejoin="round"
   d="m 11466.7,5796.67 h 13.3 v 2.67 h -13.3 z m 26.6,0 h 13.4 v 2.67 h -13.4 z m 26.7,0 h 13.3 v 2.67 h -13.3 z m 26.7,0 h 13.3 v 2.67 h -13.3 z m 26.6,0 h 13.4 v 2.67 h -13.4 z m 26.7,0 h 13.3 v 2.67 h -13.3 z m 26.7,0 h 13.3 v 2.67 h -13.3 z m 25.8,5.46 1.2,1.87 1,4.67 v 7.35 h -2.7 v -7.35 l -0.7,-3.63 -0.7,-1.02 z m 2.2,27.23 v 13.33 h -2.7 v -13.33 z m 0,26.66 v 13.34 h -2.7 v -13.34 z m 0,26.67 v 13.33 h -2.7 v -13.33 z m 0,26.67 v 13.33 h -2.7 v -13.33 z m 0,26.66 v 13.34 h -2.7 v -13.34 z m 0,26.67 v 13.33 h -2.7 v -13.33 z m 0,26.67 v 13.33 h -2.7 v -13.33 z m -1.2,27.02 -2.3,3.45 -3.9,2.57 -4.6,0.94 h -1.4 v -2.67 h 1.4 l 3.6,-0.73 3,-2 1.7,-2.6 z m -25.5,6.96 h -13.4 v -2.67 h 13.4 z m -26.7,0 h -13.3 v -2.67 h 13.3 z m -26.7,0 h -13.3 v -2.67 h 13.3 z m -26.6,0 h -13.4 v -2.67 h 13.4 z m -26.7,0 h -13.3 v -2.67 h 13.3 z m -26.7,0 h -13.3 v -2.67 h 13.3 z m -26.6,0 h -13.4 v -2.67 h 13.4 z m -26.7,0 h -1.3 l -4.7,-0.94 -3.8,-2.57 -2.1,-3.08 1.9,-1.88 2.1,3.07 3,2 3.6,0.73 h 1.3 z m -13.3,-20.72 v -13.33 h 2.7 v 13.33 z m 0,-26.66 v -13.34 h 2.7 v 13.34 z m 0,-26.67 v -13.33 h 2.7 v 13.33 z m 0,-26.67 v -13.33 h 2.7 v 13.33 z m 0,-26.66 v -13.34 h 2.7 v 13.34 z m 0,-26.67 v -13.33 h 2.7 v 13.33 z m 0,-26.67 v -13.33 h 2.7 v 13.33 z m 0,-26.66 v -7.29 l 0.9,-4.67 1.1,-1.5 2.4,1.04 -1,1.5 -0.7,3.63 v 7.29 z m 12,-19.29 h 13.3 v 2.67 h -13.3 z"
   id="path2752" />

		<line
   fill="none"
   stroke-width="2.66667"
   stroke-linejoin="round"
   stroke="#000000"
   stroke-opacity="1"
   x1="11429.3"
   y1="6182.0098"
   x2="11909.3"
   y2="6182.0098"
   id="line2754" />

		<path
   fill="#000000"
   fill-opacity="1"
   stroke-linejoin="round"
   d="m 11456,6180.67 h 13.3 v 2.67 h -13.3 z m 26.7,0 h 13.3 v 2.67 h -13.3 z m 26.6,0 h 13.4 v 2.67 h -13.4 z m 26.7,0 h 13.3 v 2.67 h -13.3 z m 26.7,0 h 13.3 v 2.67 h -13.3 z m 26.6,0 h 13.4 v 2.67 h -13.4 z m 26.7,0 h 13.3 v 2.67 h -13.3 z m 26.7,0 h 13.3 v 2.67 h -13.3 z m 26.6,0 h 13.4 v 2.67 h -13.4 z m 26.7,0 h 13.3 v 2.67 h -13.3 z m 26.7,0 h 13.3 v 2.67 h -13.3 z m 26.6,0 h 13.4 v 2.67 h -13.4 z m 26.7,0 h 13.3 v 2.67 h -13.3 z m 26.7,0 h 13.3 v 2.67 h -13.3 z m 26.6,0 h 13.4 v 2.67 h -13.4 z m 26.7,0 h 13.3 v 2.67 h -13.3 z m 26.7,0 h 13.3 v 2.67 h -13.3 z m 26.6,0 v 0 2.67 0 z m -480,0 h 13.4 v 2.67 h -13.4 z"
   id="path2756" />

		<rect
   x="11461.3"
   y="5830.71"
   fill="#ffffff"
   fill-opacity="1"
   stroke-width="5.33333"
   stroke-linejoin="round"
   stroke="#00c800"
   stroke-opacity="1"
   width="64"
   height="63.298302"
   id="rect2758" />

		<text
   transform="translate(11466,5874)"
   xml:space="preserve"
   id="text2762"><tspan
   style="font-size:48px;font-family:'メイリオ'"
   letter-spacing="0em"
   fill="#000000"
   fill-opacity="1"
   stroke-width="0.2"
   stroke-linejoin="round"
   id="tspan2760">xy</tspan>		</text>

		<rect
   x="11813.3"
   y="6150.71"
   fill="#ffffff"
   fill-opacity="1"
   stroke-width="5.33333"
   stroke-linejoin="round"
   stroke="#00c800"
   stroke-opacity="1"
   width="66.328102"
   height="63.298302"
   id="rect2764" />

		<text
   transform="translate(11818,6194)"
   xml:space="preserve"
   id="text2768"><tspan
   style="font-size:48px;font-family:'メイリオ'"
   letter-spacing="0em"
   fill="#000000"
   fill-opacity="1"
   stroke-width="0.2"
   stroke-linejoin="round"
   id="tspan2766">xy</tspan>		</text>

		<rect
   x="11557.3"
   y="5926.71"
   fill="#ffffff"
   fill-opacity="1"
   stroke-width="5.33333"
   stroke-linejoin="round"
   stroke="#230fd2"
   stroke-opacity="1"
   width="64"
   height="63.298302"
   id="rect2770" />

		<text
   transform="translate(11575,5972)"
   xml:space="preserve"
   id="text2774"><tspan
   style="font-size:48px;font-family:'メイリオ'"
   letter-spacing="0em"
   fill="#000000"
   fill-opacity="1"
   stroke-width="0.2"
   stroke-linejoin="round"
   id="tspan2772">x</tspan>		</text>

		<rect
   x="11557.3"
   y="6150.0098"
   fill="#ffffff"
   fill-opacity="1"
   stroke-width="5.33333"
   stroke-linejoin="round"
   stroke="#230fd2"
   stroke-opacity="1"
   width="64"
   height="63.298801"
   id="rect2776" />

		<text
   transform="translate(11574,6196)"
   xml:space="preserve"
   id="text2780"><tspan
   style="font-size:48px;font-family:'メイリオ'"
   letter-spacing="0em"
   fill="#000000"
   fill-opacity="1"
   stroke-width="0.2"
   stroke-linejoin="round"
   id="tspan2778">x</tspan>		</text>

		<line
   fill="none"
   stroke-width="5.33333"
   stroke-linejoin="round"
   stroke="#000000"
   stroke-opacity="1"
   x1="11589.3"
   y1="5990.0098"
   x2="11589.3"
   y2="6150.0098"
   id="line2782" />

		<rect
   x="12005.3"
   y="5734.0098"
   fill="#ffffff"
   fill-opacity="1"
   stroke-width="2.66667"
   stroke-linejoin="round"
   stroke="#000000"
   stroke-opacity="1"
   width="544"
   height="544"
   id="rect2784" />

		<path
   fill="#ffffff"
   fill-opacity="1"
   stroke-width="2.66667"
   stroke-linejoin="round"
   stroke="#000000"
   stroke-opacity="1"
   d="m 12048,5798.01 h 202.7 c 5.9,0 10.6,4.77 10.6,10.66 v 202.67 c 0,5.89 -4.7,10.67 -10.6,10.67 H 12048 c -5.9,0 -10.7,-4.78 -10.7,-10.67 v -202.67 c 0,-5.89 4.8,-10.66 10.7,-10.66 z"
   id="path2786" />

		<path
   fill="#000000"
   fill-opacity="1"
   stroke-linejoin="round"
   d="m 12074.7,5796.67 h 13.3 v 2.67 h -13.3 z m 26.6,0 h 13.4 v 2.67 h -13.4 z m 26.7,0 h 13.3 v 2.67 h -13.3 z m 26.7,0 h 13.3 v 2.67 h -13.3 z m 26.6,0 h 13.4 v 2.67 h -13.4 z m 26.7,0 h 13.3 v 2.67 h -13.3 z m 26.7,0 h 13.3 v 2.67 h -13.3 z m 25.8,5.46 1.2,1.87 1,4.67 v 7.35 h -2.7 v -7.35 l -0.7,-3.63 -0.7,-1.02 z m 2.2,27.23 v 13.33 h -2.7 v -13.33 z m 0,26.66 v 13.34 h -2.7 v -13.34 z m 0,26.67 v 13.33 h -2.7 v -13.33 z m 0,26.67 v 13.33 h -2.7 v -13.33 z m 0,26.66 v 13.34 h -2.7 v -13.34 z m 0,26.67 v 13.33 h -2.7 v -13.33 z m 0,26.67 v 13.33 h -2.7 v -13.33 z m -1.2,27.02 -2.3,3.45 -3.9,2.57 -4.6,0.94 h -1.4 v -2.67 h 1.4 l 3.6,-0.73 3,-2 1.7,-2.6 z m -25.5,6.96 h -13.4 v -2.67 h 13.4 z m -26.7,0 h -13.3 v -2.67 h 13.3 z m -26.7,0 h -13.3 v -2.67 h 13.3 z m -26.6,0 h -13.4 v -2.67 h 13.4 z m -26.7,0 h -13.3 v -2.67 h 13.3 z m -26.7,0 h -13.3 v -2.67 h 13.3 z m -26.6,0 h -13.4 v -2.67 h 13.4 z m -26.7,0 h -1.3 l -4.7,-0.94 -3.8,-2.57 -2.1,-3.08 1.9,-1.88 2.1,3.07 3,2 3.6,0.73 h 1.3 z m -13.3,-20.72 v -13.33 h 2.7 v 13.33 z m 0,-26.66 v -13.34 h 2.7 v 13.34 z m 0,-26.67 v -13.33 h 2.7 v 13.33 z m 0,-26.67 v -13.33 h 2.7 v 13.33 z m 0,-26.66 v -13.34 h 2.7 v 13.34 z m 0,-26.67 v -13.33 h 2.7 v 13.33 z m 0,-26.67 v -13.33 h 2.7 v 13.33 z m 0,-26.66 v -7.29 l 0.9,-4.67 1.1,-1.5 2.4,1.04 -1,1.5 -0.7,3.63 v 7.29 z m 12,-19.29 h 13.3 v 2.67 h -13.3 z"
   id="path2788" />

		<line
   fill="none"
   stroke-width="2.66667"
   stroke-linejoin="round"
   stroke="#000000"
   stroke-opacity="1"
   x1="12048.3"
   y1="5862.0098"
   x2="12517.3"
   y2="5862.0098"
   id="line2790" />

		<path
   fill="#000000"
   fill-opacity="1"
   stroke-linejoin="round"
   d="m 12075,5860.67 h 13.3 v 2.67 h -13.3 z m 26.7,0 h 13.3 v 2.67 h -13.3 z m 26.6,0 h 13.4 v 2.67 h -13.4 z m 26.7,0 h 13.3 v 2.67 h -13.3 z m 26.7,0 h 13.3 v 2.67 h -13.3 z m 26.6,0 h 13.4 v 2.67 h -13.4 z m 26.7,0 h 13.3 v 2.67 h -13.3 z m 26.7,0 h 13.3 v 2.67 h -13.3 z m 26.6,0 h 13.4 v 2.67 h -13.4 z m 26.7,0 h 13.3 v 2.67 h -13.3 z m 26.7,0 h 13.3 v 2.67 h -13.3 z m 26.6,0 h 13.4 v 2.67 h -13.4 z m 26.7,0 h 13.3 v 2.67 h -13.3 z m 26.7,0 h 13.3 v 2.67 h -13.3 z m 26.6,0 h 13.4 v 2.67 h -13.4 z m 26.7,0 h 13.3 v 2.67 h -13.3 z m 26.7,0 h 13.3 v 2.67 h -13.3 z m -453.4,0 h 13.4 v 2.67 h -13.4 z"
   id="path2792" />

		<line
   fill="none"
   stroke-width="2.66667"
   stroke-linejoin="round"
   stroke="#000000"
   stroke-opacity="1"
   x1="12453.3"
   y1="5766.02"
   x2="12453.3"
   y2="6235.0098"
   id="line2794" />

		<path
   fill="#000000"
   fill-opacity="1"
   stroke-linejoin="round"
   d="m 12454.7,5792.68 v 13.34 h -2.7 v -13.34 z m 0,26.67 v 13.33 h -2.7 v -13.33 z m 0,26.67 v 13.33 h -2.7 v -13.33 z m 0,26.66 v 13.34 h -2.7 v -13.34 z m 0,26.67 v 13.33 h -2.7 v -13.33 z m 0,26.67 v 13.33 h -2.7 v -13.33 z m 0,26.66 v 13.34 h -2.7 v -13.34 z m 0,26.67 v 13.33 h -2.7 v -13.33 z m 0,26.67 v 13.33 h -2.7 v -13.33 z m 0,26.66 v 13.34 h -2.7 v -13.34 z m 0,26.67 v 13.33 h -2.7 v -13.33 z m 0,26.67 v 13.33 h -2.7 v -13.33 z m 0,26.66 v 13.34 h -2.7 v -13.34 z m 0,26.67 v 13.33 h -2.7 v -13.33 z m 0,26.67 v 13.33 h -2.7 v -13.33 z m 0,26.66 v 13.34 h -2.7 v -13.34 z m 0,26.67 v 13.33 h -2.7 v -13.33 z m 0,-453.33 v 13.33 h -2.7 v -13.33 z"
   id="path2796" />

		<line
   fill="none"
   stroke-width="2.66667"
   stroke-linejoin="round"
   stroke="#000000"
   stroke-opacity="1"
   x1="12037.3"
   y1="6182.0098"
   x2="12517.3"
   y2="6182.0098"
   id="line2798" />

		<path
   fill="#000000"
   fill-opacity="1"
   stroke-linejoin="round"
   d="m 12064,6180.67 h 13.3 v 2.67 h -13.3 z m 26.7,0 h 13.3 v 2.67 h -13.3 z m 26.6,0 h 13.4 v 2.67 h -13.4 z m 26.7,0 h 13.3 v 2.67 h -13.3 z m 26.7,0 h 13.3 v 2.67 h -13.3 z m 26.6,0 h 13.4 v 2.67 h -13.4 z m 26.7,0 h 13.3 v 2.67 h -13.3 z m 26.7,0 h 13.3 v 2.67 h -13.3 z m 26.6,0 h 13.4 v 2.67 h -13.4 z m 26.7,0 h 13.3 v 2.67 h -13.3 z m 26.7,0 h 13.3 v 2.67 h -13.3 z m 26.6,0 h 13.4 v 2.67 h -13.4 z m 26.7,0 h 13.3 v 2.67 h -13.3 z m 26.7,0 h 13.3 v 2.67 h -13.3 z m 26.6,0 h 13.4 v 2.67 h -13.4 z m 26.7,0 h 13.3 v 2.67 h -13.3 z m 26.7,0 h 13.3 v 2.67 h -13.3 z m 26.6,0 v 0 2.67 0 z m -480,0 h 13.4 v 2.67 h -13.4 z"
   id="path2800" />

		<rect
   x="12069.3"
   y="5830.71"
   fill="#ffffff"
   fill-opacity="1"
   stroke-width="5.33333"
   stroke-linejoin="round"
   stroke="#00c800"
   stroke-opacity="1"
   width="64"
   height="63.298302"
   id="rect2802" />

		<text
   transform="translate(12074,5874)"
   xml:space="preserve"
   id="text2806"><tspan
   style="font-size:48px;font-family:'メイリオ'"
   letter-spacing="0em"
   fill="#000000"
   fill-opacity="1"
   stroke-width="0.2"
   stroke-linejoin="round"
   id="tspan2804">xy</tspan>		</text>

		<rect
   x="12421.3"
   y="6150.71"
   fill="#ffffff"
   fill-opacity="1"
   stroke-width="5.33333"
   stroke-linejoin="round"
   stroke="#00c800"
   stroke-opacity="1"
   width="66.328102"
   height="63.298302"
   id="rect2808" />

		<text
   transform="translate(12426,6194)"
   xml:space="preserve"
   id="text2812"><tspan
   style="font-size:48px;font-family:'メイリオ'"
   letter-spacing="0em"
   fill="#000000"
   fill-opacity="1"
   stroke-width="0.2"
   stroke-linejoin="round"
   id="tspan2810">xy</tspan>		</text>

		<rect
   x="12165.3"
   y="5926.71"
   fill="#ffffff"
   fill-opacity="1"
   stroke-width="5.33333"
   stroke-linejoin="round"
   stroke="#230fd2"
   stroke-opacity="1"
   width="63.999001"
   height="63.298302"
   id="rect2814" />

		<text
   transform="translate(12183,5972)"
   xml:space="preserve"
   id="text2818"> <tspan
   style="font-size:48px;font-family:'メイリオ'"
   letter-spacing="0em"
   fill="#000000"
   fill-opacity="1"
   stroke-width="0.2"
   stroke-linejoin="round"
   id="tspan2816">x</tspan>		</text>

		<rect
   x="12422.3"
   y="5830.71"
   fill="#ffffff"
   fill-opacity="1"
   stroke-width="5.33333"
   stroke-linejoin="round"
   stroke="#ff7d00"
   stroke-opacity="1"
   width="63.999001"
   height="63.298302"
   id="rect2820" />

		<text
   transform="translate(12439,5875)"
   xml:space="preserve"
   id="text2824"><tspan
   style="font-size:48px;font-family:'メイリオ'"
   letter-spacing="0em"
   fill="#000000"
   fill-opacity="1"
   stroke-width="0.2"
   stroke-linejoin="round"
   id="tspan2822">y</tspan>		</text>

		<rect
   x="12165.3"
   y="6150.0098"
   fill="#ffffff"
   fill-opacity="1"
   stroke-width="5.33333"
   stroke-linejoin="round"
   stroke="#230fd2"
   stroke-opacity="1"
   width="63.999001"
   height="63.298801"
   id="rect2826" />

		<text
   transform="translate(12182,6196)"
   xml:space="preserve"
   id="text2830"> <tspan
   style="font-size:48px;font-family:'メイリオ'"
   letter-spacing="0em"
   fill="#000000"
   fill-opacity="1"
   stroke-width="0.2"
   stroke-linejoin="round"
   id="tspan2828">x</tspan>		</text>

		<line
   fill="none"
   stroke-width="5.33333"
   stroke-linejoin="round"
   stroke="#000000"
   stroke-opacity="1"
   x1="12197.3"
   y1="5990.0098"
   x2="12197.3"
   y2="6150.0098"
   id="line2832" />

	</g>
    <path
       fill="#ffffff"
       fill-opacity="1"
       stroke-width="0.461779"
       stroke-linejoin="round"
       stroke="#0096ff"
       stroke-opacity="1"
       d="m 84.589392,87.919113 c 4.623553,7.804629 5.541338,19.349657 0,27.706687"
       id="path2836" />
    <path
       fill="#ffffff"
       fill-opacity="1"
       stroke-width="0.461779"
       stroke-linejoin="round"
       stroke="#0096ff"
       stroke-opacity="1"
       d="m 71.203594,65.708736 c 9.004675,2.77067 10.85756,9.927654 10.85756,9.927654"
       id="path2838" />
    <path
       fill="#ffffff"
       fill-opacity="1"
       stroke-width="0.461779"
       stroke-linejoin="round"
       stroke="#0096ff"
       stroke-opacity="1"
       d="m 87.602494,117.88909 c 16.624016,-8.08169 37.958166,1.6243 32.312926,0.23031"
       id="path2840" />
    <text
       xml:space="preserve"
       id="text2844"
       x="74.562988"
       y="68.003159"
       style="font-size:2.078px;stroke-width:0.173167">		 <tspan
   style="font-size:5.54134px;font-family:'メイリオ'"
   letter-spacing="0em"
   fill="#000000"
   fill-opacity="1"
   stroke-width="0.0346334"
   stroke-linejoin="round"
   id="tspan2842">①</tspan>	</text>
    <text
       xml:space="preserve"
       id="text2848"
       x="87.896835"
       y="104.02186"
       style="font-size:2.078px;stroke-width:0.173167">		 <tspan
   style="font-size:5.54134px;font-family:'メイリオ'"
   letter-spacing="0em"
   fill="#000000"
   fill-opacity="1"
   stroke-width="0.0346334"
   stroke-linejoin="round"
   id="tspan2846">②</tspan>	</text>
    <text
       xml:space="preserve"
       id="text2852"
       x="101.40384"
       y="114.41187"
       style="font-size:2.078px;stroke-width:0.173167">		 <tspan
   style="font-size:5.54134px;font-family:'メイリオ'"
   letter-spacing="0em"
   fill="#000000"
   fill-opacity="1"
   stroke-width="0.0346334"
   stroke-linejoin="round"
   id="tspan2850">③</tspan>	</text>
    <text
       xml:space="preserve"
       transform="scale(0.26458333)"
       id="text7934"
       style="fill:#ffffff;-inkscape-font-specification:'MS Gothic, Normal';font-family:'MS Gothic';font-size:32.00001144px;paint-order:fill markers stroke;stroke-linecap:square;stroke-width:3.02362205;stroke-dasharray:6.04724409, 6.04724409;stroke:#ffffff;white-space:pre;shape-inside:url(#rect7936)"
       inkscape:export-filename="..\img43\img43a.png"
       inkscape:export-xdpi="96"
       inkscape:export-ydpi="96" />
  </g>
</svg>
