<?xml version="1.0" encoding="UTF-8" standalone="no"?>
<!-- Created with Inkscape (http://www.inkscape.org/) -->

<svg
   width="297mm"
   height="210mm"
   viewBox="0 0 297 210"
   version="1.1"
   id="svg4359"
   inkscape:version="1.2.2 (732a01da63, 2022-12-09)"
   sodipodi:docname="image34.svg"
   xmlns:inkscape="http://www.inkscape.org/namespaces/inkscape"
   xmlns:sodipodi="http://sodipodi.sourceforge.net/DTD/sodipodi-0.dtd"
   xmlns="http://www.w3.org/2000/svg"
   xmlns:svg="http://www.w3.org/2000/svg">
  <sodipodi:namedview
     id="namedview4361"
     pagecolor="#ffffff"
     bordercolor="#000000"
     borderopacity="0.25"
     inkscape:showpageshadow="2"
     inkscape:pageopacity="0.0"
     inkscape:pagecheckerboard="0"
     inkscape:deskcolor="#d1d1d1"
     inkscape:document-units="mm"
     showgrid="true"
     inkscape:zoom="1.2938725"
     inkscape:cx="551.44538"
     inkscape:cy="506.61871"
     inkscape:window-width="2280"
     inkscape:window-height="1482"
     inkscape:window-x="1213"
     inkscape:window-y="155"
     inkscape:window-maximized="0"
     inkscape:current-layer="layer1">
    <inkscape:grid
       type="xygrid"
       id="grid5823" />
  </sodipodi:namedview>
  <defs
     id="defs4356" />
  <g
     inkscape:label="Layer 1"
     inkscape:groupmode="layer"
     id="layer1">
    <g
       id="g1994"
       inkscape:export-filename="img35a.png"
       inkscape:export-xdpi="96"
       inkscape:export-ydpi="96">
      <rect
         x="92.604164"
         y="92.604164"
         fill="#ffffff"
         fill-opacity="1"
         stroke-width="0.256922"
         stroke-linejoin="round"
         stroke="#000000"
         stroke-opacity="1"
         width="55.286903"
         height="55.704811"
         id="rect1950" />
      <path
         fill="#ffffff"
         fill-opacity="1"
         stroke-width="0.255318"
         stroke-linejoin="round"
         stroke="#000000"
         stroke-opacity="1"
         d="m 129.60374,95.170747 c 6.76916,0 12.25533,5.486843 12.25533,12.255313 0,6.7684 -5.48617,12.25534 -12.25533,12.25534 -6.76915,0 -12.25533,-5.48694 -12.25533,-12.25534 0,-6.76847 5.48618,-12.255313 12.25533,-12.255313 z"
         id="path1952" />
      <path
         fill="#000000"
         fill-opacity="1"
         stroke-linejoin="round"
         d="m 94.586873,111.125 h 0.765943 v 0.25533 h -0.765943 z m 1.531905,0 h 0.765953 v 0.25533 h -0.765953 z m 1.531914,0 h 0.765962 v 0.25533 h -0.765962 z m 1.531924,0 h 0.765952 v 0.25533 h -0.765952 z m 1.531914,0 h 0.76598 v 0.25533 h -0.76598 z m 1.53192,0 h 0.76596 v 0.25533 h -0.76596 z m 1.53191,0 h 0.76596 v 0.25533 h -0.76596 z m 1.53192,0 h 0.76596 v 0.25533 h -0.76596 z m 1.53191,0 h 0.76596 v 0.25533 h -0.76596 z m 1.53192,0 h 0.76598 v 0.25533 h -0.76598 z m 1.53192,0 h 0.76596 v 0.25533 h -0.76596 z m 1.53191,0 h 0.76596 v 0.25533 h -0.76596 z m 1.53192,0 h 0.76596 v 0.25533 h -0.76596 z m 1.53191,0 h 0.76596 v 0.25533 h -0.76596 z m 1.53191,0 h 0.76598 v 0.25533 h -0.76598 z m 1.53193,0 h 0.76596 v 0.25533 h -0.76596 z m 1.53191,0 h 0.76596 v 0.25533 h -0.76596 z m 1.53192,0 h 0.76596 v 0.25533 h -0.76596 z m 1.53191,0 h 0.76596 v 0.25533 h -0.76596 z m 1.53192,0 h 0.76596 v 0.25533 h -0.76596 z m 1.53192,0 h 0.76596 v 0.25533 h -0.76596 z m 1.53191,0 h 0.76596 v 0.25533 h -0.76596 z m 1.53192,0 h 0.76596 v 0.25533 h -0.76596 z m 1.53192,0 h 0.76595 v 0.25533 h -0.76595 z m 1.53191,0 h 0.76596 v 0.25533 h -0.76596 z m 1.53192,0 h 0.76595 v 0.25533 h -0.76595 z m 1.53191,0 h 0.76596 v 0.25533 h -0.76596 z m 1.53193,0 h 0.76595 v 0.25533 h -0.76595 z m 1.53191,0 h 0.76595 v 0.25533 h -0.76595 z m 1.53191,0 h 0.76596 v 0.25533 h -0.76596 z m 1.53192,0 h 0.76595 v 0.25533 h -0.76595 z m 1.53191,0 h 0.76595 v 0.25533 h -0.76595 z m 1.53192,0 h 0.76596 v 0.25533 h -0.76596 z m 1.53192,0 h 0.76595 v 0.25533 h -0.76595 z m 1.53191,0 h 0.76596 v 0.25533 h -0.76596 z m 1.53192,0 v 0.25533 z m -55.148975,0 h 0.765947 v 0.25533 h -0.765947 z"
         id="path1956"
         style="stroke-width:0.0957443" />
      <line
         fill="none"
         stroke-width="0.255318"
         stroke-linejoin="round"
         stroke="#000000"
         stroke-opacity="1"
         x1="108.06125"
         y1="93.160088"
         x2="108.06125"
         y2="148.3091"
         id="line1958" />
      <path
         fill="#000000"
         fill-opacity="1"
         stroke-linejoin="round"
         d="m 94.759727,130.175 h 0.765943 v 0.25534 h -0.765943 z m 1.531905,0 h 0.765953 v 0.25534 h -0.765953 z m 1.531914,0 h 0.765962 v 0.25534 h -0.765962 z m 1.531924,0 h 0.76596 v 0.25534 h -0.76596 z m 1.53192,0 h 0.76598 v 0.25534 h -0.76598 z m 1.53192,0 h 0.76596 v 0.25534 h -0.76596 z m 1.53191,0 h 0.76596 v 0.25534 h -0.76596 z m 1.53192,0 h 0.76596 v 0.25534 h -0.76596 z m 1.53191,0 h 0.76596 v 0.25534 h -0.76596 z m 1.53192,0 h 0.76598 v 0.25534 h -0.76598 z m 1.53192,0 h 0.76596 v 0.25534 h -0.76596 z m 1.53191,0 h 0.76596 v 0.25534 h -0.76596 z m 1.53192,0 h 0.76596 v 0.25534 h -0.76596 z m 1.53191,0 h 0.76596 v 0.25534 h -0.76596 z m 1.53191,0 h 0.76598 v 0.25534 h -0.76598 z m 1.53193,0 h 0.76596 v 0.25534 h -0.76596 z m 1.53191,0 h 0.76596 v 0.25534 h -0.76596 z m 1.53192,0 h 0.76596 v 0.25534 h -0.76596 z m 1.53191,0 h 0.76596 v 0.25534 h -0.76596 z m 1.53192,0 h 0.76596 v 0.25534 h -0.76596 z m 1.53192,0 h 0.76596 v 0.25534 h -0.76596 z m 1.53191,0 h 0.76596 v 0.25534 h -0.76596 z m 1.53192,0 h 0.76596 v 0.25534 h -0.76596 z m 1.53192,0 h 0.76595 v 0.25534 h -0.76595 z m 1.53191,0 h 0.76596 v 0.25534 h -0.76596 z m 1.53192,0 h 0.76595 v 0.25534 h -0.76595 z m 1.53191,0 h 0.76596 v 0.25534 h -0.76596 z m 1.53193,0 h 0.76595 v 0.25534 h -0.76595 z m 1.53191,0 h 0.76595 v 0.25534 h -0.76595 z m 1.53191,0 h 0.76596 v 0.25534 h -0.76596 z m 1.53192,0 h 0.76595 v 0.25534 h -0.76595 z m 1.53191,0 h 0.76595 v 0.25534 h -0.76595 z m 1.53192,0 h 0.76596 v 0.25534 h -0.76596 z m 1.53192,0 h 0.76595 v 0.25534 h -0.76595 z m 1.53191,0 h 0.76596 v 0.25534 h -0.76596 z m 1.53192,0 v 0.25534 z m -55.148981,0 h 0.765947 v 0.25534 h -0.765947 z"
         id="path1962"
         style="stroke-width:0.0957443" />
      <text
         xml:space="preserve"
         id="text1966"
         x="87.537933"
         y="112.11678"
         style="font-size:1.14893px;stroke-width:0.0957443">		 <tspan
   style="font-size:2.55318px;font-family:'メイリオ'"
   letter-spacing="0em"
   fill="#000000"
   fill-opacity="1"
   stroke-width="0.0191489"
   stroke-linejoin="round"
   id="tspan1964">r0</tspan>	</text>
      <text
         xml:space="preserve"
         id="text1970"
         x="87.537933"
         y="130.49982"
         style="font-size:1.14893px;stroke-width:0.0957443">		 <tspan
   style="font-size:2.55318px;font-family:'メイリオ'"
   letter-spacing="0em"
   fill="#000000"
   fill-opacity="1"
   stroke-width="0.0191489"
   stroke-linejoin="round"
   id="tspan1968">r1</tspan>	</text>
      <text
         xml:space="preserve"
         id="text1974"
         x="104.70422"
         y="91.971069"
         style="font-size:1.14893px;stroke-width:0.0957443">		 <tspan
   style="font-size:2.55318px;font-family:'メイリオ'"
   letter-spacing="0em"
   fill="#000000"
   fill-opacity="1"
   stroke-width="0.0191489"
   stroke-linejoin="round"
   id="tspan1972">c0</tspan>	</text>
      <text
         xml:space="preserve"
         id="text1978"
         x="120.02338"
         y="91.971069"
         style="font-size:1.14893px;stroke-width:0.0957443">		 <tspan
   style="font-size:2.55318px;font-family:'メイリオ'"
   letter-spacing="0em"
   fill="#000000"
   fill-opacity="1"
   stroke-width="0.0191489"
   stroke-linejoin="round"
   id="tspan1976">c1</tspan>	</text>
      <text
         xml:space="preserve"
         id="text1982"
         x="133.20819"
         y="92.060844"
         style="font-size:1.14893px;stroke-width:0.0957443">		 <tspan
   style="font-size:2.55318px;font-family:'メイリオ'"
   letter-spacing="0em"
   fill="#000000"
   fill-opacity="1"
   stroke-width="0.0191489"
   stroke-linejoin="round"
   id="tspan1980">cx</tspan>	</text>
      <line
         fill="none"
         stroke-width="0.255318"
         stroke-linejoin="round"
         stroke="#000000"
         stroke-opacity="1"
         x1="123.38041"
         y1="92.734314"
         x2="123.38041"
         y2="147.8833"
         id="line1984" />
      <path
         fill="#000000"
         fill-opacity="1"
         stroke-linejoin="round"
         d="m 135.98976,94.413998 v 0.76595 h -0.25851 v -0.76595 z m 0,1.531913 v 0.765964 h -0.25851 v -0.765964 z m 0,1.531914 v 0.765962 h -0.25851 v -0.765962 z m 0,1.531914 v 0.765958 h -0.25851 v -0.765958 z m 0,1.531931 v 0.76595 h -0.25851 v -0.76595 z m 0,1.53191 v 0.76595 h -0.25851 v -0.76595 z m 0,1.53192 v 0.76596 h -0.25851 v -0.76596 z m 0,1.53191 v 0.76596 h -0.25851 v -0.76596 z m 0,1.53191 v 0.76597 h -0.25851 v -0.76597 z m 0,1.53193 v 0.76595 h -0.25851 v -0.76595 z m 0,1.53191 v 0.76595 h -0.25851 v -0.76595 z m 0,1.53192 v 0.76596 h -0.25851 v -0.76596 z m 0,1.53191 v 0.76596 h -0.25851 v -0.76596 z m 0,1.53191 v 0.76597 h -0.25851 v -0.76597 z m 0,1.53193 v 0.76595 h -0.25851 v -0.76595 z m 0,1.53191 h -0.25851 z m 0,-24.510655 v 0.76595 h -0.25851 v -0.76595 z"
         id="path1988"
         style="stroke-width:0.0957443" />
      <path
         fill="#ffffff"
         fill-opacity="1"
         stroke-width="0.0191489"
         stroke-linejoin="round"
         d="m 108.06117,108.47917 c 1.69469,0 3.06383,1.37174 3.06383,3.06382 0,1.69211 -1.36914,3.06385 -3.06383,3.06385 -1.68511,0 -3.06383,-1.37174 -3.06383,-3.06385 0,-1.69208 1.37872,-3.06382 3.06383,-3.06382 z"
         id="path1990" />
      <path
         fill="#ffffff"
         fill-opacity="1"
         stroke-width="0.0191489"
         stroke-linejoin="round"
         d="m 108.06117,126.86226 c 1.69469,0 3.06383,1.37164 3.06383,3.06382 0,1.69211 -1.36914,3.06384 -3.06383,3.06384 -1.68511,0 -3.06383,-1.37173 -3.06383,-3.06384 0,-1.69218 1.37872,-3.06382 3.06383,-3.06382 z"
         id="path1992" />
      <path
         fill="#ffffff"
         fill-opacity="1"
         stroke-width="0.0191489"
         stroke-linejoin="round"
         d="m 123.38033,108.47927 c 1.69469,0 3.06383,1.37164 3.06383,3.06383 0,1.69208 -1.36914,3.06382 -3.06383,3.06382 -1.68511,0 -3.06383,-1.37174 -3.06383,-3.06382 0,-1.69219 1.37872,-3.06383 3.06383,-3.06383 z"
         id="path1994" />
      <path
         fill="#ffffff"
         fill-opacity="1"
         stroke-width="0.0191489"
         stroke-linejoin="round"
         d="m 123.38033,126.86226 c 1.69469,0 3.06383,1.37164 3.06383,3.06382 0,1.69211 -1.36914,3.06384 -3.06383,3.06384 -1.68511,0 -3.06383,-1.37173 -3.06383,-3.06384 0,-1.69218 1.37872,-3.06382 3.06383,-3.06382 z"
         id="path1996" />
      <path
         fill="#ffffff"
         fill-opacity="1"
         stroke-width="0.0191489"
         stroke-linejoin="round"
         d="m 135.63567,108.47927 c 1.69468,0 3.06382,1.37164 3.06382,3.06383 0,1.69208 -1.36914,3.06382 -3.06382,3.06382 -1.68512,0 -3.06384,-1.37174 -3.06384,-3.06382 0,-1.69219 1.37872,-3.06383 3.06384,-3.06383 z"
         id="path1998" />
      <text
         xml:space="preserve"
         id="text2002"
         x="106.88352"
         y="113.07424"
         style="font-size:1.14893px;stroke-width:0.0957443"><tspan
   style="font-size:3.82979px;font-family:'メイリオ'"
   letter-spacing="0em"
   fill="#000000"
   fill-opacity="1"
   stroke-width="0.0191489"
   stroke-linejoin="round"
   id="tspan2000">X</tspan>	</text>
      <text
         xml:space="preserve"
         id="text2006"
         x="122.20267"
         y="113.07424"
         style="font-size:1.14893px;stroke-width:0.0957443"><tspan
   style="font-size:3.82979px;font-family:'メイリオ'"
   letter-spacing="0em"
   fill="#000000"
   fill-opacity="1"
   stroke-width="0.0191489"
   stroke-linejoin="round"
   id="tspan2004">X</tspan>	</text>
      <path
         fill="#ffffff"
         fill-opacity="1"
         stroke-width="0.255318"
         stroke-linejoin="round"
         stroke="#000000"
         stroke-opacity="1"
         d="m 135.63567,108.47927 c 1.69468,0 3.06382,1.37164 3.06382,3.06383 0,1.69208 -1.36914,3.06382 -3.06382,3.06382 -1.68512,0 -3.06384,-1.37174 -3.06384,-3.06382 0,-1.69219 1.37872,-3.06383 3.06384,-3.06383 z"
         id="path2008" />
      <text
         xml:space="preserve"
         id="text2012"
         x="134.45799"
         y="113.07424"
         style="font-size:1.14893px;stroke-width:0.0957443"><tspan
   style="font-size:3.82979px;font-family:'メイリオ'"
   letter-spacing="0em"
   fill="#000000"
   fill-opacity="1"
   stroke-width="0.0191489"
   stroke-linejoin="round"
   id="tspan2010">X</tspan>	</text>
      <text
         xml:space="preserve"
         id="text2016"
         x="106.88352"
         y="131.45723"
         style="font-size:1.14893px;stroke-width:0.0957443"><tspan
   style="font-size:3.82979px;font-family:'メイリオ'"
   letter-spacing="0em"
   fill="#000000"
   fill-opacity="1"
   stroke-width="0.0191489"
   stroke-linejoin="round"
   id="tspan2014">X</tspan>	</text>
      <text
         xml:space="preserve"
         id="text2020"
         x="122.20267"
         y="131.45723"
         style="font-size:1.14893px;stroke-width:0.0957443"><tspan
   style="font-size:3.82979px;font-family:'メイリオ'"
   letter-spacing="0em"
   fill="#000000"
   fill-opacity="1"
   stroke-width="0.0191489"
   stroke-linejoin="round"
   id="tspan2018">X</tspan>	</text>
      <rect
         x="154.15208"
         y="92.461754"
         fill="#ffffff"
         fill-opacity="1"
         stroke-width="0.255318"
         stroke-linejoin="round"
         stroke="#000000"
         stroke-opacity="1"
         width="55.148975"
         height="55.148975"
         id="rect2022" />
      <path
         fill="#ffffff"
         fill-opacity="1"
         stroke-width="0.255318"
         stroke-linejoin="round"
         stroke="#000000"
         stroke-opacity="1"
         d="m 191.01375,94.472497 c 6.76916,0 12.25533,5.48684 12.25533,12.255313 0,6.7684 -5.48617,12.25534 -12.25533,12.25534 -6.76916,0 -12.25533,-5.48694 -12.25533,-12.25534 0,-6.768473 5.48617,-12.255313 12.25533,-12.255313 z"
         id="path2024" />
      <path
         fill="#000000"
         fill-opacity="1"
         stroke-linejoin="round"
         d="m 156.58772,110.90862 h 0.76596 v 0.25533 h -0.76596 z m 1.53194,0 h 0.76594 v 0.25533 h -0.76594 z m 1.53191,0 h 0.76594 v 0.25533 h -0.76594 z m 1.5319,0 h 0.76596 v 0.25533 h -0.76596 z m 1.53192,0 h 0.76595 v 0.25533 h -0.76595 z m 1.53191,0 h 0.76596 v 0.25533 h -0.76596 z m 1.53193,0 h 0.76595 v 0.25533 h -0.76595 z m 1.53192,0 h 0.76594 v 0.25533 h -0.76594 z m 1.5319,0 h 0.76596 v 0.25533 h -0.76596 z m 1.53192,0 h 0.76595 v 0.25533 h -0.76595 z m 1.53191,0 h 0.76596 v 0.25533 h -0.76596 z m 1.53192,0 h 0.76596 v 0.25533 h -0.76596 z m 1.53193,0 h 0.76594 v 0.25533 h -0.76594 z m 1.5319,0 h 0.76596 v 0.25533 h -0.76596 z m 1.53192,0 h 0.76597 v 0.25533 h -0.76597 z m 1.53191,0 h 0.76596 v 0.25533 h -0.76596 z m 1.53192,0 h 0.76596 v 0.25533 h -0.76596 z m 1.53191,0 h 0.76596 v 0.25533 h -0.76596 z m 1.53192,0 h 0.76597 v 0.25533 h -0.76597 z m 1.53192,0 h 0.76597 v 0.25533 h -0.76597 z m 1.53191,0 h 0.76596 v 0.25533 h -0.76596 z m 1.53192,0 h 0.76596 v 0.25533 h -0.76596 z m 1.53191,0 h 0.76596 v 0.25533 h -0.76596 z m 1.53191,0 h 0.76598 v 0.25533 h -0.76598 z m 1.53193,0 h 0.76597 v 0.25533 h -0.76597 z m 1.53191,0 h 0.76596 v 0.25533 h -0.76596 z m 1.53192,0 h 0.76596 v 0.25533 h -0.76596 z m 1.53191,0 h 0.76596 v 0.25533 h -0.76596 z m 1.53192,0 h 0.76596 v 0.25533 h -0.76596 z m 1.53192,0 h 0.76597 v 0.25533 h -0.76597 z m 1.53191,0 h 0.76596 v 0.25533 h -0.76596 z m 1.53192,0 h 0.76596 v 0.25533 h -0.76596 z m 1.53193,0 h 0.76594 v 0.25533 h -0.76594 z m 1.5319,0 h 0.76596 v 0.25533 h -0.76596 z m 1.53192,0 h 0.76595 v 0.25533 h -0.76595 z m 1.53191,0 v 0.25533 z m -55.14897,0 h 0.76595 v 0.25533 h -0.76595 z"
         id="path2028"
         style="stroke-width:0.0957443" />
      <line
         fill="none"
         stroke-width="0.255318"
         stroke-linejoin="round"
         stroke="#000000"
         stroke-opacity="1"
         x1="169.47125"
         y1="92.461838"
         x2="169.47125"
         y2="147.61084"
         id="line2030" />
      <path
         fill="#000000"
         fill-opacity="1"
         stroke-linejoin="round"
         d="m 155.2648,129.55711 h 0.76596 v 0.25534 h -0.76596 z m 1.53194,0 h 0.76594 v 0.25534 h -0.76594 z m 1.53191,0 h 0.76594 v 0.25534 h -0.76594 z m 1.5319,0 h 0.76596 v 0.25534 h -0.76596 z m 1.53192,0 h 0.76595 v 0.25534 h -0.76595 z m 1.53191,0 h 0.76596 v 0.25534 h -0.76596 z m 1.53193,0 h 0.76595 v 0.25534 h -0.76595 z m 1.53192,0 h 0.76594 v 0.25534 h -0.76594 z m 1.5319,0 h 0.76596 v 0.25534 h -0.76596 z m 1.53192,0 h 0.76595 v 0.25534 h -0.76595 z m 1.53191,0 h 0.76596 v 0.25534 h -0.76596 z m 1.53192,0 h 0.76596 v 0.25534 h -0.76596 z m 1.53193,0 h 0.76594 v 0.25534 h -0.76594 z m 1.5319,0 h 0.76596 v 0.25534 h -0.76596 z m 1.53192,0 h 0.76597 v 0.25534 h -0.76597 z m 1.53191,0 h 0.76596 v 0.25534 h -0.76596 z m 1.53192,0 h 0.76596 v 0.25534 h -0.76596 z m 1.53191,0 h 0.76596 v 0.25534 h -0.76596 z m 1.53192,0 h 0.76597 v 0.25534 h -0.76597 z m 1.53192,0 h 0.76597 v 0.25534 h -0.76597 z m 1.53191,0 h 0.76596 v 0.25534 h -0.76596 z m 1.53192,0 h 0.76596 v 0.25534 h -0.76596 z m 1.53191,0 h 0.76596 v 0.25534 h -0.76596 z m 1.53191,0 h 0.76598 v 0.25534 h -0.76598 z m 1.53193,0 h 0.76597 v 0.25534 h -0.76597 z m 1.53191,0 h 0.76596 v 0.25534 h -0.76596 z m 1.53192,0 h 0.76596 v 0.25534 h -0.76596 z m 1.53191,0 h 0.76596 v 0.25534 h -0.76596 z m 1.53192,0 h 0.76596 v 0.25534 h -0.76596 z m 1.53192,0 h 0.76597 v 0.25534 h -0.76597 z m 1.53191,0 h 0.76596 v 0.25534 h -0.76596 z m 1.53192,0 h 0.76596 v 0.25534 h -0.76596 z m 1.53193,0 h 0.76594 v 0.25534 h -0.76594 z m 1.5319,0 h 0.76596 v 0.25534 h -0.76596 z m 1.53192,0 h 0.76595 v 0.25534 h -0.76595 z m 1.53191,0 v 0.25534 z m -55.14897,0 h 0.76595 v 0.25534 h -0.76595 z"
         id="path2034"
         style="stroke-width:0.0957443" />
      <text
         xml:space="preserve"
         id="text2038"
         x="149.41464"
         y="112.14468"
         style="font-size:1.14893px;stroke-width:0.0957443">		 <tspan
   style="font-size:2.55318px;font-family:'メイリオ'"
   letter-spacing="0em"
   fill="#000000"
   fill-opacity="1"
   stroke-width="0.0191489"
   stroke-linejoin="round"
   id="tspan2036">r0</tspan>	</text>
      <text
         xml:space="preserve"
         id="text2042"
         x="149.41464"
         y="130.52769"
         style="font-size:1.14893px;stroke-width:0.0957443">		 <tspan
   style="font-size:2.55318px;font-family:'メイリオ'"
   letter-spacing="0em"
   fill="#000000"
   fill-opacity="1"
   stroke-width="0.0191489"
   stroke-linejoin="round"
   id="tspan2040">r1</tspan>	</text>
      <text
         xml:space="preserve"
         id="text2046"
         x="166.53906"
         y="91.931145"
         style="font-size:1.14893px;stroke-width:0.0957443">		 <tspan
   style="font-size:2.55318px;font-family:'メイリオ'"
   letter-spacing="0em"
   fill="#000000"
   fill-opacity="1"
   stroke-width="0.0191489"
   stroke-linejoin="round"
   id="tspan2044">c0</tspan>	</text>
      <text
         xml:space="preserve"
         id="text2050"
         x="181.85823"
         y="91.931145"
         style="font-size:1.14893px;stroke-width:0.0957443">		 <tspan
   style="font-size:2.55318px;font-family:'メイリオ'"
   letter-spacing="0em"
   fill="#000000"
   fill-opacity="1"
   stroke-width="0.0191489"
   stroke-linejoin="round"
   id="tspan2048">c1</tspan>	</text>
      <text
         xml:space="preserve"
         id="text2054"
         x="194.11357"
         y="91.931145"
         style="font-size:1.14893px;stroke-width:0.0957443">		 <tspan
   style="font-size:2.55318px;font-family:'メイリオ'"
   letter-spacing="0em"
   fill="#000000"
   fill-opacity="1"
   stroke-width="0.0191489"
   stroke-linejoin="round"
   id="tspan2052">cx</tspan>	</text>
      <line
         fill="none"
         stroke-width="0.255318"
         stroke-linejoin="round"
         stroke="#000000"
         stroke-opacity="1"
         x1="184.79041"
         y1="92.036064"
         x2="184.79041"
         y2="147.18504"
         id="line2056" />
      <path
         fill="#000000"
         fill-opacity="1"
         stroke-linejoin="round"
         d="m 197.2886,93.860985 v 0.76595 h -0.25851 v -0.76595 z m 0,1.531913 v 0.765964 h -0.25851 v -0.765964 z m 0,1.531914 v 0.765963 h -0.25851 v -0.765963 z m 0,1.531913 v 0.76596 h -0.25851 v -0.76596 z m 0,1.53192 v 0.765955 h -0.25851 v -0.765955 z m 0,1.531915 v 0.76595 h -0.25851 v -0.76595 z m 0,1.53192 v 0.76596 h -0.25851 v -0.76596 z m 0,1.53191 v 0.76596 h -0.25851 v -0.76596 z m 0,1.53191 v 0.76597 h -0.25851 v -0.76597 z m 0,1.53193 v 0.76595 h -0.25851 v -0.76595 z m 0,1.53191 v 0.76595 h -0.25851 v -0.76595 z m 0,1.53192 v 0.76596 h -0.25851 v -0.76596 z m 0,1.53191 v 0.76596 h -0.25851 v -0.76596 z m 0,1.53191 v 0.76597 h -0.25851 v -0.76597 z m 0,1.53193 v 0.76595 h -0.25851 v -0.76595 z m 0,1.53191 h -0.25851 z m 0,-24.510648 v 0.76595 h -0.25851 v -0.76595 z"
         id="path2060"
         style="stroke-width:0.0957443" />
      <path
         fill="#ffffff"
         fill-opacity="1"
         stroke-width="0.0191489"
         stroke-linejoin="round"
         d="m 169.47118,107.78092 c 1.69468,0 3.06383,1.37174 3.06383,3.06382 0,1.69211 -1.36915,3.06385 -3.06383,3.06385 -1.6851,0 -3.06382,-1.37174 -3.06382,-3.06385 0,-1.69208 1.37872,-3.06382 3.06382,-3.06382 z"
         id="path2062" />
      <path
         fill="#ffffff"
         fill-opacity="1"
         stroke-width="0.0191489"
         stroke-linejoin="round"
         d="m 169.47118,126.16401 c 1.69468,0 3.06383,1.37164 3.06383,3.06382 0,1.69211 -1.36915,3.06384 -3.06383,3.06384 -1.6851,0 -3.06382,-1.37173 -3.06382,-3.06384 0,-1.69218 1.37872,-3.06382 3.06382,-3.06382 z"
         id="path2064" />
      <path
         fill="#ffffff"
         fill-opacity="1"
         stroke-width="0.0191489"
         stroke-linejoin="round"
         d="m 184.79034,107.78102 c 1.69468,0 3.06383,1.37164 3.06383,3.06383 0,1.69208 -1.36915,3.06382 -3.06383,3.06382 -1.68512,0 -3.06384,-1.37174 -3.06384,-3.06382 0,-1.69219 1.37872,-3.06383 3.06384,-3.06383 z"
         id="path2066" />
      <path
         fill="#ffffff"
         fill-opacity="1"
         stroke-width="0.0191489"
         stroke-linejoin="round"
         d="m 184.79034,126.16401 c 1.69468,0 3.06383,1.37164 3.06383,3.06382 0,1.69211 -1.36915,3.06384 -3.06383,3.06384 -1.68512,0 -3.06384,-1.37173 -3.06384,-3.06384 0,-1.69218 1.37872,-3.06382 3.06384,-3.06382 z"
         id="path2068" />
      <path
         fill="#ffffff"
         fill-opacity="1"
         stroke-width="0.0191489"
         stroke-linejoin="round"
         d="m 197.04566,107.78102 c 1.69469,0 3.06384,1.37164 3.06384,3.06383 0,1.69208 -1.36915,3.06382 -3.06384,3.06382 -1.6851,0 -3.06383,-1.37174 -3.06383,-3.06382 0,-1.69219 1.37873,-3.06383 3.06383,-3.06383 z"
         id="path2070" />
      <text
         xml:space="preserve"
         id="text2074"
         x="168.2935"
         y="112.37599"
         style="font-size:1.14893px;stroke-width:0.0957443"><tspan
   style="font-size:3.82979px;font-family:'メイリオ'"
   letter-spacing="0em"
   fill="#000000"
   fill-opacity="1"
   stroke-width="0.0191489"
   stroke-linejoin="round"
   id="tspan2072">X</tspan>	</text>
      <text
         xml:space="preserve"
         id="text2078"
         x="183.61266"
         y="112.37599"
         style="font-size:1.14893px;stroke-width:0.0957443"><tspan
   style="font-size:3.82979px;font-family:'メイリオ'"
   letter-spacing="0em"
   fill="#000000"
   fill-opacity="1"
   stroke-width="0.0191489"
   stroke-linejoin="round"
   id="tspan2076">X</tspan>	</text>
      <path
         fill="#ffffff"
         fill-opacity="1"
         stroke-width="0.255318"
         stroke-linejoin="round"
         stroke="#000000"
         stroke-opacity="1"
         d="m 197.04566,107.78102 c 1.69469,0 3.06384,1.37164 3.06384,3.06383 0,1.69208 -1.36915,3.06382 -3.06384,3.06382 -1.6851,0 -3.06383,-1.37174 -3.06383,-3.06382 0,-1.69219 1.37873,-3.06383 3.06383,-3.06383 z"
         id="path2080" />
      <text
         xml:space="preserve"
         id="text2084"
         x="195.868"
         y="112.37599"
         style="font-size:1.14893px;stroke-width:0.0957443"><tspan
   style="font-size:3.82979px;font-family:'メイリオ'"
   letter-spacing="0em"
   fill="#000000"
   fill-opacity="1"
   stroke-width="0.0191489"
   stroke-linejoin="round"
   id="tspan2082">X</tspan>	</text>
      <text
         xml:space="preserve"
         id="text2088"
         x="168.2935"
         y="130.75897"
         style="font-size:1.14893px;stroke-width:0.0957443"><tspan
   style="font-size:3.82979px;font-family:'メイリオ'"
   letter-spacing="0em"
   fill="#000000"
   fill-opacity="1"
   stroke-width="0.0191489"
   stroke-linejoin="round"
   id="tspan2086">X</tspan>	</text>
      <text
         xml:space="preserve"
         id="text2092"
         x="183.61266"
         y="130.75897"
         style="font-size:1.14893px;stroke-width:0.0957443"><tspan
   style="font-size:3.82979px;font-family:'メイリオ'"
   letter-spacing="0em"
   fill="#000000"
   fill-opacity="1"
   stroke-width="0.0191489"
   stroke-linejoin="round"
   id="tspan2090">X</tspan>	</text>
      <rect
         x="181.7265"
         y="99.834198"
         fill="#ffffff"
         fill-opacity="1"
         stroke-width="0.25532"
         stroke-linejoin="round"
         stroke="#000000"
         stroke-opacity="1"
         width="6.1276641"
         height="6.1276641"
         id="rect2094" />
      <text
         xml:space="preserve"
         id="text2098"
         x="183.4211"
         y="104.2377"
         style="font-size:1.14894px;stroke-width:0.0957448">	<tspan
   style="font-size:3.82979px;font-family:'メイリオ'"
   letter-spacing="0em"
   fill="#000000"
   fill-opacity="1"
   stroke-width="0.0191489"
   stroke-linejoin="round"
   id="tspan2096">X</tspan>		</text>
      <text
         xml:space="preserve"
         id="text2104"
         x="114.16012"
         y="153.47855"
         style="font-size:1.14893px;stroke-width:0.0957443">		 <tspan
   style="font-size:4.59575px;font-family:'メイリオ'"
   letter-spacing="0em"
   fill="#000000"
   fill-opacity="1"
   stroke-width="0.0191489"
   stroke-linejoin="round"
   id="tspan2102">Fish</tspan>	</text>
      <text
         xml:space="preserve"
         id="text2108"
         x="166.37862"
         y="152.78029"
         style="font-size:1.14893px;stroke-width:0.0957443">		 <tspan
   style="font-size:4.59575px;font-family:'メイリオ'"
   letter-spacing="0em"
   fill="#000000"
   fill-opacity="1"
   stroke-width="0.0191489"
   stroke-linejoin="round"
   id="tspan2106">Finned Fish</tspan>	</text>
    </g>
    <rect
       x="27.654133"
       y="19.377821"
       fill="#ffffff"
       fill-opacity="1"
       stroke-width="0.252214"
       stroke-linejoin="round"
       stroke="#000000"
       stroke-opacity="1"
       width="54.455391"
       height="54.500893"
       id="rect5747"
       inkscape:export-filename="img34a.png"
       inkscape:export-xdpi="96"
       inkscape:export-ydpi="96"
       style="stroke-width:0.352;stroke-dasharray:none" />
    <path
       style="fill:#ff0000;fill-opacity:1;stroke:#7f0000;stroke-width:0.3;stroke-dasharray:none;stroke-dashoffset:0;stroke-opacity:1"
       d="M 70.114583,19.515 V 43.162136"
       id="path2235" />
    <path
       style="fill:none;stroke:#000000;stroke-width:0.251625;stroke-dasharray:none;stroke-dashoffset:0"
       d="m 42.945005,19.51302 c 0,54.570313 0,54.570313 0,54.570313"
       id="path2963" />
    <path
       fill="#000000"
       fill-opacity="1"
       stroke-linejoin="round"
       d="m 29.085925,37.583065 h 0.756317 v 0.252351 h -0.756317 z m 1.512647,0 h 0.756316 v 0.252351 h -0.756316 z m 1.512647,0 h 0.75633 v 0.252351 h -0.75633 z m 1.512661,0 h 0.756316 v 0.252351 H 33.62388 Z m 1.512647,0 h 0.75633 v 0.252351 h -0.75633 z m 1.512646,0 h 0.756331 v 0.252351 h -0.756331 z m 1.512647,0 h 0.756331 v 0.252351 H 38.16182 Z m 1.512647,0 h 0.75633 v 0.252351 h -0.75633 z m 1.512647,0 h 0.75633 v 0.252351 h -0.75633 z m 1.512661,0 h 0.75633 v 0.252351 h -0.75633 z m 1.512646,0 h 0.756331 v 0.252351 h -0.756331 z m 1.512647,0 h 0.756331 v 0.252351 h -0.756331 z m 1.512647,0 h 0.756331 v 0.252351 h -0.756331 z m 1.512647,0 h 0.75633 v 0.252351 h -0.75633 z m 1.512648,0 h 0.756343 v 0.252351 H 50.26301 Z m 1.51266,0 H 52.532 v 0.252351 h -0.75633 z m 1.512646,0 h 0.756331 v 0.252351 h -0.756331 z m 1.512647,0 h 0.756331 v 0.252351 h -0.756331 z m 1.512647,0 h 0.75633 v 0.252351 h -0.75633 z m 1.512661,0 h 0.756316 v 0.252351 h -0.756316 z m 1.512647,0 h 0.75633 v 0.252351 h -0.75633 z m 1.512646,0 h 0.756331 v 0.252351 h -0.756331 z m 1.512647,0 h 0.756332 v 0.252351 h -0.756332 z m 1.512661,0 h 0.756316 v 0.252351 h -0.756316 z m 1.512647,0 h 0.756316 v 0.252351 h -0.756316 z m 1.512648,0 h 0.756316 v 0.252351 h -0.756316 z m 1.512645,0 h 0.756331 v 0.252351 h -0.756331 z m 1.512661,0 h 0.756318 v 0.252351 h -0.756318 z m 1.512647,0 h 0.756318 v 0.252351 H 71.44012 Z m 1.512648,0 h 0.756316 v 0.252351 h -0.756316 z m 1.512647,0 h 0.756316 v 0.252351 h -0.756316 z m 1.512647,0 h 0.756316 v 0.252351 h -0.756316 z m 1.512646,0 h 0.756331 v 0.252351 h -0.756331 z m 1.51266,0 h 0.756318 v 0.252351 h -0.756318 z m 1.512648,0 h 0.756316 v 0.252351 h -0.756316 z m 1.512647,0 v 0.252351 z m -54.455384,0 h 0.756316 v 0.252351 h -0.756316 z"
       id="path5753"
       style="stroke-width:0.0945798" />
    <path
       style="fill:none;stroke:#000000;stroke-width:0.251625;stroke-dasharray:none;stroke-dashoffset:0"
       d="m 58.187797,19.51302 c 0,54.570313 0,54.570313 0,54.570313"
       id="path2965" />
    <path
       fill="#000000"
       fill-opacity="1"
       stroke-linejoin="round"
       d="m 29.085923,55.5625 h 0.756317 v 0.252351 h -0.756317 z m 1.512647,0 h 0.756316 v 0.252351 H 30.59857 Z m 1.512647,0 h 0.75633 v 0.252351 h -0.75633 z m 1.512661,0 h 0.756316 v 0.252351 h -0.756316 z m 1.512647,0 h 0.75633 v 0.252351 h -0.75633 z m 1.512646,0 h 0.756331 v 0.252351 h -0.756331 z m 1.512647,0 h 0.756331 v 0.252351 h -0.756331 z m 1.512647,0 h 0.75633 v 0.252351 h -0.75633 z m 1.512647,0 h 0.75633 v 0.252351 h -0.75633 z m 1.512661,0 h 0.75633 v 0.252351 h -0.75633 z m 1.512646,0 h 0.756331 v 0.252351 h -0.756331 z m 1.512647,0 h 0.756331 v 0.252351 h -0.756331 z m 1.512647,0 h 0.756331 v 0.252351 h -0.756331 z m 1.512647,0 h 0.75633 v 0.252351 h -0.75633 z m 1.512648,0 h 0.756343 v 0.252351 h -0.756343 z m 1.51266,0 h 0.75633 v 0.252351 h -0.75633 z m 1.512646,0 h 0.756331 v 0.252351 h -0.756331 z m 1.512647,0 h 0.756331 v 0.252351 h -0.756331 z m 1.512647,0 h 0.75633 v 0.252351 h -0.75633 z m 1.512661,0 h 0.756316 v 0.252351 h -0.756316 z m 1.512647,0 h 0.75633 v 0.252351 h -0.75633 z m 1.512646,0 h 0.756331 v 0.252351 h -0.756331 z m 1.512647,0 h 0.756332 v 0.252351 h -0.756332 z m 1.512661,0 h 0.756316 v 0.252351 H 63.87687 Z m 1.512647,0 h 0.756316 v 0.252351 h -0.756316 z m 1.512648,0 h 0.756316 v 0.252351 h -0.756316 z m 1.512645,0 h 0.756331 v 0.252351 H 68.41481 Z m 1.512661,0 h 0.756318 v 0.252351 h -0.756318 z m 1.512647,0 h 0.756318 v 0.252351 h -0.756318 z m 1.512648,0 h 0.756316 v 0.252351 h -0.756316 z m 1.512647,0 h 0.756316 v 0.252351 h -0.756316 z m 1.512647,0 h 0.756316 v 0.252351 H 75.97806 Z m 1.512646,0 h 0.756331 v 0.252351 h -0.756331 z m 1.51266,0 h 0.756318 v 0.252351 h -0.756318 z m 1.512648,0 h 0.756316 v 0.252351 h -0.756316 z m 1.512647,0 v 0.252351 z m -54.455384,0 h 0.756316 v 0.252351 h -0.756316 z"
       id="path5759"
       style="stroke-width:0.0945798" />
    <text
       xml:space="preserve"
       id="text5763"
       x="22.11446"
       y="38.095921"
       style="font-size:1.13496px;stroke-width:0.0945798"
       transform="scale(0.99958247,1.0004177)">		 <tspan
   style="font-size:2.52214px;font-family:'メイリオ'"
   letter-spacing="0em"
   fill="#000000"
   fill-opacity="1"
   stroke-width="0.018916"
   stroke-linejoin="round"
   id="tspan5761">r0</tspan>	</text>
    <text
       xml:space="preserve"
       id="text5767"
       x="22.11446"
       y="56.255302"
       style="font-size:1.13496px;stroke-width:0.0945798"
       transform="scale(0.99958247,1.0004177)">		 <tspan
   style="font-size:2.52214px;font-family:'メイリオ'"
   letter-spacing="0em"
   fill="#000000"
   fill-opacity="1"
   stroke-width="0.018916"
   stroke-linejoin="round"
   id="tspan5765">r1</tspan>	</text>
    <text
       xml:space="preserve"
       id="text5771"
       x="39.990108"
       y="17.761206"
       style="font-size:1.13496px;stroke-width:0.0945798"
       transform="scale(0.99958247,1.0004177)">		 <tspan
   style="font-size:2.52214px;font-family:'メイリオ'"
   letter-spacing="0em"
   fill="#000000"
   fill-opacity="1"
   stroke-width="0.018916"
   stroke-linejoin="round"
   id="tspan5769">c0</tspan>	</text>
    <text
       xml:space="preserve"
       id="text5775"
       x="55.122944"
       y="17.761206"
       style="font-size:1.13496px;stroke-width:0.0945798"
       transform="scale(0.99958247,1.0004177)">		 <tspan
   style="font-size:2.52214px;font-family:'メイリオ'"
   letter-spacing="0em"
   fill="#000000"
   fill-opacity="1"
   stroke-width="0.018916"
   stroke-linejoin="round"
   id="tspan5773">c1</tspan>	</text>
    <text
       xml:space="preserve"
       id="text5779"
       x="67.229179"
       y="17.761206"
       style="font-size:1.13496px;stroke-width:0.0945798"
       transform="scale(0.99958247,1.0004177)">		 <tspan
   style="font-size:2.52214px;font-family:'メイリオ'"
   letter-spacing="0em"
   fill="#000000"
   fill-opacity="1"
   stroke-width="0.018916"
   stroke-linejoin="round"
   id="tspan5777">cx</tspan>	</text>
    <path
       fill="#ffffff"
       fill-opacity="1"
       stroke-width="0.018916"
       stroke-linejoin="round"
       d="m 42.780556,34.51696 c 1.673367,0 3.025293,1.355614 3.025293,3.027827 0,1.672212 -1.351926,3.027827 -3.025293,3.027827 -1.663924,0 -3.025308,-1.355615 -3.025308,-3.027827 0,-1.672213 1.361384,-3.027827 3.025308,-3.027827 z"
       id="path5787" />
    <path
       fill="#ffffff"
       fill-opacity="1"
       stroke-width="0.018916"
       stroke-linejoin="round"
       d="m 42.780556,52.684018 c 1.673367,0 3.025293,1.355522 3.025293,3.027827 0,1.672214 -1.351926,3.027829 -3.025293,3.027829 -1.663924,0 -3.025308,-1.355615 -3.025308,-3.027829 0,-1.672305 1.361384,-3.027827 3.025308,-3.027827 z"
       id="path5789" />
    <path
       fill="#ffffff"
       fill-opacity="1"
       stroke-width="0.018916"
       stroke-linejoin="round"
       d="m 57.907052,34.517055 c 1.673367,0 3.025293,1.355519 3.025293,3.027827 0,1.672212 -1.351926,3.027827 -3.025293,3.027827 -1.663924,0 -3.025308,-1.355615 -3.025308,-3.027827 0,-1.672308 1.361384,-3.027827 3.025308,-3.027827 z"
       id="path5791" />
    <path
       fill="#ffffff"
       fill-opacity="1"
       stroke-width="0.018916"
       stroke-linejoin="round"
       d="m 57.907052,52.684018 c 1.673367,0 3.025293,1.355522 3.025293,3.027827 0,1.672214 -1.351926,3.027829 -3.025293,3.027829 -1.663924,0 -3.025308,-1.355615 -3.025308,-3.027829 0,-1.672305 1.361384,-3.027827 3.025308,-3.027827 z"
       id="path5793" />
    <path
       fill="#ffffff"
       fill-opacity="1"
       stroke-width="0.018916"
       stroke-linejoin="round"
       d="m 70.008254,34.517055 c 1.673367,0 3.025295,1.355519 3.025295,3.027827 0,1.672212 -1.351928,3.027827 -3.025295,3.027827 -1.663923,0 -3.025306,-1.355615 -3.025306,-3.027827 0,-1.672308 1.361383,-3.027827 3.025306,-3.027827 z"
       id="path5795" />
    <text
       xml:space="preserve"
       id="text5799"
       x="40.179268"
       y="39.041721"
       style="font-size:1.13496px;stroke-width:0.0945798"
       transform="scale(0.99958247,1.0004177)">		 <tspan
   style="font-size:3.7832px;font-family:'メイリオ'"
   letter-spacing="0em"
   fill="#000000"
   fill-opacity="1"
   stroke-width="0.018916"
   stroke-linejoin="round"
   id="tspan5797">X</tspan>	</text>
    <text
       xml:space="preserve"
       id="text5803"
       x="55.312107"
       y="39.041721"
       style="font-size:1.13496px;stroke-width:0.0945798"
       transform="scale(0.99958247,1.0004177)">		 <tspan
   style="font-size:3.7832px;font-family:'メイリオ'"
   letter-spacing="0em"
   fill="#000000"
   fill-opacity="1"
   stroke-width="0.018916"
   stroke-linejoin="round"
   id="tspan5801">X</tspan>	</text>
    <path
       fill="#ffffff"
       fill-opacity="1"
       stroke-width="0.252214"
       stroke-linejoin="round"
       stroke="#000000"
       stroke-opacity="1"
       d="m 70.145398,34.517055 c 1.673367,0 3.025294,1.355519 3.025294,3.027827 0,1.672212 -1.351927,3.027827 -3.025294,3.027827 -1.663923,0 -3.025307,-1.355615 -3.025307,-3.027827 0,-1.672308 1.361384,-3.027827 3.025307,-3.027827 z"
       id="path5805" />
    <text
       xml:space="preserve"
       id="text5809"
       x="67.418343"
       y="39.041721"
       style="font-size:1.13496px;stroke-width:0.0945798"
       transform="scale(0.99958247,1.0004177)">		 <tspan
   style="font-size:3.7832px;font-family:'メイリオ'"
   letter-spacing="0em"
   fill="#000000"
   fill-opacity="1"
   stroke-width="0.018916"
   stroke-linejoin="round"
   id="tspan5807">X</tspan>	</text>
    <text
       xml:space="preserve"
       id="text5813"
       x="40.179268"
       y="57.201096"
       style="font-size:1.13496px;stroke-width:0.0945798"
       transform="scale(0.99958247,1.0004177)">		 <tspan
   style="font-size:3.7832px;font-family:'メイリオ'"
   letter-spacing="0em"
   fill="#000000"
   fill-opacity="1"
   stroke-width="0.018916"
   stroke-linejoin="round"
   id="tspan5811">X</tspan>	</text>
    <text
       xml:space="preserve"
       id="text5817"
       x="55.312107"
       y="57.201096"
       style="font-size:1.13496px;stroke-width:0.0945798"
       transform="scale(0.99958247,1.0004177)">		 <tspan
   style="font-size:3.7832px;font-family:'メイリオ'"
   letter-spacing="0em"
   fill="#000000"
   fill-opacity="1"
   stroke-width="0.018916"
   stroke-linejoin="round"
   id="tspan5815">X</tspan>	</text>
    <g
       id="g1703"
       inkscape:export-filename="img34b.png"
       inkscape:export-xdpi="96"
       inkscape:export-ydpi="96">
      <g
         id="g1516">
        <g
           id="g1036">
          <rect
             x="92.466759"
             y="18.74432"
             fill="#ffffff"
             fill-opacity="1"
             stroke-width="0.253973"
             stroke-linejoin="round"
             stroke="#000000"
             stroke-opacity="1"
             width="54.506214"
             height="55.212025"
             id="rect2160" />
          <path
             fill="#000000"
             fill-opacity="1"
             stroke-linejoin="round"
             d="m 93.874246,33.866666 h 0.757031 v 0.255931 h -0.757031 z m 1.514061,0 h 0.757032 v 0.255931 h -0.757032 z m 1.514063,0 h 0.75703 v 0.255931 h -0.75703 z m 1.514061,0 h 0.75703 v 0.255931 h -0.75703 z m 1.514059,0 h 0.75703 v 0.255931 h -0.75703 z m 1.51406,0 h 0.75703 v 0.255931 h -0.75703 z m 1.51406,0 h 0.75704 v 0.255931 h -0.75704 z m 1.51407,0 h 0.75703 v 0.255931 h -0.75703 z m 1.51406,0 h 0.75703 v 0.255931 h -0.75703 z m 1.51406,0 h 0.75703 v 0.255931 h -0.75703 z m 1.51406,0 h 0.75703 v 0.255931 h -0.75703 z m 1.51406,0 h 0.75703 v 0.255931 h -0.75703 z m 1.51406,0 h 0.75704 v 0.255931 h -0.75704 z m 1.51407,0 h 0.75703 v 0.255931 h -0.75703 z m 1.51406,0 h 0.75703 v 0.255931 h -0.75703 z m 1.51406,0 h 0.75703 v 0.255931 h -0.75703 z m 1.51406,0 h 0.75703 v 0.255931 h -0.75703 z m 1.51406,0 h 0.75703 v 0.255931 h -0.75703 z m 1.51406,0 h 0.75703 v 0.255931 h -0.75703 z m 1.51407,0 h 0.75703 v 0.255931 h -0.75703 z m 1.51406,0 h 0.75703 v 0.255931 h -0.75703 z m 1.51406,0 h 0.75703 v 0.255931 h -0.75703 z m 1.51406,0 h 0.75703 v 0.255931 h -0.75703 z m 1.51406,0 h 0.75703 v 0.255931 h -0.75703 z m 1.51406,0 h 0.75703 v 0.255931 h -0.75703 z m 1.51406,0 h 0.75703 v 0.255931 h -0.75703 z m 1.51407,0 h 0.75703 v 0.255931 h -0.75703 z m 1.51406,0 h 0.75703 v 0.255931 h -0.75703 z m 1.51406,0 h 0.75703 v 0.255931 h -0.75703 z m 1.51406,0 h 0.75703 v 0.255931 h -0.75703 z m 1.51406,0 h 0.75703 v 0.255931 h -0.75703 z m 1.51406,0 h 0.75703 v 0.255931 h -0.75703 z m 1.51407,0 h 0.75703 v 0.255931 h -0.75703 z m 1.51406,0 h 0.75703 v 0.255931 h -0.75703 z m 1.51406,0 h 0.75703 v 0.255931 h -0.75703 z m 1.51406,0 v 0.255931 z m -54.506215,0 h 0.757031 v 0.255931 h -0.757031 z"
             id="path2164"
             style="stroke-width:0.0952395" />
          <line
             fill="none"
             stroke-width="0.253973"
             stroke-linejoin="round"
             stroke="#000000"
             stroke-opacity="1"
             x1="110.6355"
             y1="18.74432"
             x2="110.6355"
             y2="73.956535"
             id="line2166" />
          <path
             fill="#000000"
             fill-opacity="1"
             stroke-linejoin="round"
             d="m 94.650149,62.177083 h 0.757031 v 0.255931 h -0.757031 z m 1.514061,0 h 0.757032 v 0.255931 H 96.16421 Z m 1.514063,0 h 0.75703 v 0.255931 h -0.75703 z m 1.514061,0 h 0.75703 v 0.255931 h -0.75703 z m 1.514056,0 h 0.75703 v 0.255931 h -0.75703 z m 1.51406,0 h 0.75703 v 0.255931 h -0.75703 z m 1.51406,0 h 0.75704 v 0.255931 h -0.75704 z m 1.51407,0 h 0.75703 v 0.255931 h -0.75703 z m 1.51406,0 h 0.75703 v 0.255931 h -0.75703 z m 1.51406,0 h 0.75703 v 0.255931 h -0.75703 z m 1.51406,0 h 0.75703 v 0.255931 h -0.75703 z m 1.51406,0 h 0.75703 v 0.255931 h -0.75703 z m 1.51406,0 h 0.75704 v 0.255931 h -0.75704 z m 1.51407,0 h 0.75703 v 0.255931 h -0.75703 z m 1.51406,0 h 0.75703 v 0.255931 h -0.75703 z m 1.51406,0 h 0.75703 v 0.255931 h -0.75703 z m 1.51406,0 h 0.75703 v 0.255931 h -0.75703 z m 1.51406,0 h 0.75703 v 0.255931 h -0.75703 z m 1.51406,0 h 0.75703 v 0.255931 h -0.75703 z m 1.51407,0 h 0.75703 v 0.255931 h -0.75703 z m 1.51406,0 h 0.75703 v 0.255931 h -0.75703 z m 1.51406,0 h 0.75703 v 0.255931 h -0.75703 z m 1.51406,0 h 0.75703 v 0.255931 h -0.75703 z m 1.51406,0 h 0.75703 v 0.255931 h -0.75703 z m 1.51406,0 h 0.75703 v 0.255931 h -0.75703 z m 1.51406,0 h 0.75703 v 0.255931 h -0.75703 z m 1.51407,0 h 0.75703 v 0.255931 h -0.75703 z m 1.51406,0 h 0.75703 v 0.255931 h -0.75703 z m 1.51406,0 h 0.75703 v 0.255931 h -0.75703 z m 1.51406,0 h 0.75703 v 0.255931 h -0.75703 z m 1.51406,0 h 0.75703 v 0.255931 h -0.75703 z m 1.51406,0 h 0.75703 v 0.255931 h -0.75703 z m 1.51407,0 h 0.75703 v 0.255931 h -0.75703 z m 1.51406,0 h 0.75703 v 0.255931 h -0.75703 z m 1.51406,0 h 0.75703 v 0.255931 h -0.75703 z m 1.51406,0 v 0.255931 z m -54.506212,0 h 0.757031 v 0.255931 h -0.757031 z"
             id="path2170"
             style="stroke-width:0.0952395" />
          <line
             fill="none"
             stroke-width="0.253973"
             stroke-linejoin="round"
             stroke="#000000"
             stroke-opacity="1"
             x1="125.77612"
             y1="18.74432"
             x2="125.77612"
             y2="73.956535"
             id="line2172" />
          <line
             fill="none"
             stroke-width="0.253973"
             stroke-linejoin="round"
             stroke="#000000"
             stroke-opacity="1"
             x1="137.88861"
             y1="18.74432"
             x2="137.88861"
             y2="73.956535"
             id="line2174" />
          <path
             fill="#000000"
             fill-opacity="1"
             stroke-linejoin="round"
             d="m 93.929837,46.302083 h 0.757031 v 0.255931 h -0.757031 z m 1.514061,0 h 0.757032 v 0.255931 h -0.757032 z m 1.514063,0 h 0.75703 v 0.255931 h -0.75703 z m 1.514061,0 h 0.757026 v 0.255931 h -0.757026 z m 1.514051,0 h 0.757027 v 0.255931 h -0.757027 z m 1.514057,0 h 0.75703 v 0.255931 h -0.75703 z m 1.51406,0 h 0.75704 v 0.255931 h -0.75704 z m 1.51407,0 h 0.75703 v 0.255931 h -0.75703 z m 1.51406,0 h 0.75703 v 0.255931 h -0.75703 z m 1.51406,0 h 0.75703 v 0.255931 h -0.75703 z m 1.51406,0 h 0.75703 v 0.255931 h -0.75703 z m 1.51406,0 h 0.75703 v 0.255931 h -0.75703 z m 1.51406,0 h 0.75704 v 0.255931 h -0.75704 z m 1.51407,0 h 0.75703 v 0.255931 h -0.75703 z m 1.51406,0 h 0.75703 v 0.255931 h -0.75703 z m 1.51406,0 h 0.75703 v 0.255931 h -0.75703 z m 1.51406,0 h 0.75703 v 0.255931 h -0.75703 z m 1.51406,0 h 0.75703 v 0.255931 h -0.75703 z m 1.51406,0 h 0.75703 v 0.255931 h -0.75703 z m 1.51407,0 h 0.75703 v 0.255931 H 122.697 Z m 1.51406,0 h 0.75703 v 0.255931 h -0.75703 z m 1.51406,0 h 0.75703 v 0.255931 h -0.75703 z m 1.51406,0 h 0.75703 v 0.255931 h -0.75703 z m 1.51406,0 h 0.75703 v 0.255931 h -0.75703 z m 1.51406,0 h 0.75703 v 0.255931 h -0.75703 z m 1.51406,0 h 0.75703 v 0.255931 h -0.75703 z m 1.51407,0 h 0.75703 v 0.255931 h -0.75703 z m 1.51406,0 h 0.75703 v 0.255931 h -0.75703 z m 1.51406,0 h 0.75703 v 0.255931 h -0.75703 z m 1.51406,0 h 0.75703 v 0.255931 h -0.75703 z m 1.51406,0 h 0.75703 v 0.255931 h -0.75703 z m 1.51406,0 h 0.75703 v 0.255931 h -0.75703 z m 1.51407,0 h 0.75703 v 0.255931 h -0.75703 z m 1.51406,0 h 0.75703 v 0.255931 h -0.75703 z m 1.51406,0 h 0.75703 v 0.255931 h -0.75703 z m 1.51406,0 v 0.255931 z m -54.506204,0 h 0.757031 v 0.255931 h -0.757031 z"
             id="path2178"
             style="stroke-width:0.0952395" />
          <g
             id="g2184"
             transform="matrix(0.08153786,0,0,0.09372969,-1261.3872,-73.8776)">
            <path
               fill="#ffffff"
               fill-opacity="1"
               stroke-width="0.2"
               stroke-linejoin="round"
               d="m 16718.8,1118.47 c 17.7,0 32,14.32 32,32 0,17.67 -14.3,32 -32,32 -17.7,0 -32,-14.33 -32,-32 0,-17.68 14.3,-32 32,-32 z"
               id="path2180" />
            <path
               fill="#000000"
               fill-opacity="1"
               stroke-linejoin="round"
               stroke="#000000"
               stroke-opacity="1"
               d="m 16718.8,1132.28 -20.8,36.37 h 41.6 z"
               id="path2182" />
          </g>
          <g
             id="g933">
            <g
               id="g2240"
               transform="matrix(0.06201202,0,0,0.0826823,-932.11973,-61.75093)">
              <path
                 fill="#ffffff"
                 fill-opacity="1"
                 stroke-width="0.2"
                 stroke-linejoin="round"
                 d="m 16816.3,1126.01 c 17.7,0 32,14.32 32,32 0,17.67 -14.3,32 -32,32 -17.6,0 -32,-14.33 -32,-32 0,-17.68 14.4,-32 32,-32 z"
                 id="path2234" />
              <text
                 transform="translate(16800,1175)"
                 xml:space="preserve"
                 id="text2238"><tspan
   style="font-size:48px;font-family:'メイリオ'"
   letter-spacing="0em"
   fill="#000000"
   fill-opacity="1"
   stroke-width="0.2"
   stroke-linejoin="round"
   id="tspan2236">X</tspan>			</text>
            </g>
            <g
               id="g911"
               transform="matrix(0.05687453,0,0,0.0826823,-818.46816,-61.65093)">
              <path
                 fill="#ffffff"
                 fill-opacity="1"
                 stroke-width="0.2"
                 stroke-linejoin="round"
                 d="m 16816.3,1126.01 c 17.7,0 32,14.32 32,32 0,17.67 -14.3,32 -32,32 -17.6,0 -32,-14.33 -32,-32 0,-17.68 14.4,-32 32,-32 z"
                 id="path905" />
              <text
                 transform="translate(16800,1175)"
                 xml:space="preserve"
                 id="text909"><tspan
   style="font-size:48px;font-family:'メイリオ'"
   letter-spacing="0em"
   fill="#000000"
   fill-opacity="1"
   stroke-width="0.2"
   stroke-linejoin="round"
   id="tspan907">X</tspan>			</text>
            </g>
            <g
               id="g919"
               transform="matrix(0.05461281,0,0,0.08140329,-792.6834,-60.210824)">
              <path
                 fill="#ffffff"
                 fill-opacity="1"
                 stroke-width="0.2"
                 stroke-linejoin="round"
                 d="m 16816.3,1126.01 c 17.7,0 32,14.32 32,32 0,17.67 -14.3,32 -32,32 -17.6,0 -32,-14.33 -32,-32 0,-17.68 14.4,-32 32,-32 z"
                 id="path913" />
              <text
                 transform="translate(16800,1175)"
                 xml:space="preserve"
                 id="text917"><tspan
   style="font-size:48px;font-family:'メイリオ'"
   letter-spacing="0em"
   fill="#000000"
   fill-opacity="1"
   stroke-width="0.2"
   stroke-linejoin="round"
   id="tspan915">X</tspan>			</text>
            </g>
          </g>
          <g
             id="g959"
             transform="translate(0.07152534,12.186958)">
            <g
               id="g941"
               transform="matrix(0.06201202,0,0,0.0826823,-932.11973,-61.75093)">
              <path
                 fill="#ffffff"
                 fill-opacity="1"
                 stroke-width="0.2"
                 stroke-linejoin="round"
                 d="m 16816.3,1126.01 c 17.7,0 32,14.32 32,32 0,17.67 -14.3,32 -32,32 -17.6,0 -32,-14.33 -32,-32 0,-17.68 14.4,-32 32,-32 z"
                 id="path935" />
              <text
                 transform="translate(16800,1175)"
                 xml:space="preserve"
                 id="text939"><tspan
   style="font-size:48px;font-family:'メイリオ'"
   letter-spacing="0em"
   fill="#000000"
   fill-opacity="1"
   stroke-width="0.2"
   stroke-linejoin="round"
   id="tspan937">X</tspan>			</text>
            </g>
            <g
               id="g949"
               transform="matrix(0.05687453,0,0,0.0826823,-818.46816,-61.65093)">
              <path
                 fill="#ffffff"
                 fill-opacity="1"
                 stroke-width="0.2"
                 stroke-linejoin="round"
                 d="m 16816.3,1126.01 c 17.7,0 32,14.32 32,32 0,17.67 -14.3,32 -32,32 -17.6,0 -32,-14.33 -32,-32 0,-17.68 14.4,-32 32,-32 z"
                 id="path943" />
              <text
                 transform="translate(16800,1175)"
                 xml:space="preserve"
                 id="text947"><tspan
   style="font-size:48px;font-family:'メイリオ'"
   letter-spacing="0em"
   fill="#000000"
   fill-opacity="1"
   stroke-width="0.2"
   stroke-linejoin="round"
   id="tspan945">X</tspan>			</text>
            </g>
            <g
               id="g957"
               transform="matrix(0.05461281,0,0,0.08140329,-792.6834,-60.210824)">
              <path
                 fill="#ffffff"
                 fill-opacity="1"
                 stroke-width="0.2"
                 stroke-linejoin="round"
                 d="m 16816.3,1126.01 c 17.7,0 32,14.32 32,32 0,17.67 -14.3,32 -32,32 -17.6,0 -32,-14.33 -32,-32 0,-17.68 14.4,-32 32,-32 z"
                 id="path951" />
              <text
                 transform="translate(16800,1175)"
                 xml:space="preserve"
                 id="text955"><tspan
   style="font-size:48px;font-family:'メイリオ'"
   letter-spacing="0em"
   fill="#000000"
   fill-opacity="1"
   stroke-width="0.2"
   stroke-linejoin="round"
   id="tspan953">X</tspan>			</text>
            </g>
          </g>
          <g
             id="g985"
             transform="translate(-0.10880054,28.099227)">
            <g
               id="g967"
               transform="matrix(0.06201202,0,0,0.0826823,-932.11973,-61.75093)">
              <path
                 fill="#ffffff"
                 fill-opacity="1"
                 stroke-width="0.2"
                 stroke-linejoin="round"
                 d="m 16816.3,1126.01 c 17.7,0 32,14.32 32,32 0,17.67 -14.3,32 -32,32 -17.6,0 -32,-14.33 -32,-32 0,-17.68 14.4,-32 32,-32 z"
                 id="path961" />
              <text
                 transform="translate(16800,1175)"
                 xml:space="preserve"
                 id="text965"><tspan
   style="font-size:48px;font-family:'メイリオ'"
   letter-spacing="0em"
   fill="#000000"
   fill-opacity="1"
   stroke-width="0.2"
   stroke-linejoin="round"
   id="tspan963">X</tspan>			</text>
            </g>
            <g
               id="g975"
               transform="matrix(0.05687453,0,0,0.0826823,-818.46816,-61.65093)">
              <path
                 fill="#ffffff"
                 fill-opacity="1"
                 stroke-width="0.2"
                 stroke-linejoin="round"
                 d="m 16816.3,1126.01 c 17.7,0 32,14.32 32,32 0,17.67 -14.3,32 -32,32 -17.6,0 -32,-14.33 -32,-32 0,-17.68 14.4,-32 32,-32 z"
                 id="path969" />
              <text
                 transform="translate(16800,1175)"
                 xml:space="preserve"
                 id="text973"><tspan
   style="font-size:48px;font-family:'メイリオ'"
   letter-spacing="0em"
   fill="#000000"
   fill-opacity="1"
   stroke-width="0.2"
   stroke-linejoin="round"
   id="tspan971">X</tspan>			</text>
            </g>
            <g
               id="g983"
               transform="matrix(0.05461281,0,0,0.08140329,-792.6834,-60.210824)">
              <path
                 fill="#ffffff"
                 fill-opacity="1"
                 stroke-width="0.2"
                 stroke-linejoin="round"
                 d="m 16816.3,1126.01 c 17.7,0 32,14.32 32,32 0,17.67 -14.3,32 -32,32 -17.6,0 -32,-14.33 -32,-32 0,-17.68 14.4,-32 32,-32 z"
                 id="path977" />
              <text
                 transform="translate(16800,1175)"
                 xml:space="preserve"
                 id="text981"><tspan
   style="font-size:48px;font-family:'メイリオ'"
   letter-spacing="0em"
   fill="#000000"
   fill-opacity="1"
   stroke-width="0.2"
   stroke-linejoin="round"
   id="tspan979">X</tspan>			</text>
            </g>
          </g>
        </g>
      </g>
      <g
         id="g1552">
        <rect
           x="154.71973"
           y="18.74432"
           fill="#ffffff"
           fill-opacity="1"
           stroke-width="0.253973"
           stroke-linejoin="round"
           stroke="#000000"
           stroke-opacity="1"
           width="54.506214"
           height="55.212025"
           id="rect1038" />
        <path
           fill="#000000"
           fill-opacity="1"
           stroke-linejoin="round"
           d="m 156.12721,33.866666 h 0.75703 v 0.255931 h -0.75703 z m 1.51406,0 h 0.75703 v 0.255931 h -0.75703 z m 1.51406,0 h 0.75703 v 0.255931 h -0.75703 z m 1.51406,0 h 0.75703 v 0.255931 h -0.75703 z m 1.51406,0 h 0.75703 v 0.255931 h -0.75703 z m 1.51406,0 h 0.75703 v 0.255931 h -0.75703 z m 1.51406,0 h 0.75704 v 0.255931 h -0.75704 z m 1.51407,0 h 0.75703 v 0.255931 h -0.75703 z m 1.51406,0 h 0.75703 v 0.255931 h -0.75703 z m 1.51406,0 h 0.75703 v 0.255931 h -0.75703 z m 1.51406,0 h 0.75703 v 0.255931 h -0.75703 z m 1.51406,0 h 0.75703 v 0.255931 h -0.75703 z m 1.51406,0 h 0.75704 v 0.255931 h -0.75704 z m 1.51407,0 h 0.75703 v 0.255931 h -0.75703 z m 1.51406,0 h 0.75703 v 0.255931 h -0.75703 z m 1.51406,0 h 0.75703 v 0.255931 h -0.75703 z m 1.51406,0 h 0.75703 v 0.255931 h -0.75703 z m 1.51406,0 h 0.75703 v 0.255931 h -0.75703 z m 1.51406,0 h 0.75703 v 0.255931 h -0.75703 z m 1.51407,0 h 0.75703 v 0.255931 h -0.75703 z m 1.51406,0 h 0.75703 v 0.255931 h -0.75703 z m 1.51406,0 h 0.75703 v 0.255931 h -0.75703 z m 1.51406,0 h 0.75703 v 0.255931 h -0.75703 z m 1.51406,0 h 0.75703 v 0.255931 h -0.75703 z m 1.51406,0 h 0.75703 v 0.255931 h -0.75703 z m 1.51406,0 h 0.75703 v 0.255931 h -0.75703 z m 1.51407,0 h 0.75703 v 0.255931 h -0.75703 z m 1.51406,0 h 0.75703 v 0.255931 h -0.75703 z m 1.51406,0 h 0.75703 v 0.255931 h -0.75703 z m 1.51406,0 h 0.75703 v 0.255931 h -0.75703 z m 1.51406,0 h 0.75703 v 0.255931 h -0.75703 z m 1.51406,0 h 0.75703 v 0.255931 h -0.75703 z m 1.51407,0 h 0.75703 v 0.255931 h -0.75703 z m 1.51406,0 h 0.75703 v 0.255931 h -0.75703 z m 1.51406,0 h 0.75703 v 0.255931 h -0.75703 z m 1.51406,0 v 0.255931 z m -54.50621,0 h 0.75703 v 0.255931 h -0.75703 z"
           id="path1040"
           style="stroke-width:0.0952395" />
        <line
           fill="none"
           stroke-width="0.253973"
           stroke-linejoin="round"
           stroke="#000000"
           stroke-opacity="1"
           x1="172.88846"
           y1="18.74432"
           x2="172.88846"
           y2="73.956535"
           id="line1042" />
        <path
           fill="#000000"
           fill-opacity="1"
           stroke-linejoin="round"
           d="m 156.90311,62.177083 h 0.75703 v 0.255931 h -0.75703 z m 1.51406,0 h 0.75704 v 0.255931 h -0.75704 z m 1.51407,0 h 0.75703 v 0.255931 h -0.75703 z m 1.51406,0 h 0.75703 v 0.255931 h -0.75703 z m 1.51405,0 h 0.75703 v 0.255931 h -0.75703 z m 1.51406,0 h 0.75703 v 0.255931 h -0.75703 z m 1.51406,0 h 0.75704 v 0.255931 h -0.75704 z m 1.51407,0 h 0.75703 v 0.255931 h -0.75703 z m 1.51406,0 h 0.75703 v 0.255931 h -0.75703 z m 1.51406,0 h 0.75703 v 0.255931 h -0.75703 z m 1.51406,0 h 0.75703 v 0.255931 h -0.75703 z m 1.51406,0 h 0.75703 v 0.255931 h -0.75703 z m 1.51406,0 h 0.75704 v 0.255931 h -0.75704 z m 1.51407,0 h 0.75703 v 0.255931 h -0.75703 z m 1.51406,0 h 0.75703 v 0.255931 h -0.75703 z m 1.51406,0 h 0.75703 v 0.255931 h -0.75703 z m 1.51406,0 h 0.75703 v 0.255931 h -0.75703 z m 1.51406,0 h 0.75703 v 0.255931 h -0.75703 z m 1.51406,0 h 0.75703 v 0.255931 h -0.75703 z m 1.51407,0 h 0.75703 v 0.255931 h -0.75703 z m 1.51406,0 h 0.75703 v 0.255931 h -0.75703 z m 1.51406,0 h 0.75703 v 0.255931 h -0.75703 z m 1.51406,0 h 0.75703 v 0.255931 h -0.75703 z m 1.51406,0 h 0.75703 v 0.255931 h -0.75703 z m 1.51406,0 h 0.75703 v 0.255931 h -0.75703 z m 1.51406,0 h 0.75703 v 0.255931 h -0.75703 z m 1.51407,0 h 0.75703 v 0.255931 h -0.75703 z m 1.51406,0 h 0.75703 v 0.255931 h -0.75703 z m 1.51406,0 h 0.75703 v 0.255931 h -0.75703 z m 1.51406,0 h 0.75703 v 0.255931 h -0.75703 z m 1.51406,0 h 0.75703 v 0.255931 h -0.75703 z m 1.51406,0 h 0.75703 v 0.255931 h -0.75703 z m 1.51407,0 h 0.75703 v 0.255931 h -0.75703 z m 1.51406,0 h 0.75703 v 0.255931 h -0.75703 z m 1.51406,0 h 0.75703 v 0.255931 h -0.75703 z m 1.51406,0 v 0.255931 z m -54.50621,0 h 0.75703 v 0.255931 h -0.75703 z"
           id="path1044"
           style="stroke-width:0.0952395" />
        <line
           fill="none"
           stroke-width="0.253973"
           stroke-linejoin="round"
           stroke="#000000"
           stroke-opacity="1"
           x1="188.02908"
           y1="18.74432"
           x2="188.02908"
           y2="73.956535"
           id="line1046" />
        <line
           fill="none"
           stroke-width="0.253973"
           stroke-linejoin="round"
           stroke="#000000"
           stroke-opacity="1"
           x1="200.14157"
           y1="18.74432"
           x2="200.14157"
           y2="73.956535"
           id="line1048" />
        <path
           fill="#000000"
           fill-opacity="1"
           stroke-linejoin="round"
           d="m 156.1828,46.302083 h 0.75703 v 0.255931 h -0.75703 z m 1.51406,0 h 0.75703 v 0.255931 h -0.75703 z m 1.51406,0 h 0.75703 v 0.255931 h -0.75703 z m 1.51407,0 h 0.75702 v 0.255931 h -0.75702 z m 1.51405,0 h 0.75702 v 0.255931 h -0.75702 z m 1.51405,0 h 0.75703 v 0.255931 h -0.75703 z m 1.51406,0 h 0.75704 v 0.255931 h -0.75704 z m 1.51407,0 h 0.75703 v 0.255931 h -0.75703 z m 1.51406,0 h 0.75703 v 0.255931 h -0.75703 z m 1.51406,0 h 0.75703 v 0.255931 h -0.75703 z m 1.51406,0 h 0.75703 v 0.255931 h -0.75703 z m 1.51406,0 h 0.75703 v 0.255931 h -0.75703 z m 1.51406,0 h 0.75704 v 0.255931 h -0.75704 z m 1.51407,0 h 0.75703 v 0.255931 h -0.75703 z m 1.51406,0 h 0.75703 v 0.255931 h -0.75703 z m 1.51406,0 h 0.75703 v 0.255931 h -0.75703 z m 1.51406,0 h 0.75703 v 0.255931 h -0.75703 z m 1.51406,0 h 0.75703 v 0.255931 h -0.75703 z m 1.51406,0 h 0.75703 v 0.255931 h -0.75703 z m 1.51407,0 h 0.75703 v 0.255931 h -0.75703 z m 1.51406,0 h 0.75703 v 0.255931 h -0.75703 z m 1.51406,0 h 0.75703 v 0.255931 h -0.75703 z m 1.51406,0 h 0.75703 v 0.255931 h -0.75703 z m 1.51406,0 h 0.75703 v 0.255931 h -0.75703 z m 1.51406,0 h 0.75703 v 0.255931 h -0.75703 z m 1.51406,0 h 0.75703 v 0.255931 h -0.75703 z m 1.51407,0 h 0.75703 v 0.255931 h -0.75703 z m 1.51406,0 h 0.75703 v 0.255931 h -0.75703 z m 1.51406,0 h 0.75703 v 0.255931 h -0.75703 z m 1.51406,0 h 0.75703 v 0.255931 h -0.75703 z m 1.51406,0 h 0.75703 v 0.255931 h -0.75703 z m 1.51406,0 h 0.75703 v 0.255931 h -0.75703 z m 1.51407,0 h 0.75703 v 0.255931 h -0.75703 z m 1.51406,0 h 0.75703 v 0.255931 h -0.75703 z m 1.51406,0 h 0.75703 v 0.255931 h -0.75703 z m 1.51406,0 v 0.255931 z m -54.5062,0 h 0.75703 v 0.255931 h -0.75703 z"
           id="path1050"
           style="stroke-width:0.0952395" />
        <path
           fill="#ffffff"
           fill-opacity="1"
           stroke-width="0.0174843"
           stroke-linejoin="round"
           d="m 164.08097,30.956246 c 1.44322,0 2.60922,1.34221 2.60922,2.99935 0,1.656204 -1.166,2.999351 -2.60922,2.999351 -1.44322,0 -2.60921,-1.343147 -2.60921,-2.999351 0,-1.65714 1.16599,-2.99935 2.60921,-2.99935 z"
           id="path1052" />
        <path
           fill="#000000"
           fill-opacity="1"
           stroke-linejoin="round"
           stroke="#000000"
           stroke-opacity="1"
           d="m 164.08097,32.250653 -1.69598,3.408949 h 3.39197 z"
           id="path1054"
           style="stroke-width:0.0874215" />
        <path
           fill="#ffffff"
           fill-opacity="1"
           stroke-width="0.014321"
           stroke-linejoin="round"
           d="m 172.94596,31.350167 c 1.09761,0 1.98439,1.18401 1.98439,2.645833 0,1.460996 -0.88678,2.645834 -1.98439,2.645834 -1.09141,0 -1.98438,-1.184838 -1.98438,-2.645834 0,-1.461823 0.89297,-2.645833 1.98438,-2.645833 z"
           id="path1058" />
        <text
           transform="scale(0.86602746,1.1546978)"
           xml:space="preserve"
           id="text1062"
           x="198.53316"
           y="30.658041"
           style="font-size:0.859262px;stroke-width:0.0716051"><tspan
   style="font-size:3.43705px;font-family:'メイリオ'"
   letter-spacing="0em"
   fill="#000000"
   fill-opacity="1"
   stroke-width="0.014321"
   stroke-linejoin="round"
   id="tspan1060">X</tspan>			</text>
        <path
           fill="#ffffff"
           fill-opacity="1"
           stroke-width="0.013715"
           stroke-linejoin="round"
           d="m 200.20396,31.450167 c 1.00668,0 1.81998,1.18401 1.81998,2.645833 0,1.460996 -0.8133,2.645834 -1.81998,2.645834 -1.00099,0 -1.81999,-1.184838 -1.81999,-2.645834 0,-1.461823 0.819,-2.645833 1.81999,-2.645833 z"
           id="path1066" />
        <text
           transform="scale(0.82937824,1.2057225)"
           xml:space="preserve"
           id="text1070"
           x="240.27264"
           y="29.443567"
           style="font-size:0.822899px;stroke-width:0.0685749"><tspan
   style="font-size:3.2916px;font-family:'メイリオ'"
   letter-spacing="0em"
   fill="#000000"
   fill-opacity="1"
   stroke-width="0.013715"
   stroke-linejoin="round"
   id="tspan1068">X</tspan>			</text>
        <path
           fill="#ffffff"
           fill-opacity="1"
           stroke-width="0.0133352"
           stroke-linejoin="round"
           d="m 187.95496,31.450095 c 0.96664,0 1.74761,1.165695 1.74761,2.604905 0,1.438396 -0.78097,2.604905 -1.74761,2.604905 -0.96119,0 -1.74761,-1.166509 -1.74761,-2.604905 0,-1.43921 0.78642,-2.604905 1.74761,-2.604905 z"
           id="path1074" />
        <path
           fill="#ffffff"
           fill-opacity="1"
           stroke-width="0.014321"
           stroke-linejoin="round"
           d="m 173.01749,43.537125 c 1.09761,0 1.98439,1.18401 1.98439,2.645833 0,1.460996 -0.88678,2.645834 -1.98439,2.645834 -1.09141,0 -1.98438,-1.184838 -1.98438,-2.645834 0,-1.461823 0.89297,-2.645833 1.98438,-2.645833 z"
           id="path1084" />
        <text
           transform="scale(0.86602746,1.1546978)"
           xml:space="preserve"
           id="text1088"
           x="198.61575"
           y="41.21228"
           style="font-size:0.859262px;stroke-width:0.0716051"><tspan
   style="font-size:3.43705px;font-family:'メイリオ'"
   letter-spacing="0em"
   fill="#000000"
   fill-opacity="1"
   stroke-width="0.014321"
   stroke-linejoin="round"
   id="tspan1086">X</tspan>			</text>
        <path
           fill="#ffffff"
           fill-opacity="1"
           stroke-width="0.013715"
           stroke-linejoin="round"
           d="m 200.27549,43.637125 c 1.00668,0 1.81998,1.18401 1.81998,2.645833 0,1.460996 -0.8133,2.645834 -1.81998,2.645834 -1.00099,0 -1.81999,-1.184838 -1.81999,-2.645834 0,-1.461823 0.819,-2.645833 1.81999,-2.645833 z"
           id="path1092" />
        <text
           transform="scale(0.82937824,1.2057225)"
           xml:space="preserve"
           id="text1096"
           x="240.35889"
           y="39.551167"
           style="font-size:0.822899px;stroke-width:0.0685749"><tspan
   style="font-size:3.2916px;font-family:'メイリオ'"
   letter-spacing="0em"
   fill="#000000"
   fill-opacity="1"
   stroke-width="0.013715"
   stroke-linejoin="round"
   id="tspan1094">X</tspan>			</text>
        <path
           fill="#ffffff"
           fill-opacity="1"
           stroke-width="0.0133352"
           stroke-linejoin="round"
           d="m 188.02649,43.637053 c 0.96664,0 1.74761,1.165695 1.74761,2.604905 0,1.438396 -0.78097,2.604905 -1.74761,2.604905 -0.96119,0 -1.74761,-1.166509 -1.74761,-2.604905 0,-1.43921 0.78642,-2.604905 1.74761,-2.604905 z"
           id="path1100" />
        <text
           transform="scale(0.81907993,1.2208821)"
           xml:space="preserve"
           id="text1104"
           x="228.47136"
           y="39.008682"
           style="font-size:0.80011px;stroke-width:0.0666758"><tspan
   style="font-size:3.20044px;font-family:'メイリオ'"
   letter-spacing="0em"
   fill="#000000"
   fill-opacity="1"
   stroke-width="0.0133352"
   stroke-linejoin="round"
   id="tspan1102">X</tspan>			</text>
        <path
           fill="#ffffff"
           fill-opacity="1"
           stroke-width="0.014321"
           stroke-linejoin="round"
           d="m 172.83716,59.449394 c 1.09761,0 1.98439,1.18401 1.98439,2.645833 0,1.460996 -0.88678,2.645834 -1.98439,2.645834 -1.09141,0 -1.98438,-1.184838 -1.98438,-2.645834 0,-1.461823 0.89297,-2.645833 1.98438,-2.645833 z"
           id="path1110" />
        <text
           transform="scale(0.86602746,1.1546978)"
           xml:space="preserve"
           id="text1114"
           x="198.40753"
           y="54.992744"
           style="font-size:0.859262px;stroke-width:0.0716051"><tspan
   style="font-size:3.43705px;font-family:'メイリオ'"
   letter-spacing="0em"
   fill="#000000"
   fill-opacity="1"
   stroke-width="0.014321"
   stroke-linejoin="round"
   id="tspan1112">X</tspan>			</text>
        <path
           fill="#ffffff"
           fill-opacity="1"
           stroke-width="0.013715"
           stroke-linejoin="round"
           d="m 200.09516,59.549394 c 1.00668,0 1.81998,1.18401 1.81998,2.645833 0,1.460996 -0.8133,2.645834 -1.81998,2.645834 -1.00099,0 -1.81999,-1.184838 -1.81999,-2.645834 0,-1.461823 0.819,-2.645833 1.81999,-2.645833 z"
           id="path1118" />
        <text
           transform="scale(0.82937824,1.2057225)"
           xml:space="preserve"
           id="text1122"
           x="240.14146"
           y="52.748455"
           style="font-size:0.822899px;stroke-width:0.0685749"><tspan
   style="font-size:3.2916px;font-family:'メイリオ'"
   letter-spacing="0em"
   fill="#000000"
   fill-opacity="1"
   stroke-width="0.013715"
   stroke-linejoin="round"
   id="tspan1120">X</tspan>			</text>
        <path
           fill="#ffffff"
           fill-opacity="1"
           stroke-width="0.0133352"
           stroke-linejoin="round"
           d="m 187.84616,59.549322 c 0.96664,0 1.74761,1.165695 1.74761,2.604905 0,1.438396 -0.78097,2.604905 -1.74761,2.604905 -0.96119,0 -1.74761,-1.166509 -1.74761,-2.604905 0,-1.43921 0.78642,-2.604905 1.74761,-2.604905 z"
           id="path1126" />
        <text
           transform="scale(0.81907993,1.2208821)"
           xml:space="preserve"
           id="text1130"
           x="228.25119"
           y="52.042103"
           style="font-size:0.80011px;stroke-width:0.0666758"><tspan
   style="font-size:3.20044px;font-family:'メイリオ'"
   letter-spacing="0em"
   fill="#000000"
   fill-opacity="1"
   stroke-width="0.0133352"
   stroke-linejoin="round"
   id="tspan1128">X</tspan>			</text>
      </g>
      <g
         id="g1584">
        <rect
           x="217.08672"
           y="18.520834"
           fill="#ffffff"
           fill-opacity="1"
           stroke-width="0.253973"
           stroke-linejoin="round"
           stroke="#000000"
           stroke-opacity="1"
           width="54.506214"
           height="55.212025"
           id="rect1138" />
        <path
           fill="#000000"
           fill-opacity="1"
           stroke-linejoin="round"
           d="m 218.49421,33.643179 h 0.75703 v 0.255931 h -0.75703 z m 1.51406,0 h 0.75703 v 0.255931 h -0.75703 z m 1.51406,0 h 0.75703 v 0.255931 h -0.75703 z m 1.51406,0 h 0.75703 v 0.255931 h -0.75703 z m 1.51406,0 h 0.75703 v 0.255931 h -0.75703 z m 1.51406,0 h 0.75703 v 0.255931 h -0.75703 z m 1.51406,0 h 0.75704 v 0.255931 h -0.75704 z m 1.51407,0 h 0.75703 v 0.255931 h -0.75703 z m 1.51406,0 h 0.75703 v 0.255931 h -0.75703 z m 1.51406,0 h 0.75703 v 0.255931 h -0.75703 z m 1.51406,0 h 0.75703 v 0.255931 h -0.75703 z m 1.51406,0 h 0.75703 v 0.255931 h -0.75703 z m 1.51406,0 h 0.75704 v 0.255931 h -0.75704 z m 1.51407,0 h 0.75703 v 0.255931 h -0.75703 z m 1.51406,0 h 0.75703 v 0.255931 h -0.75703 z m 1.51406,0 h 0.75703 v 0.255931 h -0.75703 z m 1.51406,0 h 0.75703 v 0.255931 h -0.75703 z m 1.51406,0 h 0.75703 v 0.255931 h -0.75703 z m 1.51406,0 h 0.75703 v 0.255931 h -0.75703 z m 1.51407,0 h 0.75703 v 0.255931 h -0.75703 z m 1.51406,0 h 0.75703 v 0.255931 h -0.75703 z m 1.51406,0 h 0.75703 v 0.255931 h -0.75703 z m 1.51406,0 h 0.75703 v 0.255931 h -0.75703 z m 1.51406,0 h 0.75703 v 0.255931 h -0.75703 z m 1.51406,0 h 0.75703 v 0.255931 h -0.75703 z m 1.51406,0 h 0.75703 v 0.255931 h -0.75703 z m 1.51407,0 h 0.75703 v 0.255931 h -0.75703 z m 1.51406,0 h 0.75703 v 0.255931 h -0.75703 z m 1.51406,0 h 0.75703 v 0.255931 h -0.75703 z m 1.51406,0 h 0.75703 v 0.255931 h -0.75703 z m 1.51406,0 h 0.75703 v 0.255931 h -0.75703 z m 1.51406,0 h 0.75703 v 0.255931 h -0.75703 z m 1.51407,0 h 0.75703 v 0.255931 h -0.75703 z m 1.51406,0 h 0.75703 v 0.255931 h -0.75703 z m 1.51406,0 h 0.75703 v 0.255931 h -0.75703 z m 1.51406,0 v 0.255931 z m -54.50621,0 h 0.75703 v 0.255931 h -0.75703 z"
           id="path1140"
           style="stroke-width:0.0952395" />
        <line
           fill="none"
           stroke-width="0.253973"
           stroke-linejoin="round"
           stroke="#000000"
           stroke-opacity="1"
           x1="235.25546"
           y1="18.520834"
           x2="235.25546"
           y2="73.733047"
           id="line1142" />
        <path
           fill="#000000"
           fill-opacity="1"
           stroke-linejoin="round"
           d="m 219.27011,61.953596 h 0.75703 v 0.255931 h -0.75703 z m 1.51406,0 h 0.75703 v 0.255931 h -0.75703 z m 1.51406,0 h 0.75703 v 0.255931 h -0.75703 z m 1.51406,0 h 0.75703 v 0.255931 h -0.75703 z m 1.51406,0 h 0.75703 v 0.255931 h -0.75703 z m 1.51406,0 h 0.75703 v 0.255931 h -0.75703 z m 1.51406,0 h 0.75704 v 0.255931 h -0.75704 z m 1.51407,0 h 0.75703 v 0.255931 h -0.75703 z m 1.51406,0 h 0.75703 v 0.255931 h -0.75703 z m 1.51406,0 h 0.75703 v 0.255931 h -0.75703 z m 1.51406,0 h 0.75703 v 0.255931 h -0.75703 z m 1.51406,0 h 0.75703 v 0.255931 h -0.75703 z m 1.51406,0 h 0.75704 v 0.255931 h -0.75704 z m 1.51407,0 h 0.75703 v 0.255931 h -0.75703 z m 1.51406,0 h 0.75703 v 0.255931 h -0.75703 z m 1.51406,0 h 0.75703 v 0.255931 h -0.75703 z m 1.51406,0 h 0.75703 v 0.255931 h -0.75703 z m 1.51406,0 h 0.75703 v 0.255931 h -0.75703 z m 1.51406,0 h 0.75703 v 0.255931 h -0.75703 z m 1.51407,0 h 0.75703 v 0.255931 h -0.75703 z m 1.51406,0 h 0.75703 v 0.255931 h -0.75703 z m 1.51406,0 h 0.75703 v 0.255931 h -0.75703 z m 1.51406,0 h 0.75703 v 0.255931 h -0.75703 z m 1.51406,0 h 0.75703 v 0.255931 h -0.75703 z m 1.51406,0 h 0.75703 v 0.255931 h -0.75703 z m 1.51406,0 h 0.75703 v 0.255931 h -0.75703 z m 1.51407,0 h 0.75703 v 0.255931 h -0.75703 z m 1.51406,0 h 0.75703 v 0.255931 h -0.75703 z m 1.51406,0 h 0.75703 v 0.255931 h -0.75703 z m 1.51406,0 h 0.75703 v 0.255931 h -0.75703 z m 1.51406,0 h 0.75703 v 0.255931 h -0.75703 z m 1.51406,0 h 0.75703 v 0.255931 h -0.75703 z m 1.51407,0 h 0.75703 v 0.255931 h -0.75703 z m 1.51406,0 h 0.75703 v 0.255931 h -0.75703 z m 1.51406,0 h 0.75703 v 0.255931 h -0.75703 z m 1.51406,0 v 0.255931 z m -54.50621,0 h 0.75703 v 0.255931 h -0.75703 z"
           id="path1144"
           style="stroke-width:0.0952395" />
        <line
           fill="none"
           stroke-width="0.253973"
           stroke-linejoin="round"
           stroke="#000000"
           stroke-opacity="1"
           x1="250.39609"
           y1="18.520834"
           x2="250.39609"
           y2="73.733047"
           id="line1146" />
        <line
           fill="none"
           stroke-width="0.253973"
           stroke-linejoin="round"
           stroke="#000000"
           stroke-opacity="1"
           x1="262.50858"
           y1="18.520834"
           x2="262.50858"
           y2="73.733047"
           id="line1148" />
        <path
           fill="#000000"
           fill-opacity="1"
           stroke-linejoin="round"
           d="m 218.5498,46.078596 h 0.75703 v 0.255931 h -0.75703 z m 1.51406,0 h 0.75703 v 0.255931 h -0.75703 z m 1.51406,0 h 0.75703 v 0.255931 h -0.75703 z m 1.51406,0 h 0.75703 v 0.255931 h -0.75703 z m 1.51405,0 h 0.75703 v 0.255931 h -0.75703 z m 1.51406,0 h 0.75703 v 0.255931 h -0.75703 z m 1.51406,0 h 0.75704 v 0.255931 h -0.75704 z m 1.51407,0 h 0.75703 v 0.255931 h -0.75703 z m 1.51406,0 h 0.75703 v 0.255931 h -0.75703 z m 1.51406,0 h 0.75703 v 0.255931 h -0.75703 z m 1.51406,0 h 0.75703 v 0.255931 h -0.75703 z m 1.51406,0 h 0.75703 v 0.255931 h -0.75703 z m 1.51406,0 h 0.75704 v 0.255931 h -0.75704 z m 1.51407,0 h 0.75703 v 0.255931 h -0.75703 z m 1.51406,0 h 0.75703 v 0.255931 h -0.75703 z m 1.51406,0 h 0.75703 v 0.255931 h -0.75703 z m 1.51406,0 h 0.75703 v 0.255931 h -0.75703 z m 1.51406,0 h 0.75703 v 0.255931 h -0.75703 z m 1.51406,0 h 0.75703 v 0.255931 h -0.75703 z m 1.51407,0 h 0.75703 v 0.255931 h -0.75703 z m 1.51406,0 h 0.75703 v 0.255931 h -0.75703 z m 1.51406,0 h 0.75703 v 0.255931 h -0.75703 z m 1.51406,0 h 0.75703 v 0.255931 h -0.75703 z m 1.51406,0 h 0.75703 v 0.255931 h -0.75703 z m 1.51406,0 h 0.75703 v 0.255931 h -0.75703 z m 1.51406,0 h 0.75703 v 0.255931 h -0.75703 z m 1.51407,0 h 0.75703 v 0.255931 h -0.75703 z m 1.51406,0 h 0.75703 v 0.255931 h -0.75703 z m 1.51406,0 h 0.75703 v 0.255931 h -0.75703 z m 1.51406,0 h 0.75703 v 0.255931 h -0.75703 z m 1.51406,0 h 0.75703 v 0.255931 h -0.75703 z m 1.51406,0 h 0.75703 v 0.255931 h -0.75703 z m 1.51407,0 h 0.75703 v 0.255931 h -0.75703 z m 1.51406,0 h 0.75703 v 0.255931 h -0.75703 z m 1.51406,0 h 0.75703 v 0.255931 h -0.75703 z m 1.51406,0 v 0.255931 z m -54.5062,0 h 0.75703 v 0.255931 h -0.75703 z"
           id="path1150"
           style="stroke-width:0.0952395" />
        <path
           fill="#ffffff"
           fill-opacity="1"
           stroke-width="0.0174843"
           stroke-linejoin="round"
           d="m 226.44797,30.732759 c 1.44322,0 2.60922,1.34221 2.60922,2.99935 0,1.656204 -1.166,2.999351 -2.60922,2.999351 -1.44322,0 -2.60921,-1.343147 -2.60921,-2.999351 0,-1.65714 1.16599,-2.99935 2.60921,-2.99935 z"
           id="path1152" />
        <path
           fill="#000000"
           fill-opacity="1"
           stroke-linejoin="round"
           stroke="#000000"
           stroke-opacity="1"
           d="m 226.44797,32.027166 -1.69598,3.408949 h 3.39197 z"
           id="path1154"
           style="stroke-width:0.0874215" />
        <path
           fill="#ffffff"
           fill-opacity="1"
           stroke-width="0.014321"
           stroke-linejoin="round"
           d="m 235.31296,31.12668 c 1.09761,0 1.98439,1.18401 1.98439,2.645833 0,1.460996 -0.88678,2.645834 -1.98439,2.645834 -1.09141,0 -1.98438,-1.184838 -1.98438,-2.645834 0,-1.461823 0.89297,-2.645833 1.98438,-2.645833 z"
           id="path1158" />
        <text
           transform="scale(0.86602746,1.1546978)"
           xml:space="preserve"
           id="text1162"
           x="270.54819"
           y="30.464495"
           style="font-size:0.859262px;stroke-width:0.0716051"><tspan
   style="font-size:3.43705px;font-family:'メイリオ'"
   letter-spacing="0em"
   fill="#000000"
   fill-opacity="1"
   stroke-width="0.014321"
   stroke-linejoin="round"
   id="tspan1160">X</tspan>			</text>
        <path
           fill="#ffffff"
           fill-opacity="1"
           stroke-width="0.013715"
           stroke-linejoin="round"
           d="m 262.57096,31.22668 c 1.00668,0 1.81998,1.18401 1.81998,2.645833 0,1.460996 -0.8133,2.645834 -1.81998,2.645834 -1.00099,0 -1.81999,-1.184838 -1.81999,-2.645834 0,-1.461823 0.819,-2.645833 1.81999,-2.645833 z"
           id="path1166" />
        <path
           fill="#ffffff"
           fill-opacity="1"
           stroke-width="0.0133352"
           stroke-linejoin="round"
           d="m 250.32196,31.226608 c 0.96664,0 1.74761,1.165695 1.74761,2.604905 0,1.438396 -0.78097,2.604905 -1.74761,2.604905 -0.96119,0 -1.74761,-1.166509 -1.74761,-2.604905 0,-1.43921 0.78642,-2.604905 1.74761,-2.604905 z"
           id="path1174" />
        <text
           transform="scale(0.81907993,1.2208821)"
           xml:space="preserve"
           id="text1178"
           x="304.52676"
           y="28.843534"
           style="font-size:0.80011px;stroke-width:0.0666758"><tspan
   style="font-size:3.20044px;font-family:'メイリオ'"
   letter-spacing="0em"
   fill="#000000"
   fill-opacity="1"
   stroke-width="0.0133352"
   stroke-linejoin="round"
   id="tspan1176">X</tspan>			</text>
        <path
           fill="#ffffff"
           fill-opacity="1"
           stroke-width="0.014321"
           stroke-linejoin="round"
           d="m 235.38449,43.313638 c 1.09761,0 1.98439,1.18401 1.98439,2.645833 0,1.460996 -0.88678,2.645834 -1.98439,2.645834 -1.09141,0 -1.98438,-1.184838 -1.98438,-2.645834 0,-1.461823 0.89297,-2.645833 1.98438,-2.645833 z"
           id="path1184" />
        <path
           fill="#ffffff"
           fill-opacity="1"
           stroke-width="0.013715"
           stroke-linejoin="round"
           d="m 262.64249,43.413638 c 1.00668,0 1.81998,1.18401 1.81998,2.645833 0,1.460996 -0.8133,2.645834 -1.81998,2.645834 -1.00099,0 -1.81999,-1.184838 -1.81999,-2.645834 0,-1.461823 0.819,-2.645833 1.81999,-2.645833 z"
           id="path1192" />
        <text
           transform="scale(0.82937824,1.2057225)"
           xml:space="preserve"
           id="text1196"
           x="315.55618"
           y="39.36581"
           style="font-size:0.822899px;stroke-width:0.0685749"><tspan
   style="font-size:3.2916px;font-family:'メイリオ'"
   letter-spacing="0em"
   fill="#000000"
   fill-opacity="1"
   stroke-width="0.013715"
   stroke-linejoin="round"
   id="tspan1194">X</tspan>			</text>
        <path
           fill="#ffffff"
           fill-opacity="1"
           stroke-width="0.0133352"
           stroke-linejoin="round"
           d="m 250.39349,43.413566 c 0.96664,0 1.74761,1.165695 1.74761,2.604905 0,1.438396 -0.78097,2.604905 -1.74761,2.604905 -0.96119,0 -1.74761,-1.166509 -1.74761,-2.604905 0,-1.43921 0.78642,-2.604905 1.74761,-2.604905 z"
           id="path1200" />
        <text
           transform="scale(0.81907993,1.2208821)"
           xml:space="preserve"
           id="text1204"
           x="304.61411"
           y="38.825626"
           style="font-size:0.80011px;stroke-width:0.0666758"><tspan
   style="font-size:3.20044px;font-family:'メイリオ'"
   letter-spacing="0em"
   fill="#000000"
   fill-opacity="1"
   stroke-width="0.0133352"
   stroke-linejoin="round"
   id="tspan1202">X</tspan>			</text>
        <path
           fill="#ffffff"
           fill-opacity="1"
           stroke-width="0.014321"
           stroke-linejoin="round"
           d="m 235.20416,59.225907 c 1.09761,0 1.98439,1.18401 1.98439,2.645833 0,1.460996 -0.88678,2.645834 -1.98439,2.645834 -1.09141,0 -1.98438,-1.184838 -1.98438,-2.645834 0,-1.461823 0.89297,-2.645833 1.98438,-2.645833 z"
           id="path1210" />
        <text
           transform="scale(0.86602746,1.1546978)"
           xml:space="preserve"
           id="text1214"
           x="270.42258"
           y="54.799198"
           style="font-size:0.859262px;stroke-width:0.0716051"><tspan
   style="font-size:3.43705px;font-family:'メイリオ'"
   letter-spacing="0em"
   fill="#000000"
   fill-opacity="1"
   stroke-width="0.014321"
   stroke-linejoin="round"
   id="tspan1212">X</tspan>			</text>
        <path
           fill="#ffffff"
           fill-opacity="1"
           stroke-width="0.013715"
           stroke-linejoin="round"
           d="m 262.46216,59.325907 c 1.00668,0 1.81998,1.18401 1.81998,2.645833 0,1.460996 -0.8133,2.645834 -1.81998,2.645834 -1.00099,0 -1.81999,-1.184838 -1.81999,-2.645834 0,-1.461823 0.819,-2.645833 1.81999,-2.645833 z"
           id="path1218" />
        <text
           transform="scale(0.82937824,1.2057225)"
           xml:space="preserve"
           id="text1222"
           x="315.33875"
           y="52.563099"
           style="font-size:0.822899px;stroke-width:0.0685749"><tspan
   style="font-size:3.2916px;font-family:'メイリオ'"
   letter-spacing="0em"
   fill="#000000"
   fill-opacity="1"
   stroke-width="0.013715"
   stroke-linejoin="round"
   id="tspan1220">X</tspan>			</text>
        <path
           fill="#ffffff"
           fill-opacity="1"
           stroke-width="0.0133352"
           stroke-linejoin="round"
           d="m 250.21316,59.325835 c 0.96664,0 1.74761,1.165695 1.74761,2.604905 0,1.438396 -0.78097,2.604905 -1.74761,2.604905 -0.96119,0 -1.74761,-1.166509 -1.74761,-2.604905 0,-1.43921 0.78642,-2.604905 1.74761,-2.604905 z"
           id="path1226" />
      </g>
    </g>
  </g>
</svg>
