<?xml version="1.0" encoding="UTF-8" standalone="no"?>
<!-- Created with Inkscape (http://www.inkscape.org/) -->

<svg
   width="297mm"
   height="210mm"
   viewBox="0 0 297 210"
   version="1.1"
   id="svg4359"
   inkscape:version="1.2.2 (732a01da63, 2022-12-09)"
   sodipodi:docname="image35.svg"
   xmlns:inkscape="http://www.inkscape.org/namespaces/inkscape"
   xmlns:sodipodi="http://sodipodi.sourceforge.net/DTD/sodipodi-0.dtd"
   xmlns="http://www.w3.org/2000/svg"
   xmlns:svg="http://www.w3.org/2000/svg">
  <sodipodi:namedview
     id="namedview4361"
     pagecolor="#ffffff"
     bordercolor="#000000"
     borderopacity="0.25"
     inkscape:showpageshadow="2"
     inkscape:pageopacity="0.0"
     inkscape:pagecheckerboard="0"
     inkscape:deskcolor="#d1d1d1"
     inkscape:document-units="mm"
     showgrid="true"
     inkscape:zoom="1.829812"
     inkscape:cx="633.94491"
     inkscape:cy="493.76657"
     inkscape:window-width="2331"
     inkscape:window-height="1610"
     inkscape:window-x="1192"
     inkscape:window-y="1141"
     inkscape:window-maximized="0"
     inkscape:current-layer="layer1">
    <inkscape:grid
       type="xygrid"
       id="grid5823" />
  </sodipodi:namedview>
  <defs
     id="defs4356">
    <rect
       x="266.14756"
       y="310.4144"
       width="799.53569"
       height="350.85572"
       id="rect1207" />
    <rect
       x="331.72807"
       y="323.5305"
       width="640.50296"
       height="281.99618"
       id="rect1201" />
  </defs>
  <g
     inkscape:label="Layer 1"
     inkscape:groupmode="layer"
     id="layer1">
    <rect
       x="92.604164"
       y="92.604164"
       fill="#ffffff"
       fill-opacity="1"
       stroke-width="0.256922"
       stroke-linejoin="round"
       stroke="#000000"
       stroke-opacity="1"
       width="55.286903"
       height="55.704811"
       id="rect1950"
       inkscape:export-filename="img35a1.png"
       inkscape:export-xdpi="96"
       inkscape:export-ydpi="96" />
    <path
       fill="#ffffff"
       fill-opacity="1"
       stroke-width="0.255318"
       stroke-linejoin="round"
       stroke="#000000"
       stroke-opacity="1"
       d="m 129.60374,95.170747 c 6.76916,0 12.25533,5.486843 12.25533,12.255313 0,6.7684 -5.48617,12.25534 -12.25533,12.25534 -6.76915,0 -12.25533,-5.48694 -12.25533,-12.25534 0,-6.76847 5.48618,-12.255313 12.25533,-12.255313 z"
       id="path1952" />
    <path
       fill="#000000"
       fill-opacity="1"
       stroke-linejoin="round"
       d="m 94.586873,111.125 h 0.765943 v 0.25533 h -0.765943 z m 1.531905,0 h 0.765953 v 0.25533 h -0.765953 z m 1.531914,0 h 0.765962 v 0.25533 h -0.765962 z m 1.531924,0 h 0.765952 v 0.25533 h -0.765952 z m 1.531914,0 h 0.76598 v 0.25533 h -0.76598 z m 1.53192,0 h 0.76596 v 0.25533 h -0.76596 z m 1.53191,0 h 0.76596 v 0.25533 h -0.76596 z m 1.53192,0 h 0.76596 v 0.25533 h -0.76596 z m 1.53191,0 h 0.76596 v 0.25533 h -0.76596 z m 1.53192,0 h 0.76598 v 0.25533 h -0.76598 z m 1.53192,0 h 0.76596 v 0.25533 h -0.76596 z m 1.53191,0 h 0.76596 v 0.25533 h -0.76596 z m 1.53192,0 h 0.76596 v 0.25533 h -0.76596 z m 1.53191,0 h 0.76596 v 0.25533 h -0.76596 z m 1.53191,0 h 0.76598 v 0.25533 h -0.76598 z m 1.53193,0 h 0.76596 v 0.25533 h -0.76596 z m 1.53191,0 h 0.76596 v 0.25533 h -0.76596 z m 1.53192,0 h 0.76596 v 0.25533 h -0.76596 z m 1.53191,0 h 0.76596 v 0.25533 h -0.76596 z m 1.53192,0 h 0.76596 v 0.25533 h -0.76596 z m 1.53192,0 h 0.76596 v 0.25533 h -0.76596 z m 1.53191,0 h 0.76596 v 0.25533 h -0.76596 z m 1.53192,0 h 0.76596 v 0.25533 h -0.76596 z m 1.53192,0 h 0.76595 v 0.25533 h -0.76595 z m 1.53191,0 h 0.76596 v 0.25533 h -0.76596 z m 1.53192,0 h 0.76595 v 0.25533 h -0.76595 z m 1.53191,0 h 0.76596 v 0.25533 h -0.76596 z m 1.53193,0 h 0.76595 v 0.25533 h -0.76595 z m 1.53191,0 h 0.76595 v 0.25533 h -0.76595 z m 1.53191,0 h 0.76596 v 0.25533 h -0.76596 z m 1.53192,0 h 0.76595 v 0.25533 h -0.76595 z m 1.53191,0 h 0.76595 v 0.25533 h -0.76595 z m 1.53192,0 h 0.76596 v 0.25533 h -0.76596 z m 1.53192,0 h 0.76595 v 0.25533 h -0.76595 z m 1.53191,0 h 0.76596 v 0.25533 h -0.76596 z m 1.53192,0 v 0.25533 z m -55.148975,0 h 0.765947 v 0.25533 h -0.765947 z"
       id="path1956"
       style="stroke-width:0.0957443" />
    <line
       fill="none"
       stroke-width="0.255318"
       stroke-linejoin="round"
       stroke="#000000"
       stroke-opacity="1"
       x1="108.06125"
       y1="93.160088"
       x2="108.06125"
       y2="148.3091"
       id="line1958" />
    <path
       fill="#000000"
       fill-opacity="1"
       stroke-linejoin="round"
       d="m 94.759727,130.175 h 0.765943 v 0.25534 h -0.765943 z m 1.531905,0 h 0.765953 v 0.25534 h -0.765953 z m 1.531914,0 h 0.765962 v 0.25534 h -0.765962 z m 1.531924,0 h 0.76596 v 0.25534 h -0.76596 z m 1.53192,0 h 0.76598 v 0.25534 h -0.76598 z m 1.53192,0 h 0.76596 v 0.25534 h -0.76596 z m 1.53191,0 h 0.76596 v 0.25534 h -0.76596 z m 1.53192,0 h 0.76596 v 0.25534 h -0.76596 z m 1.53191,0 h 0.76596 v 0.25534 h -0.76596 z m 1.53192,0 h 0.76598 v 0.25534 h -0.76598 z m 1.53192,0 h 0.76596 v 0.25534 h -0.76596 z m 1.53191,0 h 0.76596 v 0.25534 h -0.76596 z m 1.53192,0 h 0.76596 v 0.25534 h -0.76596 z m 1.53191,0 h 0.76596 v 0.25534 h -0.76596 z m 1.53191,0 h 0.76598 v 0.25534 h -0.76598 z m 1.53193,0 h 0.76596 v 0.25534 h -0.76596 z m 1.53191,0 h 0.76596 v 0.25534 h -0.76596 z m 1.53192,0 h 0.76596 v 0.25534 h -0.76596 z m 1.53191,0 h 0.76596 v 0.25534 h -0.76596 z m 1.53192,0 h 0.76596 v 0.25534 h -0.76596 z m 1.53192,0 h 0.76596 v 0.25534 h -0.76596 z m 1.53191,0 h 0.76596 v 0.25534 h -0.76596 z m 1.53192,0 h 0.76596 v 0.25534 h -0.76596 z m 1.53192,0 h 0.76595 v 0.25534 h -0.76595 z m 1.53191,0 h 0.76596 v 0.25534 h -0.76596 z m 1.53192,0 h 0.76595 v 0.25534 h -0.76595 z m 1.53191,0 h 0.76596 v 0.25534 h -0.76596 z m 1.53193,0 h 0.76595 v 0.25534 h -0.76595 z m 1.53191,0 h 0.76595 v 0.25534 h -0.76595 z m 1.53191,0 h 0.76596 v 0.25534 h -0.76596 z m 1.53192,0 h 0.76595 v 0.25534 h -0.76595 z m 1.53191,0 h 0.76595 v 0.25534 h -0.76595 z m 1.53192,0 h 0.76596 v 0.25534 h -0.76596 z m 1.53192,0 h 0.76595 v 0.25534 h -0.76595 z m 1.53191,0 h 0.76596 v 0.25534 h -0.76596 z m 1.53192,0 v 0.25534 z m -55.148981,0 h 0.765947 v 0.25534 h -0.765947 z"
       id="path1962"
       style="stroke-width:0.0957443" />
    <text
       xml:space="preserve"
       id="text1966"
       x="87.537933"
       y="112.11678"
       style="font-size:1.14893px;stroke-width:0.0957443">		 <tspan
   style="font-size:2.55318px;font-family:'メイリオ'"
   letter-spacing="0em"
   fill="#000000"
   fill-opacity="1"
   stroke-width="0.0191489"
   stroke-linejoin="round"
   id="tspan1964">r0</tspan>	</text>
    <text
       xml:space="preserve"
       id="text1970"
       x="87.537933"
       y="130.49982"
       style="font-size:1.14893px;stroke-width:0.0957443">		 <tspan
   style="font-size:2.55318px;font-family:'メイリオ'"
   letter-spacing="0em"
   fill="#000000"
   fill-opacity="1"
   stroke-width="0.0191489"
   stroke-linejoin="round"
   id="tspan1968">r1</tspan>	</text>
    <text
       xml:space="preserve"
       id="text1974"
       x="104.70422"
       y="91.971069"
       style="font-size:1.14893px;stroke-width:0.0957443">		 <tspan
   style="font-size:2.55318px;font-family:'メイリオ'"
   letter-spacing="0em"
   fill="#000000"
   fill-opacity="1"
   stroke-width="0.0191489"
   stroke-linejoin="round"
   id="tspan1972">c0</tspan>	</text>
    <text
       xml:space="preserve"
       id="text1978"
       x="120.02338"
       y="91.971069"
       style="font-size:1.14893px;stroke-width:0.0957443">		 <tspan
   style="font-size:2.55318px;font-family:'メイリオ'"
   letter-spacing="0em"
   fill="#000000"
   fill-opacity="1"
   stroke-width="0.0191489"
   stroke-linejoin="round"
   id="tspan1976">c1</tspan>	</text>
    <text
       xml:space="preserve"
       id="text1982"
       x="133.20819"
       y="92.060844"
       style="font-size:1.14893px;stroke-width:0.0957443">		 <tspan
   style="font-size:2.55318px;font-family:'メイリオ'"
   letter-spacing="0em"
   fill="#000000"
   fill-opacity="1"
   stroke-width="0.0191489"
   stroke-linejoin="round"
   id="tspan1980">cx</tspan>	</text>
    <line
       fill="none"
       stroke-width="0.255318"
       stroke-linejoin="round"
       stroke="#000000"
       stroke-opacity="1"
       x1="123.38041"
       y1="92.734314"
       x2="123.38041"
       y2="147.8833"
       id="line1984" />
    <path
       fill="#000000"
       fill-opacity="1"
       stroke-linejoin="round"
       d="m 135.98976,94.413998 v 0.76595 h -0.25851 v -0.76595 z m 0,1.531913 v 0.765964 h -0.25851 v -0.765964 z m 0,1.531914 v 0.765962 h -0.25851 v -0.765962 z m 0,1.531914 v 0.765958 h -0.25851 v -0.765958 z m 0,1.531931 v 0.76595 h -0.25851 v -0.76595 z m 0,1.53191 v 0.76595 h -0.25851 v -0.76595 z m 0,1.53192 v 0.76596 h -0.25851 v -0.76596 z m 0,1.53191 v 0.76596 h -0.25851 v -0.76596 z m 0,1.53191 v 0.76597 h -0.25851 v -0.76597 z m 0,1.53193 v 0.76595 h -0.25851 v -0.76595 z m 0,1.53191 v 0.76595 h -0.25851 v -0.76595 z m 0,1.53192 v 0.76596 h -0.25851 v -0.76596 z m 0,1.53191 v 0.76596 h -0.25851 v -0.76596 z m 0,1.53191 v 0.76597 h -0.25851 v -0.76597 z m 0,1.53193 v 0.76595 h -0.25851 v -0.76595 z m 0,1.53191 h -0.25851 z m 0,-24.510655 v 0.76595 h -0.25851 v -0.76595 z"
       id="path1988"
       style="stroke-width:0.0957443" />
    <path
       fill="#ffffff"
       fill-opacity="1"
       stroke-width="0.0191489"
       stroke-linejoin="round"
       d="m 108.06117,108.47917 c 1.69469,0 3.06383,1.37174 3.06383,3.06382 0,1.69211 -1.36914,3.06385 -3.06383,3.06385 -1.68511,0 -3.06383,-1.37174 -3.06383,-3.06385 0,-1.69208 1.37872,-3.06382 3.06383,-3.06382 z"
       id="path1990" />
    <path
       fill="#ffffff"
       fill-opacity="1"
       stroke-width="0.0191489"
       stroke-linejoin="round"
       d="m 108.06117,126.86226 c 1.69469,0 3.06383,1.37164 3.06383,3.06382 0,1.69211 -1.36914,3.06384 -3.06383,3.06384 -1.68511,0 -3.06383,-1.37173 -3.06383,-3.06384 0,-1.69218 1.37872,-3.06382 3.06383,-3.06382 z"
       id="path1992" />
    <path
       fill="#ffffff"
       fill-opacity="1"
       stroke-width="0.0191489"
       stroke-linejoin="round"
       d="m 123.38033,108.47927 c 1.69469,0 3.06383,1.37164 3.06383,3.06383 0,1.69208 -1.36914,3.06382 -3.06383,3.06382 -1.68511,0 -3.06383,-1.37174 -3.06383,-3.06382 0,-1.69219 1.37872,-3.06383 3.06383,-3.06383 z"
       id="path1994" />
    <path
       fill="#ffffff"
       fill-opacity="1"
       stroke-width="0.0191489"
       stroke-linejoin="round"
       d="m 123.38033,126.86226 c 1.69469,0 3.06383,1.37164 3.06383,3.06382 0,1.69211 -1.36914,3.06384 -3.06383,3.06384 -1.68511,0 -3.06383,-1.37173 -3.06383,-3.06384 0,-1.69218 1.37872,-3.06382 3.06383,-3.06382 z"
       id="path1996" />
    <path
       fill="#ffffff"
       fill-opacity="1"
       stroke-width="0.0191489"
       stroke-linejoin="round"
       d="m 135.63567,108.47927 c 1.69468,0 3.06382,1.37164 3.06382,3.06383 0,1.69208 -1.36914,3.06382 -3.06382,3.06382 -1.68512,0 -3.06384,-1.37174 -3.06384,-3.06382 0,-1.69219 1.37872,-3.06383 3.06384,-3.06383 z"
       id="path1998" />
    <text
       xml:space="preserve"
       id="text2002"
       x="106.88352"
       y="113.07424"
       style="font-size:1.14893px;stroke-width:0.0957443"><tspan
   style="font-size:3.82979px;font-family:'メイリオ'"
   letter-spacing="0em"
   fill="#000000"
   fill-opacity="1"
   stroke-width="0.0191489"
   stroke-linejoin="round"
   id="tspan2000">X</tspan>	</text>
    <text
       xml:space="preserve"
       id="text2006"
       x="122.20267"
       y="113.07424"
       style="font-size:1.14893px;stroke-width:0.0957443"><tspan
   style="font-size:3.82979px;font-family:'メイリオ'"
   letter-spacing="0em"
   fill="#000000"
   fill-opacity="1"
   stroke-width="0.0191489"
   stroke-linejoin="round"
   id="tspan2004">X</tspan>	</text>
    <path
       fill="#ffffff"
       fill-opacity="1"
       stroke-width="0.255318"
       stroke-linejoin="round"
       stroke="#000000"
       stroke-opacity="1"
       d="m 135.63567,108.47927 c 1.69468,0 3.06382,1.37164 3.06382,3.06383 0,1.69208 -1.36914,3.06382 -3.06382,3.06382 -1.68512,0 -3.06384,-1.37174 -3.06384,-3.06382 0,-1.69219 1.37872,-3.06383 3.06384,-3.06383 z"
       id="path2008" />
    <text
       xml:space="preserve"
       id="text2012"
       x="134.45799"
       y="113.07424"
       style="font-size:1.14893px;stroke-width:0.0957443"><tspan
   style="font-size:3.82979px;font-family:'メイリオ'"
   letter-spacing="0em"
   fill="#000000"
   fill-opacity="1"
   stroke-width="0.0191489"
   stroke-linejoin="round"
   id="tspan2010">X</tspan>	</text>
    <text
       xml:space="preserve"
       id="text2016"
       x="106.88352"
       y="131.45723"
       style="font-size:1.14893px;stroke-width:0.0957443"><tspan
   style="font-size:3.82979px;font-family:'メイリオ'"
   letter-spacing="0em"
   fill="#000000"
   fill-opacity="1"
   stroke-width="0.0191489"
   stroke-linejoin="round"
   id="tspan2014">X</tspan>	</text>
    <text
       xml:space="preserve"
       id="text2020"
       x="122.20267"
       y="131.45723"
       style="font-size:1.14893px;stroke-width:0.0957443"><tspan
   style="font-size:3.82979px;font-family:'メイリオ'"
   letter-spacing="0em"
   fill="#000000"
   fill-opacity="1"
   stroke-width="0.0191489"
   stroke-linejoin="round"
   id="tspan2018">X</tspan>	</text>
    <rect
       x="154.15208"
       y="92.461754"
       fill="#ffffff"
       fill-opacity="1"
       stroke-width="0.255318"
       stroke-linejoin="round"
       stroke="#000000"
       stroke-opacity="1"
       width="55.148975"
       height="55.148975"
       id="rect2022"
       inkscape:export-filename="img35a2.png"
       inkscape:export-xdpi="96"
       inkscape:export-ydpi="96" />
    <path
       fill="#ffffff"
       fill-opacity="1"
       stroke-width="0.255318"
       stroke-linejoin="round"
       stroke="#000000"
       stroke-opacity="1"
       d="m 191.01375,94.472497 c 6.76916,0 12.25533,5.48684 12.25533,12.255313 0,6.7684 -5.48617,12.25534 -12.25533,12.25534 -6.76916,0 -12.25533,-5.48694 -12.25533,-12.25534 0,-6.768473 5.48617,-12.255313 12.25533,-12.255313 z"
       id="path2024" />
    <path
       fill="#000000"
       fill-opacity="1"
       stroke-linejoin="round"
       d="m 156.58772,110.90862 h 0.76596 v 0.25533 h -0.76596 z m 1.53194,0 h 0.76594 v 0.25533 h -0.76594 z m 1.53191,0 h 0.76594 v 0.25533 h -0.76594 z m 1.5319,0 h 0.76596 v 0.25533 h -0.76596 z m 1.53192,0 h 0.76595 v 0.25533 h -0.76595 z m 1.53191,0 h 0.76596 v 0.25533 h -0.76596 z m 1.53193,0 h 0.76595 v 0.25533 h -0.76595 z m 1.53192,0 h 0.76594 v 0.25533 h -0.76594 z m 1.5319,0 h 0.76596 v 0.25533 h -0.76596 z m 1.53192,0 h 0.76595 v 0.25533 h -0.76595 z m 1.53191,0 h 0.76596 v 0.25533 h -0.76596 z m 1.53192,0 h 0.76596 v 0.25533 h -0.76596 z m 1.53193,0 h 0.76594 v 0.25533 h -0.76594 z m 1.5319,0 h 0.76596 v 0.25533 h -0.76596 z m 1.53192,0 h 0.76597 v 0.25533 h -0.76597 z m 1.53191,0 h 0.76596 v 0.25533 h -0.76596 z m 1.53192,0 h 0.76596 v 0.25533 h -0.76596 z m 1.53191,0 h 0.76596 v 0.25533 h -0.76596 z m 1.53192,0 h 0.76597 v 0.25533 h -0.76597 z m 1.53192,0 h 0.76597 v 0.25533 h -0.76597 z m 1.53191,0 h 0.76596 v 0.25533 h -0.76596 z m 1.53192,0 h 0.76596 v 0.25533 h -0.76596 z m 1.53191,0 h 0.76596 v 0.25533 h -0.76596 z m 1.53191,0 h 0.76598 v 0.25533 h -0.76598 z m 1.53193,0 h 0.76597 v 0.25533 h -0.76597 z m 1.53191,0 h 0.76596 v 0.25533 h -0.76596 z m 1.53192,0 h 0.76596 v 0.25533 h -0.76596 z m 1.53191,0 h 0.76596 v 0.25533 h -0.76596 z m 1.53192,0 h 0.76596 v 0.25533 h -0.76596 z m 1.53192,0 h 0.76597 v 0.25533 h -0.76597 z m 1.53191,0 h 0.76596 v 0.25533 h -0.76596 z m 1.53192,0 h 0.76596 v 0.25533 h -0.76596 z m 1.53193,0 h 0.76594 v 0.25533 h -0.76594 z m 1.5319,0 h 0.76596 v 0.25533 h -0.76596 z m 1.53192,0 h 0.76595 v 0.25533 h -0.76595 z m 1.53191,0 v 0.25533 z m -55.14897,0 h 0.76595 v 0.25533 h -0.76595 z"
       id="path2028"
       style="stroke-width:0.0957443" />
    <line
       fill="none"
       stroke-width="0.255318"
       stroke-linejoin="round"
       stroke="#000000"
       stroke-opacity="1"
       x1="169.47125"
       y1="92.461838"
       x2="169.47125"
       y2="147.61084"
       id="line2030" />
    <path
       fill="#000000"
       fill-opacity="1"
       stroke-linejoin="round"
       d="m 155.2648,129.55711 h 0.76596 v 0.25534 h -0.76596 z m 1.53194,0 h 0.76594 v 0.25534 h -0.76594 z m 1.53191,0 h 0.76594 v 0.25534 h -0.76594 z m 1.5319,0 h 0.76596 v 0.25534 h -0.76596 z m 1.53192,0 h 0.76595 v 0.25534 h -0.76595 z m 1.53191,0 h 0.76596 v 0.25534 h -0.76596 z m 1.53193,0 h 0.76595 v 0.25534 h -0.76595 z m 1.53192,0 h 0.76594 v 0.25534 h -0.76594 z m 1.5319,0 h 0.76596 v 0.25534 h -0.76596 z m 1.53192,0 h 0.76595 v 0.25534 h -0.76595 z m 1.53191,0 h 0.76596 v 0.25534 h -0.76596 z m 1.53192,0 h 0.76596 v 0.25534 h -0.76596 z m 1.53193,0 h 0.76594 v 0.25534 h -0.76594 z m 1.5319,0 h 0.76596 v 0.25534 h -0.76596 z m 1.53192,0 h 0.76597 v 0.25534 h -0.76597 z m 1.53191,0 h 0.76596 v 0.25534 h -0.76596 z m 1.53192,0 h 0.76596 v 0.25534 h -0.76596 z m 1.53191,0 h 0.76596 v 0.25534 h -0.76596 z m 1.53192,0 h 0.76597 v 0.25534 h -0.76597 z m 1.53192,0 h 0.76597 v 0.25534 h -0.76597 z m 1.53191,0 h 0.76596 v 0.25534 h -0.76596 z m 1.53192,0 h 0.76596 v 0.25534 h -0.76596 z m 1.53191,0 h 0.76596 v 0.25534 h -0.76596 z m 1.53191,0 h 0.76598 v 0.25534 h -0.76598 z m 1.53193,0 h 0.76597 v 0.25534 h -0.76597 z m 1.53191,0 h 0.76596 v 0.25534 h -0.76596 z m 1.53192,0 h 0.76596 v 0.25534 h -0.76596 z m 1.53191,0 h 0.76596 v 0.25534 h -0.76596 z m 1.53192,0 h 0.76596 v 0.25534 h -0.76596 z m 1.53192,0 h 0.76597 v 0.25534 h -0.76597 z m 1.53191,0 h 0.76596 v 0.25534 h -0.76596 z m 1.53192,0 h 0.76596 v 0.25534 h -0.76596 z m 1.53193,0 h 0.76594 v 0.25534 h -0.76594 z m 1.5319,0 h 0.76596 v 0.25534 h -0.76596 z m 1.53192,0 h 0.76595 v 0.25534 h -0.76595 z m 1.53191,0 v 0.25534 z m -55.14897,0 h 0.76595 v 0.25534 h -0.76595 z"
       id="path2034"
       style="stroke-width:0.0957443" />
    <text
       xml:space="preserve"
       id="text2038"
       x="149.41464"
       y="112.14468"
       style="font-size:1.14893px;stroke-width:0.0957443">		 <tspan
   style="font-size:2.55318px;font-family:'メイリオ'"
   letter-spacing="0em"
   fill="#000000"
   fill-opacity="1"
   stroke-width="0.0191489"
   stroke-linejoin="round"
   id="tspan2036">r0</tspan>	</text>
    <text
       xml:space="preserve"
       id="text2042"
       x="149.41464"
       y="130.52769"
       style="font-size:1.14893px;stroke-width:0.0957443">		 <tspan
   style="font-size:2.55318px;font-family:'メイリオ'"
   letter-spacing="0em"
   fill="#000000"
   fill-opacity="1"
   stroke-width="0.0191489"
   stroke-linejoin="round"
   id="tspan2040">r1</tspan>	</text>
    <text
       xml:space="preserve"
       id="text2046"
       x="166.53906"
       y="91.931145"
       style="font-size:1.14893px;stroke-width:0.0957443">		 <tspan
   style="font-size:2.55318px;font-family:'メイリオ'"
   letter-spacing="0em"
   fill="#000000"
   fill-opacity="1"
   stroke-width="0.0191489"
   stroke-linejoin="round"
   id="tspan2044">c0</tspan>	</text>
    <text
       xml:space="preserve"
       id="text2050"
       x="181.85823"
       y="91.931145"
       style="font-size:1.14893px;stroke-width:0.0957443">		 <tspan
   style="font-size:2.55318px;font-family:'メイリオ'"
   letter-spacing="0em"
   fill="#000000"
   fill-opacity="1"
   stroke-width="0.0191489"
   stroke-linejoin="round"
   id="tspan2048">c1</tspan>	</text>
    <text
       xml:space="preserve"
       id="text2054"
       x="194.11357"
       y="91.931145"
       style="font-size:1.14893px;stroke-width:0.0957443">		 <tspan
   style="font-size:2.55318px;font-family:'メイリオ'"
   letter-spacing="0em"
   fill="#000000"
   fill-opacity="1"
   stroke-width="0.0191489"
   stroke-linejoin="round"
   id="tspan2052">cx</tspan>	</text>
    <line
       fill="none"
       stroke-width="0.255318"
       stroke-linejoin="round"
       stroke="#000000"
       stroke-opacity="1"
       x1="184.79041"
       y1="92.036064"
       x2="184.79041"
       y2="147.18504"
       id="line2056" />
    <path
       fill="#000000"
       fill-opacity="1"
       stroke-linejoin="round"
       d="m 197.2886,93.860985 v 0.76595 h -0.25851 v -0.76595 z m 0,1.531913 v 0.765964 h -0.25851 v -0.765964 z m 0,1.531914 v 0.765963 h -0.25851 v -0.765963 z m 0,1.531913 v 0.76596 h -0.25851 v -0.76596 z m 0,1.53192 v 0.765955 h -0.25851 v -0.765955 z m 0,1.531915 v 0.76595 h -0.25851 v -0.76595 z m 0,1.53192 v 0.76596 h -0.25851 v -0.76596 z m 0,1.53191 v 0.76596 h -0.25851 v -0.76596 z m 0,1.53191 v 0.76597 h -0.25851 v -0.76597 z m 0,1.53193 v 0.76595 h -0.25851 v -0.76595 z m 0,1.53191 v 0.76595 h -0.25851 v -0.76595 z m 0,1.53192 v 0.76596 h -0.25851 v -0.76596 z m 0,1.53191 v 0.76596 h -0.25851 v -0.76596 z m 0,1.53191 v 0.76597 h -0.25851 v -0.76597 z m 0,1.53193 v 0.76595 h -0.25851 v -0.76595 z m 0,1.53191 h -0.25851 z m 0,-24.510648 v 0.76595 h -0.25851 v -0.76595 z"
       id="path2060"
       style="stroke-width:0.0957443" />
    <path
       fill="#ffffff"
       fill-opacity="1"
       stroke-width="0.0191489"
       stroke-linejoin="round"
       d="m 169.47118,107.78092 c 1.69468,0 3.06383,1.37174 3.06383,3.06382 0,1.69211 -1.36915,3.06385 -3.06383,3.06385 -1.6851,0 -3.06382,-1.37174 -3.06382,-3.06385 0,-1.69208 1.37872,-3.06382 3.06382,-3.06382 z"
       id="path2062" />
    <path
       fill="#ffffff"
       fill-opacity="1"
       stroke-width="0.0191489"
       stroke-linejoin="round"
       d="m 169.47118,126.16401 c 1.69468,0 3.06383,1.37164 3.06383,3.06382 0,1.69211 -1.36915,3.06384 -3.06383,3.06384 -1.6851,0 -3.06382,-1.37173 -3.06382,-3.06384 0,-1.69218 1.37872,-3.06382 3.06382,-3.06382 z"
       id="path2064" />
    <path
       fill="#ffffff"
       fill-opacity="1"
       stroke-width="0.0191489"
       stroke-linejoin="round"
       d="m 184.79034,107.78102 c 1.69468,0 3.06383,1.37164 3.06383,3.06383 0,1.69208 -1.36915,3.06382 -3.06383,3.06382 -1.68512,0 -3.06384,-1.37174 -3.06384,-3.06382 0,-1.69219 1.37872,-3.06383 3.06384,-3.06383 z"
       id="path2066" />
    <path
       fill="#ffffff"
       fill-opacity="1"
       stroke-width="0.0191489"
       stroke-linejoin="round"
       d="m 184.79034,126.16401 c 1.69468,0 3.06383,1.37164 3.06383,3.06382 0,1.69211 -1.36915,3.06384 -3.06383,3.06384 -1.68512,0 -3.06384,-1.37173 -3.06384,-3.06384 0,-1.69218 1.37872,-3.06382 3.06384,-3.06382 z"
       id="path2068" />
    <path
       fill="#ffffff"
       fill-opacity="1"
       stroke-width="0.0191489"
       stroke-linejoin="round"
       d="m 197.04566,107.78102 c 1.69469,0 3.06384,1.37164 3.06384,3.06383 0,1.69208 -1.36915,3.06382 -3.06384,3.06382 -1.6851,0 -3.06383,-1.37174 -3.06383,-3.06382 0,-1.69219 1.37873,-3.06383 3.06383,-3.06383 z"
       id="path2070" />
    <text
       xml:space="preserve"
       id="text2074"
       x="168.2935"
       y="112.37599"
       style="font-size:1.14893px;stroke-width:0.0957443"><tspan
   style="font-size:3.82979px;font-family:'メイリオ'"
   letter-spacing="0em"
   fill="#000000"
   fill-opacity="1"
   stroke-width="0.0191489"
   stroke-linejoin="round"
   id="tspan2072">X</tspan>	</text>
    <text
       xml:space="preserve"
       id="text2078"
       x="183.61266"
       y="112.37599"
       style="font-size:1.14893px;stroke-width:0.0957443"><tspan
   style="font-size:3.82979px;font-family:'メイリオ'"
   letter-spacing="0em"
   fill="#000000"
   fill-opacity="1"
   stroke-width="0.0191489"
   stroke-linejoin="round"
   id="tspan2076">X</tspan>	</text>
    <path
       fill="#ffffff"
       fill-opacity="1"
       stroke-width="0.255318"
       stroke-linejoin="round"
       stroke="#000000"
       stroke-opacity="1"
       d="m 197.04566,107.78102 c 1.69469,0 3.06384,1.37164 3.06384,3.06383 0,1.69208 -1.36915,3.06382 -3.06384,3.06382 -1.6851,0 -3.06383,-1.37174 -3.06383,-3.06382 0,-1.69219 1.37873,-3.06383 3.06383,-3.06383 z"
       id="path2080" />
    <text
       xml:space="preserve"
       id="text2084"
       x="195.868"
       y="112.37599"
       style="font-size:1.14893px;stroke-width:0.0957443"><tspan
   style="font-size:3.82979px;font-family:'メイリオ'"
   letter-spacing="0em"
   fill="#000000"
   fill-opacity="1"
   stroke-width="0.0191489"
   stroke-linejoin="round"
   id="tspan2082">X</tspan>	</text>
    <text
       xml:space="preserve"
       id="text2088"
       x="168.2935"
       y="130.75897"
       style="font-size:1.14893px;stroke-width:0.0957443"><tspan
   style="font-size:3.82979px;font-family:'メイリオ'"
   letter-spacing="0em"
   fill="#000000"
   fill-opacity="1"
   stroke-width="0.0191489"
   stroke-linejoin="round"
   id="tspan2086">X</tspan>	</text>
    <text
       xml:space="preserve"
       id="text2092"
       x="183.61266"
       y="130.75897"
       style="font-size:1.14893px;stroke-width:0.0957443"><tspan
   style="font-size:3.82979px;font-family:'メイリオ'"
   letter-spacing="0em"
   fill="#000000"
   fill-opacity="1"
   stroke-width="0.0191489"
   stroke-linejoin="round"
   id="tspan2090">X</tspan>	</text>
    <rect
       x="181.7265"
       y="99.834198"
       fill="#ffffff"
       fill-opacity="1"
       stroke-width="0.25532"
       stroke-linejoin="round"
       stroke="#000000"
       stroke-opacity="1"
       width="6.1276641"
       height="6.1276641"
       id="rect2094" />
    <text
       xml:space="preserve"
       id="text2098"
       x="183.4211"
       y="104.2377"
       style="font-size:1.14894px;stroke-width:0.0957448">	<tspan
   style="font-size:3.82979px;font-family:'メイリオ'"
   letter-spacing="0em"
   fill="#000000"
   fill-opacity="1"
   stroke-width="0.0191489"
   stroke-linejoin="round"
   id="tspan2096">X</tspan>		</text>
    <text
       xml:space="preserve"
       id="text2104"
       x="114.16012"
       y="153.47855"
       style="font-size:1.14893px;stroke-width:0.0957443">		 <tspan
   style="font-size:4.59575px;font-family:'メイリオ'"
   letter-spacing="0em"
   fill="#000000"
   fill-opacity="1"
   stroke-width="0.0191489"
   stroke-linejoin="round"
   id="tspan2102">Fish</tspan>	</text>
    <text
       xml:space="preserve"
       id="text2108"
       x="166.37862"
       y="152.78029"
       style="font-size:1.14893px;stroke-width:0.0957443">		 <tspan
   style="font-size:4.59575px;font-family:'メイリオ'"
   letter-spacing="0em"
   fill="#000000"
   fill-opacity="1"
   stroke-width="0.0191489"
   stroke-linejoin="round"
   id="tspan2106">Finned Fish</tspan>	</text>
    <g
       id="g6652"
       inkscape:export-filename="img34c.png"
       inkscape:export-xdpi="96"
       inkscape:export-ydpi="96"
       transform="matrix(1.3858301,0,0,1.3858301,55.684716,-72.377446)">
      <g
         id="g6517">
        <rect
           x="26.541523"
           y="65.75248"
           fill="#ffffff"
           fill-opacity="1"
           stroke-width="0.183264"
           stroke-linejoin="round"
           stroke="#000000"
           stroke-opacity="1"
           width="39.331093"
           height="39.840401"
           id="rect2160" />
        <line
           fill="none"
           stroke-width="0.183264"
           stroke-linejoin="round"
           stroke="#000000"
           stroke-opacity="1"
           x1="26.541523"
           y1="76.819397"
           x2="65.87262"
           y2="76.819397"
           id="line2162" />
        <path
           fill="#000000"
           fill-opacity="1"
           stroke-linejoin="round"
           d="m 27.634001,76.726714 h 0.546265 v 0.184677 h -0.546265 z m 1.09253,0 h 0.546266 v 0.184677 h -0.546266 z m 1.092531,0 h 0.546265 v 0.184677 h -0.546265 z m 1.09253,0 h 0.546265 v 0.184677 h -0.546265 z m 1.092531,0 h 0.546265 v 0.184677 h -0.546265 z m 1.09253,0 h 0.546265 v 0.184677 h -0.546265 z m 1.09253,0 h 0.546266 v 0.184677 h -0.546266 z m 1.092531,0 h 0.546265 v 0.184677 h -0.546265 z m 1.09253,0 h 0.546265 v 0.184677 h -0.546265 z m 1.092531,0 h 0.546265 v 0.184677 h -0.546265 z m 1.09253,0 h 0.546265 v 0.184677 h -0.546265 z m 1.09253,0 h 0.546266 v 0.184677 h -0.546266 z m 1.092531,0 h 0.546265 v 0.184677 h -0.546265 z m 1.09253,0 h 0.546265 v 0.184677 h -0.546265 z m 1.092531,0 h 0.546265 v 0.184677 h -0.546265 z m 1.09253,0 h 0.546265 v 0.184677 h -0.546265 z m 1.09253,0 h 0.546266 v 0.184677 h -0.546266 z m 1.092531,0 h 0.546265 v 0.184677 h -0.546265 z m 1.09253,0 h 0.546265 v 0.184677 h -0.546265 z m 1.092531,0 h 0.546265 v 0.184677 h -0.546265 z m 1.09253,0 h 0.546265 v 0.184677 h -0.546265 z m 1.09253,0 h 0.546266 v 0.184677 h -0.546266 z m 1.092531,0 h 0.546265 v 0.184677 H 51.66967 Z m 1.09253,0 h 0.546265 v 0.184677 H 52.7622 Z m 1.092531,0 h 0.546265 v 0.184677 h -0.546265 z m 1.09253,0 h 0.546265 v 0.184677 h -0.546265 z m 1.09253,0 h 0.546266 v 0.184677 h -0.546266 z m 1.092531,0 h 0.546265 v 0.184677 h -0.546265 z m 1.09253,0 h 0.546265 v 0.184677 h -0.546265 z m 1.092531,0 h 0.546265 v 0.184677 h -0.546265 z m 1.09253,0 h 0.546265 v 0.184677 h -0.546265 z m 1.09253,0 h 0.546266 v 0.184677 h -0.546266 z m 1.092531,0 h 0.546265 v 0.184677 h -0.546265 z m 1.09253,0 h 0.546265 v 0.184677 h -0.546265 z m 1.092531,0 H 65.3263 v 0.184677 h -0.546265 z m 1.09253,0 v 0.184677 z m -39.331094,0 h 0.546265 v 0.184677 h -0.546265 z"
           id="path2164"
           style="stroke-width:0.0687238" />
        <line
           fill="none"
           stroke-width="0.183264"
           stroke-linejoin="round"
           stroke="#000000"
           stroke-opacity="1"
           x1="39.65189"
           y1="65.75248"
           x2="39.65189"
           y2="105.59302"
           id="line2166" />
        <line
           fill="none"
           stroke-width="0.183264"
           stroke-linejoin="round"
           stroke="#000000"
           stroke-opacity="1"
           x1="26.541523"
           y1="96.739601"
           x2="65.87262"
           y2="96.739601"
           id="line2168" />
        <path
           fill="#000000"
           fill-opacity="1"
           stroke-linejoin="round"
           d="m 27.634001,96.646914 h 0.546265 v 0.184677 h -0.546265 z m 1.09253,0 h 0.546266 v 0.184677 h -0.546266 z m 1.092531,0 h 0.546265 v 0.184677 h -0.546265 z m 1.09253,0 h 0.546265 v 0.184677 h -0.546265 z m 1.092531,0 h 0.546265 v 0.184677 h -0.546265 z m 1.09253,0 h 0.546265 v 0.184677 h -0.546265 z m 1.09253,0 h 0.546266 v 0.184677 h -0.546266 z m 1.092531,0 h 0.546265 v 0.184677 h -0.546265 z m 1.09253,0 h 0.546265 v 0.184677 h -0.546265 z m 1.092531,0 h 0.546265 v 0.184677 h -0.546265 z m 1.09253,0 h 0.546265 v 0.184677 h -0.546265 z m 1.09253,0 h 0.546266 v 0.184677 h -0.546266 z m 1.092531,0 h 0.546265 v 0.184677 h -0.546265 z m 1.09253,0 h 0.546265 v 0.184677 h -0.546265 z m 1.092531,0 h 0.546265 v 0.184677 h -0.546265 z m 1.09253,0 h 0.546265 v 0.184677 h -0.546265 z m 1.09253,0 h 0.546266 v 0.184677 h -0.546266 z m 1.092531,0 h 0.546265 v 0.184677 h -0.546265 z m 1.09253,0 h 0.546265 v 0.184677 h -0.546265 z m 1.092531,0 h 0.546265 v 0.184677 h -0.546265 z m 1.09253,0 h 0.546265 v 0.184677 h -0.546265 z m 1.09253,0 h 0.546266 v 0.184677 h -0.546266 z m 1.092531,0 h 0.546265 v 0.184677 H 51.66967 Z m 1.09253,0 h 0.546265 v 0.184677 H 52.7622 Z m 1.092531,0 h 0.546265 v 0.184677 h -0.546265 z m 1.09253,0 h 0.546265 v 0.184677 h -0.546265 z m 1.09253,0 h 0.546266 v 0.184677 h -0.546266 z m 1.092531,0 h 0.546265 v 0.184677 h -0.546265 z m 1.09253,0 h 0.546265 v 0.184677 h -0.546265 z m 1.092531,0 h 0.546265 v 0.184677 h -0.546265 z m 1.09253,0 h 0.546265 v 0.184677 h -0.546265 z m 1.09253,0 h 0.546266 v 0.184677 h -0.546266 z m 1.092531,0 h 0.546265 v 0.184677 h -0.546265 z m 1.09253,0 h 0.546265 v 0.184677 h -0.546265 z m 1.092531,0 H 65.3263 v 0.184677 h -0.546265 z m 1.09253,0 v 0.184677 z m -39.331094,0 h 0.546265 v 0.184677 h -0.546265 z"
           id="path2170"
           style="stroke-width:0.0687238" />
        <line
           fill="none"
           stroke-width="0.183264"
           stroke-linejoin="round"
           stroke="#000000"
           stroke-opacity="1"
           x1="50.577194"
           y1="65.75248"
           x2="50.577194"
           y2="105.59302"
           id="line2172" />
        <line
           fill="none"
           stroke-width="0.183264"
           stroke-linejoin="round"
           stroke="#000000"
           stroke-opacity="1"
           x1="59.317436"
           y1="65.75248"
           x2="59.317436"
           y2="105.59302"
           id="line2174" />
        <line
           fill="none"
           stroke-width="0.183264"
           stroke-linejoin="round"
           stroke="#000000"
           stroke-opacity="1"
           x1="26.541523"
           y1="85.672821"
           x2="65.87262"
           y2="85.672821"
           id="line2176" />
        <path
           fill="#000000"
           fill-opacity="1"
           stroke-linejoin="round"
           d="m 27.634001,85.580136 h 0.546265 v 0.184677 h -0.546265 z m 1.09253,0 h 0.546266 v 0.184677 h -0.546266 z m 1.092531,0 h 0.546265 v 0.184677 h -0.546265 z m 1.09253,0 h 0.546265 v 0.184677 h -0.546265 z m 1.092531,0 h 0.546265 v 0.184677 h -0.546265 z m 1.09253,0 h 0.546265 v 0.184677 h -0.546265 z m 1.09253,0 h 0.546266 v 0.184677 h -0.546266 z m 1.092531,0 h 0.546265 v 0.184677 h -0.546265 z m 1.09253,0 h 0.546265 v 0.184677 h -0.546265 z m 1.092531,0 h 0.546265 v 0.184677 h -0.546265 z m 1.09253,0 h 0.546265 v 0.184677 h -0.546265 z m 1.09253,0 h 0.546266 v 0.184677 h -0.546266 z m 1.092531,0 h 0.546265 v 0.184677 h -0.546265 z m 1.09253,0 h 0.546265 v 0.184677 h -0.546265 z m 1.092531,0 h 0.546265 v 0.184677 h -0.546265 z m 1.09253,0 h 0.546265 v 0.184677 h -0.546265 z m 1.09253,0 h 0.546266 v 0.184677 h -0.546266 z m 1.092531,0 h 0.546265 v 0.184677 h -0.546265 z m 1.09253,0 h 0.546265 v 0.184677 h -0.546265 z m 1.092531,0 h 0.546265 v 0.184677 h -0.546265 z m 1.09253,0 h 0.546265 v 0.184677 h -0.546265 z m 1.09253,0 h 0.546266 v 0.184677 h -0.546266 z m 1.092531,0 h 0.546265 v 0.184677 H 51.66967 Z m 1.09253,0 h 0.546265 v 0.184677 H 52.7622 Z m 1.092531,0 h 0.546265 v 0.184677 h -0.546265 z m 1.09253,0 h 0.546265 v 0.184677 h -0.546265 z m 1.09253,0 h 0.546266 v 0.184677 h -0.546266 z m 1.092531,0 h 0.546265 v 0.184677 h -0.546265 z m 1.09253,0 h 0.546265 v 0.184677 h -0.546265 z m 1.092531,0 h 0.546265 v 0.184677 h -0.546265 z m 1.09253,0 h 0.546265 v 0.184677 h -0.546265 z m 1.09253,0 h 0.546266 v 0.184677 h -0.546266 z m 1.092531,0 h 0.546265 v 0.184677 h -0.546265 z m 1.09253,0 h 0.546265 v 0.184677 h -0.546265 z m 1.092531,0 H 65.3263 v 0.184677 h -0.546265 z m 1.09253,0 v 0.184677 z m -39.331094,0 h 0.546265 v 0.184677 h -0.546265 z"
           id="path2178"
           style="stroke-width:0.0687238" />
        <g
           id="g2184"
           transform="matrix(0.06828315,0,0,0.06916736,-1108.6181,-3.2770961)">
          <path
             fill="#ffffff"
             fill-opacity="1"
             stroke-width="0.2"
             stroke-linejoin="round"
             d="m 16718.8,1118.47 c 17.7,0 32,14.32 32,32 0,17.67 -14.3,32 -32,32 -17.7,0 -32,-14.33 -32,-32 0,-17.68 14.3,-32 32,-32 z"
             id="path2180" />
          <path
             fill="#000000"
             fill-opacity="1"
             stroke-linejoin="round"
             stroke="#000000"
             stroke-opacity="1"
             d="m 16718.8,1132.28 -20.8,36.37 h 41.6 z"
             id="path2182" />
        </g>
        <g
           id="g6125"
           transform="translate(-0.12771454)">
          <g
             id="g2240"
             transform="matrix(0.07042625,0,0,0.06916736,-1145.023,-3.3673279)">
            <path
               fill="#ffffff"
               fill-opacity="1"
               stroke-width="0.2"
               stroke-linejoin="round"
               d="m 16816.3,1126.01 c 17.7,0 32,14.32 32,32 0,17.67 -14.3,32 -32,32 -17.6,0 -32,-14.33 -32,-32 0,-17.68 14.4,-32 32,-32 z"
               id="path2234" />
            <text
               transform="translate(16800,1175)"
               xml:space="preserve"
               id="text2238">	<tspan
   style="font-size:48px;font-family:'メイリオ'"
   letter-spacing="0em"
   fill="#000000"
   fill-opacity="1"
   stroke-width="0.2"
   stroke-linejoin="round"
   id="tspan2236">X</tspan>			</text>
          </g>
          <g
             id="g6103"
             transform="matrix(0.07042625,0,0,0.06916736,-1133.9104,-3.3673279)">
            <path
               fill="#ffffff"
               fill-opacity="1"
               stroke-width="0.2"
               stroke-linejoin="round"
               d="m 16816.3,1126.01 c 17.7,0 32,14.32 32,32 0,17.67 -14.3,32 -32,32 -17.6,0 -32,-14.33 -32,-32 0,-17.68 14.4,-32 32,-32 z"
               id="path6097" />
            <text
               transform="translate(16800,1175)"
               xml:space="preserve"
               id="text6101">	<tspan
   style="font-size:48px;font-family:'メイリオ'"
   letter-spacing="0em"
   fill="#000000"
   fill-opacity="1"
   stroke-width="0.2"
   stroke-linejoin="round"
   id="tspan6099">X</tspan>			</text>
          </g>
          <g
             id="g6111"
             transform="matrix(0.07042625,0,0,0.06916736,-1125.1792,-3.3673279)">
            <path
               fill="#ffffff"
               fill-opacity="1"
               stroke-width="0.2"
               stroke-linejoin="round"
               d="m 16816.3,1126.01 c 17.7,0 32,14.32 32,32 0,17.67 -14.3,32 -32,32 -17.6,0 -32,-14.33 -32,-32 0,-17.68 14.4,-32 32,-32 z"
               id="path6105" />
            <text
               transform="translate(16800,1175)"
               xml:space="preserve"
               id="text6109">	<tspan
   style="font-size:48px;font-family:'メイリオ'"
   letter-spacing="0em"
   fill="#000000"
   fill-opacity="1"
   stroke-width="0.2"
   stroke-linejoin="round"
   id="tspan6107">X</tspan>			</text>
          </g>
        </g>
        <g
           id="g6151"
           transform="translate(-0.12771454,8.8991445)">
          <g
             id="g6133"
             transform="matrix(0.07042625,0,0,0.06916736,-1145.023,-3.3673279)">
            <path
               fill="#ffffff"
               fill-opacity="1"
               stroke-width="0.2"
               stroke-linejoin="round"
               d="m 16816.3,1126.01 c 17.7,0 32,14.32 32,32 0,17.67 -14.3,32 -32,32 -17.6,0 -32,-14.33 -32,-32 0,-17.68 14.4,-32 32,-32 z"
               id="path6127" />
            <text
               transform="translate(16800,1175)"
               xml:space="preserve"
               id="text6131">	<tspan
   style="font-size:48px;font-family:'メイリオ'"
   letter-spacing="0em"
   fill="#000000"
   fill-opacity="1"
   stroke-width="0.2"
   stroke-linejoin="round"
   id="tspan6129">X</tspan>			</text>
          </g>
          <g
             id="g6141"
             transform="matrix(0.07042625,0,0,0.06916736,-1133.9104,-3.3673279)">
            <path
               fill="#ffffff"
               fill-opacity="1"
               stroke-width="0.2"
               stroke-linejoin="round"
               d="m 16816.3,1126.01 c 17.7,0 32,14.32 32,32 0,17.67 -14.3,32 -32,32 -17.6,0 -32,-14.33 -32,-32 0,-17.68 14.4,-32 32,-32 z"
               id="path6135" />
            <text
               transform="translate(16800,1175)"
               xml:space="preserve"
               id="text6139">	<tspan
   style="font-size:48px;font-family:'メイリオ'"
   letter-spacing="0em"
   fill="#000000"
   fill-opacity="1"
   stroke-width="0.2"
   stroke-linejoin="round"
   id="tspan6137">X</tspan>			</text>
          </g>
          <g
             id="g6149"
             transform="matrix(0.07042625,0,0,0.06916736,-1125.1792,-3.3673279)">
            <path
               fill="#ffffff"
               fill-opacity="1"
               stroke-width="0.2"
               stroke-linejoin="round"
               d="m 16816.3,1126.01 c 17.7,0 32,14.32 32,32 0,17.67 -14.3,32 -32,32 -17.6,0 -32,-14.33 -32,-32 0,-17.68 14.4,-32 32,-32 z"
               id="path6143" />
            <text
               transform="translate(16800,1175)"
               xml:space="preserve"
               id="text6147">	<tspan
   style="font-size:48px;font-family:'メイリオ'"
   letter-spacing="0em"
   fill="#000000"
   fill-opacity="1"
   stroke-width="0.2"
   stroke-linejoin="round"
   id="tspan6145">X</tspan>			</text>
          </g>
        </g>
        <g
           id="g6177"
           transform="translate(-0.12771454,20.276228)">
          <g
             id="g6159"
             transform="matrix(0.07042625,0,0,0.06916736,-1145.023,-3.3673279)">
            <path
               fill="#ffffff"
               fill-opacity="1"
               stroke-width="0.2"
               stroke-linejoin="round"
               d="m 16816.3,1126.01 c 17.7,0 32,14.32 32,32 0,17.67 -14.3,32 -32,32 -17.6,0 -32,-14.33 -32,-32 0,-17.68 14.4,-32 32,-32 z"
               id="path6153" />
            <text
               transform="translate(16800,1175)"
               xml:space="preserve"
               id="text6157">	<tspan
   style="font-size:48px;font-family:'メイリオ'"
   letter-spacing="0em"
   fill="#000000"
   fill-opacity="1"
   stroke-width="0.2"
   stroke-linejoin="round"
   id="tspan6155">X</tspan>			</text>
          </g>
          <g
             id="g6167"
             transform="matrix(0.07042625,0,0,0.06916736,-1133.9104,-3.3673279)">
            <path
               fill="#ffffff"
               fill-opacity="1"
               stroke-width="0.2"
               stroke-linejoin="round"
               d="m 16816.3,1126.01 c 17.7,0 32,14.32 32,32 0,17.67 -14.3,32 -32,32 -17.6,0 -32,-14.33 -32,-32 0,-17.68 14.4,-32 32,-32 z"
               id="path6161" />
            <text
               transform="translate(16800,1175)"
               xml:space="preserve"
               id="text6165">	<tspan
   style="font-size:48px;font-family:'メイリオ'"
   letter-spacing="0em"
   fill="#000000"
   fill-opacity="1"
   stroke-width="0.2"
   stroke-linejoin="round"
   id="tspan6163">X</tspan>			</text>
          </g>
          <g
             id="g6175"
             transform="matrix(0.07042625,0,0,0.06916736,-1125.1792,-3.3673279)">
            <path
               fill="#ffffff"
               fill-opacity="1"
               stroke-width="0.2"
               stroke-linejoin="round"
               d="m 16816.3,1126.01 c 17.7,0 32,14.32 32,32 0,17.67 -14.3,32 -32,32 -17.6,0 -32,-14.33 -32,-32 0,-17.68 14.4,-32 32,-32 z"
               id="path6169" />
            <text
               transform="translate(16800,1175)"
               xml:space="preserve"
               id="text6173">	<tspan
   style="font-size:48px;font-family:'メイリオ'"
   letter-spacing="0em"
   fill="#000000"
   fill-opacity="1"
   stroke-width="0.2"
   stroke-linejoin="round"
   id="tspan6171">X</tspan>			</text>
          </g>
        </g>
      </g>
      <g
         id="g6463">
        <rect
           x="70.242737"
           y="65.75248"
           fill="#ffffff"
           fill-opacity="1"
           stroke-width="0.183264"
           stroke-linejoin="round"
           stroke="#000000"
           stroke-opacity="1"
           width="39.331093"
           height="39.840401"
           id="rect2186" />
        <line
           fill="none"
           stroke-width="0.183264"
           stroke-linejoin="round"
           stroke="#000000"
           stroke-opacity="1"
           x1="70.242737"
           y1="76.819397"
           x2="109.57384"
           y2="76.819397"
           id="line2188" />
        <path
           fill="#000000"
           fill-opacity="1"
           stroke-linejoin="round"
           d="m 71.335217,76.726714 h 0.546265 v 0.184677 h -0.546265 z m 1.09253,0 h 0.546266 v 0.184677 h -0.546266 z m 1.092531,0 h 0.546265 v 0.184677 h -0.546265 z m 1.09253,0 h 0.546265 v 0.184677 h -0.546265 z m 1.092531,0 h 0.546265 v 0.184677 h -0.546265 z m 1.09253,0 h 0.546265 v 0.184677 h -0.546265 z m 1.09253,0 h 0.546266 v 0.184677 h -0.546266 z m 1.092531,0 h 0.546265 v 0.184677 H 78.98293 Z m 1.09253,0 h 0.546265 v 0.184677 H 80.07546 Z m 1.092531,0 h 0.546265 v 0.184677 h -0.546265 z m 1.09253,0 h 0.546265 v 0.184677 h -0.546265 z m 1.09253,0 h 0.546266 v 0.184677 h -0.546266 z m 1.092531,0 h 0.546265 v 0.184677 h -0.546265 z m 1.09253,0 h 0.546265 v 0.184677 h -0.546265 z m 1.092531,0 h 0.546265 v 0.184677 h -0.546265 z m 1.09253,0 h 0.546265 v 0.184677 h -0.546265 z m 1.09253,0 h 0.546266 v 0.184677 h -0.546266 z m 1.092531,0 h 0.546265 v 0.184677 h -0.546265 z m 1.09253,0 h 0.546265 v 0.184677 h -0.546265 z m 1.092531,0 h 0.546265 v 0.184677 h -0.546265 z m 1.09253,0 h 0.546265 v 0.184677 h -0.546265 z m 1.09253,0 h 0.546266 v 0.184677 h -0.546266 z m 1.092531,0 h 0.546265 v 0.184677 h -0.546265 z m 1.09253,0 h 0.546265 v 0.184677 h -0.546265 z m 1.092531,0 h 0.546265 v 0.184677 h -0.546265 z m 1.09253,0 h 0.546265 v 0.184677 h -0.546265 z m 1.09253,0 h 0.546263 v 0.184677 h -0.546263 z m 1.092533,0 h 0.54626 v 0.184677 h -0.54626 z m 1.09253,0 h 0.54626 v 0.184677 h -0.54626 z m 1.09253,0 h 0.54626 v 0.184677 h -0.54626 z m 1.09253,0 h 0.54626 v 0.184677 h -0.54626 z m 1.09253,0 h 0.54626 v 0.184677 h -0.54626 z m 1.09253,0 h 0.54626 v 0.184677 h -0.54626 z m 1.09253,0 h 0.54627 v 0.184677 h -0.54627 z m 1.09253,0 h 0.54627 v 0.184677 h -0.54627 z m 1.09253,0 v 0.184677 z m -39.331093,0 h 0.546265 v 0.184677 h -0.546265 z"
           id="path2190"
           style="stroke-width:0.0687238" />
        <line
           fill="none"
           stroke-width="0.183264"
           stroke-linejoin="round"
           stroke="#000000"
           stroke-opacity="1"
           x1="83.353104"
           y1="65.75248"
           x2="83.353104"
           y2="105.59302"
           id="line2192" />
        <line
           fill="none"
           stroke-width="0.183264"
           stroke-linejoin="round"
           stroke="#000000"
           stroke-opacity="1"
           x1="70.242737"
           y1="96.739601"
           x2="109.57384"
           y2="96.739601"
           id="line2194" />
        <path
           fill="#000000"
           fill-opacity="1"
           stroke-linejoin="round"
           d="m 71.335217,96.646914 h 0.546265 v 0.184677 h -0.546265 z m 1.09253,0 h 0.546266 v 0.184677 h -0.546266 z m 1.092531,0 h 0.546265 v 0.184677 h -0.546265 z m 1.09253,0 h 0.546265 v 0.184677 h -0.546265 z m 1.092531,0 h 0.546265 v 0.184677 h -0.546265 z m 1.09253,0 h 0.546265 v 0.184677 h -0.546265 z m 1.09253,0 h 0.546266 v 0.184677 h -0.546266 z m 1.092531,0 h 0.546265 v 0.184677 H 78.98293 Z m 1.09253,0 h 0.546265 v 0.184677 H 80.07546 Z m 1.092531,0 h 0.546265 v 0.184677 h -0.546265 z m 1.09253,0 h 0.546265 v 0.184677 h -0.546265 z m 1.09253,0 h 0.546266 v 0.184677 h -0.546266 z m 1.092531,0 h 0.546265 v 0.184677 h -0.546265 z m 1.09253,0 h 0.546265 v 0.184677 h -0.546265 z m 1.092531,0 h 0.546265 v 0.184677 h -0.546265 z m 1.09253,0 h 0.546265 v 0.184677 h -0.546265 z m 1.09253,0 h 0.546266 v 0.184677 h -0.546266 z m 1.092531,0 h 0.546265 v 0.184677 h -0.546265 z m 1.09253,0 h 0.546265 v 0.184677 h -0.546265 z m 1.092531,0 h 0.546265 v 0.184677 h -0.546265 z m 1.09253,0 h 0.546265 v 0.184677 h -0.546265 z m 1.09253,0 h 0.546266 v 0.184677 h -0.546266 z m 1.092531,0 h 0.546265 v 0.184677 h -0.546265 z m 1.09253,0 h 0.546265 v 0.184677 h -0.546265 z m 1.092531,0 h 0.546265 v 0.184677 h -0.546265 z m 1.09253,0 h 0.546265 v 0.184677 h -0.546265 z m 1.09253,0 h 0.546263 v 0.184677 h -0.546263 z m 1.092533,0 h 0.54626 v 0.184677 h -0.54626 z m 1.09253,0 h 0.54626 v 0.184677 h -0.54626 z m 1.09253,0 h 0.54626 v 0.184677 h -0.54626 z m 1.09253,0 h 0.54626 v 0.184677 h -0.54626 z m 1.09253,0 h 0.54626 v 0.184677 h -0.54626 z m 1.09253,0 h 0.54626 v 0.184677 h -0.54626 z m 1.09253,0 h 0.54627 v 0.184677 h -0.54627 z m 1.09253,0 h 0.54627 v 0.184677 h -0.54627 z m 1.09253,0 v 0.184677 z m -39.331093,0 h 0.546265 v 0.184677 h -0.546265 z"
           id="path2196"
           style="stroke-width:0.0687238" />
        <line
           fill="none"
           stroke-width="0.183264"
           stroke-linejoin="round"
           stroke="#000000"
           stroke-opacity="1"
           x1="94.278412"
           y1="65.75248"
           x2="94.278412"
           y2="105.59302"
           id="line2198" />
        <line
           fill="none"
           stroke-width="0.183264"
           stroke-linejoin="round"
           stroke="#000000"
           stroke-opacity="1"
           x1="103.01865"
           y1="65.75248"
           x2="103.01865"
           y2="105.59302"
           id="line2200" />
        <line
           fill="none"
           stroke-width="0.183264"
           stroke-linejoin="round"
           stroke="#000000"
           stroke-opacity="1"
           x1="70.242737"
           y1="85.672821"
           x2="109.57384"
           y2="85.672821"
           id="line2202" />
        <path
           fill="#000000"
           fill-opacity="1"
           stroke-linejoin="round"
           d="m 71.335217,85.580136 h 0.546265 v 0.184677 h -0.546265 z m 1.09253,0 h 0.546266 v 0.184677 h -0.546266 z m 1.092531,0 h 0.546265 v 0.184677 h -0.546265 z m 1.09253,0 h 0.546265 v 0.184677 h -0.546265 z m 1.092531,0 h 0.546265 v 0.184677 h -0.546265 z m 1.09253,0 h 0.546265 v 0.184677 h -0.546265 z m 1.09253,0 h 0.546266 v 0.184677 h -0.546266 z m 1.092531,0 h 0.546265 v 0.184677 H 78.98293 Z m 1.09253,0 h 0.546265 v 0.184677 H 80.07546 Z m 1.092531,0 h 0.546265 v 0.184677 h -0.546265 z m 1.09253,0 h 0.546265 v 0.184677 h -0.546265 z m 1.09253,0 h 0.546266 v 0.184677 h -0.546266 z m 1.092531,0 h 0.546265 v 0.184677 h -0.546265 z m 1.09253,0 h 0.546265 v 0.184677 h -0.546265 z m 1.092531,0 h 0.546265 v 0.184677 h -0.546265 z m 1.09253,0 h 0.546265 v 0.184677 h -0.546265 z m 1.09253,0 h 0.546266 v 0.184677 h -0.546266 z m 1.092531,0 h 0.546265 v 0.184677 h -0.546265 z m 1.09253,0 h 0.546265 v 0.184677 h -0.546265 z m 1.092531,0 h 0.546265 v 0.184677 h -0.546265 z m 1.09253,0 h 0.546265 v 0.184677 h -0.546265 z m 1.09253,0 h 0.546266 v 0.184677 h -0.546266 z m 1.092531,0 h 0.546265 v 0.184677 h -0.546265 z m 1.09253,0 h 0.546265 v 0.184677 h -0.546265 z m 1.092531,0 h 0.546265 v 0.184677 h -0.546265 z m 1.09253,0 h 0.546265 v 0.184677 h -0.546265 z m 1.09253,0 h 0.546263 v 0.184677 h -0.546263 z m 1.092533,0 h 0.54626 v 0.184677 h -0.54626 z m 1.09253,0 h 0.54626 v 0.184677 h -0.54626 z m 1.09253,0 h 0.54626 v 0.184677 h -0.54626 z m 1.09253,0 h 0.54626 v 0.184677 h -0.54626 z m 1.09253,0 h 0.54626 v 0.184677 h -0.54626 z m 1.09253,0 h 0.54626 v 0.184677 h -0.54626 z m 1.09253,0 h 0.54627 v 0.184677 h -0.54627 z m 1.09253,0 h 0.54627 v 0.184677 h -0.54627 z m 1.09253,0 v 0.184677 z m -39.331093,0 h 0.546265 v 0.184677 h -0.546265 z"
           id="path2204"
           style="stroke-width:0.0687238" />
        <g
           id="g6185"
           transform="matrix(0.07042625,0,0,0.06916736,-1101.4313,-3.0060557)">
          <path
             fill="#ffffff"
             fill-opacity="1"
             stroke-width="0.2"
             stroke-linejoin="round"
             d="m 16816.3,1126.01 c 17.7,0 32,14.32 32,32 0,17.67 -14.3,32 -32,32 -17.6,0 -32,-14.33 -32,-32 0,-17.68 14.4,-32 32,-32 z"
             id="path6179" />
          <text
             transform="translate(16800,1175)"
             xml:space="preserve"
             id="text6183">	<tspan
   style="font-size:48px;font-family:'メイリオ'"
   letter-spacing="0em"
   fill="#000000"
   fill-opacity="1"
   stroke-width="0.2"
   stroke-linejoin="round"
   id="tspan6181">X</tspan>			</text>
        </g>
        <g
           id="g6201"
           transform="matrix(0.07042625,0,0,0.06916736,-1081.5875,-3.0060557)">
          <path
             fill="#ffffff"
             fill-opacity="1"
             stroke-width="0.2"
             stroke-linejoin="round"
             d="m 16816.3,1126.01 c 17.7,0 32,14.32 32,32 0,17.67 -14.3,32 -32,32 -17.6,0 -32,-14.33 -32,-32 0,-17.68 14.4,-32 32,-32 z"
             id="path6195" />
          <text
             transform="translate(16800,1175)"
             xml:space="preserve"
             id="text6199">	<tspan
   style="font-size:48px;font-family:'メイリオ'"
   letter-spacing="0em"
   fill="#000000"
   fill-opacity="1"
   stroke-width="0.2"
   stroke-linejoin="round"
   id="tspan6197">X</tspan>			</text>
        </g>
        <g
           id="g6229"
           transform="translate(43.591692,9.2604167)">
          <g
             id="g6211"
             transform="matrix(0.07042625,0,0,0.06916736,-1145.023,-3.3673279)">
            <path
               fill="#ffffff"
               fill-opacity="1"
               stroke-width="0.2"
               stroke-linejoin="round"
               d="m 16816.3,1126.01 c 17.7,0 32,14.32 32,32 0,17.67 -14.3,32 -32,32 -17.6,0 -32,-14.33 -32,-32 0,-17.68 14.4,-32 32,-32 z"
               id="path6205" />
            <text
               transform="translate(16800,1175)"
               xml:space="preserve"
               id="text6209">	<tspan
   style="font-size:48px;font-family:'メイリオ'"
   letter-spacing="0em"
   fill="#000000"
   fill-opacity="1"
   stroke-width="0.2"
   stroke-linejoin="round"
   id="tspan6207">X</tspan>			</text>
          </g>
          <g
             id="g6219"
             transform="matrix(0.07042625,0,0,0.06916736,-1133.9104,-3.3673279)">
            <path
               fill="#ffffff"
               fill-opacity="1"
               stroke-width="0.2"
               stroke-linejoin="round"
               d="m 16816.3,1126.01 c 17.7,0 32,14.32 32,32 0,17.67 -14.3,32 -32,32 -17.6,0 -32,-14.33 -32,-32 0,-17.68 14.4,-32 32,-32 z"
               id="path6213" />
            <text
               transform="translate(16800,1175)"
               xml:space="preserve"
               id="text6217">	<tspan
   style="font-size:48px;font-family:'メイリオ'"
   letter-spacing="0em"
   fill="#000000"
   fill-opacity="1"
   stroke-width="0.2"
   stroke-linejoin="round"
   id="tspan6215">X</tspan>			</text>
          </g>
          <g
             id="g6227"
             transform="matrix(0.07042625,0,0,0.06916736,-1125.1792,-3.3673279)">
            <path
               fill="#ffffff"
               fill-opacity="1"
               stroke-width="0.2"
               stroke-linejoin="round"
               d="m 16816.3,1126.01 c 17.7,0 32,14.32 32,32 0,17.67 -14.3,32 -32,32 -17.6,0 -32,-14.33 -32,-32 0,-17.68 14.4,-32 32,-32 z"
               id="path6221" />
            <text
               transform="translate(16800,1175)"
               xml:space="preserve"
               id="text6225">	<tspan
   style="font-size:48px;font-family:'メイリオ'"
   letter-spacing="0em"
   fill="#000000"
   fill-opacity="1"
   stroke-width="0.2"
   stroke-linejoin="round"
   id="tspan6223">X</tspan>			</text>
          </g>
        </g>
        <g
           id="g6255"
           transform="translate(43.591692,20.6375)">
          <g
             id="g6237"
             transform="matrix(0.07042625,0,0,0.06916736,-1145.023,-3.3673279)">
            <path
               fill="#ffffff"
               fill-opacity="1"
               stroke-width="0.2"
               stroke-linejoin="round"
               d="m 16816.3,1126.01 c 17.7,0 32,14.32 32,32 0,17.67 -14.3,32 -32,32 -17.6,0 -32,-14.33 -32,-32 0,-17.68 14.4,-32 32,-32 z"
               id="path6231" />
            <text
               transform="translate(16800,1175)"
               xml:space="preserve"
               id="text6235">	<tspan
   style="font-size:48px;font-family:'メイリオ'"
   letter-spacing="0em"
   fill="#000000"
   fill-opacity="1"
   stroke-width="0.2"
   stroke-linejoin="round"
   id="tspan6233">X</tspan>			</text>
          </g>
          <g
             id="g6245"
             transform="matrix(0.07042625,0,0,0.06916736,-1133.9104,-3.3673279)">
            <path
               fill="#ffffff"
               fill-opacity="1"
               stroke-width="0.2"
               stroke-linejoin="round"
               d="m 16816.3,1126.01 c 17.7,0 32,14.32 32,32 0,17.67 -14.3,32 -32,32 -17.6,0 -32,-14.33 -32,-32 0,-17.68 14.4,-32 32,-32 z"
               id="path6239" />
            <text
               transform="translate(16800,1175)"
               xml:space="preserve"
               id="text6243">	<tspan
   style="font-size:48px;font-family:'メイリオ'"
   letter-spacing="0em"
   fill="#000000"
   fill-opacity="1"
   stroke-width="0.2"
   stroke-linejoin="round"
   id="tspan6241">X</tspan>			</text>
          </g>
          <g
             id="g6253"
             transform="matrix(0.07042625,0,0,0.06916736,-1125.1792,-3.3673279)">
            <path
               fill="#ffffff"
               fill-opacity="1"
               stroke-width="0.2"
               stroke-linejoin="round"
               d="m 16816.3,1126.01 c 17.7,0 32,14.32 32,32 0,17.67 -14.3,32 -32,32 -17.6,0 -32,-14.33 -32,-32 0,-17.68 14.4,-32 32,-32 z"
               id="path6247" />
            <text
               transform="translate(16800,1175)"
               xml:space="preserve"
               id="text6251">	<tspan
   style="font-size:48px;font-family:'メイリオ'"
   letter-spacing="0em"
   fill="#000000"
   fill-opacity="1"
   stroke-width="0.2"
   stroke-linejoin="round"
   id="tspan6249">X</tspan>			</text>
          </g>
        </g>
      </g>
      <g
         id="g6417">
        <rect
           x="113.94395"
           y="65.75248"
           fill="#ffffff"
           fill-opacity="1"
           stroke-width="0.183264"
           stroke-linejoin="round"
           stroke="#000000"
           stroke-opacity="1"
           width="39.331093"
           height="39.840401"
           id="rect2206" />
        <line
           fill="none"
           stroke-width="0.183264"
           stroke-linejoin="round"
           stroke="#000000"
           stroke-opacity="1"
           x1="113.94395"
           y1="76.819397"
           x2="153.27505"
           y2="76.819397"
           id="line2208" />
        <path
           fill="#000000"
           fill-opacity="1"
           stroke-linejoin="round"
           d="m 115.03643,76.726714 h 0.54627 v 0.184677 h -0.54627 z m 1.09253,0 h 0.54627 v 0.184677 h -0.54627 z m 1.09253,0 h 0.54627 v 0.184677 h -0.54627 z m 1.09253,0 h 0.54627 v 0.184677 h -0.54627 z m 1.09253,0 h 0.54627 v 0.184677 h -0.54627 z m 1.09253,0 h 0.54627 v 0.184677 h -0.54627 z m 1.09254,0 h 0.54626 v 0.184677 h -0.54626 z m 1.09253,0 h 0.54626 v 0.184677 h -0.54626 z m 1.09253,0 h 0.54626 v 0.184677 h -0.54626 z m 1.09253,0 h 0.54626 v 0.184677 h -0.54626 z m 1.09253,0 h 0.54626 v 0.184677 h -0.54626 z m 1.09253,0 h 0.54626 v 0.184677 h -0.54626 z m 1.09253,0 h 0.54626 v 0.184677 h -0.54626 z m 1.09253,0 h 0.54626 v 0.184677 h -0.54626 z m 1.09253,0 h 0.54626 v 0.184677 h -0.54626 z m 1.09253,0 h 0.54626 v 0.184677 h -0.54626 z m 1.09253,0 h 0.54626 v 0.184677 h -0.54626 z m 1.09253,0 h 0.54626 v 0.184677 h -0.54626 z m 1.09253,0 h 0.54627 v 0.184677 h -0.54627 z m 1.09253,0 h 0.54627 v 0.184677 h -0.54627 z m 1.09253,0 h 0.54627 v 0.184677 h -0.54627 z m 1.09253,0 h 0.54627 v 0.184677 h -0.54627 z m 1.09253,0 h 0.54627 v 0.184677 h -0.54627 z m 1.09253,0 h 0.54627 v 0.184677 h -0.54627 z m 1.09253,0 h 0.54627 v 0.184677 h -0.54627 z m 1.09253,0 h 0.54627 v 0.184677 h -0.54627 z m 1.09253,0 h 0.54627 v 0.184677 h -0.54627 z m 1.09253,0 h 0.54627 v 0.184677 h -0.54627 z m 1.09253,0 h 0.54627 v 0.184677 h -0.54627 z m 1.09253,0 h 0.54627 v 0.184677 h -0.54627 z m 1.09253,0 h 0.54627 v 0.184677 h -0.54627 z m 1.09254,0 h 0.54626 v 0.184677 h -0.54626 z m 1.09253,0 h 0.54626 v 0.184677 h -0.54626 z m 1.09253,0 h 0.54626 v 0.184677 h -0.54626 z m 1.09253,0 h 0.54626 v 0.184677 h -0.54626 z m 1.09253,0 v 0.184677 z m -39.3311,0 h 0.54627 v 0.184677 h -0.54627 z"
           id="path2210"
           style="stroke-width:0.0687238" />
        <line
           fill="none"
           stroke-width="0.183264"
           stroke-linejoin="round"
           stroke="#000000"
           stroke-opacity="1"
           x1="127.05432"
           y1="65.75248"
           x2="127.05432"
           y2="105.59302"
           id="line2212" />
        <line
           fill="none"
           stroke-width="0.183264"
           stroke-linejoin="round"
           stroke="#000000"
           stroke-opacity="1"
           x1="113.94395"
           y1="96.739601"
           x2="153.27505"
           y2="96.739601"
           id="line2214" />
        <path
           fill="#000000"
           fill-opacity="1"
           stroke-linejoin="round"
           d="m 115.03643,96.646914 h 0.54627 v 0.184677 h -0.54627 z m 1.09253,0 h 0.54627 v 0.184677 h -0.54627 z m 1.09253,0 h 0.54627 v 0.184677 h -0.54627 z m 1.09253,0 h 0.54627 v 0.184677 h -0.54627 z m 1.09253,0 h 0.54627 v 0.184677 h -0.54627 z m 1.09253,0 h 0.54627 v 0.184677 h -0.54627 z m 1.09254,0 h 0.54626 v 0.184677 h -0.54626 z m 1.09253,0 h 0.54626 v 0.184677 h -0.54626 z m 1.09253,0 h 0.54626 v 0.184677 h -0.54626 z m 1.09253,0 h 0.54626 v 0.184677 h -0.54626 z m 1.09253,0 h 0.54626 v 0.184677 h -0.54626 z m 1.09253,0 h 0.54626 v 0.184677 h -0.54626 z m 1.09253,0 h 0.54626 v 0.184677 h -0.54626 z m 1.09253,0 h 0.54626 v 0.184677 h -0.54626 z m 1.09253,0 h 0.54626 v 0.184677 h -0.54626 z m 1.09253,0 h 0.54626 v 0.184677 h -0.54626 z m 1.09253,0 h 0.54626 v 0.184677 h -0.54626 z m 1.09253,0 h 0.54626 v 0.184677 h -0.54626 z m 1.09253,0 h 0.54627 v 0.184677 h -0.54627 z m 1.09253,0 h 0.54627 v 0.184677 h -0.54627 z m 1.09253,0 h 0.54627 v 0.184677 h -0.54627 z m 1.09253,0 h 0.54627 v 0.184677 h -0.54627 z m 1.09253,0 h 0.54627 v 0.184677 h -0.54627 z m 1.09253,0 h 0.54627 v 0.184677 h -0.54627 z m 1.09253,0 h 0.54627 v 0.184677 h -0.54627 z m 1.09253,0 h 0.54627 v 0.184677 h -0.54627 z m 1.09253,0 h 0.54627 v 0.184677 h -0.54627 z m 1.09253,0 h 0.54627 v 0.184677 h -0.54627 z m 1.09253,0 h 0.54627 v 0.184677 h -0.54627 z m 1.09253,0 h 0.54627 v 0.184677 h -0.54627 z m 1.09253,0 h 0.54627 v 0.184677 h -0.54627 z m 1.09254,0 h 0.54626 v 0.184677 h -0.54626 z m 1.09253,0 h 0.54626 v 0.184677 h -0.54626 z m 1.09253,0 h 0.54626 v 0.184677 h -0.54626 z m 1.09253,0 h 0.54626 v 0.184677 h -0.54626 z m 1.09253,0 v 0.184677 z m -39.3311,0 h 0.54627 v 0.184677 h -0.54627 z"
           id="path2216"
           style="stroke-width:0.0687238" />
        <line
           fill="none"
           stroke-width="0.183264"
           stroke-linejoin="round"
           stroke="#000000"
           stroke-opacity="1"
           x1="137.97963"
           y1="65.75248"
           x2="137.97963"
           y2="105.59302"
           id="line2218" />
        <line
           fill="none"
           stroke-width="0.183264"
           stroke-linejoin="round"
           stroke="#000000"
           stroke-opacity="1"
           x1="146.71986"
           y1="65.75248"
           x2="146.71986"
           y2="105.59302"
           id="line2220" />
        <line
           fill="none"
           stroke-width="0.183264"
           stroke-linejoin="round"
           stroke="#000000"
           stroke-opacity="1"
           x1="113.94395"
           y1="85.672821"
           x2="153.27505"
           y2="85.672821"
           id="line2222" />
        <path
           fill="#000000"
           fill-opacity="1"
           stroke-linejoin="round"
           d="m 115.03643,85.580136 h 0.54627 v 0.184677 h -0.54627 z m 1.09253,0 h 0.54627 v 0.184677 h -0.54627 z m 1.09253,0 h 0.54627 v 0.184677 h -0.54627 z m 1.09253,0 h 0.54627 v 0.184677 h -0.54627 z m 1.09253,0 h 0.54627 v 0.184677 h -0.54627 z m 1.09253,0 h 0.54627 v 0.184677 h -0.54627 z m 1.09254,0 h 0.54626 v 0.184677 h -0.54626 z m 1.09253,0 h 0.54626 v 0.184677 h -0.54626 z m 1.09253,0 h 0.54626 v 0.184677 h -0.54626 z m 1.09253,0 h 0.54626 v 0.184677 h -0.54626 z m 1.09253,0 h 0.54626 v 0.184677 h -0.54626 z m 1.09253,0 h 0.54626 v 0.184677 h -0.54626 z m 1.09253,0 h 0.54626 v 0.184677 h -0.54626 z m 1.09253,0 h 0.54626 v 0.184677 h -0.54626 z m 1.09253,0 h 0.54626 v 0.184677 h -0.54626 z m 1.09253,0 h 0.54626 v 0.184677 h -0.54626 z m 1.09253,0 h 0.54626 v 0.184677 h -0.54626 z m 1.09253,0 h 0.54626 v 0.184677 h -0.54626 z m 1.09253,0 h 0.54627 v 0.184677 h -0.54627 z m 1.09253,0 h 0.54627 v 0.184677 h -0.54627 z m 1.09253,0 h 0.54627 v 0.184677 h -0.54627 z m 1.09253,0 h 0.54627 v 0.184677 h -0.54627 z m 1.09253,0 h 0.54627 v 0.184677 h -0.54627 z m 1.09253,0 h 0.54627 v 0.184677 h -0.54627 z m 1.09253,0 h 0.54627 v 0.184677 h -0.54627 z m 1.09253,0 h 0.54627 v 0.184677 h -0.54627 z m 1.09253,0 h 0.54627 v 0.184677 h -0.54627 z m 1.09253,0 h 0.54627 v 0.184677 h -0.54627 z m 1.09253,0 h 0.54627 v 0.184677 h -0.54627 z m 1.09253,0 h 0.54627 v 0.184677 h -0.54627 z m 1.09253,0 h 0.54627 v 0.184677 h -0.54627 z m 1.09254,0 h 0.54626 v 0.184677 h -0.54626 z m 1.09253,0 h 0.54626 v 0.184677 h -0.54626 z m 1.09253,0 h 0.54626 v 0.184677 h -0.54626 z m 1.09253,0 h 0.54626 v 0.184677 h -0.54626 z m 1.09253,0 v 0.184677 z m -39.3311,0 h 0.54627 v 0.184677 h -0.54627 z"
           id="path2224"
           style="stroke-width:0.0687238" />
        <g
           id="g6263"
           transform="matrix(0.07042625,0,0,0.06916736,-1057.8753,-3.267139)">
          <path
             fill="#ffffff"
             fill-opacity="1"
             stroke-width="0.2"
             stroke-linejoin="round"
             d="m 16816.3,1126.01 c 17.7,0 32,14.32 32,32 0,17.67 -14.3,32 -32,32 -17.6,0 -32,-14.33 -32,-32 0,-17.68 14.4,-32 32,-32 z"
             id="path6257" />
          <text
             transform="translate(16800,1175)"
             xml:space="preserve"
             id="text6261">	<tspan
   style="font-size:48px;font-family:'メイリオ'"
   letter-spacing="0em"
   fill="#000000"
   fill-opacity="1"
   stroke-width="0.2"
   stroke-linejoin="round"
   id="tspan6259">X</tspan>			</text>
        </g>
        <g
           id="g6271"
           transform="matrix(0.07042625,0,0,0.06916736,-1046.7627,-3.267139)">
          <path
             fill="#ffffff"
             fill-opacity="1"
             stroke-width="0.2"
             stroke-linejoin="round"
             d="m 16816.3,1126.01 c 17.7,0 32,14.32 32,32 0,17.67 -14.3,32 -32,32 -17.6,0 -32,-14.33 -32,-32 0,-17.68 14.4,-32 32,-32 z"
             id="path6265" />
          <text
             transform="translate(16800,1175)"
             xml:space="preserve"
             id="text6269">	<tspan
   style="font-size:48px;font-family:'メイリオ'"
   letter-spacing="0em"
   fill="#000000"
   fill-opacity="1"
   stroke-width="0.2"
   stroke-linejoin="round"
   id="tspan6267">X</tspan>			</text>
        </g>
        <g
           id="g6297"
           transform="matrix(0.07042625,0,0,0.06916736,-1046.7627,5.6320055)">
          <path
             fill="#ffffff"
             fill-opacity="1"
             stroke-width="0.2"
             stroke-linejoin="round"
             d="m 16816.3,1126.01 c 17.7,0 32,14.32 32,32 0,17.67 -14.3,32 -32,32 -17.6,0 -32,-14.33 -32,-32 0,-17.68 14.4,-32 32,-32 z"
             id="path6291" />
          <text
             transform="translate(16800,1175)"
             xml:space="preserve"
             id="text6295">	<tspan
   style="font-size:48px;font-family:'メイリオ'"
   letter-spacing="0em"
   fill="#000000"
   fill-opacity="1"
   stroke-width="0.2"
   stroke-linejoin="round"
   id="tspan6293">X</tspan>			</text>
        </g>
        <g
           id="g6305"
           transform="matrix(0.07042625,0,0,0.06916736,-1038.0315,5.6320055)">
          <path
             fill="#ffffff"
             fill-opacity="1"
             stroke-width="0.2"
             stroke-linejoin="round"
             d="m 16816.3,1126.01 c 17.7,0 32,14.32 32,32 0,17.67 -14.3,32 -32,32 -17.6,0 -32,-14.33 -32,-32 0,-17.68 14.4,-32 32,-32 z"
             id="path6299" />
          <text
             transform="translate(16800,1175)"
             xml:space="preserve"
             id="text6303">	<tspan
   style="font-size:48px;font-family:'メイリオ'"
   letter-spacing="0em"
   fill="#000000"
   fill-opacity="1"
   stroke-width="0.2"
   stroke-linejoin="round"
   id="tspan6301">X</tspan>			</text>
        </g>
        <g
           id="g6315"
           transform="matrix(0.07042625,0,0,0.06916736,-1057.8753,17.009089)">
          <path
             fill="#ffffff"
             fill-opacity="1"
             stroke-width="0.2"
             stroke-linejoin="round"
             d="m 16816.3,1126.01 c 17.7,0 32,14.32 32,32 0,17.67 -14.3,32 -32,32 -17.6,0 -32,-14.33 -32,-32 0,-17.68 14.4,-32 32,-32 z"
             id="path6309" />
          <text
             transform="translate(16800,1175)"
             xml:space="preserve"
             id="text6313">	<tspan
   style="font-size:48px;font-family:'メイリオ'"
   letter-spacing="0em"
   fill="#000000"
   fill-opacity="1"
   stroke-width="0.2"
   stroke-linejoin="round"
   id="tspan6311">X</tspan>			</text>
        </g>
        <g
           id="g6331"
           transform="matrix(0.07042625,0,0,0.06916736,-1038.0315,17.009089)">
          <path
             fill="#ffffff"
             fill-opacity="1"
             stroke-width="0.2"
             stroke-linejoin="round"
             d="m 16816.3,1126.01 c 17.7,0 32,14.32 32,32 0,17.67 -14.3,32 -32,32 -17.6,0 -32,-14.33 -32,-32 0,-17.68 14.4,-32 32,-32 z"
             id="path6325" />
          <text
             transform="translate(16800,1175)"
             xml:space="preserve"
             id="text6329">	<tspan
   style="font-size:48px;font-family:'メイリオ'"
   letter-spacing="0em"
   fill="#000000"
   fill-opacity="1"
   stroke-width="0.2"
   stroke-linejoin="round"
   id="tspan6327">X</tspan>			</text>
        </g>
      </g>
    </g>
    <rect
       x="27.654133"
       y="19.377821"
       fill="#ffffff"
       fill-opacity="1"
       stroke-width="0.252214"
       stroke-linejoin="round"
       stroke="#000000"
       stroke-opacity="1"
       width="54.455391"
       height="54.500893"
       id="rect5747"
       inkscape:export-filename="img34a.png"
       inkscape:export-xdpi="96"
       inkscape:export-ydpi="96" />
    <path
       style="fill:none;stroke:#000000;stroke-width:0.251625;stroke-dasharray:1.0065, 1.0065;stroke-dashoffset:0"
       d="M 70.230163,19.69492 V 43.342056"
       id="path2235" />
    <line
       fill="none"
       stroke-width="0.252214"
       stroke-linejoin="round"
       stroke="#000000"
       stroke-opacity="1"
       x1="27.654133"
       y1="37.734116"
       x2="82.109528"
       y2="37.734116"
       id="line5751" />
    <path
       style="fill:none;stroke:#000000;stroke-width:0.251625;stroke-dasharray:1.0065, 1.0065;stroke-dashoffset:0"
       d="m 42.945005,19.51302 c 0,54.570313 0,54.570313 0,54.570313"
       id="path2963" />
    <path
       fill="#000000"
       fill-opacity="1"
       stroke-linejoin="round"
       d="m 29.166706,37.607898 h 0.756317 v 0.252351 h -0.756317 z m 1.512647,0 h 0.756316 v 0.252351 h -0.756316 z m 1.512647,0 h 0.75633 v 0.252351 H 32.192 Z m 1.512661,0 h 0.756316 v 0.252351 h -0.756316 z m 1.512647,0 h 0.75633 v 0.252351 h -0.75633 z m 1.512646,0 h 0.756331 v 0.252351 h -0.756331 z m 1.512647,0 h 0.756331 v 0.252351 h -0.756331 z m 1.512647,0 h 0.75633 v 0.252351 h -0.75633 z m 1.512647,0 h 0.75633 v 0.252351 h -0.75633 z m 1.512661,0 h 0.75633 v 0.252351 h -0.75633 z m 1.512646,0 h 0.756331 v 0.252351 h -0.756331 z m 1.512647,0 h 0.756331 v 0.252351 h -0.756331 z m 1.512647,0 h 0.756331 v 0.252351 h -0.756331 z m 1.512647,0 h 0.75633 v 0.252351 h -0.75633 z m 1.512648,0 h 0.756343 v 0.252351 h -0.756343 z m 1.51266,0 h 0.75633 v 0.252351 h -0.75633 z m 1.512646,0 h 0.756331 v 0.252351 h -0.756331 z m 1.512647,0 h 0.756331 v 0.252351 h -0.756331 z m 1.512647,0 h 0.75633 v 0.252351 h -0.75633 z m 1.512661,0 h 0.756316 v 0.252351 h -0.756316 z m 1.512647,0 h 0.75633 v 0.252351 h -0.75633 z m 1.512646,0 h 0.756331 v 0.252351 h -0.756331 z m 1.512647,0 h 0.756332 v 0.252351 h -0.756332 z m 1.512661,0 h 0.756316 v 0.252351 h -0.756316 z m 1.512647,0 h 0.756316 v 0.252351 H 65.4703 Z m 1.512648,0 h 0.756316 v 0.252351 h -0.756316 z m 1.512645,0 h 0.756331 v 0.252351 h -0.756331 z m 1.512661,0 h 0.756318 v 0.252351 h -0.756318 z m 1.512647,0 h 0.756318 v 0.252351 h -0.756318 z m 1.512648,0 h 0.756316 v 0.252351 h -0.756316 z m 1.512647,0 h 0.756316 v 0.252351 h -0.756316 z m 1.512647,0 h 0.756316 v 0.252351 h -0.756316 z m 1.512646,0 h 0.756331 v 0.252351 h -0.756331 z m 1.51266,0 h 0.756318 v 0.252351 h -0.756318 z m 1.512648,0 h 0.756316 v 0.252351 h -0.756316 z m 1.512647,0 v 0.252351 z m -54.455384,0 h 0.756316 v 0.252351 H 27.65406 Z"
       id="path5753"
       style="stroke-width:0.0945798" />
    <path
       style="fill:none;stroke:#000000;stroke-width:0.251625;stroke-dasharray:1.0065, 1.0065;stroke-dashoffset:0"
       d="m 58.187797,19.51302 c 0,54.570313 0,54.570313 0,54.570313"
       id="path2965" />
    <line
       fill="none"
       stroke-width="0.252214"
       stroke-linejoin="round"
       stroke="#000000"
       stroke-opacity="1"
       x1="27.654133"
       y1="55.711845"
       x2="82.109528"
       y2="55.711845"
       id="line5757" />
    <path
       fill="#000000"
       fill-opacity="1"
       stroke-linejoin="round"
       d="m 29.166706,55.585623 h 0.756317 v 0.252351 h -0.756317 z m 1.512647,0 h 0.756316 v 0.252351 h -0.756316 z m 1.512647,0 h 0.75633 v 0.252351 H 32.192 Z m 1.512661,0 h 0.756316 v 0.252351 h -0.756316 z m 1.512647,0 h 0.75633 v 0.252351 h -0.75633 z m 1.512646,0 h 0.756331 v 0.252351 h -0.756331 z m 1.512647,0 h 0.756331 v 0.252351 h -0.756331 z m 1.512647,0 h 0.75633 v 0.252351 h -0.75633 z m 1.512647,0 h 0.75633 v 0.252351 h -0.75633 z m 1.512661,0 h 0.75633 v 0.252351 h -0.75633 z m 1.512646,0 h 0.756331 v 0.252351 h -0.756331 z m 1.512647,0 h 0.756331 v 0.252351 h -0.756331 z m 1.512647,0 h 0.756331 v 0.252351 h -0.756331 z m 1.512647,0 h 0.75633 v 0.252351 h -0.75633 z m 1.512648,0 h 0.756343 v 0.252351 h -0.756343 z m 1.51266,0 h 0.75633 v 0.252351 h -0.75633 z m 1.512646,0 h 0.756331 v 0.252351 h -0.756331 z m 1.512647,0 h 0.756331 v 0.252351 h -0.756331 z m 1.512647,0 h 0.75633 v 0.252351 h -0.75633 z m 1.512661,0 h 0.756316 v 0.252351 h -0.756316 z m 1.512647,0 h 0.75633 v 0.252351 h -0.75633 z m 1.512646,0 h 0.756331 v 0.252351 h -0.756331 z m 1.512647,0 h 0.756332 v 0.252351 h -0.756332 z m 1.512661,0 h 0.756316 v 0.252351 h -0.756316 z m 1.512647,0 h 0.756316 v 0.252351 H 65.4703 Z m 1.512648,0 h 0.756316 v 0.252351 h -0.756316 z m 1.512645,0 h 0.756331 v 0.252351 h -0.756331 z m 1.512661,0 h 0.756318 v 0.252351 h -0.756318 z m 1.512647,0 h 0.756318 v 0.252351 h -0.756318 z m 1.512648,0 h 0.756316 v 0.252351 h -0.756316 z m 1.512647,0 h 0.756316 v 0.252351 h -0.756316 z m 1.512647,0 h 0.756316 v 0.252351 h -0.756316 z m 1.512646,0 h 0.756331 v 0.252351 h -0.756331 z m 1.51266,0 h 0.756318 v 0.252351 h -0.756318 z m 1.512648,0 h 0.756316 v 0.252351 h -0.756316 z m 1.512647,0 v 0.252351 z m -54.455384,0 h 0.756316 v 0.252351 H 27.65406 Z"
       id="path5759"
       style="stroke-width:0.0945798" />
    <text
       xml:space="preserve"
       id="text5763"
       x="22.11446"
       y="38.095921"
       style="font-size:1.13496px;stroke-width:0.0945798"
       transform="scale(0.99958247,1.0004177)">		 <tspan
   style="font-size:2.52214px;font-family:'メイリオ'"
   letter-spacing="0em"
   fill="#000000"
   fill-opacity="1"
   stroke-width="0.018916"
   stroke-linejoin="round"
   id="tspan5761">r0</tspan>	</text>
    <text
       xml:space="preserve"
       id="text5767"
       x="22.11446"
       y="56.255302"
       style="font-size:1.13496px;stroke-width:0.0945798"
       transform="scale(0.99958247,1.0004177)">		 <tspan
   style="font-size:2.52214px;font-family:'メイリオ'"
   letter-spacing="0em"
   fill="#000000"
   fill-opacity="1"
   stroke-width="0.018916"
   stroke-linejoin="round"
   id="tspan5765">r1</tspan>	</text>
    <text
       xml:space="preserve"
       id="text5771"
       x="39.990108"
       y="17.761206"
       style="font-size:1.13496px;stroke-width:0.0945798"
       transform="scale(0.99958247,1.0004177)">		 <tspan
   style="font-size:2.52214px;font-family:'メイリオ'"
   letter-spacing="0em"
   fill="#000000"
   fill-opacity="1"
   stroke-width="0.018916"
   stroke-linejoin="round"
   id="tspan5769">c0</tspan>	</text>
    <text
       xml:space="preserve"
       id="text5775"
       x="55.122944"
       y="17.761206"
       style="font-size:1.13496px;stroke-width:0.0945798"
       transform="scale(0.99958247,1.0004177)">		 <tspan
   style="font-size:2.52214px;font-family:'メイリオ'"
   letter-spacing="0em"
   fill="#000000"
   fill-opacity="1"
   stroke-width="0.018916"
   stroke-linejoin="round"
   id="tspan5773">c1</tspan>	</text>
    <text
       xml:space="preserve"
       id="text5779"
       x="67.229179"
       y="17.761206"
       style="font-size:1.13496px;stroke-width:0.0945798"
       transform="scale(0.99958247,1.0004177)">		 <tspan
   style="font-size:2.52214px;font-family:'メイリオ'"
   letter-spacing="0em"
   fill="#000000"
   fill-opacity="1"
   stroke-width="0.018916"
   stroke-linejoin="round"
   id="tspan5777">cx</tspan>	</text>
    <path
       fill="#ffffff"
       fill-opacity="1"
       stroke-width="0.018916"
       stroke-linejoin="round"
       d="m 42.780556,34.51696 c 1.673367,0 3.025293,1.355614 3.025293,3.027827 0,1.672212 -1.351926,3.027827 -3.025293,3.027827 -1.663924,0 -3.025308,-1.355615 -3.025308,-3.027827 0,-1.672213 1.361384,-3.027827 3.025308,-3.027827 z"
       id="path5787" />
    <path
       fill="#ffffff"
       fill-opacity="1"
       stroke-width="0.018916"
       stroke-linejoin="round"
       d="m 42.780556,52.684018 c 1.673367,0 3.025293,1.355522 3.025293,3.027827 0,1.672214 -1.351926,3.027829 -3.025293,3.027829 -1.663924,0 -3.025308,-1.355615 -3.025308,-3.027829 0,-1.672305 1.361384,-3.027827 3.025308,-3.027827 z"
       id="path5789" />
    <path
       fill="#ffffff"
       fill-opacity="1"
       stroke-width="0.018916"
       stroke-linejoin="round"
       d="m 57.907052,34.517055 c 1.673367,0 3.025293,1.355519 3.025293,3.027827 0,1.672212 -1.351926,3.027827 -3.025293,3.027827 -1.663924,0 -3.025308,-1.355615 -3.025308,-3.027827 0,-1.672308 1.361384,-3.027827 3.025308,-3.027827 z"
       id="path5791" />
    <path
       fill="#ffffff"
       fill-opacity="1"
       stroke-width="0.018916"
       stroke-linejoin="round"
       d="m 57.907052,52.684018 c 1.673367,0 3.025293,1.355522 3.025293,3.027827 0,1.672214 -1.351926,3.027829 -3.025293,3.027829 -1.663924,0 -3.025308,-1.355615 -3.025308,-3.027829 0,-1.672305 1.361384,-3.027827 3.025308,-3.027827 z"
       id="path5793" />
    <path
       fill="#ffffff"
       fill-opacity="1"
       stroke-width="0.018916"
       stroke-linejoin="round"
       d="m 70.008254,34.517055 c 1.673367,0 3.025295,1.355519 3.025295,3.027827 0,1.672212 -1.351928,3.027827 -3.025295,3.027827 -1.663923,0 -3.025306,-1.355615 -3.025306,-3.027827 0,-1.672308 1.361383,-3.027827 3.025306,-3.027827 z"
       id="path5795" />
    <text
       xml:space="preserve"
       id="text5799"
       x="40.179268"
       y="39.041721"
       style="font-size:1.13496px;stroke-width:0.0945798"
       transform="scale(0.99958247,1.0004177)">		 <tspan
   style="font-size:3.7832px;font-family:'メイリオ'"
   letter-spacing="0em"
   fill="#000000"
   fill-opacity="1"
   stroke-width="0.018916"
   stroke-linejoin="round"
   id="tspan5797">X</tspan>	</text>
    <text
       xml:space="preserve"
       id="text5803"
       x="55.312107"
       y="39.041721"
       style="font-size:1.13496px;stroke-width:0.0945798"
       transform="scale(0.99958247,1.0004177)">		 <tspan
   style="font-size:3.7832px;font-family:'メイリオ'"
   letter-spacing="0em"
   fill="#000000"
   fill-opacity="1"
   stroke-width="0.018916"
   stroke-linejoin="round"
   id="tspan5801">X</tspan>	</text>
    <path
       fill="#ffffff"
       fill-opacity="1"
       stroke-width="0.252214"
       stroke-linejoin="round"
       stroke="#000000"
       stroke-opacity="1"
       d="m 70.145398,34.517055 c 1.673367,0 3.025294,1.355519 3.025294,3.027827 0,1.672212 -1.351927,3.027827 -3.025294,3.027827 -1.663923,0 -3.025307,-1.355615 -3.025307,-3.027827 0,-1.672308 1.361384,-3.027827 3.025307,-3.027827 z"
       id="path5805" />
    <text
       xml:space="preserve"
       id="text5809"
       x="67.418343"
       y="39.041721"
       style="font-size:1.13496px;stroke-width:0.0945798"
       transform="scale(0.99958247,1.0004177)">		 <tspan
   style="font-size:3.7832px;font-family:'メイリオ'"
   letter-spacing="0em"
   fill="#000000"
   fill-opacity="1"
   stroke-width="0.018916"
   stroke-linejoin="round"
   id="tspan5807">X</tspan>	</text>
    <text
       xml:space="preserve"
       id="text5813"
       x="40.179268"
       y="57.201096"
       style="font-size:1.13496px;stroke-width:0.0945798"
       transform="scale(0.99958247,1.0004177)">		 <tspan
   style="font-size:3.7832px;font-family:'メイリオ'"
   letter-spacing="0em"
   fill="#000000"
   fill-opacity="1"
   stroke-width="0.018916"
   stroke-linejoin="round"
   id="tspan5811">X</tspan>	</text>
    <text
       xml:space="preserve"
       id="text5817"
       x="55.312107"
       y="57.201096"
       style="font-size:1.13496px;stroke-width:0.0945798"
       transform="scale(0.99958247,1.0004177)">		 <tspan
   style="font-size:3.7832px;font-family:'メイリオ'"
   letter-spacing="0em"
   fill="#000000"
   fill-opacity="1"
   stroke-width="0.018916"
   stroke-linejoin="round"
   id="tspan5815">X</tspan>	</text>
    <line
       fill="none"
       stroke-width="0.133155"
       stroke-linejoin="round"
       stroke="#000000"
       stroke-opacity="1"
       x1="216.88741"
       y1="127.13024"
       x2="231.88741"
       y2="127.13024"
       id="line529" />
    <text
       xml:space="preserve"
       id="text533"
       x="231.95287"
       y="128.48817"
       style="font-size:1.14893px;stroke-width:0.0957443">		 <tspan
   style="font-size:4.59575px;font-family:'メイリオ'"
   letter-spacing="0em"
   fill="#000000"
   fill-opacity="1"
   stroke-width="0.0191489"
   stroke-linejoin="round"
   id="tspan531">Base Set</tspan>	</text>
    <line
       fill="none"
       stroke-width="0.133155"
       stroke-linejoin="round"
       stroke="#000000"
       stroke-opacity="1"
       x1="217.032"
       y1="135.04413"
       x2="232.032"
       y2="135.04413"
       id="line637"
       style="stroke-dasharray:0.53262, 0.53262;stroke-dashoffset:0" />
    <text
       xml:space="preserve"
       id="text641"
       x="232.09746"
       y="136.36865"
       style="font-size:1.14893px;stroke-width:0.0957443">		 <tspan
   style="font-size:4.59575px;font-family:'メイリオ'"
   letter-spacing="0em"
   fill="#000000"
   fill-opacity="1"
   stroke-width="0.0191489"
   stroke-linejoin="round"
   id="tspan639">Cover Set</tspan>	</text>
    <text
       xml:space="preserve"
       transform="scale(0.26458333)"
       id="text1199"
       style="fill:none;-inkscape-font-specification:'sans-serif, Normal';font-family:sans-serif;font-size:16px;paint-order:fill markers stroke;stroke-linecap:square;stroke-width:0.75590551;line-height:0.9;opacity:0.8;stroke-dashoffset:0;stroke-miterlimit:3;stroke:#000000;stroke-dasharray:2.01305202, 2.01305202;white-space:pre;shape-inside:url(#rect1201)"
       inkscape:export-filename="img35a.png"
       inkscape:export-xdpi="96"
       inkscape:export-ydpi="96" />
    <text
       xml:space="preserve"
       transform="scale(0.26458333)"
       id="text1205"
       style="fill:none;-inkscape-font-specification:'sans-serif, Normal';font-family:sans-serif;font-size:16px;paint-order:fill markers stroke;stroke-linecap:square;stroke-width:0.75590551;line-height:0.9;opacity:0.8;stroke-dashoffset:0;stroke-miterlimit:3;stroke:#000000;stroke-dasharray:2.01305202, 2.01305202;white-space:pre;shape-inside:url(#rect1207)"
       inkscape:export-filename="text1205.png"
       inkscape:export-xdpi="96"
       inkscape:export-ydpi="96" />
  </g>
</svg>
