<?xml version="1.0" encoding="UTF-8" standalone="no"?>
<!-- Created with Inkscape (http://www.inkscape.org/) -->

<svg
   width="297mm"
   height="210mm"
   viewBox="0 0 297 210"
   version="1.1"
   id="svg6655"
   inkscape:version="1.2.2 (732a01da63, 2022-12-09)"
   sodipodi:docname="image40.svg"
   xmlns:inkscape="http://www.inkscape.org/namespaces/inkscape"
   xmlns:sodipodi="http://sodipodi.sourceforge.net/DTD/sodipodi-0.dtd"
   xmlns="http://www.w3.org/2000/svg"
   xmlns:svg="http://www.w3.org/2000/svg">
  <sodipodi:namedview
     id="namedview6657"
     pagecolor="#ffffff"
     bordercolor="#000000"
     borderopacity="0.25"
     inkscape:showpageshadow="2"
     inkscape:pageopacity="0.0"
     inkscape:pagecheckerboard="0"
     inkscape:deskcolor="#d1d1d1"
     inkscape:document-units="mm"
     showgrid="false"
     inkscape:zoom="1.2938725"
     inkscape:cx="382.95891"
     inkscape:cy="319.58327"
     inkscape:window-width="1984"
     inkscape:window-height="1230"
     inkscape:window-x="1983"
     inkscape:window-y="290"
     inkscape:window-maximized="0"
     inkscape:current-layer="layer1" />
  <defs
     id="defs6652" />
  <g
     inkscape:label="Layer 1"
     inkscape:groupmode="layer"
     id="layer1">
    <rect
       x="59.21249"
       y="39.849979"
       fill="#ffffff"
       fill-opacity="1"
       stroke-width="0.295089"
       stroke-linejoin="round"
       stroke="#000000"
       stroke-opacity="1"
       width="63.73909"
       height="63.73909"
       id="rect2570" />
    <rect
       x="69.83567"
       y="46.932106"
       fill="#ffffff"
       fill-opacity="1"
       stroke-width="0.295089"
       stroke-linejoin="round"
       stroke="#000000"
       stroke-opacity="1"
       width="10.623292"
       height="31.869545"
       id="rect2572" />
    <line
       fill="none"
       stroke-width="0.295089"
       stroke-linejoin="round"
       stroke="#000000"
       stroke-opacity="1"
       x1="76.917778"
       y1="52.498238"
       x2="94.623093"
       y2="52.498238"
       id="line2574" />
    <line
       fill="none"
       stroke-width="0.295089"
       stroke-linejoin="round"
       stroke="#000000"
       stroke-opacity="1"
       x1="77.581741"
       y1="73.822029"
       x2="102.36916"
       y2="73.822029"
       id="line2576" />
    <rect
       x="137.11581"
       y="39.849979"
       fill="#ffffff"
       fill-opacity="1"
       stroke-width="0.295089"
       stroke-linejoin="round"
       stroke="#000000"
       stroke-opacity="1"
       width="63.73909"
       height="63.73909"
       id="rect2578" />
    <rect
       x="147.739"
       y="46.932106"
       fill="#ffffff"
       fill-opacity="1"
       stroke-width="0.295089"
       stroke-linejoin="round"
       stroke="#000000"
       stroke-opacity="1"
       width="10.623292"
       height="31.869545"
       id="rect2580" />
    <rect
       x="168.98537"
       y="46.932106"
       fill="#ffffff"
       fill-opacity="1"
       stroke-width="0.295089"
       stroke-linejoin="round"
       stroke="#000000"
       stroke-opacity="1"
       width="17.705303"
       height="17.705303"
       id="rect2582" />
    <path
       fill="#000000"
       fill-opacity="1"
       stroke-linejoin="round"
       d="m 172.52648,46.783871 h 1.77053 v 0.295457 h -1.77053 z m 3.54106,0 h 1.77053 v 0.295457 h -1.77053 z m 3.54106,0 h 1.77053 v 0.295457 h -1.77053 z m 3.54106,0 h 1.77053 v 0.295457 h -1.77053 z m 3.54106,0 0.0221,0.0011 0.0111,0.0022 0.0111,0.0033 0.0111,0.0055 0.0221,0.0055 0.011,0.0077 0.0111,0.0089 0.0111,0.0089 0.0111,0.01107 v 0.01217 l 0.0111,0.01217 0.0111,0.01328 v 0.01328 0.01439 l 0.011,0.01439 v 0.01439 1.77053 h -0.29877 v -1.77053 l 0.14386,0.147175 z m 0.15492,3.689343 v 1.77053 h -0.29878 v -1.77053 z m 0,3.54106 v 1.770531 h -0.29878 v -1.770531 z m 0,3.541061 v 1.770529 h -0.29878 v -1.770529 z m 0,3.541062 v 1.770528 h -0.29878 v -1.770528 z m -0.15492,3.688233 h -1.77053 v -0.295454 h 1.77053 z m -3.54106,0 h -1.77053 v -0.295454 h 1.77053 z m -3.54106,0 h -1.77053 v -0.295454 h 1.77053 z m -3.54106,0 h -1.77053 v -0.295454 h 1.77053 z m -3.54106,0 h -1.77054 v -0.295454 h 1.77054 z m -3.68492,-0.147173 v -1.770532 h 0.29878 v 1.770532 z m 0,-3.54106 v -1.770533 h 0.29878 v 1.770533 z m 0,-3.541062 v -1.77053 h 0.29878 v 1.77053 z m 0,-3.541061 v -1.77053 h 0.29878 v 1.77053 z m 0,-3.54106 v -1.770531 h 0.29878 v 1.770531 z m 0.14386,-3.689343 h 1.77052 v 0.295457 h -1.77052 z"
       id="path2584"
       style="stroke-width:0.110658" />
    <line
       fill="none"
       stroke-width="0.295089"
       stroke-linejoin="round"
       stroke="#000000"
       stroke-opacity="1"
       x1="154.82112"
       y1="52.498238"
       x2="172.52643"
       y2="52.498238"
       id="line2586" />
    <line
       fill="none"
       stroke-width="0.295089"
       stroke-linejoin="round"
       stroke="#000000"
       stroke-opacity="1"
       x1="155.48508"
       y1="73.822029"
       x2="180.27249"
       y2="73.822029"
       id="line2588" />
    <line
       fill="none"
       stroke-width="0.295089"
       stroke-linejoin="round"
       stroke="#000000"
       stroke-opacity="1"
       x1="181.26842"
       y1="43.391041"
       x2="181.26842"
       y2="85.883774"
       id="line2590" />
    <path
       fill="#000000"
       fill-opacity="1"
       stroke-linejoin="round"
       d="m 181.42339,46.932153 v 1.77053 h -0.29878 v -1.77053 z m 0,3.541061 v 1.77053 h -0.29878 v -1.77053 z m 0,3.54106 v 1.770531 h -0.29878 v -1.770531 z m 0,3.541061 v 1.770529 h -0.29878 v -1.770529 z m 0,3.541062 v 1.770528 h -0.29878 v -1.770528 z m 0,3.54106 v 1.770528 h -0.29878 v -1.770528 z m 0,3.54106 v 1.770529 h -0.29878 v -1.770529 z m 0,3.541061 v 1.770528 h -0.29878 v -1.770528 z m 0,3.54106 v 1.770528 h -0.29878 v -1.770528 z m 0,3.541061 v 1.770528 h -0.29878 v -1.770528 z m 0,3.54106 v 1.770532 h -0.29878 v -1.770532 z m 0,3.541062 h -0.29878 z m 0,-42.492728 v 1.77053 h -0.29878 v -1.77053 z"
       id="path2592"
       style="stroke-width:0.110658" />
    <text
       xml:space="preserve"
       id="text2596"
       x="73.343552"
       y="54.013145"
       style="font-size:1.3279px;stroke-width:0.110658"><tspan
   style="font-size:5.3116px;font-family:'メイリオ'"
   letter-spacing="0em"
   fill="#000000"
   fill-opacity="1"
   stroke-width="0.0221316"
   stroke-linejoin="round"
   id="tspan2594">x</tspan>	</text>
    <text
       xml:space="preserve"
       id="text2600"
       x="151.24689"
       y="54.013145"
       style="font-size:1.3279px;stroke-width:0.110658"><tspan
   style="font-size:5.3116px;font-family:'メイリオ'"
   letter-spacing="0em"
   fill="#000000"
   fill-opacity="1"
   stroke-width="0.0221316"
   stroke-linejoin="round"
   id="tspan2598">x</tspan>	</text>
    <text
       xml:space="preserve"
       id="text2604"
       x="94.589912"
       y="54.013145"
       style="font-size:1.3279px;stroke-width:0.110658">	<tspan
   style="font-size:5.3116px;font-family:'メイリオ'"
   letter-spacing="0em"
   fill="#000000"
   fill-opacity="1"
   stroke-width="0.0221316"
   stroke-linejoin="round"
   id="tspan2602">x</tspan>	</text>
    <text
       xml:space="preserve"
       id="text2608"
       x="73.343552"
       y="75.259506"
       style="font-size:1.3279px;stroke-width:0.110658"><tspan
   style="font-size:5.3116px;font-family:'メイリオ'"
   letter-spacing="0em"
   fill="#000000"
   fill-opacity="1"
   stroke-width="0.0221316"
   stroke-linejoin="round"
   id="tspan2606">x</tspan>	</text>
    <text
       xml:space="preserve"
       id="text2612"
       x="103.25954"
       y="75.259506"
       style="font-size:1.3279px;stroke-width:0.110658"><tspan
   style="font-size:5.3116px;font-family:'メイリオ'"
   letter-spacing="0em"
   fill="#000000"
   fill-opacity="1"
   stroke-width="0.0221316"
   stroke-linejoin="round"
   id="tspan2610">x</tspan>	</text>
    <text
       xml:space="preserve"
       id="text2616"
       x="172.49326"
       y="54.013145"
       style="font-size:1.3279px;stroke-width:0.110658"><tspan
   style="font-size:5.3116px;font-family:'メイリオ'"
   letter-spacing="0em"
   fill="#000000"
   fill-opacity="1"
   stroke-width="0.0221316"
   stroke-linejoin="round"
   id="tspan2614">x</tspan>	</text>
    <text
       xml:space="preserve"
       id="text2620"
       x="151.24689"
       y="75.259506"
       style="font-size:1.3279px;stroke-width:0.110658"><tspan
   style="font-size:5.3116px;font-family:'メイリオ'"
   letter-spacing="0em"
   fill="#000000"
   fill-opacity="1"
   stroke-width="0.0221316"
   stroke-linejoin="round"
   id="tspan2618">x</tspan>	</text>
    <rect
       x="179.60855"
       y="71.719528"
       fill="#ffffff"
       fill-opacity="1"
       stroke-width="0.295089"
       stroke-linejoin="round"
       stroke="#ffffff"
       stroke-opacity="1"
       width="3.5410604"
       height="3.5410604"
       id="rect2622" />
    <text
       xml:space="preserve"
       id="text2626"
       x="179.57538"
       y="75.259506"
       style="font-size:1.3279px;stroke-width:0.110658"><tspan
   style="font-size:5.3116px;font-family:'メイリオ'"
   letter-spacing="0em"
   fill="#000000"
   fill-opacity="1"
   stroke-width="0.0221316"
   stroke-linejoin="round"
   id="tspan2624">x</tspan>	</text>
    <rect
       x="179.60855"
       y="57.555283"
       fill="#ffffff"
       fill-opacity="1"
       stroke-width="0.295089"
       stroke-linejoin="round"
       stroke="#ffffff"
       stroke-opacity="1"
       width="3.5410604"
       height="3.5410604"
       id="rect2628" />
    <path
       fill="#ffffff"
       fill-opacity="1"
       stroke-width="0.590177"
       stroke-linejoin="round"
       stroke="#000000"
       stroke-opacity="1"
       d="m 181.31273,57.555335 -1.51601,2.620385 h 3.02096 z"
       id="path2630" />
  </g>
</svg>
